<?xml version="1.0" standalone="no"?>
<!DOCTYPE svg PUBLIC "-//W3C//DTD SVG 1.1//EN" "http://www.w3.org/Graphics/SVG/1.1/DTD/svg11.dtd" >
<svg xmlns="http://www.w3.org/2000/svg" xmlns:xlink="http://www.w3.org/1999/xlink" version="1.1">
<metadata>
Created by FontForge 20170731 at Fri Dec 22 01:02:07 2017
 By Aleksey,,,
Copyright (c) 2016 by Rene' Bieder. All rights reserved.
</metadata>
<defs>
<font id="Campton-SemiBoldItalic" horiz-adv-x="600" >
  <font-face 
    font-family="Campton SemiBold"
    font-weight="600"
    font-style="italic"
    font-stretch="normal"
    units-per-em="1000"
    panose-1="2 11 0 4 2 1 2 2 2 3"
    ascent="770"
    descent="-230"
    x-height="477"
    cap-height="680"
    bbox="-389 -251 1493 978"
    underline-thickness="50"
    underline-position="-200"
    slope="-10"
    unicode-range="U+0020-FB02"
  />
<missing-glyph horiz-adv-x="870" 
d="M100 680h670v-680h-670v680zM700 129v481h-481zM170 547v-477h477z" />
    <glyph glyph-name="fi" unicode="fi" horiz-adv-x="707" 
d="M686 477l-84 -477h-131l65 367h-248l-64 -367h-131l64 367h-132l20 110h131l6 33q16 95 82 153.5t157 58.5q59 0 111 -16l-35 -119q-32 14 -72 14q-43 0 -73.5 -25t-38.5 -66l-6 -33h379z" />
    <glyph glyph-name="fl" unicode="fl" horiz-adv-x="708" 
d="M597 710h131l-126 -710h-131l65 367h-248l-64 -367h-131l64 367h-132l20 110h131l6 33q16 95 82 153.5t157 58.5q59 0 111 -16l-35 -119q-32 14 -72 14q-43 0 -73.5 -25t-38.5 -66l-6 -33h249z" />
    <glyph glyph-name=".notdef" horiz-adv-x="870" 
d="M100 680h670v-680h-670v680zM700 129v481h-481zM170 547v-477h477z" />
    <glyph glyph-name=".null" horiz-adv-x="0" 
 />
    <glyph glyph-name="nonmarkingreturn" horiz-adv-x="333" 
 />
    <glyph glyph-name="space" unicode=" " horiz-adv-x="260" 
 />
    <glyph glyph-name="exclam" unicode="!" horiz-adv-x="287" 
d="M292 680l-92 -462h-116l70 462h138zM113 -6q-33 0 -56 22t-23 55q0 32 23 54t56 22t56.5 -22t23.5 -54q0 -33 -23.5 -55t-56.5 -22z" />
    <glyph glyph-name="quotedbl" unicode="&#x22;" horiz-adv-x="375" 
d="M120 720h111l-49 -279h-111zM314 720h111l-49 -279h-111z" />
    <glyph glyph-name="numbersign" unicode="#" horiz-adv-x="770" 
d="M623 379l-47 -97h110l-21 -119h-148l-79 -163h-136l79 163h-139l-79 -163h-136l79 163h-96l21 119h134l47 97h-108l21 119h145l90 183h136l-90 -183h139l90 183h136l-90 -183h99l-21 -119h-136zM487 379h-139l-47 -97h139z" />
    <glyph glyph-name="dollar" unicode="$" horiz-adv-x="670" 
d="M652 473h-135q2 50 -26 77.5t-90 27.5q-63 0 -102 -26.5t-39 -73.5q0 -29 22 -45.5t66 -25.5l77 -16q89 -19 134 -56.5t45 -103.5q0 -101 -75.5 -167.5t-196.5 -76.5l-18 -104h-118l20 111q-90 20 -136 80t-36 150h135q-1 -60 34.5 -88.5t112.5 -28.5q62 0 97.5 23.5
t35.5 63.5q0 46 -78 64l-107 24q-86 19 -126 62t-36 120q5 93 68.5 150t157.5 74l19 111h118l-19 -106q42 -5 77 -18.5t64.5 -38.5t44.5 -66.5t10 -96.5z" />
    <glyph glyph-name="percent" unicode="%" horiz-adv-x="1086" 
d="M330 695q75 0 122 -45t47 -119q0 -98 -70.5 -163t-167.5 -65q-75 0 -121.5 45t-46.5 120q0 98 70 162.5t167 64.5zM824 680l-465 -680h-91l465 680h91zM278 396q48 0 84.5 34t36.5 86q0 39 -24 62.5t-61 23.5q-49 0 -85.5 -34t-36.5 -85q0 -39 24 -63t62 -24zM844 377
q76 0 122.5 -45t46.5 -119q0 -98 -70 -163t-168 -65q-75 0 -121.5 45t-46.5 120q0 98 70.5 162.5t166.5 64.5zM792 78q49 0 85.5 34t36.5 86q0 39 -24 62.5t-62 23.5q-48 0 -84.5 -34t-36.5 -85q0 -39 24 -63t61 -24z" />
    <glyph glyph-name="ampersand" unicode="&#x26;" horiz-adv-x="721" 
d="M554 154l-12 -14l123 -140h-172l-46 52q-96 -67 -206 -67q-102 0 -161.5 50t-59.5 132q0 69 40.5 125.5t110.5 88.5q-27 48 -27 93q0 94 75.5 157.5t178.5 63.5q91 0 137.5 -55t41.5 -147h-132q1 40 -16.5 62.5t-51.5 22.5q-39 0 -67.5 -26.5t-28.5 -66.5q0 -32 22 -65
t78 -96l90 -103l108 134h137zM262 101q54 0 112 33l-119 135q-14 16 -22 26q-39 -18 -61 -46t-22 -60q0 -37 32 -62.5t80 -25.5z" />
    <glyph glyph-name="quotesingle" unicode="'" horiz-adv-x="182" 
d="M121 720h111l-50 -279h-111z" />
    <glyph glyph-name="parenleft" unicode="(" horiz-adv-x="396" 
d="M431 643q-108 -96 -162 -167.5t-72 -174.5q-18 -107 7.5 -185.5t92.5 -166.5l-100 -85q-87 90 -121.5 205.5t-11.5 241.5q42 241 287 427z" />
    <glyph glyph-name="parenright" unicode=")" horiz-adv-x="394" 
d="M220 738q87 -90 121.5 -205.5t11.5 -241.5q-42 -241 -287 -427l-80 95q108 96 162 167.5t72 174.5q18 107 -7.5 185.5t-92.5 166.5z" />
    <glyph glyph-name="asterisk" unicode="*" horiz-adv-x="409" 
d="M304 574l108 25l19 -70l-103 -25l68 -68l-53 -53l-68 68l-26 -103l-70 19l26 107l-107 -26l-21 71l104 25l-68 68l53 53l68 -68l25 104l72 -20z" />
    <glyph glyph-name="plus" unicode="+" horiz-adv-x="684" 
d="M588 272h-179l-30 -171h-125l30 171h-179l21 121h179l30 171h125l-30 -171h179z" />
    <glyph glyph-name="comma" unicode="," horiz-adv-x="217" 
d="M-21 -95l68 102q-47 19 -47 64q0 31 23 53t55 22q33 0 56 -22t23 -53q0 -39 -45 -96l-55 -70h-78z" />
    <glyph glyph-name="hyphen" unicode="-" horiz-adv-x="552" 
d="M92 199h349l23 121h-349z" />
    <glyph glyph-name="period" unicode="." horiz-adv-x="219" 
d="M79 -5q-33 0 -56 22t-23 55q0 32 23 54t56 22t56.5 -22t23.5 -54q0 -33 -23.5 -55t-56.5 -22z" />
    <glyph glyph-name="slash" unicode="/" horiz-adv-x="406" 
d="M479 730l-406 -890h-126l406 890h126z" />
    <glyph glyph-name="zero" unicode="0" horiz-adv-x="723" 
d="M443 692q121 0 186 -78t65 -210q0 -113 -46.5 -207.5t-133.5 -151.5t-197 -57q-121 0 -186.5 78.5t-65.5 210.5q0 173 106 294t272 121zM339 111q100 0 158 85.5t58 207.5q0 73 -34 119t-100 46q-101 0 -159 -85t-58 -207q0 -74 34 -120t101 -46z" />
    <glyph glyph-name="one" unicode="1" horiz-adv-x="519" 
d="M313 111h164l-20 -111h-474l20 111h174l75 425l-175 -51l20 115l238 80h78z" />
    <glyph glyph-name="two" unicode="2" horiz-adv-x="561" 
d="M382 269l-166 -158h264l-20 -111h-459l12 70l262 254q53 52 73 73t38.5 51.5t18.5 57.5q0 30 -19.5 49.5t-61.5 19.5q-49 0 -82 -26.5t-45 -75.5h-132q21 100 93.5 159.5t181.5 59.5q97 0 150 -49t53 -123q0 -61 -33 -110.5t-128 -140.5z" />
    <glyph glyph-name="three" unicode="3" horiz-adv-x="574" 
d="M447 341q68 -40 68 -121q0 -106 -71 -169t-196 -63q-101 0 -163 54.5t-60 144.5h132q8 -83 101 -83q55 0 91.5 28.5t36.5 71.5q0 37 -29.5 58t-80.5 21h-52l19 109h52l-3 -16l3 16q52 0 86 30.5t34 77.5q0 35 -21 55t-57 20q-87 0 -112 -86h-132q23 93 92.5 147.5
t172.5 54.5q86 0 136 -48t50 -125q0 -118 -97 -177z" />
    <glyph glyph-name="four" unicode="4" horiz-adv-x="638" 
d="M608 250l-20 -116h-89l-24 -134h-131l24 134h-348l15 84l272 462h138l-248 -430h191l35 197h131l-35 -197h89z" />
    <glyph glyph-name="five" unicode="5" horiz-adv-x="592" 
d="M568 559h-312l-28 -121h110q93 0 147.5 -51.5t54.5 -133.5q0 -111 -83.5 -188t-206.5 -77q-108 0 -164 53t-54 146h132q11 -83 107 -83q58 0 98.5 37t40.5 90q0 41 -29 66t-80 25h-225l83 358h431z" />
    <glyph glyph-name="six" unicode="6" horiz-adv-x="608" 
d="M346 466q102 -1 163 -57.5t61 -145.5q0 -116 -88 -195.5t-223 -79.5q-103 0 -164 58t-61 146q0 53 22 96t75 109l229 283h158zM278 97q65 0 111 42.5t46 99.5q0 45 -30.5 76.5t-81.5 31.5q-52 0 -93 -26q-40 -44 -52 -66.5t-12 -52.5q0 -44 31 -74.5t81 -30.5z" />
    <glyph glyph-name="seven" unicode="7" horiz-adv-x="504" 
d="M94 680h475l-14 -82l-379 -598h-160l352 553h-296z" />
    <glyph glyph-name="eight" unicode="8" horiz-adv-x="617" 
d="M491 357q81 -46 81 -137q0 -101 -85.5 -166.5t-223.5 -65.5q-110 0 -172 48t-62 127q0 66 36.5 117t102.5 80q-58 42 -58 115q0 94 80 155.5t199 61.5q95 0 152 -45t57 -119q0 -114 -107 -171zM370 586q-54 0 -90.5 -31t-36.5 -76q0 -36 25.5 -60t67.5 -24q53 0 90 33.5
t37 77.5q0 35 -25 57.5t-68 22.5zM283 100q58 0 99 33.5t41 80.5q0 38 -29 63t-75 25q-58 0 -98 -33.5t-40 -81.5q0 -38 28 -62.5t74 -24.5z" />
    <glyph glyph-name="nine" unicode="9" horiz-adv-x="609" 
d="M386 692q103 0 164 -58t61 -146q0 -53 -22 -96t-75 -109l-229 -283h-158l172 214q-102 1 -163 57.5t-61 145.5q0 116 88 195.5t223 79.5zM322 333q52 0 93 26q40 44 52 66.5t12 52.5q0 44 -31 74.5t-81 30.5q-65 0 -111 -42.5t-46 -99.5q0 -45 30.5 -76.5t81.5 -31.5z
" />
    <glyph glyph-name="colon" unicode=":" horiz-adv-x="223" 
d="M138 333q-33 0 -56 22t-23 55q0 32 23 54t56 22t56.5 -22t23.5 -54q0 -33 -23.5 -55t-56.5 -22zM83 -5q-33 0 -56 22t-23 55q0 32 23 54t56 22t56.5 -22t23.5 -54q0 -33 -23.5 -55t-56.5 -22z" />
    <glyph glyph-name="semicolon" unicode=";" horiz-adv-x="219" 
d="M138 333q-33 0 -56 22t-23 55q0 32 23 54t56 22t56.5 -22t23.5 -54q0 -33 -23.5 -55t-56.5 -22zM-19 -95l68 102q-47 19 -47 64q0 31 23 53t55 22q33 0 56 -22t23 -53q0 -39 -45 -96l-55 -70h-78z" />
    <glyph glyph-name="less" unicode="&#x3c;" horiz-adv-x="537" 
d="M45 240l23 131l455 190l-23 -138l-298 -125l254 -121l-23 -127z" />
    <glyph glyph-name="equal" unicode="=" horiz-adv-x="683" 
d="M624 483l-21 -121h-482l21 121h482zM589 283l-21 -121h-482l21 121h482z" />
    <glyph glyph-name="greater" unicode="&#x3e;" horiz-adv-x="538" 
d="M516 371l-23 -131l-455 -190l23 138l298 125l-254 121l23 127z" />
    <glyph glyph-name="question" unicode="?" horiz-adv-x="523" 
d="M330 691q94 0 149 -50.5t55 -135.5q0 -92 -64 -151.5t-167 -70.5l-18 -70h-102l18 159h72q54 0 93 33t39 86q0 39 -23 61.5t-63 22.5q-41 0 -73.5 -23.5t-44.5 -62.5h-132q23 93 93 147.5t168 54.5zM205 147q33 0 56.5 -22t23.5 -54q0 -33 -23.5 -55t-56.5 -22t-56 22
t-23 55q0 32 23 54t56 22z" />
    <glyph glyph-name="at" unicode="@" horiz-adv-x="988" 
d="M577 670q165 0 265.5 -98t100.5 -256q0 -123 -54 -206t-165 -83q-104 0 -134 66q-70 -65 -160 -65q-77 0 -124 50.5t-47 126.5q0 99 73 171.5t172 72.5q69 0 113 -38l5 29h116l-41 -231q-14 -85 44 -85q55 0 80.5 49t25.5 127q0 124 -79 201.5t-207 77.5
q-165 0 -290.5 -114.5t-125.5 -272.5q0 -124 82.5 -206t207.5 -82q122 0 228 72l38 -79q-128 -84 -280 -84q-163 0 -268.5 103t-105.5 262q0 134 74.5 248t196 179t259.5 65zM467 132q65 0 113 60q2 22 6 44l9 52q-27 59 -90 59q-47 0 -86.5 -35t-39.5 -90q0 -41 25.5 -65.5
t62.5 -24.5z" />
    <glyph glyph-name="A" unicode="A" horiz-adv-x="752" 
d="M545 0l-32 136h-309l-80 -136h-150l416 684h127l173 -684h-145zM279 262h204l-58 247z" />
    <glyph glyph-name="B" unicode="B" horiz-adv-x="688" 
d="M531 351q50 -11 74.5 -47.5t24.5 -86.5q0 -97 -77.5 -157t-202.5 -60h-322l120 680h297q97 0 154 -40.5t57 -110.5q0 -59 -35.5 -109.5t-89.5 -68.5zM418 560h-155l-29 -162h155q63 0 98.5 26.5t35.5 70.5q0 65 -105 65zM365 120q63 0 97.5 27.5t34.5 65.5q0 63 -99 63
h-185l-28 -156h180z" />
    <glyph glyph-name="C" unicode="C" horiz-adv-x="789" 
d="M385 119q64 0 127 42t92 111h140q-46 -130 -149.5 -207t-232.5 -77q-149 0 -234.5 99t-58.5 253q27 153 147.5 252.5t270.5 99.5q129 0 205 -77t76 -207h-140q-5 75 -47.5 114t-117.5 39q-97 0 -168 -61.5t-88 -159.5q-17 -100 33 -160.5t145 -60.5z" />
    <glyph glyph-name="D" unicode="D" horiz-adv-x="748" 
d="M409 680q138 0 224 -81.5t86 -206.5q0 -107 -59 -197.5t-158 -142.5t-213 -52h-261l120 680h261zM318 126q105 0 184 73t79 173q0 78 -52 130t-135 52h-132l-76 -428h132z" />
    <glyph glyph-name="E" unicode="E" horiz-adv-x="625" 
d="M626 554h-364l-28 -156h324l-22 -126h-324l-26 -146h364l-22 -126h-500l120 680h500z" />
    <glyph glyph-name="F" unicode="F" horiz-adv-x="602" 
d="M619 554h-357l-31 -175h312l-22 -126h-312l-45 -253h-136l120 680h493z" />
    <glyph glyph-name="G" unicode="G" horiz-adv-x="820" 
d="M398 252l22 126h354l-67 -378h-106l9 97q-98 -109 -249 -109q-152 0 -235 100t-59 242q29 159 150.5 260.5t273.5 101.5q117 0 197.5 -63.5t88.5 -185.5h-136q-8 51 -36.5 80t-58.5 36.5t-72 7.5q-98 0 -173.5 -65t-94.5 -172q-15 -88 33 -149t145 -61q72 0 128 35.5
t88 96.5h-202z" />
    <glyph glyph-name="H" unicode="H" horiz-adv-x="726" 
d="M598 680h136l-120 -680h-136l47 269h-314l-47 -269h-136l120 680h136l-50 -285h314z" />
    <glyph glyph-name="I" unicode="I" horiz-adv-x="276" 
d="M284 680l-120 -680h-136l120 680h136z" />
    <glyph glyph-name="J" unicode="J" horiz-adv-x="608" 
d="M626 680l-75 -424q-24 -134 -102.5 -201t-196.5 -67q-109 0 -177.5 66t-54.5 170h138q-7 -51 22 -80t88 -29q55 0 94.5 39t51.5 106l74 420h138z" />
    <glyph glyph-name="K" unicode="K" horiz-adv-x="716" 
d="M752 680l-319 -299l227 -381h-171l-167 277l-131 -124l-27 -153h-136l120 680h136l-56 -319l341 319h183z" />
    <glyph glyph-name="L" unicode="L" horiz-adv-x="597" 
d="M186 123h351l-22 -123h-487l120 680h136z" />
    <glyph glyph-name="M" unicode="M" horiz-adv-x="848" 
d="M856 680l-120 -680h-137l66 371l-224 -271h-82v1l-128 282l-66 -383h-137l120 680h96l183 -406l333 406h96z" />
    <glyph glyph-name="N" unicode="N" horiz-adv-x="749" 
d="M621 680h136l-120 -680h-105l-292 433l-76 -433h-136l120 680h83l310 -453z" />
    <glyph glyph-name="O" unicode="O" horiz-adv-x="814" 
d="M483 692q133 0 217.5 -86t84.5 -214q0 -107 -60 -201t-156.5 -148.5t-201.5 -54.5q-133 0 -217.5 86t-84.5 214q0 107 60 201t156.5 148.5t201.5 54.5zM379 118q103 0 185.5 77.5t82.5 185.5q0 78 -47 129.5t-132 51.5q-106 0 -185.5 -77t-79.5 -184q0 -78 47 -130.5
t129 -52.5z" />
    <glyph glyph-name="P" unicode="P" horiz-adv-x="645" 
d="M400 680q110 0 176.5 -55.5t66.5 -150.5q0 -123 -96.5 -203.5t-243.5 -80.5h-105l-34 -190h-136l120 680h252zM340 315q71 0 119 40.5t48 98.5q0 47 -33.5 73.5t-90.5 26.5h-121l-42 -239h120z" />
    <glyph glyph-name="Q" unicode="Q" horiz-adv-x="823" 
d="M785 392q0 -95 -48 -180.5t-129 -143.5l111 -131l-101 -93l-137 161q-57 -17 -114 -17q-133 0 -217.5 86t-84.5 214q0 107 60 201t156.5 148.5t201.5 54.5q133 0 217.5 -86t84.5 -214zM203 301q0 -78 47 -130.5t129 -52.5q103 0 185.5 77.5t82.5 185.5q0 78 -47 129.5
t-132 51.5q-106 0 -185.5 -77t-79.5 -184z" />
    <glyph glyph-name="R" unicode="R" horiz-adv-x="687" 
d="M664 480q0 -84 -51.5 -148.5t-135.5 -94.5l148 -237h-160l-124 216h-139l-38 -216h-136l120 680h267q112 0 180.5 -54t68.5 -146zM262 554l-38 -212h147q63 0 110 33.5t47 84.5q0 43 -34 68.5t-86 25.5h-146z" />
    <glyph glyph-name="S" unicode="S" horiz-adv-x="670" 
d="M412 695q47 0 88.5 -10.5t79.5 -34.5t57.5 -69.5t14.5 -107.5h-135q2 50 -26 77.5t-90 27.5q-63 0 -102 -26.5t-39 -73.5q0 -29 22 -45.5t66 -25.5l77 -16q89 -19 134 -56.5t45 -103.5q0 -109 -86.5 -177t-220.5 -68q-127 0 -196 64.5t-57 173.5h135q-1 -60 34.5 -88.5
t112.5 -28.5q62 0 97.5 23.5t35.5 63.5q0 46 -78 64l-107 24q-86 19 -126 62t-36 120q4 76 50 130t110.5 77.5t139.5 23.5z" />
    <glyph glyph-name="T" unicode="T" horiz-adv-x="652" 
d="M702 680l-22 -126h-231l-98 -554h-136l98 554h-231l22 126h598z" />
    <glyph glyph-name="U" unicode="U" horiz-adv-x="729" 
d="M747 680l-66 -374q-57 -321 -362 -321q-135 0 -203.5 91t-43.5 230l66 374h136l-66 -374q-15 -89 19 -141.5t115 -52.5q76 0 132 53.5t71 140.5l66 374h136z" />
    <glyph glyph-name="V" unicode="V" horiz-adv-x="778" 
d="M676 680h157l-427 -684h-125l-186 684h145l129 -491z" />
    <glyph glyph-name="W" unicode="W" horiz-adv-x="1061" 
d="M967 680h149l-345 -684h-134l-73 428l-232 -428h-134l-103 684h144l63 -452l246 452h115l77 -462z" />
    <glyph glyph-name="X" unicode="X" horiz-adv-x="670" 
d="M732 680l-289 -345l175 -335h-158l-126 233l-198 -233h-168l287 345l-164 335h166l109 -225l190 225h176z" />
    <glyph glyph-name="Y" unicode="Y" horiz-adv-x="689" 
d="M762 680l-350 -456h-1l-39 -224h-138l39 225l-190 455h151l125 -304l232 304h171z" />
    <glyph glyph-name="Z" unicode="Z" horiz-adv-x="653" 
d="M680 680l-11 -64l-427 -492h345l-21 -124h-569l11 64l443 492h-341l21 124h549z" />
    <glyph glyph-name="bracketleft" unicode="[" horiz-adv-x="388" 
d="M266 604l-109 -618h147l-22 -126h-278l153 870h278l-22 -126h-147z" />
    <glyph glyph-name="backslash" unicode="\" horiz-adv-x="406" 
d="M15 730h126l250 -890h-126z" />
    <glyph glyph-name="bracketright" unicode="]" horiz-adv-x="388" 
d="M142 -14l109 618h-147l22 126h278l-153 -870h-278l22 126h147z" />
    <glyph glyph-name="asciicircum" unicode="^" horiz-adv-x="419" 
d="M340 680l89 -240h-120l-44 143l-95 -143h-120l173 240h117z" />
    <glyph glyph-name="underscore" unicode="_" horiz-adv-x="630" 
d="M-48 -205l20 115h568l-20 -115h-568z" />
    <glyph glyph-name="grave" unicode="`" 
d="M331 706l73 -151h-118l-100 151h145z" />
    <glyph glyph-name="a" unicode="a" horiz-adv-x="609" 
d="M457 477h131l-84 -477h-131l5 28q-66 -38 -144 -38q-89 0 -143.5 57.5t-54.5 152.5q0 116 87 201.5t199 85.5q78 0 130 -38zM274 103q74 0 128 59l26 153q-31 59 -106 59q-62 0 -107.5 -47.5t-45.5 -109.5q0 -51 29 -82.5t76 -31.5z" />
    <glyph glyph-name="b" unicode="b" horiz-adv-x="606" 
d="M373 487q87 0 142.5 -60t55.5 -150q0 -116 -87 -201.5t-199 -85.5q-78 0 -130 38l-5 -28h-131l125 710h131l-46 -261q67 38 144 38zM285 103q62 0 107.5 47.5t45.5 109.5q0 48 -28.5 81t-76.5 33q-74 0 -128 -59l-26 -153q31 -59 106 -59z" />
    <glyph glyph-name="c" unicode="c" horiz-adv-x="570" 
d="M316 368q-55 0 -95.5 -37t-50.5 -93q-10 -58 17 -94t83 -36q40 0 72 20.5t46 55.5h134q-27 -86 -103.5 -140.5t-169.5 -54.5q-114 0 -172 68.5t-38 180.5q19 106 104.5 177.5t193.5 71.5q93 0 150.5 -54.5t53.5 -140.5h-134q-2 35 -26.5 55.5t-64.5 20.5z" />
    <glyph glyph-name="d" unicode="d" horiz-adv-x="610" 
d="M499 710h131l-126 -710h-131l5 28q-65 -38 -143 -38q-87 0 -143 60.5t-56 150.5q0 115 87 200.5t199 85.5q79 0 131 -38zM275 103q75 0 127 59l27 153q-32 59 -107 59q-62 0 -107.5 -47.5t-45.5 -108.5q0 -48 29 -81.5t77 -33.5z" />
    <glyph glyph-name="e" unicode="e" horiz-adv-x="560" 
d="M335 487q114 0 164 -78t15 -209h-347q2 -44 29 -70.5t80 -26.5q56 0 81 27h145q-33 -65 -99.5 -103t-148.5 -38q-115 0 -174 72t-41 177q19 109 103 179t193 70zM319 378q-96 0 -134 -89h217q7 89 -83 89z" />
    <glyph glyph-name="f" unicode="f" horiz-adv-x="452" 
d="M425 601q-43 0 -73.5 -25t-38.5 -66l-6 -33h186l-20 -110h-185l-64 -367h-131l64 367h-132l20 110h131l6 33q16 95 82 153.5t157 58.5q59 0 111 -16l-35 -119q-32 14 -72 14z" />
    <glyph glyph-name="g" unicode="g" horiz-adv-x="611" 
d="M459 477h131l-85 -480q-19 -110 -98.5 -174.5t-187.5 -64.5q-103 0 -162 57.5t-51 147.5h133q-2 -40 23 -66.5t74 -26.5t88.5 35t49.5 92l10 58q-66 -38 -138 -38q-92 0 -148.5 61t-56.5 149q0 110 85 186t201 76q76 0 128 -36zM285 130q71 0 123 60l23 129
q-29 57 -103 57q-67 0 -110.5 -38.5t-43.5 -94.5q0 -45 29 -79t82 -34z" />
    <glyph glyph-name="h" unicode="h" horiz-adv-x="599" 
d="M375 489q95 0 141.5 -62.5t27.5 -167.5l-45 -259h-131l44 251q10 58 -12 88.5t-74 30.5q-58 0 -122 -61l-54 -309h-131l125 710h131l-47 -269q70 48 147 48z" />
    <glyph glyph-name="i" unicode="i" horiz-adv-x="287" 
d="M215 570q-34 0 -57 22t-23 55q0 34 23 56t57 22q33 0 56.5 -22.5t23.5 -55.5t-23.5 -55t-56.5 -22zM125 477h131l-84 -477h-131z" />
    <glyph glyph-name="j" unicode="j" horiz-adv-x="285" 
d="M213 570q-34 0 -57 22t-23 55q0 34 23 56t57 22q33 0 56.5 -22.5t23.5 -55.5t-23.5 -55t-56.5 -22zM247 477l-87 -495q-20 -114 -76 -168t-179 -56l9 114q57 8 80 26t32 67l90 512h131z" />
    <glyph glyph-name="k" unicode="k" horiz-adv-x="587" 
d="M593 477l-222 -198l160 -279h-169l-98 184l-95 -85l-18 -99h-131l126 710h131l-78 -438l228 205h166z" />
    <glyph glyph-name="l" unicode="l" horiz-adv-x="257" 
d="M146 710h131l-126 -710h-131z" />
    <glyph glyph-name="m" unicode="m" horiz-adv-x="908" 
d="M675 489q101 0 148.5 -63.5t29.5 -166.5l-45 -259h-131l44 251q10 58 -12 88.5t-72 30.5q-62 0 -108 -47q1 -27 -5 -64l-45 -259h-131l44 251q10 56 -11 87.5t-74 31.5q-56 0 -100 -45l-57 -325h-131l84 477h131l-6 -34q65 46 135 46q92 0 135 -64q84 64 177 64z" />
    <glyph glyph-name="n" unicode="n" horiz-adv-x="599" 
d="M375 489q95 0 141.5 -62.5t27.5 -167.5l-45 -259h-131l44 251q10 58 -12 88.5t-74 30.5q-58 0 -122 -61l-54 -309h-131l84 477h131l-6 -36q70 48 147 48z" />
    <glyph glyph-name="o" unicode="o" horiz-adv-x="587" 
d="M338 489q95 0 154 -59.5t59 -152.5q0 -122 -89 -205.5t-213 -83.5q-96 0 -154.5 58t-58.5 152q0 123 89 207t213 84zM270 107q63 0 106 44.5t43 108.5q0 47 -27.5 78.5t-74.5 31.5q-63 0 -106 -46t-43 -110q0 -48 27 -77.5t75 -29.5z" />
    <glyph glyph-name="p" unicode="p" horiz-adv-x="607" 
d="M372 489q87 0 143 -61.5t56 -151.5q0 -117 -84.5 -202.5t-201.5 -85.5q-78 0 -130 39l-46 -257h-131l125 707h131l-5 -27q64 39 143 39zM285 101q61 0 107 48.5t46 109.5q0 48 -29 82.5t-77 34.5q-73 0 -127 -61l-27 -153q33 -61 107 -61z" />
    <glyph glyph-name="q" unicode="q" horiz-adv-x="609" 
d="M457 477h131l-125 -707h-131l45 257q-64 -39 -143 -39q-87 0 -142.5 61t-55.5 151q0 116 87 202.5t199 86.5q76 0 130 -39zM274 101q74 0 127 60l27 154q-31 61 -106 61q-62 0 -107.5 -48.5t-45.5 -110.5q0 -48 28.5 -82t76.5 -34z" />
    <glyph glyph-name="r" unicode="r" horiz-adv-x="392" 
d="M405 485l-22 -124q-112 -6 -182 -72l-51 -289h-131l84 477h131l-10 -56q78 64 181 64z" />
    <glyph glyph-name="s" unicode="s" horiz-adv-x="504" 
d="M142 165q-4 -71 96 -71q87 0 87 47q0 16 -13.5 25.5t-45.5 15.5l-79 14q-123 22 -123 120q0 76 66.5 124.5t167.5 48.5q33 0 63 -6t61 -22t47.5 -50t11.5 -82l-122 -1q4 31 -18.5 45.5t-60.5 14.5q-39 0 -60.5 -13.5t-21.5 -33.5q0 -35 51 -44l74 -14q61 -12 96 -38
t35 -83q0 -76 -63.5 -125t-170.5 -49q-92 0 -150.5 41.5t-48.5 136.5z" />
    <glyph glyph-name="t" unicode="t" horiz-adv-x="452" 
d="M265 367l-32 -180q-7 -38 8.5 -59.5t53.5 -21.5q47 0 95 27l-5 -127q-72 -21 -120 -21q-86 0 -132 57.5t-31 144.5l32 180h-102l19 110h102l31 173h131l-31 -173h175l-19 -110h-175z" />
    <glyph glyph-name="u" unicode="u" horiz-adv-x="607" 
d="M448 477h131l-84 -477h-131l6 36q-70 -48 -147 -48q-95 0 -141.5 62.5t-27.5 167.5l45 259h131l-44 -251q-10 -58 12 -88.5t74 -30.5q58 0 122 61z" />
    <glyph glyph-name="v" unicode="v" horiz-adv-x="580" 
d="M465 477h142l-289 -477h-127l-134 477h139l82 -309z" />
    <glyph glyph-name="w" unicode="w" horiz-adv-x="796" 
d="M681 477h142l-247 -477h-129l-44 276l-138 -276h-114l-94 477h142l36 -289l150 289h110l36 -289z" />
    <glyph glyph-name="x" unicode="x" horiz-adv-x="558" 
d="M367 241l-1 -1l135 -240h-156l-81 149l-130 -149h-161l218 240v1l-134 237h160l78 -141l126 141h164z" />
    <glyph glyph-name="y" unicode="y" horiz-adv-x="613" 
d="M494 478h146l-429 -708h-146l143 237l-151 471h140l98 -328z" />
    <glyph glyph-name="z" unicode="z" horiz-adv-x="498" 
d="M508 477l-12 -70l-291 -298h238l-19 -109h-434l11 60l300 308h-240l19 109h428z" />
    <glyph glyph-name="braceleft" unicode="{" horiz-adv-x="353" 
d="M267 409q-8 -48 -27 -72t-67 -38q43 -14 53.5 -38t1.5 -72l-26 -149q-5 -26 14.5 -42.5t56.5 -16.5l-23 -128q-95 0 -144.5 51.5t-34.5 135.5l26 145q6 38 -8 47t-63 9l20 116q34 0 48.5 2.5t26 14.5t16.5 39l25 145q15 84 82.5 135.5t162.5 51.5l-22 -128
q-36 0 -61.5 -16.5t-30.5 -42.5z" />
    <glyph glyph-name="bar" unicode="|" horiz-adv-x="262" 
d="M157 730h122l-157 -890h-122z" />
    <glyph glyph-name="braceright" unicode="}" horiz-adv-x="353" 
d="M107 189q8 48 27 72t67 38q-43 14 -53.5 38t-1.5 72l26 149q5 26 -14.5 42.5t-56.5 16.5l23 128q95 0 144.5 -51.5t34.5 -135.5l-26 -145q-6 -38 8 -47t63 -9l-20 -116q-34 0 -48.5 -2.5t-26 -14.5t-16.5 -39l-25 -145q-15 -84 -82.5 -135.5t-162.5 -51.5l22 128
q36 0 61.5 16.5t30.5 42.5z" />
    <glyph glyph-name="asciitilde" unicode="~" horiz-adv-x="440" 
d="M443 407q0 -51 -19.5 -86t-48.5 -49.5t-62 -14t-61 16.5l-53 32q-18 12 -28.5 7.5t-14.5 -13.5t-4 -21h-115q0 51 19.5 86t48.5 49.5t62 14t61 -16.5l53 -32q18 -12 28.5 -7.5t14.5 13.5t4 21h115z" />
    <glyph glyph-name="exclamdown" unicode="&#xa1;" horiz-adv-x="286" 
d="M173 484q33 0 56 -22t23 -55q0 -32 -23 -54t-56 -22t-56.5 22t-23.5 54q0 33 23.5 55t56.5 22zM-6 -202l92 462h116l-70 -462h-138z" />
    <glyph glyph-name="cent" unicode="&#xa2;" horiz-adv-x="570" 
d="M316 368q-55 0 -95.5 -37t-50.5 -93q-10 -58 17 -94t83 -36q40 0 72 20.5t46 55.5h134q-23 -73 -83.5 -124.5t-137.5 -65.5l-18 -101h-118l19 103q-83 19 -122 83.5t-23 158.5q16 88 79 154t150 87l22 120h118l-21 -117q73 -14 115 -65t39 -125h-134q-2 35 -26.5 55.5
t-64.5 20.5z" />
    <glyph glyph-name="sterling" unicode="&#xa3;" horiz-adv-x="610" 
d="M394 579q-53 0 -92 -34.5t-49 -91.5l-11 -65h194l-20 -114h-194l-29 -160h353l-21 -114h-542l21 114h58l29 160h-59l20 114h59l11 65q20 109 100 175.5t192 66.5q102 0 159 -56.5t52 -150.5h-133q-2 42 -27.5 66.5t-70.5 24.5z" />
    <glyph glyph-name="yen" unicode="&#xa5;" horiz-adv-x="689" 
d="M762 680l-291 -379h132l-17 -95h-178l-8 -45h178l-17 -95h-177l-12 -66h-138l12 66h-172l17 95h171l8 45h-171l17 95h126l-159 379h151l125 -304l232 304h171z" />
    <glyph glyph-name="brokenbar" unicode="&#xa6;" horiz-adv-x="263" 
d="M279 730l-69 -394h-122l69 394h122zM192 234l-70 -394h-122l70 394h122z" />
    <glyph glyph-name="section" unicode="&#xa7;" horiz-adv-x="545" 
d="M536 500h-144q5 73 -63 73q-32 0 -54 -18t-22 -47q0 -35 35 -53l109 -56q115 -60 115 -145q0 -102 -96 -151q13 -29 13 -65q0 -91 -67.5 -144.5t-164.5 -53.5q-93 0 -143 52.5t-45 138.5h144q-5 -73 63 -73q32 0 54 18t22 47q0 36 -34 53l-110 55q-114 57 -114 145
q0 104 96 151q-14 29 -14 66q0 90 67.5 143.5t164.5 53.5q93 0 143 -52t45 -138zM320 295l-110 56q-19 -6 -30.5 -21.5t-11.5 -32.5q0 -33 57 -62l111 -56q18 6 29.5 21.5t11.5 32.5q0 33 -57 62z" />
    <glyph glyph-name="dieresis" unicode="&#xa8;" 
d="M223 701q32 0 54.5 -21.5t22.5 -52.5t-22.5 -52.5t-54.5 -21.5t-54.5 21.5t-22.5 52.5t22.5 52.5t54.5 21.5zM428 701q32 0 54.5 -21.5t22.5 -52.5t-22.5 -52.5t-54.5 -21.5t-54.5 21.5t-22.5 52.5t22.5 52.5t54.5 21.5z" />
    <glyph glyph-name="copyright" unicode="&#xa9;" horiz-adv-x="842" 
d="M439 695q150 0 257 -102t107 -253t-107 -253t-257 -102t-257 102t-107 253t107 253t257 102zM438 71q112 0 193 78t81 191t-81 191t-193 78t-192.5 -78t-80.5 -191t80.5 -191t192.5 -78zM440 412q-32 0 -53 -21.5t-21 -52.5t21 -52.5t53 -21.5q48 0 65 40h101
q-10 -60 -56 -96t-109 -36q-74 0 -123 47t-49 119t49 119t123 47q63 0 109 -36t56 -96h-101q-17 40 -65 40z" />
    <glyph glyph-name="ordfeminine" unicode="&#xaa;" horiz-adv-x="353" 
d="M254 685q65 0 98.5 -37t21.5 -102l-33 -190h-89l3 19q-38 -25 -84 -25q-55 0 -86.5 23.5t-31.5 64.5q0 52 38 80t102 28h92q12 61 -45 61q-52 0 -62 -41h-90q12 60 60.5 89.5t105.5 29.5zM188 423q39 0 80 23l6 34h-98q-15 0 -25 -7t-10 -19q0 -31 47 -31z" />
    <glyph glyph-name="guillemotleft" unicode="&#xab;" horiz-adv-x="458" 
d="M142 406h126l-120 -159l65 -149h-126l-65 154zM332 406h126l-120 -159l65 -149h-126l-65 154z" />
    <glyph glyph-name="registered" unicode="&#xae;" horiz-adv-x="570" 
d="M315 692q105 0 180 -72t75 -177t-75 -176.5t-180 -71.5t-180 71.5t-75 176.5t75 177t180 72zM314 264q74 0 128.5 52t54.5 127q0 76 -54.5 128t-128.5 52t-128 -52t-54 -128q0 -75 54 -127t128 -52zM411 479q0 -44 -38 -63l46 -69h-65l-36 59h-31v-59h-52v208h91
q38 0 61.5 -21t23.5 -55zM287 506v-53h38q32 0 32 27q0 26 -32 26h-38z" />
    <glyph glyph-name="macron" unicode="&#xaf;" 
d="M194 669h280l-18 -95h-280z" />
    <glyph glyph-name="degree" unicode="&#xb0;" horiz-adv-x="466" 
d="M283 695q76 0 125.5 -48t49.5 -122t-49.5 -122.5t-125.5 -48.5t-125.5 48.5t-49.5 122.5t49.5 122t125.5 48zM283 451q31 0 53 22t22 52t-22 51.5t-53 21.5t-53 -21.5t-22 -51.5t22 -52t53 -22z" />
    <glyph glyph-name="plusminus" unicode="&#xb1;" horiz-adv-x="683" 
d="M617 443l-21 -121h-178l-23 -130h-125l23 130h-179l21 121h179l23 131h125l-23 -131h178zM84 153h482l-21 -121h-482z" />
    <glyph glyph-name="uni00B2" unicode="&#xb2;" horiz-adv-x="368" 
d="M301 449l-91 -85h147l-15 -81h-301l9 51l175 158q40 36 53 52.5t13 34.5q0 16 -11 25.5t-29 9.5q-55 0 -66 -54h-97q12 64 58 102t117 38q62 0 95.5 -30t33.5 -74q0 -34 -18.5 -65t-72.5 -82z" />
    <glyph glyph-name="uni00B3" unicode="&#xb3;" horiz-adv-x="381" 
d="M314 491q58 -24 58 -80q0 -59 -45.5 -96.5t-121.5 -37.5q-68 0 -107.5 35t-39.5 93h97q7 -43 56 -43q29 0 48 14.5t19 35.5q0 37 -64 37h-32l14 79h32q28 0 46.5 14.5t18.5 37.5q0 36 -42 36q-22 0 -36.5 -12t-19.5 -31h-97q15 59 60 93.5t108 34.5q57 0 89 -29.5
t32 -77.5q0 -77 -73 -103z" />
    <glyph glyph-name="acute" unicode="&#xb4;" 
d="M342 706h145l-126 -151h-118z" />
    <glyph glyph-name="paragraph" unicode="&#xb6;" horiz-adv-x="845" 
d="M278 680h434v-840h-136v723h-84v-723h-136v366h-78q-110 0 -184 68t-74 176q0 102 74 166t184 64zM356 563h-78q-56 0 -90.5 -31.5t-34.5 -82.5q0 -54 34.5 -87t90.5 -33h78v234z" />
    <glyph glyph-name="periodcentered" unicode="&#xb7;" horiz-adv-x="218" 
d="M116 208q-33 0 -56 22t-23 55q0 32 23 54t56 22t56.5 -22t23.5 -54q0 -33 -23.5 -55t-56.5 -22z" />
    <glyph glyph-name="cedilla" unicode="&#xb8;" 
d="M368 -50l-88 -134h-113l71 134h130z" />
    <glyph glyph-name="uni00B9" unicode="&#xb9;" horiz-adv-x="340" 
d="M244 368h105l-14 -81h-305l14 81h107l40 225l-108 -30l14 84l153 48h52z" />
    <glyph glyph-name="ordmasculine" unicode="&#xba;" horiz-adv-x="387" 
d="M273 687q64 0 103 -39t39 -101q0 -82 -59 -139t-142 -57q-64 0 -103 40t-39 103q0 81 59.5 137t141.5 56zM229 433q40 0 67 30.5t27 71.5q0 30 -17 49.5t-47 19.5q-41 0 -68.5 -29t-27.5 -70q0 -32 17.5 -52t48.5 -20z" />
    <glyph glyph-name="guillemotright" unicode="&#xbb;" horiz-adv-x="459" 
d="M131 98h-126l120 159l-65 149h126l65 -154zM321 98h-126l120 159l-65 149h126l65 -154z" />
    <glyph glyph-name="onequarter" unicode="&#xbc;" horiz-adv-x="932" 
d="M332 272h-305l14 81h107l40 225l-108 -30l14 84l153 48h52l-58 -327h105zM681 680h91l-465 -680h-91zM889 161l-14 -85h-53l-13 -76h-96l13 76h-214l10 62l165 270h101l-147 -247h100l20 111h96l-20 -111h52z" />
    <glyph glyph-name="onehalf" unicode="&#xbd;" horiz-adv-x="918" 
d="M332 272h-305l14 81h107l40 225l-108 -30l14 84l153 48h52l-58 -327h105zM667 680h91l-465 -680h-91zM801 166l-91 -85h147l-15 -81h-301l9 51l175 158q40 36 53 52.5t13 34.5q0 16 -11 25.5t-29 9.5q-55 0 -66 -54h-97q12 64 58 102t117 38q62 0 95.5 -30t33.5 -74
q0 -34 -18.5 -65t-72.5 -82z" />
    <glyph glyph-name="threequarters" unicode="&#xbe;" horiz-adv-x="932" 
d="M370 400q0 -59 -45.5 -96.5t-121.5 -37.5q-68 0 -107.5 35t-39.5 93h97q7 -43 56 -43q29 0 48 14.5t19 35.5q0 37 -64 37h-32l14 79h32q28 0 46.5 14.5t18.5 37.5q0 36 -42 36q-22 0 -36.5 -12t-19.5 -31h-97q15 59 60 93.5t108 34.5q57 0 89 -29.5t32 -77.5
q0 -77 -73 -103q58 -24 58 -80zM671 680h91l-465 -680h-91zM889 161l-14 -85h-53l-13 -76h-96l13 76h-214l10 62l165 270h101l-147 -247h100l20 111h96l-20 -111h52z" />
    <glyph glyph-name="questiondown" unicode="&#xbf;" horiz-adv-x="523" 
d="M325 394q-33 0 -56.5 22t-23.5 54q0 33 23.5 55t56.5 22t56 -22t23 -55q0 -32 -23 -54t-56 -22zM200 -150q-94 0 -149 50.5t-55 135.5q0 92 64 151.5t167 70.5l18 70h102l-18 -159h-72q-54 0 -93 -33t-39 -86q0 -39 23 -61.5t63 -22.5q41 0 73.5 23.5t44.5 62.5h132
q-23 -93 -93 -147.5t-168 -54.5z" />
    <glyph glyph-name="Agrave" unicode="&#xc0;" horiz-adv-x="752" 
d="M524 755h-118l-100 151h145zM545 0l-32 136h-309l-80 -136h-150l416 684h127l173 -684h-145zM279 262h204l-58 247z" />
    <glyph glyph-name="Aacute" unicode="&#xc1;" horiz-adv-x="752" 
d="M651 906l-126 -151h-118l99 151h145zM545 0l-32 136h-309l-80 -136h-150l416 684h127l173 -684h-145zM279 262h204l-58 247z" />
    <glyph glyph-name="Acircumflex" unicode="&#xc2;" horiz-adv-x="752" 
d="M488 837l-71 -82h-125l145 155h123l91 -155h-115zM545 0l-32 136h-309l-80 -136h-150l416 684h127l173 -684h-145zM279 262h204l-58 247z" />
    <glyph glyph-name="Atilde" unicode="&#xc3;" horiz-adv-x="752" 
d="M393 783h-89q-1 42 16 71t43.5 39.5t56 10t55.5 -12.5l31 -14q31 -11 45 -3t14 29h89q1 -42 -15.5 -71t-42.5 -40t-56 -10t-57 13l-31 14q-29 12 -44 3.5t-15 -29.5zM545 0l-32 136h-309l-80 -136h-150l416 684h127l173 -684h-145zM279 262h204l-58 247z" />
    <glyph glyph-name="Adieresis" unicode="&#xc4;" horiz-adv-x="752" 
d="M374 753q-32 0 -54.5 21.5t-22.5 52.5t22.5 52.5t54.5 21.5t54.5 -21.5t22.5 -52.5t-22.5 -52.5t-54.5 -21.5zM579 753q-32 0 -54.5 21.5t-22.5 52.5t22.5 52.5t54.5 21.5t54.5 -21.5t22.5 -52.5t-22.5 -52.5t-54.5 -21.5zM545 0l-32 136h-309l-80 -136h-150l416 684h127
l173 -684h-145zM279 262h204l-58 247z" />
    <glyph glyph-name="Aring" unicode="&#xc5;" horiz-adv-x="752" 
d="M477 761q-52 0 -84 30t-32 79t32 78.5t84 29.5t84 -29.5t32 -78.5t-32 -79t-84 -30zM477 912q-19 0 -31 -11.5t-12 -30.5q0 -20 12 -31.5t31 -11.5t31 11.5t12 31.5q0 19 -12 30.5t-31 11.5zM545 0l-32 136h-309l-80 -136h-150l416 684h127l173 -684h-145zM279 262h204
l-58 247z" />
    <glyph glyph-name="AE" unicode="&#xc6;" horiz-adv-x="1147" 
d="M1148 554h-364l-28 -156h324l-22 -126h-324l-26 -146h364l-22 -126h-500l24 136h-290l-123 -136h-187l645 680h551zM398 262h198l48 272z" />
    <glyph glyph-name="Ccedilla" unicode="&#xc7;" horiz-adv-x="789" 
d="M385 119q64 0 127 42t92 111h140q-46 -130 -149.5 -207t-232.5 -77q-149 0 -234.5 99t-58.5 253q27 153 147.5 252.5t270.5 99.5q129 0 205 -77t76 -207h-140q-5 75 -47.5 114t-117.5 39q-97 0 -168 -61.5t-88 -159.5q-17 -100 33 -160.5t145 -60.5zM186 -184l71 134h130
l-88 -134h-113z" />
    <glyph glyph-name="Egrave" unicode="&#xc8;" horiz-adv-x="625" 
d="M461 755h-118l-100 151h145zM626 554h-364l-28 -156h324l-22 -126h-324l-26 -146h364l-22 -126h-500l120 680h500z" />
    <glyph glyph-name="Eacute" unicode="&#xc9;" horiz-adv-x="625" 
d="M588 906l-126 -151h-118l99 151h145zM626 554h-364l-28 -156h324l-22 -126h-324l-26 -146h364l-22 -126h-500l120 680h500z" />
    <glyph glyph-name="Ecircumflex" unicode="&#xca;" horiz-adv-x="625" 
d="M425 837l-71 -82h-125l145 155h123l91 -155h-115zM626 554h-364l-28 -156h324l-22 -126h-324l-26 -146h364l-22 -126h-500l120 680h500z" />
    <glyph glyph-name="Edieresis" unicode="&#xcb;" horiz-adv-x="625" 
d="M311 753q-32 0 -54.5 21.5t-22.5 52.5t22.5 52.5t54.5 21.5t54.5 -21.5t22.5 -52.5t-22.5 -52.5t-54.5 -21.5zM516 753q-32 0 -54.5 21.5t-22.5 52.5t22.5 52.5t54.5 21.5t54.5 -21.5t22.5 -52.5t-22.5 -52.5t-54.5 -21.5zM626 554h-364l-28 -156h324l-22 -126h-324
l-26 -146h364l-22 -126h-500l120 680h500z" />
    <glyph glyph-name="Igrave" unicode="&#xcc;" horiz-adv-x="276" 
d="M215 906l73 -151h-118l-100 151h145zM284 680l-120 -680h-136l120 680h136z" />
    <glyph glyph-name="Iacute" unicode="&#xcd;" horiz-adv-x="276" 
d="M270 906h145l-126 -151h-118zM284 680l-120 -680h-136l120 680h136z" />
    <glyph glyph-name="Icircumflex" unicode="&#xce;" horiz-adv-x="276" 
d="M300 755l-48 82l-71 -82h-125l145 155h123l91 -155h-115zM284 680l-120 -680h-136l120 680h136z" />
    <glyph glyph-name="Idieresis" unicode="&#xcf;" horiz-adv-x="276" 
d="M138 901q32 0 54.5 -21.5t22.5 -52.5t-22.5 -52.5t-54.5 -21.5t-54.5 21.5t-22.5 52.5t22.5 52.5t54.5 21.5zM343 901q32 0 54.5 -21.5t22.5 -52.5t-22.5 -52.5t-54.5 -21.5t-54.5 21.5t-22.5 52.5t22.5 52.5t54.5 21.5zM284 680l-120 -680h-136l120 680h136z" />
    <glyph glyph-name="Eth" unicode="&#xd0;" horiz-adv-x="748" 
d="M409 680q138 0 224 -81.5t86 -206.5q0 -107 -59 -197.5t-158 -142.5t-213 -52h-261l50 284h-68l22 116h67l49 280h261zM318 126q105 0 184 73t79 173q0 78 -52 130t-135 52h-132l-27 -154h118l-22 -116h-117l-28 -158h132z" />
    <glyph glyph-name="Ntilde" unicode="&#xd1;" horiz-adv-x="749" 
d="M364 783h-89q-1 42 16 71t43.5 39.5t56 10t55.5 -12.5l31 -14q31 -11 45 -3t14 29h89q1 -42 -15.5 -71t-42.5 -40t-56 -10t-57 13l-31 14q-29 12 -44 3.5t-15 -29.5zM621 680h136l-120 -680h-105l-292 433l-76 -433h-136l120 680h83l310 -453z" />
    <glyph glyph-name="Ograve" unicode="&#xd2;" horiz-adv-x="814" 
d="M496 906l73 -151h-118l-100 151h145zM483 692q133 0 217.5 -86t84.5 -214q0 -107 -60 -201t-156.5 -148.5t-201.5 -54.5q-133 0 -217.5 86t-84.5 214q0 107 60 201t156.5 148.5t201.5 54.5zM379 118q103 0 185.5 77.5t82.5 185.5q0 78 -47 129.5t-132 51.5
q-106 0 -185.5 -77t-79.5 -184q0 -78 47 -130.5t129 -52.5z" />
    <glyph glyph-name="Oacute" unicode="&#xd3;" horiz-adv-x="814" 
d="M551 906h145l-126 -151h-118zM483 692q133 0 217.5 -86t84.5 -214q0 -107 -60 -201t-156.5 -148.5t-201.5 -54.5q-133 0 -217.5 86t-84.5 214q0 107 60 201t156.5 148.5t201.5 54.5zM379 118q103 0 185.5 77.5t82.5 185.5q0 78 -47 129.5t-132 51.5q-106 0 -185.5 -77
t-79.5 -184q0 -78 47 -130.5t129 -52.5z" />
    <glyph glyph-name="Ocircumflex" unicode="&#xd4;" horiz-adv-x="814" 
d="M581 755l-48 82l-71 -82h-125l145 155h123l91 -155h-115zM483 692q133 0 217.5 -86t84.5 -214q0 -107 -60 -201t-156.5 -148.5t-201.5 -54.5q-133 0 -217.5 86t-84.5 214q0 107 60 201t156.5 148.5t201.5 54.5zM379 118q103 0 185.5 77.5t82.5 185.5q0 78 -47 129.5
t-132 51.5q-106 0 -185.5 -77t-79.5 -184q0 -78 47 -130.5t129 -52.5z" />
    <glyph glyph-name="Otilde" unicode="&#xd5;" horiz-adv-x="814" 
d="M699 903q1 -42 -15.5 -71t-42.5 -40t-56 -10t-57 13l-31 14q-29 12 -44 3.5t-15 -29.5h-89q-1 42 16 71t43.5 39.5t56 10t55.5 -12.5l31 -14q31 -11 45 -3t14 29h89zM483 692q133 0 217.5 -86t84.5 -214q0 -107 -60 -201t-156.5 -148.5t-201.5 -54.5q-133 0 -217.5 86
t-84.5 214q0 107 60 201t156.5 148.5t201.5 54.5zM379 118q103 0 185.5 77.5t82.5 185.5q0 78 -47 129.5t-132 51.5q-106 0 -185.5 -77t-79.5 -184q0 -78 47 -130.5t129 -52.5z" />
    <glyph glyph-name="Odieresis" unicode="&#xd6;" horiz-adv-x="814" 
d="M419 901q32 0 54.5 -21.5t22.5 -52.5t-22.5 -52.5t-54.5 -21.5t-54.5 21.5t-22.5 52.5t22.5 52.5t54.5 21.5zM624 901q32 0 54.5 -21.5t22.5 -52.5t-22.5 -52.5t-54.5 -21.5t-54.5 21.5t-22.5 52.5t22.5 52.5t54.5 21.5zM483 692q133 0 217.5 -86t84.5 -214
q0 -107 -60 -201t-156.5 -148.5t-201.5 -54.5q-133 0 -217.5 86t-84.5 214q0 107 60 201t156.5 148.5t201.5 54.5zM379 118q103 0 185.5 77.5t82.5 185.5q0 78 -47 129.5t-132 51.5q-106 0 -185.5 -77t-79.5 -184q0 -78 47 -130.5t129 -52.5z" />
    <glyph glyph-name="multiply" unicode="&#xd7;" horiz-adv-x="681" 
d="M432 323l116 -142l-101 -86l-116 142l-167 -142l-71 86l167 142l-117 141l101 86l117 -141l166 141l71 -86z" />
    <glyph glyph-name="Oslash" unicode="&#xd8;" horiz-adv-x="814" 
d="M722 583q63 -82 63 -191q0 -107 -60 -201t-156.5 -148.5t-201.5 -54.5q-109 0 -188 60l-62 -61l-61 60l63 62q-54 79 -54 179q0 107 60 201t156.5 148.5t201.5 54.5q99 0 176 -51l59 58l61 -60zM203 301q0 -47 19 -90l336 331q-38 20 -90 20q-106 0 -185.5 -77
t-79.5 -184zM379 118q103 0 185.5 77.5t82.5 185.5q0 58 -26 102l-343 -337q42 -28 101 -28z" />
    <glyph glyph-name="Ugrave" unicode="&#xd9;" horiz-adv-x="729" 
d="M429 906l73 -151h-118l-100 151h145zM747 680l-66 -374q-57 -321 -362 -321q-135 0 -203.5 91t-43.5 230l66 374h136l-66 -374q-15 -89 19 -141.5t115 -52.5q76 0 132 53.5t71 140.5l66 374h136z" />
    <glyph glyph-name="Uacute" unicode="&#xda;" horiz-adv-x="729" 
d="M484 906h145l-126 -151h-118zM747 680l-66 -374q-57 -321 -362 -321q-135 0 -203.5 91t-43.5 230l66 374h136l-66 -374q-15 -89 19 -141.5t115 -52.5q76 0 132 53.5t71 140.5l66 374h136z" />
    <glyph glyph-name="Ucircumflex" unicode="&#xdb;" horiz-adv-x="729" 
d="M514 755l-48 82l-71 -82h-125l145 155h123l91 -155h-115zM747 680l-66 -374q-57 -321 -362 -321q-135 0 -203.5 91t-43.5 230l66 374h136l-66 -374q-15 -89 19 -141.5t115 -52.5q76 0 132 53.5t71 140.5l66 374h136z" />
    <glyph glyph-name="Udieresis" unicode="&#xdc;" horiz-adv-x="729" 
d="M352 901q32 0 54.5 -21.5t22.5 -52.5t-22.5 -52.5t-54.5 -21.5t-54.5 21.5t-22.5 52.5t22.5 52.5t54.5 21.5zM557 901q32 0 54.5 -21.5t22.5 -52.5t-22.5 -52.5t-54.5 -21.5t-54.5 21.5t-22.5 52.5t22.5 52.5t54.5 21.5zM747 680l-66 -374q-57 -321 -362 -321
q-135 0 -203.5 91t-43.5 230l66 374h136l-66 -374q-15 -89 19 -141.5t115 -52.5q76 0 132 53.5t71 140.5l66 374h136z" />
    <glyph glyph-name="Yacute" unicode="&#xdd;" horiz-adv-x="689" 
d="M596 906l-126 -151h-118l99 151h145zM762 680l-350 -456h-1l-39 -224h-138l39 225l-190 455h151l125 -304l232 304h171z" />
    <glyph glyph-name="Thorn" unicode="&#xde;" horiz-adv-x="645" 
d="M394 586q108 0 170.5 -55t62.5 -146q0 -127 -96 -208t-244 -81h-106l-17 -96h-136l120 680h136l-17 -94h127zM324 221q72 0 119 40.5t47 102.5q0 43 -33.5 69.5t-90.5 26.5h-121l-42 -239h121z" />
    <glyph glyph-name="germandbls" unicode="&#xdf;" horiz-adv-x="655" 
d="M493 351q103 -39 103 -145q0 -95 -70.5 -154t-172.5 -59q-44 0 -105 9l19 109q66 -6 79 -6q58 0 91 26.5t33 69.5q0 37 -25 58.5t-67 21.5h-68l18 102q40 4 68.5 17.5t41.5 32t18.5 35t5.5 32.5q0 36 -26 58t-71 22q-57 0 -89.5 -37t-46.5 -113l-76 -430h-132l78 441
q22 126 91 189t179 63q98 0 159.5 -47.5t61.5 -136.5q0 -113 -97 -158z" />
    <glyph glyph-name="agrave" unicode="&#xe0;" horiz-adv-x="609" 
d="M426 535h-118l-100 151h145zM457 477h131l-84 -477h-131l5 28q-66 -38 -144 -38q-89 0 -143.5 57.5t-54.5 152.5q0 116 87 201.5t199 85.5q78 0 130 -38zM274 103q74 0 128 59l26 153q-31 59 -106 59q-62 0 -107.5 -47.5t-45.5 -109.5q0 -51 29 -82.5t76 -31.5z" />
    <glyph glyph-name="aacute" unicode="&#xe1;" horiz-adv-x="609" 
d="M550 686l-126 -151h-118l99 151h145zM457 477h131l-84 -477h-131l5 28q-66 -38 -144 -38q-89 0 -143.5 57.5t-54.5 152.5q0 116 87 201.5t199 85.5q78 0 130 -38zM274 103q74 0 128 59l26 153q-31 59 -106 59q-62 0 -107.5 -47.5t-45.5 -109.5q0 -51 29 -82.5t76 -31.5z
" />
    <glyph glyph-name="acircumflex" unicode="&#xe2;" horiz-adv-x="609" 
d="M382 607l-71 -82h-125l145 155h123l91 -155h-115zM457 477h131l-84 -477h-131l5 28q-66 -38 -144 -38q-89 0 -143.5 57.5t-54.5 152.5q0 116 87 201.5t199 85.5q78 0 130 -38zM274 103q74 0 128 59l26 153q-31 59 -106 59q-62 0 -107.5 -47.5t-45.5 -109.5
q0 -51 29 -82.5t76 -31.5z" />
    <glyph glyph-name="atilde" unicode="&#xe3;" horiz-adv-x="609" 
d="M277 564h-89q-1 42 16 71t43.5 39.5t56 10t55.5 -12.5l31 -14q31 -11 45 -3t14 29h89q1 -42 -15.5 -71t-42.5 -40t-56 -10t-57 13l-31 14q-29 12 -44 3.5t-15 -29.5zM457 477h131l-84 -477h-131l5 28q-66 -38 -144 -38q-89 0 -143.5 57.5t-54.5 152.5q0 116 87 201.5
t199 85.5q78 0 130 -38zM274 103q74 0 128 59l26 153q-31 59 -106 59q-62 0 -107.5 -47.5t-45.5 -109.5q0 -51 29 -82.5t76 -31.5z" />
    <glyph glyph-name="adieresis" unicode="&#xe4;" horiz-adv-x="609" 
d="M263 553q-32 0 -54.5 21.5t-22.5 52.5t22.5 52.5t54.5 21.5t54.5 -21.5t22.5 -52.5t-22.5 -52.5t-54.5 -21.5zM468 553q-32 0 -54.5 21.5t-22.5 52.5t22.5 52.5t54.5 21.5t54.5 -21.5t22.5 -52.5t-22.5 -52.5t-54.5 -21.5zM457 477h131l-84 -477h-131l5 28
q-66 -38 -144 -38q-89 0 -143.5 57.5t-54.5 152.5q0 116 87 201.5t199 85.5q78 0 130 -38zM274 103q74 0 128 59l26 153q-31 59 -106 59q-62 0 -107.5 -47.5t-45.5 -109.5q0 -51 29 -82.5t76 -31.5z" />
    <glyph glyph-name="aring" unicode="&#xe5;" horiz-adv-x="609" 
d="M354 521q-52 0 -84 30t-32 79t32 78.5t84 29.5t84 -29.5t32 -78.5t-32 -79t-84 -30zM354 672q-19 0 -31 -11.5t-12 -30.5q0 -20 11.5 -31.5t31.5 -11.5t31.5 11.5t11.5 31.5q0 19 -12 30.5t-31 11.5zM457 477h131l-84 -477h-131l5 28q-66 -38 -144 -38q-89 0 -143.5 57.5
t-54.5 152.5q0 116 87 201.5t199 85.5q78 0 130 -38zM274 103q74 0 128 59l26 153q-31 59 -106 59q-62 0 -107.5 -47.5t-45.5 -109.5q0 -51 29 -82.5t76 -31.5z" />
    <glyph glyph-name="ae" unicode="&#xe6;" horiz-adv-x="889" 
d="M660 487q114 0 164 -78t15 -209h-347q2 -44 29 -70.5t80 -26.5q55 0 81 27h145q-33 -65 -99.5 -103t-148.5 -38q-106 0 -166 63q-96 -61 -209 -61q-83 0 -134.5 35.5t-51.5 96.5q0 78 58 119.5t153 41.5h142q18 96 -72 96q-36 0 -62.5 -16.5t-35.5 -46.5h-131
q13 59 54.5 100t91 58t103.5 17q110 0 157 -67q83 62 184 62zM644 378q-96 0 -134 -89h217q7 89 -83 89zM219 98q70 0 146 48q-3 13 -5 41h-157q-25 0 -41 -11.5t-16 -30.5t17.5 -33t55.5 -14z" />
    <glyph glyph-name="ccedilla" unicode="&#xe7;" horiz-adv-x="570" 
d="M316 368q-55 0 -95.5 -37t-50.5 -93q-10 -58 17 -94t83 -36q40 0 72 20.5t46 55.5h134q-27 -86 -103.5 -140.5t-169.5 -54.5q-114 0 -172 68.5t-38 180.5q19 106 104.5 177.5t193.5 71.5q93 0 150.5 -54.5t53.5 -140.5h-134q-2 35 -26.5 55.5t-64.5 20.5zM101 -184
l71 134h130l-88 -134h-113z" />
    <glyph glyph-name="egrave" unicode="&#xe8;" horiz-adv-x="560" 
d="M405 535h-118l-100 151h145zM335 487q114 0 164 -78t15 -209h-347q2 -44 29 -70.5t80 -26.5q56 0 81 27h145q-33 -65 -99.5 -103t-148.5 -38q-115 0 -174 72t-41 177q19 109 103 179t193 70zM319 378q-96 0 -134 -89h217q7 89 -83 89z" />
    <glyph glyph-name="eacute" unicode="&#xe9;" horiz-adv-x="560" 
d="M529 686l-126 -151h-118l99 151h145zM335 487q114 0 164 -78t15 -209h-347q2 -44 29 -70.5t80 -26.5q56 0 81 27h145q-33 -65 -99.5 -103t-148.5 -38q-115 0 -174 72t-41 177q19 109 103 179t193 70zM319 378q-96 0 -134 -89h217q7 89 -83 89z" />
    <glyph glyph-name="ecircumflex" unicode="&#xea;" horiz-adv-x="560" 
d="M361 607l-71 -82h-125l145 155h123l91 -155h-115zM335 487q114 0 164 -78t15 -209h-347q2 -44 29 -70.5t80 -26.5q56 0 81 27h145q-33 -65 -99.5 -103t-148.5 -38q-115 0 -174 72t-41 177q19 109 103 179t193 70zM319 378q-96 0 -134 -89h217q7 89 -83 89z" />
    <glyph glyph-name="edieresis" unicode="&#xeb;" horiz-adv-x="565" 
d="M241 533q-32 0 -54.5 21.5t-22.5 52.5t22.5 52.5t54.5 21.5t54.5 -21.5t22.5 -52.5t-22.5 -52.5t-54.5 -21.5zM446 533q-32 0 -54.5 21.5t-22.5 52.5t22.5 52.5t54.5 21.5t54.5 -21.5t22.5 -52.5t-22.5 -52.5t-54.5 -21.5zM335 487q114 0 164 -78t15 -209h-347
q2 -44 29 -70.5t80 -26.5q56 0 81 27h145q-33 -65 -99.5 -103t-148.5 -38q-115 0 -174 72t-41 177q19 109 103 179t193 70zM319 378q-96 0 -134 -89h217q7 89 -83 89z" />
    <glyph glyph-name="igrave" unicode="&#xec;" horiz-adv-x="256" 
d="M168 686l73 -151h-118l-100 151h145zM104 477h131l-84 -477h-131z" />
    <glyph glyph-name="iacute" unicode="&#xed;" horiz-adv-x="256" 
d="M220 686h145l-126 -151h-118zM104 477h131l-84 -477h-131z" />
    <glyph glyph-name="icircumflex" unicode="&#xee;" horiz-adv-x="256" 
d="M245 525l-48 82l-71 -82h-125l145 155h123l91 -155h-115zM104 477h131l-84 -477h-131z" />
    <glyph glyph-name="idieresis" unicode="&#xef;" horiz-adv-x="256" 
d="M89 691q32 0 54.5 -21.5t22.5 -52.5t-22.5 -52.5t-54.5 -21.5t-54.5 21.5t-22.5 52.5t22.5 52.5t54.5 21.5zM294 691q32 0 54.5 -21.5t22.5 -52.5t-22.5 -52.5t-54.5 -21.5t-54.5 21.5t-22.5 52.5t22.5 52.5t54.5 21.5zM104 477h131l-84 -477h-131z" />
    <glyph glyph-name="eth" unicode="&#xf0;" horiz-adv-x="587" 
d="M467 592q88 -111 88 -280q0 -145 -89.5 -236t-215.5 -91q-96 0 -155 59.5t-59 153.5q0 122 87 205.5t205 83.5q46 0 78 -14q-26 47 -60 78l-162 -55l-18 86l97 30q-17 11 -98 50l142 56q52 -25 91 -57l108 37l18 -86zM271 104q62 0 105 46t43 110q0 108 -102 108
q-63 0 -105.5 -45t-42.5 -109q0 -48 27 -79t75 -31z" />
    <glyph glyph-name="ntilde" unicode="&#xf1;" horiz-adv-x="599" 
d="M263 564h-89q-1 42 16 71t43.5 39.5t56 10t55.5 -12.5l31 -14q31 -11 45 -3t14 29h89q1 -42 -15.5 -71t-42.5 -40t-56 -10t-57 13l-31 14q-29 12 -44 3.5t-15 -29.5zM375 489q95 0 141.5 -62.5t27.5 -167.5l-45 -259h-131l44 251q10 58 -12 88.5t-74 30.5q-58 0 -122 -61
l-54 -309h-131l84 477h131l-6 -36q70 48 147 48z" />
    <glyph glyph-name="ograve" unicode="&#xf2;" horiz-adv-x="587" 
d="M335 686l73 -151h-118l-100 151h145zM338 489q95 0 154 -59.5t59 -152.5q0 -122 -89 -205.5t-213 -83.5q-96 0 -154.5 58t-58.5 152q0 123 89 207t213 84zM270 107q63 0 106 44.5t43 108.5q0 47 -27.5 78.5t-74.5 31.5q-63 0 -106 -46t-43 -110q0 -48 27 -77.5t75 -29.5z
" />
    <glyph glyph-name="oacute" unicode="&#xf3;" horiz-adv-x="587" 
d="M387 686h145l-126 -151h-118zM338 489q95 0 154 -59.5t59 -152.5q0 -122 -89 -205.5t-213 -83.5q-96 0 -154.5 58t-58.5 152q0 123 89 207t213 84zM270 107q63 0 106 44.5t43 108.5q0 47 -27.5 78.5t-74.5 31.5q-63 0 -106 -46t-43 -110q0 -48 27 -77.5t75 -29.5z" />
    <glyph glyph-name="ocircumflex" unicode="&#xf4;" horiz-adv-x="587" 
d="M412 525l-48 82l-71 -82h-125l145 155h123l91 -155h-115zM338 489q95 0 154 -59.5t59 -152.5q0 -122 -89 -205.5t-213 -83.5q-96 0 -154.5 58t-58.5 152q0 123 89 207t213 84zM270 107q63 0 106 44.5t43 108.5q0 47 -27.5 78.5t-74.5 31.5q-63 0 -106 -46t-43 -110
q0 -48 27 -77.5t75 -29.5z" />
    <glyph glyph-name="otilde" unicode="&#xf5;" horiz-adv-x="587" 
d="M520 684q1 -42 -15.5 -71t-42.5 -40t-56 -10t-57 13l-31 14q-29 12 -44 3.5t-15 -29.5h-89q-1 42 16 71t43.5 39.5t56 10t55.5 -12.5l31 -14q31 -11 45 -3t14 29h89zM338 489q95 0 154 -59.5t59 -152.5q0 -122 -89 -205.5t-213 -83.5q-96 0 -154.5 58t-58.5 152
q0 123 89 207t213 84zM270 107q63 0 106 44.5t43 108.5q0 47 -27.5 78.5t-74.5 31.5q-63 0 -106 -46t-43 -110q0 -48 27 -77.5t75 -29.5z" />
    <glyph glyph-name="odieresis" unicode="&#xf6;" horiz-adv-x="587" 
d="M254 681q32 0 54.5 -21.5t22.5 -52.5t-22.5 -52.5t-54.5 -21.5t-54.5 21.5t-22.5 52.5t22.5 52.5t54.5 21.5zM459 681q32 0 54.5 -21.5t22.5 -52.5t-22.5 -52.5t-54.5 -21.5t-54.5 21.5t-22.5 52.5t22.5 52.5t54.5 21.5zM338 489q95 0 154 -59.5t59 -152.5
q0 -122 -89 -205.5t-213 -83.5q-96 0 -154.5 58t-58.5 152q0 123 89 207t213 84zM270 107q63 0 106 44.5t43 108.5q0 47 -27.5 78.5t-74.5 31.5q-63 0 -106 -46t-43 -110q0 -48 27 -77.5t75 -29.5z" />
    <glyph glyph-name="divide" unicode="&#xf7;" horiz-adv-x="684" 
d="M395 453q-32 0 -54 21t-22 52t22 52.5t54 21.5t54.5 -21.5t22.5 -52.5t-22.5 -52t-54.5 -21zM105 272l22 121h482l-22 -121h-482zM325 71q-32 0 -54 21t-22 52t22 52.5t54 21.5t54.5 -21.5t22.5 -52.5t-22.5 -52t-54.5 -21z" />
    <glyph glyph-name="oslash" unicode="&#xf8;" horiz-adv-x="587" 
d="M555 449l-43 -43q39 -55 39 -129q0 -122 -89 -205.5t-213 -83.5q-73 0 -127 35l-46 -45l-49 46l47 46q-38 55 -38 128q0 123 89 207t213 84q72 0 125 -36l43 42zM168 214q0 -26 7 -44l192 188q-21 12 -50 12q-63 0 -106 -46t-43 -110zM419 260q0 25 -8 47l-192 -188
q21 -12 51 -12q63 0 106 44.5t43 108.5z" />
    <glyph glyph-name="ugrave" unicode="&#xf9;" horiz-adv-x="607" 
d="M415 535h-118l-100 151h145zM448 477h131l-84 -477h-131l6 36q-70 -48 -147 -48q-95 0 -141.5 62.5t-27.5 167.5l45 259h131l-44 -251q-10 -58 12 -88.5t74 -30.5q58 0 122 61z" />
    <glyph glyph-name="uacute" unicode="&#xfa;" horiz-adv-x="607" 
d="M539 686l-126 -151h-118l99 151h145zM448 477h131l-84 -477h-131l6 36q-70 -48 -147 -48q-95 0 -141.5 62.5t-27.5 167.5l45 259h131l-44 -251q-10 -58 12 -88.5t74 -30.5q58 0 122 61z" />
    <glyph glyph-name="ucircumflex" unicode="&#xfb;" horiz-adv-x="607" 
d="M371 607l-71 -82h-125l145 155h123l91 -155h-115zM448 477h131l-84 -477h-131l6 36q-70 -48 -147 -48q-95 0 -141.5 62.5t-27.5 167.5l45 259h131l-44 -251q-10 -58 12 -88.5t74 -30.5q58 0 122 61z" />
    <glyph glyph-name="udieresis" unicode="&#xfc;" horiz-adv-x="607" 
d="M243 533q-32 0 -54.5 21.5t-22.5 52.5t22.5 52.5t54.5 21.5t54.5 -21.5t22.5 -52.5t-22.5 -52.5t-54.5 -21.5zM448 533q-32 0 -54.5 21.5t-22.5 52.5t22.5 52.5t54.5 21.5t54.5 -21.5t22.5 -52.5t-22.5 -52.5t-54.5 -21.5zM448 477h131l-84 -477h-131l6 36
q-70 -48 -147 -48q-95 0 -141.5 62.5t-27.5 167.5l45 259h131l-44 -251q-10 -58 12 -88.5t74 -30.5q58 0 122 61z" />
    <glyph glyph-name="yacute" unicode="&#xfd;" horiz-adv-x="613" 
d="M545 686l-126 -151h-118l99 151h145zM494 478h146l-429 -708h-146l143 237l-151 471h140l98 -328z" />
    <glyph glyph-name="thorn" unicode="&#xfe;" horiz-adv-x="608" 
d="M374 489q87 0 143 -61.5t56 -151.5q0 -116 -87 -202t-199 -86q-78 0 -131 40l-46 -258h-131l166 940h131l-46 -261q66 40 144 40zM287 101q61 0 107 48.5t46 109.5q0 48 -29 82.5t-77 34.5q-74 0 -128 -62l-26 -150q32 -63 107 -63z" />
    <glyph glyph-name="ydieresis" unicode="&#xff;" horiz-adv-x="613" 
d="M247 533q-32 0 -54.5 21.5t-22.5 52.5t22.5 52.5t54.5 21.5t54.5 -21.5t22.5 -52.5t-22.5 -52.5t-54.5 -21.5zM452 533q-32 0 -54.5 21.5t-22.5 52.5t22.5 52.5t54.5 21.5t54.5 -21.5t22.5 -52.5t-22.5 -52.5t-54.5 -21.5zM494 478h146l-429 -708h-146l143 237l-151 471
h140l98 -328z" />
    <glyph glyph-name="Amacron" unicode="&#x100;" horiz-adv-x="752" 
d="M626 851l-18 -95h-280l18 95h280zM545 0l-32 136h-309l-80 -136h-150l416 684h127l173 -684h-145zM279 262h204l-58 247z" />
    <glyph glyph-name="amacron" unicode="&#x101;" horiz-adv-x="609" 
d="M530 649l-18 -95h-280l18 95h280zM457 477h131l-84 -477h-131l5 28q-66 -38 -144 -38q-89 0 -143.5 57.5t-54.5 152.5q0 116 87 201.5t199 85.5q78 0 130 -38zM274 103q74 0 128 59l26 153q-31 59 -106 59q-62 0 -107.5 -47.5t-45.5 -109.5q0 -51 29 -82.5t76 -31.5z" />
    <glyph glyph-name="Abreve" unicode="&#x102;" horiz-adv-x="752" 
d="M463 755q-72 0 -108 41t-23 118h95q-12 -72 48 -72q26 0 48 17t28 55h99q-13 -77 -64 -118t-123 -41zM545 0l-32 136h-309l-80 -136h-150l416 684h127l173 -684h-145zM279 262h204l-58 247z" />
    <glyph glyph-name="abreve" unicode="&#x103;" horiz-adv-x="609" 
d="M365 519q-72 0 -108 41t-23 118h95q-12 -72 48 -72q26 0 48 17t28 55h99q-13 -77 -64 -118t-123 -41zM457 477h131l-84 -477h-131l5 28q-66 -38 -144 -38q-89 0 -143.5 57.5t-54.5 152.5q0 116 87 201.5t199 85.5q78 0 130 -38zM274 103q74 0 128 59l26 153
q-31 59 -106 59q-62 0 -107.5 -47.5t-45.5 -109.5q0 -51 29 -82.5t76 -31.5z" />
    <glyph glyph-name="Aogonek" unicode="&#x104;" horiz-adv-x="752" 
d="M690 -57l13 -96q-26 -12 -73 -12q-66 0 -106.5 32t-40.5 84q0 50 54 82l-24 103h-309l-80 -136h-150l416 684h127l173 -684h-62q-36 -9 -36 -35q0 -28 55 -28q17 0 43 6zM279 262h204l-58 247z" />
    <glyph glyph-name="aogonek" unicode="&#x105;" horiz-adv-x="609" 
d="M495 -68q17 0 43 6l13 -96q-26 -12 -73 -12q-66 0 -106.5 32t-40.5 84q0 45 46 77l1 5q-66 -38 -144 -38q-89 0 -143.5 57.5t-54.5 152.5q0 116 87 201.5t199 85.5q78 0 130 -38l5 28h131l-84 -477q-64 -8 -64 -40q0 -28 55 -28zM274 103q74 0 128 59l26 153
q-31 59 -106 59q-62 0 -107.5 -47.5t-45.5 -109.5q0 -51 29 -82.5t76 -31.5z" />
    <glyph glyph-name="Cacute" unicode="&#x106;" horiz-adv-x="789" 
d="M682 906l-126 -151h-118l99 151h145zM385 119q64 0 127 42t92 111h140q-46 -130 -149.5 -207t-232.5 -77q-149 0 -234.5 99t-58.5 253q27 153 147.5 252.5t270.5 99.5q129 0 205 -77t76 -207h-140q-5 75 -47.5 114t-117.5 39q-97 0 -168 -61.5t-88 -159.5
q-17 -100 33 -160.5t145 -60.5z" />
    <glyph glyph-name="cacute" unicode="&#x107;" horiz-adv-x="570" 
d="M528 686l-126 -151h-118l99 151h145zM316 368q-55 0 -95.5 -37t-50.5 -93q-10 -58 17 -94t83 -36q40 0 72 20.5t46 55.5h134q-27 -86 -103.5 -140.5t-169.5 -54.5q-114 0 -172 68.5t-38 180.5q19 106 104.5 177.5t193.5 71.5q93 0 150.5 -54.5t53.5 -140.5h-134
q-2 35 -26.5 55.5t-64.5 20.5z" />
    <glyph glyph-name="Cdotaccent" unicode="&#x10a;" horiz-adv-x="793" 
d="M523 749q-34 0 -57.5 22.5t-23.5 55.5t23.5 55.5t57.5 22.5t57.5 -22.5t23.5 -55.5t-23.5 -55.5t-57.5 -22.5zM385 119q64 0 127 42t92 111h140q-46 -130 -149.5 -207t-232.5 -77q-149 0 -234.5 99t-58.5 253q27 153 147.5 252.5t270.5 99.5q129 0 205 -77t76 -207h-140
q-5 75 -47.5 114t-117.5 39q-97 0 -168 -61.5t-88 -159.5q-17 -100 33 -160.5t145 -60.5z" />
    <glyph glyph-name="cdotaccent" unicode="&#x10b;" horiz-adv-x="569" 
d="M351 529q-34 0 -57.5 22.5t-23.5 55.5t23.5 55.5t57.5 22.5t57.5 -22.5t23.5 -55.5t-23.5 -55.5t-57.5 -22.5zM316 368q-55 0 -95.5 -37t-50.5 -93q-10 -58 17 -94t83 -36q40 0 72 20.5t46 55.5h134q-27 -86 -103.5 -140.5t-169.5 -54.5q-114 0 -172 68.5t-38 180.5
q19 106 104.5 177.5t193.5 71.5q93 0 150.5 -54.5t53.5 -140.5h-134q-2 35 -26.5 55.5t-64.5 20.5z" />
    <glyph glyph-name="Ccaron" unicode="&#x10c;" horiz-adv-x="789" 
d="M567 745h-123l-91 155h114l49 -82l74 82h122zM385 119q64 0 127 42t92 111h140q-46 -130 -149.5 -207t-232.5 -77q-149 0 -234.5 99t-58.5 253q27 153 147.5 252.5t270.5 99.5q129 0 205 -77t76 -207h-140q-5 75 -47.5 114t-117.5 39q-97 0 -168 -61.5t-88 -159.5
q-17 -100 33 -160.5t145 -60.5z" />
    <glyph glyph-name="ccaron" unicode="&#x10d;" horiz-adv-x="570" 
d="M405 525h-123l-91 155h114l49 -82l74 82h122zM337 487q93 0 150.5 -54.5t53.5 -140.5h-134q-2 35 -26.5 55.5t-64.5 20.5q-55 0 -95.5 -37t-50.5 -93q-10 -58 17 -94t83 -36q40 0 72 20.5t46 55.5h134q-27 -86 -103.5 -140.5t-169.5 -54.5q-114 0 -172 68.5t-38 180.5
q19 106 104.5 177.5t193.5 71.5z" />
    <glyph glyph-name="Dcaron" unicode="&#x10e;" horiz-adv-x="748" 
d="M481 745h-123l-91 155h114l49 -82l74 82h122zM409 680q138 0 224 -81.5t86 -206.5q0 -107 -59 -197.5t-158 -142.5t-213 -52h-261l120 680h261zM318 126q105 0 184 73t79 173q0 78 -52 130t-135 52h-132l-76 -428h132z" />
    <glyph glyph-name="dcaron" unicode="&#x10f;" horiz-adv-x="610" 
d="M453 449l46 261h131l-126 -710h-131l5 28q-65 -38 -143 -38q-87 0 -143 60.5t-56 150.5q0 115 87 200.5t199 85.5q79 0 131 -38zM675 710h133l-75 -204h-99zM275 103q75 0 127 59l27 153q-32 59 -107 59q-62 0 -107.5 -47.5t-45.5 -108.5q0 -48 29 -81.5t77 -33.5z" />
    <glyph glyph-name="Dcroat" unicode="&#x110;" horiz-adv-x="748" 
d="M409 680q138 0 224 -81.5t86 -206.5q0 -107 -59 -197.5t-158 -142.5t-213 -52h-261l50 284h-68l22 116h67l49 280h261zM318 126q105 0 184 73t79 173q0 78 -52 130t-135 52h-132l-27 -154h118l-22 -116h-117l-28 -158h132z" />
    <glyph glyph-name="dcroat" unicode="&#x111;" horiz-adv-x="610" 
d="M666 652l-19 -108h-46l-97 -544h-131l5 28q-65 -38 -143 -38q-87 0 -143 60.5t-56 150.5q0 115 87 200.5t199 85.5q79 0 131 -38l17 95h-144l19 108h144l10 58h131l-10 -58h46zM275 103q75 0 127 59l27 153q-32 59 -107 59q-62 0 -107.5 -47.5t-45.5 -108.5
q0 -48 29 -81.5t77 -33.5z" />
    <glyph glyph-name="Emacron" unicode="&#x112;" horiz-adv-x="625" 
d="M563 851l-18 -95h-280l18 95h280zM626 554h-364l-28 -156h324l-22 -126h-324l-26 -146h364l-22 -126h-500l120 680h500z" />
    <glyph glyph-name="emacron" unicode="&#x113;" horiz-adv-x="560" 
d="M509 649l-18 -95h-280l18 95h280zM335 487q114 0 164 -78t15 -209h-347q2 -44 29 -70.5t80 -26.5q56 0 81 27h145q-33 -65 -99.5 -103t-148.5 -38q-115 0 -174 72t-41 177q19 109 103 179t193 70zM319 378q-96 0 -134 -89h217q7 89 -83 89z" />
    <glyph glyph-name="Edotaccent" unicode="&#x116;" horiz-adv-x="612" 
d="M406 749q-34 0 -57.5 22.5t-23.5 55.5t23.5 55.5t57.5 22.5t57.5 -22.5t23.5 -55.5t-23.5 -55.5t-57.5 -22.5zM626 554h-364l-28 -156h324l-22 -126h-324l-26 -146h364l-22 -126h-500l120 680h500z" />
    <glyph glyph-name="edotaccent" unicode="&#x117;" horiz-adv-x="565" 
d="M353 529q-34 0 -57.5 22.5t-23.5 55.5t23.5 55.5t57.5 22.5t57.5 -22.5t23.5 -55.5t-23.5 -55.5t-57.5 -22.5zM335 487q114 0 164 -78t15 -209h-347q2 -44 29 -70.5t80 -26.5q56 0 81 27h145q-33 -65 -99.5 -103t-148.5 -38q-115 0 -174 72t-41 177q19 109 103 179
t193 70zM319 378q-96 0 -134 -89h217q7 89 -83 89z" />
    <glyph glyph-name="Eogonek" unicode="&#x118;" horiz-adv-x="625" 
d="M626 554h-364l-28 -156h324l-22 -126h-324l-26 -146h364l-22 -126h-4q-64 -8 -64 -40q0 -28 55 -28q17 0 43 6l13 -96q-26 -12 -73 -12q-66 0 -106.5 32t-40.5 84q0 29 20 54h-343l120 680h500z" />
    <glyph glyph-name="eogonek" unicode="&#x119;" horiz-adv-x="565" 
d="M335 487q114 0 164 -78t15 -209h-347q2 -44 29 -70.5t80 -26.5q56 0 81 27h145q-26 -51 -71 -84q-20 -21 -25.5 -32.5t-5.5 -26.5q0 -38 55 -38q17 0 43 6l13 -96q-26 -12 -73 -12q-66 0 -106.5 32t-40.5 84q0 16 4 29q-19 -3 -41 -3q-115 0 -174 72t-41 177
q19 109 103 179t193 70zM319 378q-96 0 -134 -89h217q7 89 -83 89z" />
    <glyph glyph-name="Ecaron" unicode="&#x11a;" horiz-adv-x="625" 
d="M473 745h-123l-91 155h114l49 -82l74 82h122zM626 554h-364l-28 -156h324l-22 -126h-324l-26 -146h364l-22 -126h-500l120 680h500z" />
    <glyph glyph-name="ecaron" unicode="&#x11b;" horiz-adv-x="560" 
d="M406 525h-123l-91 155h114l49 -82l74 82h122zM335 487q114 0 164 -78t15 -209h-347q2 -44 29 -70.5t80 -26.5q56 0 81 27h145q-33 -65 -99.5 -103t-148.5 -38q-115 0 -174 72t-41 177q19 109 103 179t193 70zM319 378q-96 0 -134 -89h217q7 89 -83 89z" />
    <glyph glyph-name="Gbreve" unicode="&#x11e;" horiz-adv-x="820" 
d="M495 755q-72 0 -108 41t-23 118h95q-12 -72 48 -72q26 0 48 17t28 55h99q-13 -77 -64 -118t-123 -41zM398 252l22 126h354l-67 -378h-106l9 97q-98 -109 -249 -109q-152 0 -235 100t-59 242q29 159 150.5 260.5t273.5 101.5q117 0 197.5 -63.5t88.5 -185.5h-136
q-8 51 -36.5 80t-58.5 36.5t-72 7.5q-98 0 -173.5 -65t-94.5 -172q-15 -88 33 -149t145 -61q72 0 128 35.5t88 96.5h-202z" />
    <glyph glyph-name="gbreve" unicode="&#x11f;" horiz-adv-x="611" 
d="M366 519q-72 0 -108 41t-23 118h95q-12 -72 48 -72q26 0 48 17t28 55h99q-13 -77 -64 -118t-123 -41zM459 477h131l-85 -480q-19 -110 -98.5 -174.5t-187.5 -64.5q-103 0 -162 57.5t-51 147.5h133q-2 -40 23 -66.5t74 -26.5t88.5 35t49.5 92l10 58q-66 -38 -138 -38
q-92 0 -148.5 61t-56.5 149q0 110 85 186t201 76q76 0 128 -36zM285 130q71 0 123 60l23 129q-29 57 -103 57q-67 0 -110.5 -38.5t-43.5 -94.5q0 -45 29 -79t82 -34z" />
    <glyph glyph-name="Gdotaccent" unicode="&#x120;" horiz-adv-x="816" 
d="M500 749q-34 0 -57.5 22.5t-23.5 55.5t23.5 55.5t57.5 22.5t57.5 -22.5t23.5 -55.5t-23.5 -55.5t-57.5 -22.5zM398 252l22 126h354l-67 -378h-106l9 97q-98 -109 -249 -109q-152 0 -235 100t-59 242q29 159 150.5 260.5t273.5 101.5q117 0 197.5 -63.5t88.5 -185.5h-136
q-8 51 -36.5 80t-58.5 36.5t-72 7.5q-98 0 -173.5 -65t-94.5 -172q-15 -88 33 -149t145 -61q72 0 128 35.5t88 96.5h-202z" />
    <glyph glyph-name="gdotaccent" unicode="&#x121;" horiz-adv-x="611" 
d="M355 529q-34 0 -57.5 22.5t-23.5 55.5t23.5 55.5t57.5 22.5t57.5 -22.5t23.5 -55.5t-23.5 -55.5t-57.5 -22.5zM459 477h131l-85 -480q-19 -110 -98.5 -174.5t-187.5 -64.5q-103 0 -162 57.5t-51 147.5h133q-2 -40 23 -66.5t74 -26.5t88.5 35t49.5 92l10 58
q-66 -38 -138 -38q-92 0 -148.5 61t-56.5 149q0 110 85 186t201 76q76 0 128 -36zM285 130q71 0 123 60l23 129q-29 57 -103 57q-67 0 -110.5 -38.5t-43.5 -94.5q0 -45 29 -79t82 -34z" />
    <glyph glyph-name="Gcommaaccent" unicode="&#x122;" horiz-adv-x="820" 
d="M398 252l22 126h354l-67 -378h-106l9 97q-98 -109 -249 -109q-152 0 -235 100t-59 242q29 159 150.5 260.5t273.5 101.5q117 0 197.5 -63.5t88.5 -185.5h-136q-8 51 -36.5 80t-58.5 36.5t-72 7.5q-98 0 -173.5 -65t-94.5 -172q-15 -88 33 -149t145 -61q72 0 128 35.5
t88 96.5h-202zM364 -45q31 0 52.5 -20t21.5 -49q0 -20 -12.5 -39t-76.5 -98h-72l57 76q-44 18 -44 61q0 28 22 48.5t52 20.5z" />
    <glyph glyph-name="gcommaaccent" unicode="&#x123;" horiz-adv-x="610" 
d="M357 542q-31 0 -52.5 20t-21.5 49q0 20 12.5 39t76.5 98h72l-57 -76q44 -18 44 -61q0 -28 -22 -48.5t-52 -20.5zM459 477h131l-85 -480q-19 -110 -98.5 -174.5t-187.5 -64.5q-103 0 -162 57.5t-51 147.5h133q-2 -40 23 -66.5t74 -26.5t88.5 35t49.5 92l10 58
q-66 -38 -138 -38q-92 0 -148.5 61t-56.5 149q0 110 85 186t201 76q76 0 128 -36zM285 130q71 0 123 60l23 129q-29 57 -103 57q-67 0 -110.5 -38.5t-43.5 -94.5q0 -45 29 -79t82 -34z" />
    <glyph glyph-name="Hbar" unicode="&#x126;" horiz-adv-x="726" 
d="M767 590l-20 -112h-49l-84 -478h-136l47 269h-314l-47 -269h-136l84 478h-48l20 112h48l16 90h136l-16 -90h314l16 90h136l-16 -90h49zM548 395l14 83h-314l-14 -83h314z" />
    <glyph glyph-name="hbar" unicode="&#x127;" horiz-adv-x="599" 
d="M375 489q95 0 141.5 -62.5t27.5 -167.5l-45 -259h-131l44 251q10 58 -12 88.5t-74 30.5q-58 0 -122 -61l-54 -309h-131l102 578h-49l16 92h49l7 40h131l-7 -40h118l-16 -92h-118l-24 -137q70 48 147 48z" />
    <glyph glyph-name="Imacron" unicode="&#x12a;" horiz-adv-x="276" 
d="M110 851h280l-18 -95h-280zM284 680l-120 -680h-136l120 680h136z" />
    <glyph glyph-name="imacron" unicode="&#x12b;" horiz-adv-x="256" 
d="M60 649h280l-18 -95h-280zM104 477h131l-84 -477h-131z" />
    <glyph glyph-name="Iogonek" unicode="&#x12e;" horiz-adv-x="276" 
d="M155 -68q17 0 43 6l13 -96q-26 -12 -73 -12q-66 0 -106.5 32t-40.5 84q0 42 40 73l117 661h136l-120 -680q-64 -8 -64 -40q0 -28 55 -28z" />
    <glyph glyph-name="iogonek" unicode="&#x12f;" horiz-adv-x="287" 
d="M215 725q33 0 56.5 -22.5t23.5 -55.5t-23.5 -55t-56.5 -22q-34 0 -57 22t-23 55q0 34 23 56t57 22zM169 0q-64 -8 -64 -40q0 -28 55 -28q18 0 43 6l13 -96q-26 -12 -73 -12q-66 0 -106.5 32t-40.5 84q0 47 49 79l80 452h131l-84 -477h-3z" />
    <glyph glyph-name="Idotaccent" unicode="&#x130;" horiz-adv-x="276" 
d="M236 752q-35 0 -60 24t-25 58q0 35 24.5 58.5t60.5 23.5t60.5 -23.5t24.5 -58.5q0 -34 -25 -58t-60 -24zM284 680l-120 -680h-136l120 680h136z" />
    <glyph glyph-name="dotlessi" unicode="&#x131;" horiz-adv-x="256" 
d="M104 477h131l-84 -477h-131z" />
    <glyph glyph-name="IJ" unicode="&#x132;" horiz-adv-x="884" 
d="M284 680l-120 -680h-136l120 680h136zM902 680l-75 -424q-24 -134 -102.5 -201t-196.5 -67q-109 0 -177.5 66t-54.5 170h138q-7 -51 22 -80t88 -29q55 0 94.5 39t51.5 106l74 420h138z" />
    <glyph glyph-name="ij" unicode="&#x133;" horiz-adv-x="572" 
d="M215 570q-34 0 -57 22t-23 55q0 34 23 56t57 22q33 0 56.5 -22.5t23.5 -55.5t-23.5 -55t-56.5 -22zM500 570q-34 0 -57 22t-23 55q0 34 23 56t57 22q33 0 56.5 -22.5t23.5 -55.5t-23.5 -55t-56.5 -22zM125 477h131l-84 -477h-131zM534 477l-87 -495q-20 -114 -76 -168
t-179 -56l9 114q57 8 80 26t32 67l90 512h131z" />
    <glyph glyph-name="Kcommaaccent" unicode="&#x136;" horiz-adv-x="716" 
d="M752 680l-319 -299l227 -381h-171l-167 277l-131 -124l-27 -153h-136l120 680h136l-56 -319l341 319h183zM314 -45q31 0 52.5 -20t21.5 -49q0 -20 -12.5 -39t-76.5 -98h-72l57 76q-44 18 -44 61q0 28 22 48.5t52 20.5z" />
    <glyph glyph-name="kcommaaccent" unicode="&#x137;" horiz-adv-x="587" 
d="M593 477l-222 -198l160 -279h-169l-98 184l-95 -85l-18 -99h-131l126 710h131l-78 -438l228 205h166zM236 -45q31 0 52.5 -20t21.5 -49q0 -20 -12.5 -39t-76.5 -98h-72l57 76q-44 18 -44 61q0 28 22 48.5t52 20.5z" />
    <glyph glyph-name="Lacute" unicode="&#x139;" horiz-adv-x="597" 
d="M413 906l-126 -151h-118l99 151h145zM186 123h351l-22 -123h-487l120 680h136z" />
    <glyph glyph-name="lacute" unicode="&#x13a;" horiz-adv-x="257" 
d="M263 919h145l-126 -151h-118zM146 710h131l-126 -710h-131z" />
    <glyph glyph-name="Lcommaaccent" unicode="&#x13b;" horiz-adv-x="597" 
d="M186 123h351l-22 -123h-487l120 680h136zM268 -45q31 0 52.5 -20t21.5 -49q0 -20 -12.5 -39t-76.5 -98h-72l57 76q-44 18 -44 61q0 28 22 48.5t52 20.5z" />
    <glyph glyph-name="lcommaaccent" unicode="&#x13c;" horiz-adv-x="257" 
d="M146 710h131l-126 -710h-131zM-19 -251l57 76q-44 18 -44 61q0 28 22 48.5t52 20.5q31 0 52.5 -20t21.5 -49q0 -20 -12.5 -39t-76.5 -98h-72z" />
    <glyph glyph-name="Lcaron" unicode="&#x13d;" horiz-adv-x="597" 
d="M186 123h351l-22 -123h-487l120 680h136zM506 680l-75 -204h-99l41 204h133z" />
    <glyph glyph-name="lcaron" unicode="&#x13e;" horiz-adv-x="257" 
d="M146 710h131l-126 -710h-131zM326 710h133l-75 -204h-99z" />
    <glyph glyph-name="Ldot" unicode="&#x13f;" horiz-adv-x="597" 
d="M186 123h351l-22 -123h-487l120 680h136zM395 271q-34 0 -57.5 22.5t-23.5 55.5t23.5 55.5t57.5 22.5t57.5 -22.5t23.5 -55.5t-23.5 -55.5t-57.5 -22.5z" />
    <glyph glyph-name="ldot" unicode="&#x140;" horiz-adv-x="445" 
d="M146 710h131l-126 -710h-131zM316 255q-34 0 -57.5 22.5t-23.5 55.5t23.5 55.5t57.5 22.5t57.5 -22.5t23.5 -55.5t-23.5 -55.5t-57.5 -22.5z" />
    <glyph glyph-name="Lslash" unicode="&#x141;" horiz-adv-x="597" 
d="M186 123h351l-22 -123h-487l42 240l-63 -23l20 113l63 23l58 327h136l-48 -273l172 63l-19 -113l-173 -63z" />
    <glyph glyph-name="lslash" unicode="&#x142;" horiz-adv-x="257" 
d="M301 493l-23 -133l-68 -26l-59 -334h-131l50 281l-68 -26l24 133l67 26l53 296h131l-43 -243z" />
    <glyph glyph-name="Nacute" unicode="&#x143;" horiz-adv-x="749" 
d="M622 906l-126 -151h-118l99 151h145zM621 680h136l-120 -680h-105l-292 433l-76 -433h-136l120 680h83l310 -453z" />
    <glyph glyph-name="nacute" unicode="&#x144;" horiz-adv-x="599" 
d="M536 686l-126 -151h-118l99 151h145zM375 489q95 0 141.5 -62.5t27.5 -167.5l-45 -259h-131l44 251q10 58 -12 88.5t-74 30.5q-58 0 -122 -61l-54 -309h-131l84 477h131l-6 -36q70 48 147 48z" />
    <glyph glyph-name="Ncommaaccent" unicode="&#x145;" horiz-adv-x="749" 
d="M621 680h136l-120 -680h-105l-292 433l-76 -433h-136l120 680h83l310 -453zM333 -45q31 0 52.5 -20t21.5 -49q0 -20 -12.5 -39t-76.5 -98h-72l57 76q-44 18 -44 61q0 28 22 48.5t52 20.5z" />
    <glyph glyph-name="ncommaaccent" unicode="&#x146;" horiz-adv-x="599" 
d="M375 489q95 0 141.5 -62.5t27.5 -167.5l-45 -259h-131l44 251q10 58 -12 88.5t-74 30.5q-58 0 -122 -61l-54 -309h-131l84 477h131l-6 -36q70 48 147 48zM243 -45q31 0 52.5 -20t21.5 -49q0 -20 -12.5 -39t-76.5 -98h-72l57 76q-44 18 -44 61q0 28 22 48.5t52 20.5z" />
    <glyph glyph-name="Ncaron" unicode="&#x147;" horiz-adv-x="749" 
d="M507 745h-123l-91 155h114l49 -82l74 82h122zM621 680h136l-120 -680h-105l-292 433l-76 -433h-136l120 680h83l310 -453z" />
    <glyph glyph-name="ncaron" unicode="&#x148;" horiz-adv-x="599" 
d="M413 525h-123l-91 155h114l49 -82l74 82h122zM375 489q95 0 141.5 -62.5t27.5 -167.5l-45 -259h-131l44 251q10 58 -12 88.5t-74 30.5q-58 0 -122 -61l-54 -309h-131l84 477h131l-6 -36q70 48 147 48z" />
    <glyph glyph-name="Omacron" unicode="&#x14c;" horiz-adv-x="814" 
d="M391 851h280l-18 -95h-280zM483 692q133 0 217.5 -86t84.5 -214q0 -107 -60 -201t-156.5 -148.5t-201.5 -54.5q-133 0 -217.5 86t-84.5 214q0 107 60 201t156.5 148.5t201.5 54.5zM379 118q103 0 185.5 77.5t82.5 185.5q0 78 -47 129.5t-132 51.5q-106 0 -185.5 -77
t-79.5 -184q0 -78 47 -130.5t129 -52.5z" />
    <glyph glyph-name="omacron" unicode="&#x14d;" horiz-adv-x="587" 
d="M232 649h280l-18 -95h-280zM338 489q95 0 154 -59.5t59 -152.5q0 -122 -89 -205.5t-213 -83.5q-96 0 -154.5 58t-58.5 152q0 123 89 207t213 84zM270 107q63 0 106 44.5t43 108.5q0 47 -27.5 78.5t-74.5 31.5q-63 0 -106 -46t-43 -110q0 -48 27 -77.5t75 -29.5z" />
    <glyph glyph-name="Ohungarumlaut" unicode="&#x150;" horiz-adv-x="814" 
d="M418 906h135l-80 -151h-108zM568 906h135l-80 -151h-108zM483 692q133 0 217.5 -86t84.5 -214q0 -107 -60 -201t-156.5 -148.5t-201.5 -54.5q-133 0 -217.5 86t-84.5 214q0 107 60 201t156.5 148.5t201.5 54.5zM379 118q103 0 185.5 77.5t82.5 185.5q0 78 -47 129.5
t-132 51.5q-106 0 -185.5 -77t-79.5 -184q0 -78 47 -130.5t129 -52.5z" />
    <glyph glyph-name="ohungarumlaut" unicode="&#x151;" horiz-adv-x="587" 
d="M257 686h135l-80 -151h-108zM407 686h135l-80 -151h-108zM338 489q95 0 154 -59.5t59 -152.5q0 -122 -89 -205.5t-213 -83.5q-96 0 -154.5 58t-58.5 152q0 123 89 207t213 84zM270 107q63 0 106 44.5t43 108.5q0 47 -27.5 78.5t-74.5 31.5q-63 0 -106 -46t-43 -110
q0 -48 27 -77.5t75 -29.5z" />
    <glyph glyph-name="OE" unicode="&#x152;" horiz-adv-x="1029" 
d="M1030 554h-364l-28 -156h324l-22 -126h-324l-26 -146h364l-22 -126h-547q-143 0 -231 81.5t-88 208.5q0 164 129 277t310 113h547zM454 127l76 426h-47q-121 0 -199.5 -70.5t-78.5 -175.5q0 -80 54 -130t148 -50h47z" />
    <glyph glyph-name="oe" unicode="&#x153;" horiz-adv-x="945" 
d="M715 487q114 0 164 -78t15 -209h-347q2 -44 29 -70.5t80 -26.5q56 0 81 27h145q-33 -65 -99.5 -103t-148.5 -38q-119 0 -178 77q-88 -78 -207 -78q-96 0 -154.5 58t-58.5 152q0 123 89 207t213 84q113 0 173 -81q87 79 204 79zM699 378q-96 0 -134 -89h217q7 89 -83 89z
M270 107q63 0 106 44.5t43 108.5q0 47 -27.5 78.5t-74.5 31.5q-63 0 -106 -46t-43 -110q0 -48 27 -77.5t75 -29.5z" />
    <glyph glyph-name="Racute" unicode="&#x154;" horiz-adv-x="687" 
d="M561 906l-126 -151h-118l99 151h145zM664 480q0 -84 -51.5 -148.5t-135.5 -94.5l148 -237h-160l-124 216h-139l-38 -216h-136l120 680h267q112 0 180.5 -54t68.5 -146zM262 554l-38 -212h147q63 0 110 33.5t47 84.5q0 43 -34 68.5t-86 25.5h-146z" />
    <glyph glyph-name="racute" unicode="&#x155;" horiz-adv-x="392" 
d="M450 686l-126 -151h-118l99 151h145zM234 477l-10 -56q78 64 181 64l-22 -124q-112 -6 -182 -72l-51 -289h-131l84 477h131z" />
    <glyph glyph-name="Rcommaaccent" unicode="&#x156;" horiz-adv-x="687" 
d="M664 480q0 -84 -51.5 -148.5t-135.5 -94.5l148 -237h-160l-124 216h-139l-38 -216h-136l120 680h267q112 0 180.5 -54t68.5 -146zM262 554l-38 -212h147q63 0 110 33.5t47 84.5q0 43 -34 68.5t-86 25.5h-146zM292 -45q31 0 52.5 -20t21.5 -49q0 -20 -12.5 -39t-76.5 -98
h-72l57 76q-44 18 -44 61q0 28 22 48.5t52 20.5z" />
    <glyph glyph-name="rcommaaccent" unicode="&#x157;" horiz-adv-x="392" 
d="M405 485l-22 -124q-112 -6 -182 -72l-51 -289h-131l84 477h131l-10 -56q78 64 181 64zM67 -45q31 0 52.5 -20t21.5 -49q0 -20 -12.5 -39t-76.5 -98h-72l57 76q-44 18 -44 61q0 28 22 48.5t52 20.5z" />
    <glyph glyph-name="Rcaron" unicode="&#x158;" horiz-adv-x="687" 
d="M446 745h-123l-91 155h114l49 -82l74 82h122zM664 480q0 -84 -51.5 -148.5t-135.5 -94.5l148 -237h-160l-124 216h-139l-38 -216h-136l120 680h267q112 0 180.5 -54t68.5 -146zM262 554l-38 -212h147q63 0 110 33.5t47 84.5q0 43 -34 68.5t-86 25.5h-146z" />
    <glyph glyph-name="rcaron" unicode="&#x159;" horiz-adv-x="392" 
d="M327 525h-123l-91 155h114l49 -82l74 82h122zM234 477l-10 -56q78 64 181 64l-22 -124q-112 -6 -182 -72l-51 -289h-131l84 477h131z" />
    <glyph glyph-name="Sacute" unicode="&#x15a;" horiz-adv-x="670" 
d="M448 906h145l-126 -151h-118zM412 695q47 0 88.5 -10.5t79.5 -34.5t57.5 -69.5t14.5 -107.5h-135q2 50 -26 77.5t-90 27.5q-63 0 -102 -26.5t-39 -73.5q0 -29 22 -45.5t66 -25.5l77 -16q89 -19 134 -56.5t45 -103.5q0 -109 -86.5 -177t-220.5 -68q-127 0 -196 64.5
t-57 173.5h135q-1 -60 34.5 -88.5t112.5 -28.5q62 0 97.5 23.5t35.5 63.5q0 46 -78 64l-107 24q-86 19 -126 62t-36 120q4 76 50 130t110.5 77.5t139.5 23.5z" />
    <glyph glyph-name="sacute" unicode="&#x15b;" horiz-adv-x="504" 
d="M346 686h145l-126 -151h-118zM142 165q-4 -71 96 -71q87 0 87 47q0 16 -13.5 25.5t-45.5 15.5l-79 14q-123 22 -123 120q0 76 66.5 124.5t167.5 48.5q33 0 63 -6t61 -22t47.5 -50t11.5 -82l-122 -1q4 31 -18.5 45.5t-60.5 14.5q-39 0 -60.5 -13.5t-21.5 -33.5
q0 -35 51 -44l74 -14q61 -12 96 -38t35 -83q0 -76 -63.5 -125t-170.5 -49q-92 0 -150.5 41.5t-48.5 136.5z" />
    <glyph glyph-name="Scedilla" unicode="&#x15e;" horiz-adv-x="670" 
d="M412 695q47 0 88.5 -10.5t79.5 -34.5t57.5 -69.5t14.5 -107.5h-135q2 50 -26 77.5t-90 27.5q-63 0 -102 -26.5t-39 -73.5q0 -29 22 -45.5t66 -25.5l77 -16q89 -19 134 -56.5t45 -103.5q0 -109 -86.5 -177t-220.5 -68q-127 0 -196 64.5t-57 173.5h135q-1 -60 34.5 -88.5
t112.5 -28.5q62 0 97.5 23.5t35.5 63.5q0 46 -78 64l-107 24q-86 19 -126 62t-36 120q4 76 50 130t110.5 77.5t139.5 23.5zM338 -50l-88 -134h-113l71 134h130z" />
    <glyph glyph-name="scedilla" unicode="&#x15f;" horiz-adv-x="504" 
d="M142 165q-4 -71 96 -71q87 0 87 47q0 16 -13.5 25.5t-45.5 15.5l-79 14q-123 22 -123 120q0 76 66.5 124.5t167.5 48.5q33 0 63 -6t61 -22t47.5 -50t11.5 -82l-122 -1q4 31 -18.5 45.5t-60.5 14.5q-39 0 -60.5 -13.5t-21.5 -33.5q0 -35 51 -44l74 -14q61 -12 96 -38
t35 -83q0 -76 -63.5 -125t-170.5 -49q-92 0 -150.5 41.5t-48.5 136.5zM261 -50l-88 -134h-113l71 134h130z" />
    <glyph glyph-name="Scaron" unicode="&#x160;" horiz-adv-x="670" 
d="M501 900h122l-145 -155h-123l-91 155h114l49 -82zM412 695q47 0 88.5 -10.5t79.5 -34.5t57.5 -69.5t14.5 -107.5h-135q2 50 -26 77.5t-90 27.5q-63 0 -102 -26.5t-39 -73.5q0 -29 22 -45.5t66 -25.5l77 -16q89 -19 134 -56.5t45 -103.5q0 -109 -86.5 -177t-220.5 -68
q-127 0 -196 64.5t-57 173.5h135q-1 -60 34.5 -88.5t112.5 -28.5q62 0 97.5 23.5t35.5 63.5q0 46 -78 64l-107 24q-86 19 -126 62t-36 120q4 76 50 130t110.5 77.5t139.5 23.5z" />
    <glyph glyph-name="scaron" unicode="&#x161;" horiz-adv-x="504" 
d="M391 680h122l-145 -155h-123l-91 155h114l49 -82zM142 165q-4 -71 96 -71q87 0 87 47q0 16 -13.5 25.5t-45.5 15.5l-79 14q-123 22 -123 120q0 76 66.5 124.5t167.5 48.5q33 0 63 -6t61 -22t47.5 -50t11.5 -82l-122 -1q4 31 -18.5 45.5t-60.5 14.5q-39 0 -60.5 -13.5
t-21.5 -33.5q0 -35 51 -44l74 -14q61 -12 96 -38t35 -83q0 -76 -63.5 -125t-170.5 -49q-92 0 -150.5 41.5t-48.5 136.5z" />
    <glyph glyph-name="uni0162" unicode="&#x162;" horiz-adv-x="652" 
d="M702 680l-22 -126h-231l-98 -554h-136l98 554h-231l22 126h598zM132 -184l71 134h130l-88 -134h-113z" />
    <glyph glyph-name="uni0163" unicode="&#x163;" horiz-adv-x="452" 
d="M265 367l-32 -180q-7 -38 8.5 -59.5t53.5 -21.5q47 0 95 27l-5 -127q-72 -21 -120 -21q-86 0 -132 57.5t-31 144.5l32 180h-102l19 110h102l31 173h131l-31 -173h175l-19 -110h-175zM80 -184l71 134h130l-88 -134h-113z" />
    <glyph glyph-name="Tcaron" unicode="&#x164;" horiz-adv-x="652" 
d="M468 745h-123l-91 155h114l49 -82l74 82h122zM702 680l-22 -126h-231l-98 -554h-136l98 554h-231l22 126h598z" />
    <glyph glyph-name="tcaron" unicode="&#x165;" horiz-adv-x="452" 
d="M508 712l-75 -204h-99l41 204h133zM315 650l-31 -173h175l-19 -110h-175l-32 -180q-7 -38 8.5 -59.5t53.5 -21.5q47 0 95 27l-5 -127q-72 -21 -120 -21q-86 0 -132 57.5t-31 144.5l32 180h-102l19 110h102l31 173h131z" />
    <glyph glyph-name="Umacron" unicode="&#x16a;" horiz-adv-x="729" 
d="M324 851h280l-18 -95h-280zM747 680l-66 -374q-57 -321 -362 -321q-135 0 -203.5 91t-43.5 230l66 374h136l-66 -374q-15 -89 19 -141.5t115 -52.5q76 0 132 53.5t71 140.5l66 374h136z" />
    <glyph glyph-name="umacron" unicode="&#x16b;" horiz-adv-x="607" 
d="M519 649l-18 -95h-280l18 95h280zM448 477h131l-84 -477h-131l6 36q-70 -48 -147 -48q-95 0 -141.5 62.5t-27.5 167.5l45 259h131l-44 -251q-10 -58 12 -88.5t74 -30.5q58 0 122 61z" />
    <glyph glyph-name="Uring" unicode="&#x16e;" horiz-adv-x="729" 
d="M455 978q52 0 84 -29.5t32 -78.5t-32 -79t-84 -30t-84 30t-32 79t32 78.5t84 29.5zM455 827q19 0 31 11.5t12 31.5q0 19 -12 30.5t-31 11.5t-31 -11.5t-12 -30.5q0 -20 12 -31.5t31 -11.5zM747 680l-66 -374q-57 -321 -362 -321q-135 0 -203.5 91t-43.5 230l66 374h136
l-66 -374q-15 -89 19 -141.5t115 -52.5q76 0 132 53.5t71 140.5l66 374h136z" />
    <glyph glyph-name="uring" unicode="&#x16f;" horiz-adv-x="607" 
d="M343 521q-52 0 -84 30t-32 79t32 78.5t84 29.5t84 -29.5t32 -78.5t-32 -79t-84 -30zM343 672q-19 0 -31 -11.5t-12 -30.5q0 -20 12 -31.5t31 -11.5t31 11.5t12 31.5q0 19 -12 30.5t-31 11.5zM448 477h131l-84 -477h-131l6 36q-70 -48 -147 -48q-95 0 -141.5 62.5
t-27.5 167.5l45 259h131l-44 -251q-10 -58 12 -88.5t74 -30.5q58 0 122 61z" />
    <glyph glyph-name="Uhungarumlaut" unicode="&#x170;" horiz-adv-x="729" 
d="M351 906h135l-80 -151h-108zM501 906h135l-80 -151h-108zM747 680l-66 -374q-57 -321 -362 -321q-135 0 -203.5 91t-43.5 230l66 374h136l-66 -374q-15 -89 19 -141.5t115 -52.5q76 0 132 53.5t71 140.5l66 374h136z" />
    <glyph glyph-name="uhungarumlaut" unicode="&#x171;" horiz-adv-x="607" 
d="M399 686l-80 -151h-108l53 151h135zM469 535h-108l53 151h135zM448 477h131l-84 -477h-131l6 36q-70 -48 -147 -48q-95 0 -141.5 62.5t-27.5 167.5l45 259h131l-44 -251q-10 -58 12 -88.5t74 -30.5q58 0 122 61z" />
    <glyph glyph-name="Uogonek" unicode="&#x172;" horiz-adv-x="729" 
d="M611 680h136l-66 -374q-36 -200 -168 -275q-79 -56 -79 -99q0 -36 51 -36q17 0 43 6l13 -109q-29 -9 -73 -9q-66 0 -104.5 31.5t-38.5 84.5q0 42 39 87q-28 -2 -45 -2q-135 0 -203.5 91t-43.5 230l66 374h136l-66 -374q-15 -89 19 -141.5t115 -52.5q76 0 132 53.5
t71 140.5z" />
    <glyph glyph-name="uogonek" unicode="&#x173;" horiz-adv-x="607" 
d="M486 -68q18 0 43 6l13 -96q-26 -12 -73 -12q-66 0 -106.5 32t-40.5 84q0 45 46 77l2 13q-70 -48 -147 -48q-95 0 -141.5 62.5t-27.5 167.5l45 259h131l-44 -251q-10 -58 12 -88.5t74 -30.5q58 0 122 61l54 309h131l-84 -477q-64 -8 -64 -40q0 -28 55 -28z" />
    <glyph glyph-name="Wcircumflex" unicode="&#x174;" horiz-adv-x="1061" 
d="M642 837l-71 -82h-125l145 155h123l91 -155h-115zM967 680h149l-345 -684h-134l-73 428l-232 -428h-134l-103 684h144l63 -452l246 452h115l77 -462z" />
    <glyph glyph-name="wcircumflex" unicode="&#x175;" horiz-adv-x="796" 
d="M468 607l-71 -82h-125l145 155h123l91 -155h-115zM681 477h142l-247 -477h-129l-44 276l-138 -276h-114l-94 477h142l36 -289l150 289h110l36 -289z" />
    <glyph glyph-name="Ycircumflex" unicode="&#x176;" horiz-adv-x="689" 
d="M433 837l-71 -82h-125l145 155h123l91 -155h-115zM762 680l-350 -456h-1l-39 -224h-138l39 225l-190 455h151l125 -304l232 304h171z" />
    <glyph glyph-name="ycircumflex" unicode="&#x177;" horiz-adv-x="613" 
d="M377 607l-71 -82h-125l145 155h123l91 -155h-115zM494 478h146l-429 -708h-146l143 237l-151 471h140l98 -328z" />
    <glyph glyph-name="Ydieresis" unicode="&#x178;" horiz-adv-x="689" 
d="M319 753q-32 0 -54.5 21.5t-22.5 52.5t22.5 52.5t54.5 21.5t54.5 -21.5t22.5 -52.5t-22.5 -52.5t-54.5 -21.5zM524 753q-32 0 -54.5 21.5t-22.5 52.5t22.5 52.5t54.5 21.5t54.5 -21.5t22.5 -52.5t-22.5 -52.5t-54.5 -21.5zM762 680l-350 -456h-1l-39 -224h-138l39 225
l-190 455h151l125 -304l232 304h171z" />
    <glyph glyph-name="Zacute" unicode="&#x179;" horiz-adv-x="653" 
d="M601 906l-126 -151h-118l99 151h145zM680 680l-11 -64l-427 -492h345l-21 -124h-569l11 64l443 492h-341l21 124h549z" />
    <glyph glyph-name="zacute" unicode="&#x17a;" horiz-adv-x="498" 
d="M487 686l-126 -151h-118l99 151h145zM508 477l-12 -70l-291 -298h238l-19 -109h-434l11 60l300 308h-240l19 109h428z" />
    <glyph glyph-name="Zdotaccent" unicode="&#x17b;" horiz-adv-x="653" 
d="M402 749q-34 0 -57.5 22.5t-23.5 55.5t23.5 55.5t57.5 22.5t57.5 -22.5t23.5 -55.5t-23.5 -55.5t-57.5 -22.5zM680 680l-11 -64l-427 -492h345l-21 -124h-569l11 64l443 492h-341l21 124h549z" />
    <glyph glyph-name="zdotaccent" unicode="&#x17c;" horiz-adv-x="498" 
d="M291 529q-34 0 -57.5 22.5t-23.5 55.5t23.5 55.5t57.5 22.5t57.5 -22.5t23.5 -55.5t-23.5 -55.5t-57.5 -22.5zM508 477l-12 -70l-291 -298h238l-19 -109h-434l11 60l300 308h-240l19 109h428z" />
    <glyph glyph-name="Zcaron" unicode="&#x17d;" horiz-adv-x="653" 
d="M486 745h-123l-91 155h114l49 -82l74 82h122zM680 680l-11 -64l-427 -492h345l-21 -124h-569l11 64l443 492h-341l21 124h549z" />
    <glyph glyph-name="zcaron" unicode="&#x17e;" horiz-adv-x="498" 
d="M364 525h-123l-91 155h114l49 -82l74 82h122zM61 368l19 109h428l-12 -70l-291 -298h238l-19 -109h-434l11 60l300 308h-240z" />
    <glyph glyph-name="florin" unicode="&#x192;" horiz-adv-x="584" 
d="M535 564q-84 0 -112 -91l-29 -96h167l-19 -110h-182l-53 -169q-30 -98 -92.5 -155t-150.5 -57q-60 0 -112 16l38 114q43 -9 69 -9q84 0 112 91l53 169h-130l19 110h145l29 96q30 98 92.5 155t150.5 57q60 0 112 -16l-38 -114q-43 9 -69 9z" />
    <glyph glyph-name="uni01CD" unicode="&#x1cd;" horiz-adv-x="752" 
d="M526 745h-123l-91 155h114l49 -82l74 82h122zM545 0l-32 136h-309l-80 -136h-150l416 684h127l173 -684h-145zM279 262h204l-58 247z" />
    <glyph glyph-name="uni01CE" unicode="&#x1ce;" horiz-adv-x="609" 
d="M427 525h-123l-91 155h114l49 -82l74 82h122zM457 477h131l-84 -477h-131l5 28q-66 -38 -144 -38q-89 0 -143.5 57.5t-54.5 152.5q0 116 87 201.5t199 85.5q78 0 130 -38zM274 103q74 0 128 59l26 153q-31 59 -106 59q-62 0 -107.5 -47.5t-45.5 -109.5q0 -51 29 -82.5
t76 -31.5z" />
    <glyph glyph-name="Scommaaccent" unicode="&#x218;" horiz-adv-x="670" 
d="M412 695q47 0 88.5 -10.5t79.5 -34.5t57.5 -69.5t14.5 -107.5h-135q2 50 -26 77.5t-90 27.5q-63 0 -102 -26.5t-39 -73.5q0 -29 22 -45.5t66 -25.5l77 -16q89 -19 134 -56.5t45 -103.5q0 -109 -86.5 -177t-220.5 -68q-127 0 -196 64.5t-57 173.5h135q-1 -60 34.5 -88.5
t112.5 -28.5q62 0 97.5 23.5t35.5 63.5q0 46 -78 64l-107 24q-86 19 -126 62t-36 120q4 76 50 130t110.5 77.5t139.5 23.5zM188 -251l57 76q-44 18 -44 61q0 28 22 48.5t52 20.5q31 0 52.5 -20t21.5 -49q0 -20 -12.5 -39t-76.5 -98h-72z" />
    <glyph glyph-name="scommaaccent" unicode="&#x219;" horiz-adv-x="504" 
d="M142 165q-4 -71 96 -71q87 0 87 47q0 16 -13.5 25.5t-45.5 15.5l-79 14q-123 22 -123 120q0 76 66.5 124.5t167.5 48.5q33 0 63 -6t61 -22t47.5 -50t11.5 -82l-122 -1q4 31 -18.5 45.5t-60.5 14.5q-39 0 -60.5 -13.5t-21.5 -33.5q0 -35 51 -44l74 -14q61 -12 96 -38
t35 -83q0 -76 -63.5 -125t-170.5 -49q-92 0 -150.5 41.5t-48.5 136.5zM111 -251l57 76q-44 18 -44 61q0 28 22 48.5t52 20.5q31 0 52.5 -20t21.5 -49q0 -20 -12.5 -39t-76.5 -98h-72z" />
    <glyph glyph-name="uni021A" unicode="&#x21a;" horiz-adv-x="652" 
d="M702 680l-22 -126h-231l-98 -554h-136l98 554h-231l22 126h598zM269 -45q31 0 52.5 -20t21.5 -49q0 -20 -12.5 -39t-76.5 -98h-72l57 76q-44 18 -44 61q0 28 22 48.5t52 20.5z" />
    <glyph glyph-name="uni021B" unicode="&#x21b;" horiz-adv-x="452" 
d="M265 367l-32 -180q-7 -38 8.5 -59.5t53.5 -21.5q47 0 95 27l-5 -127q-72 -21 -120 -21q-86 0 -132 57.5t-31 144.5l32 180h-102l19 110h102l31 173h131l-31 -173h175l-19 -110h-175zM207 -45q31 0 52.5 -20t21.5 -49q0 -20 -12.5 -39t-76.5 -98h-72l57 76q-44 18 -44 61
q0 28 22 48.5t52 20.5z" />
    <glyph glyph-name="circumflex" unicode="&#x2c6;" 
d="M385 545l-48 82l-71 -82h-125l145 155h123l91 -155h-115z" />
    <glyph glyph-name="caron" unicode="&#x2c7;" 
d="M408 700h122l-145 -155h-123l-91 155h114l49 -82z" />
    <glyph glyph-name="breve" unicode="&#x2d8;" 
d="M498 694q-13 -77 -64 -118t-123 -41t-108 41t-23 118h95q-12 -72 48 -72q26 0 48 17t28 55h99z" />
    <glyph glyph-name="dotaccent" unicode="&#x2d9;" 
d="M300 549q-34 0 -57.5 22.5t-23.5 55.5t23.5 55.5t57.5 22.5t57.5 -22.5t23.5 -55.5t-23.5 -55.5t-57.5 -22.5z" />
    <glyph glyph-name="ring" unicode="&#x2da;" 
d="M322 758q52 0 84 -29.5t32 -78.5t-32 -79t-84 -30t-84 30t-32 79t32 78.5t84 29.5zM322 607q20 0 31.5 11.5t11.5 31.5q0 19 -12 30.5t-31 11.5t-31 -11.5t-12 -30.5q0 -20 11.5 -31.5t31.5 -11.5z" />
    <glyph glyph-name="ogonek" unicode="&#x2db;" 
d="M371 5q-64 -8 -64 -40q0 -28 55 -28q18 0 43 6l13 -96q-26 -12 -73 -12q-66 0 -106.5 32t-40.5 84q0 43 43 74.5t119 37.5z" />
    <glyph glyph-name="tilde" unicode="&#x2dc;" 
d="M503 703q1 -42 -15.5 -71t-42.5 -40t-56 -10t-57 13l-31 14q-29 12 -44 3.5t-15 -29.5h-89q-1 42 16 71t43.5 39.5t56 10t55.5 -12.5l31 -14q31 -11 45 -3t14 29h89z" />
    <glyph glyph-name="hungarumlaut" unicode="&#x2dd;" 
d="M219 706h135l-80 -151h-108zM369 706h135l-80 -151h-108z" />
    <glyph glyph-name="uni0326" unicode="&#x326;" horiz-adv-x="0" 
d="M-389 -251l57 76q-44 18 -44 61q0 28 22 48.5t52 20.5q31 0 52.5 -20t21.5 -49q0 -20 -12.5 -39t-76.5 -98h-72z" />
    <glyph glyph-name="Wgrave" unicode="&#x1e80;" horiz-adv-x="1061" 
d="M678 755h-118l-100 151h145zM967 680h149l-345 -684h-134l-73 428l-232 -428h-134l-103 684h144l63 -452l246 452h115l77 -462z" />
    <glyph glyph-name="wgrave" unicode="&#x1e81;" horiz-adv-x="796" 
d="M512 535h-118l-100 151h145zM681 477h142l-247 -477h-129l-44 276l-138 -276h-114l-94 477h142l36 -289l150 289h110l36 -289z" />
    <glyph glyph-name="Wacute" unicode="&#x1e82;" horiz-adv-x="1061" 
d="M805 906l-126 -151h-118l99 151h145zM967 680h149l-345 -684h-134l-73 428l-232 -428h-134l-103 684h144l63 -452l246 452h115l77 -462z" />
    <glyph glyph-name="wacute" unicode="&#x1e83;" horiz-adv-x="796" 
d="M636 686l-126 -151h-118l99 151h145zM681 477h142l-247 -477h-129l-44 276l-138 -276h-114l-94 477h142l36 -289l150 289h110l36 -289z" />
    <glyph glyph-name="Wdieresis" unicode="&#x1e84;" horiz-adv-x="1061" 
d="M528 753q-32 0 -54.5 21.5t-22.5 52.5t22.5 52.5t54.5 21.5t54.5 -21.5t22.5 -52.5t-22.5 -52.5t-54.5 -21.5zM733 753q-32 0 -54.5 21.5t-22.5 52.5t22.5 52.5t54.5 21.5t54.5 -21.5t22.5 -52.5t-22.5 -52.5t-54.5 -21.5zM967 680h149l-345 -684h-134l-73 428l-232 -428
h-134l-103 684h144l63 -452l246 452h115l77 -462z" />
    <glyph glyph-name="wdieresis" unicode="&#x1e85;" horiz-adv-x="796" 
d="M351 533q-32 0 -54.5 21.5t-22.5 52.5t22.5 52.5t54.5 21.5t54.5 -21.5t22.5 -52.5t-22.5 -52.5t-54.5 -21.5zM556 533q-32 0 -54.5 21.5t-22.5 52.5t22.5 52.5t54.5 21.5t54.5 -21.5t22.5 -52.5t-22.5 -52.5t-54.5 -21.5zM681 477h142l-247 -477h-129l-44 276l-138 -276
h-114l-94 477h142l36 -289l150 289h110l36 -289z" />
    <glyph glyph-name="uni1E9E" unicode="&#x1e9e;" horiz-adv-x="735" 
d="M750 680l-15 -82l-176 -188q64 -14 101.5 -58.5t37.5 -110.5q0 -109 -85.5 -182.5t-216.5 -73.5q-71 0 -131 15l21 120q60 -19 114 -19q68 0 112.5 32.5t44.5 82.5q0 39 -32.5 62.5t-88.5 23.5h-67l12 64l166 188h-149q-57 0 -97.5 -33t-49.5 -86l-77 -435h-136l76 430
q19 112 103.5 181t202.5 69h330z" />
    <glyph glyph-name="Ygrave" unicode="&#x1ef2;" horiz-adv-x="689" 
d="M469 755h-118l-100 151h145zM762 680l-350 -456h-1l-39 -224h-138l39 225l-190 455h151l125 -304l232 304h171z" />
    <glyph glyph-name="ygrave" unicode="&#x1ef3;" horiz-adv-x="613" 
d="M421 535h-118l-100 151h145zM494 478h146l-429 -708h-146l143 237l-151 471h140l98 -328z" />
    <glyph glyph-name="endash" unicode="&#x2013;" horiz-adv-x="701" 
d="M93 205h497l23 111h-497z" />
    <glyph glyph-name="emdash" unicode="&#x2014;" horiz-adv-x="1056" 
d="M93 205h852l23 111h-852z" />
    <glyph glyph-name="quoteleft" unicode="&#x2018;" horiz-adv-x="216" 
d="M263 722l-68 -102q47 -19 47 -64q0 -31 -23 -53t-55 -22q-33 0 -56 22t-23 53q0 39 45 96l55 70h78z" />
    <glyph glyph-name="quoteright" unicode="&#x2019;" horiz-adv-x="216" 
d="M80 481l68 102q-47 19 -47 64q0 31 23 53t55 22q33 0 56 -22t23 -53q0 -39 -45 -96l-55 -70h-78z" />
    <glyph glyph-name="quotesinglbase" unicode="&#x201a;" horiz-adv-x="217" 
d="M-21 -95l68 102q-47 19 -47 64q0 31 23 53t55 22q33 0 56 -22t23 -53q0 -39 -45 -96l-55 -70h-78z" />
    <glyph glyph-name="quotedblleft" unicode="&#x201c;" horiz-adv-x="406" 
d="M263 722l-68 -102q47 -19 47 -64q0 -31 -23 -53t-55 -22q-33 0 -56 22t-23 53q0 39 45 96l55 70h78zM453 722l-68 -102q47 -19 47 -64q0 -31 -23 -53t-55 -22q-33 0 -56 22t-23 53q0 39 45 96l55 70h78z" />
    <glyph glyph-name="quotedblright" unicode="&#x201d;" horiz-adv-x="406" 
d="M80 481l68 102q-47 19 -47 64q0 31 23 53t55 22q33 0 56 -22t23 -53q0 -39 -45 -96l-55 -70h-78zM270 481l68 102q-47 19 -47 64q0 31 23 53t55 22q33 0 56 -22t23 -53q0 -39 -45 -96l-55 -70h-78z" />
    <glyph glyph-name="quotedblbase" unicode="&#x201e;" horiz-adv-x="410" 
d="M-21 -95l68 102q-47 19 -47 64q0 31 23 53t55 22q33 0 56 -22t23 -53q0 -39 -45 -96l-55 -70h-78zM172 -95l68 102q-47 19 -47 64q0 31 23 53t55 22q33 0 56 -22t23 -53q0 -39 -45 -96l-55 -70h-78z" />
    <glyph glyph-name="dagger" unicode="&#x2020;" horiz-adv-x="408" 
d="M405 517h-116l-38 -216h-86l38 216h-116l16 86h116l20 116h86l-20 -116h116z" />
    <glyph glyph-name="daggerdbl" unicode="&#x2021;" horiz-adv-x="407" 
d="M293 539l-10 -54h116l-15 -86h-116l-17 -98h-86l17 98h-116l15 86h116l10 54h-116l15 86h116l16 94h86l-16 -94h116l-15 -86h-116z" />
    <glyph glyph-name="bullet" unicode="&#x2022;" horiz-adv-x="335" 
d="M177 161q-55 0 -96 40.5t-41 95.5t41 95.5t96 40.5q56 0 97 -40.5t41 -95.5t-41 -95.5t-97 -40.5z" />
    <glyph glyph-name="ellipsis" unicode="&#x2026;" horiz-adv-x="686" 
d="M79 -5q-33 0 -56 22t-23 55q0 32 23 54t56 22t56.5 -22t23.5 -54q0 -33 -23.5 -55t-56.5 -22zM315 -5q-33 0 -56 22t-23 55q0 32 23 54t56 22t56.5 -22t23.5 -54q0 -33 -23.5 -55t-56.5 -22zM546 -5q-33 0 -56 22t-23 55q0 32 23 54t56 22t56.5 -22t23.5 -54
q0 -33 -23.5 -55t-56.5 -22z" />
    <glyph glyph-name="perthousand" unicode="&#x2030;" horiz-adv-x="1566" 
d="M330 695q75 0 122 -45t47 -119q0 -98 -70.5 -163t-167.5 -65q-75 0 -121.5 45t-46.5 120q0 98 70 162.5t167 64.5zM824 680l-465 -680h-91l465 680h91zM314 602q-49 0 -85.5 -34t-36.5 -85q0 -39 24 -63t62 -24q48 0 84.5 34t36.5 86q0 39 -24 62.5t-61 23.5zM844 377
q76 0 122.5 -45t46.5 -119q0 -98 -70 -163t-168 -65q-75 0 -121.5 45t-46.5 120q0 98 70.5 162.5t166.5 64.5zM1324 377q76 0 122.5 -45t46.5 -119q0 -98 -70 -163t-168 -65q-75 0 -121.5 45t-46.5 120q0 98 70.5 162.5t166.5 64.5zM828 284q-48 0 -84.5 -34t-36.5 -85
q0 -39 24 -63t61 -24q49 0 85.5 34t36.5 86q0 39 -24 62.5t-62 23.5zM1308 284q-48 0 -84.5 -34t-36.5 -85q0 -39 24 -63t61 -24q49 0 85.5 34t36.5 86q0 39 -24 62.5t-62 23.5z" />
    <glyph glyph-name="guilsinglleft" unicode="&#x2039;" horiz-adv-x="268" 
d="M142 406h126l-120 -159l65 -149h-126l-65 154z" />
    <glyph glyph-name="guilsinglright" unicode="&#x203a;" horiz-adv-x="269" 
d="M131 98h-126l120 159l-65 149h126l65 -154z" />
    <glyph glyph-name="fraction" unicode="&#x2044;" horiz-adv-x="496" 
d="M526 680l-465 -680h-91l465 680h91z" />
    <glyph glyph-name="uni2070" unicode="&#x2070;" horiz-adv-x="452" 
d="M308 700q78 0 120 -48t42 -125q0 -105 -66 -179t-172 -74q-77 0 -119.5 48.5t-42.5 124.5q0 105 66.5 179t171.5 74zM248 364q57 0 89 45t32 106q0 42 -19.5 68.5t-57.5 26.5q-57 0 -89 -45t-32 -106q0 -42 19.5 -68.5t57.5 -26.5z" />
    <glyph glyph-name="uni2074" unicode="&#x2074;" horiz-adv-x="418" 
d="M426 448l-14 -85h-53l-13 -76h-96l13 76h-214l10 62l165 270h101l-147 -247h100l20 111h96l-20 -111h52z" />
    <glyph glyph-name="uni2075" unicode="&#x2075;" horiz-adv-x="395" 
d="M399 606h-188l-9 -51h54q63 0 96 -30.5t33 -81.5q0 -70 -52.5 -117.5t-130.5 -47.5q-68 0 -104 33t-34 90h97q8 -38 56 -38q31 0 52.5 18.5t21.5 45.5q0 44 -52 44h-143l40 224h279z" />
    <glyph glyph-name="uni2076" unicode="&#x2076;" horiz-adv-x="390" 
d="M267 570q58 -4 92 -38t34 -85q0 -69 -55.5 -119t-136.5 -50q-64 0 -103 36.5t-39 89.5q0 32 14 58.5t49 68.5l131 164h115zM215 357q33 0 56.5 21.5t23.5 51.5q0 25 -15.5 40t-41.5 15q-30 0 -53 -17q-30 -32 -30 -55q0 -24 16.5 -40t43.5 -16z" />
    <glyph glyph-name="uni2077" unicode="&#x2077;" horiz-adv-x="342" 
d="M103 695h302l-11 -60l-225 -348h-110l205 315h-177z" />
    <glyph glyph-name="uni2078" unicode="&#x2078;" horiz-adv-x="414" 
d="M358 496q43 -28 43 -80q0 -61 -52.5 -101.5t-138.5 -40.5q-69 0 -108 30t-39 78q0 79 79 117q-31 25 -31 66q0 59 50 97t124 38q60 0 96 -28t36 -75q0 -66 -59 -101zM271 623q-26 0 -44.5 -15.5t-18.5 -40.5q0 -19 13 -31t33 -12q26 0 45 16.5t19 41.5q0 18 -13 29.5
t-34 11.5zM224 356q29 0 48.5 16.5t19.5 41.5q0 19 -13.5 30.5t-36.5 11.5q-29 0 -48.5 -16.5t-19.5 -41.5q0 -19 13.5 -30.5t36.5 -11.5z" />
    <glyph glyph-name="uni2079" unicode="&#x2079;" horiz-adv-x="390" 
d="M290 701q64 0 103 -36.5t39 -89.5q0 -32 -14 -58.5t-49 -68.5l-131 -164h-115l101 125q-58 4 -92 38t-34 85q0 69 55.5 119t136.5 50zM253 494q30 0 53 17q30 33 30 55q0 24 -16.5 40t-43.5 16q-33 0 -56.5 -21.5t-23.5 -51.5q0 -25 15.5 -40t41.5 -15z" />
    <glyph glyph-name="uni2080" unicode="&#x2080;" horiz-adv-x="452" 
d="M226 237q78 0 120 -48t42 -125q0 -105 -66 -179t-172 -74q-77 0 -119.5 48.5t-42.5 124.5q0 105 66.5 179t171.5 74zM166 -99q57 0 89 45t32 106q0 42 -19.5 68.5t-57.5 26.5q-57 0 -89 -45t-32 -106q0 -42 19.5 -68.5t57.5 -26.5z" />
    <glyph glyph-name="uni2081" unicode="&#x2081;" horiz-adv-x="340" 
d="M161 -99h105l-14 -81h-305l14 81h107l40 225l-108 -30l14 84l153 48h52z" />
    <glyph glyph-name="uni2082" unicode="&#x2082;" horiz-adv-x="368" 
d="M219 -14l-91 -85h147l-15 -81h-301l9 51l175 158q40 36 53 52.5t13 34.5q0 16 -11 25.5t-29 9.5q-55 0 -66 -54h-97q12 64 58 102t117 38q62 0 95.5 -30t33.5 -74q0 -34 -18.5 -65t-72.5 -82z" />
    <glyph glyph-name="uni2083" unicode="&#x2083;" horiz-adv-x="381" 
d="M231 24q58 -24 58 -80q0 -59 -45.5 -96.5t-121.5 -37.5q-68 0 -107.5 35t-39.5 93h97q7 -43 56 -43q29 0 48 14.5t19 35.5q0 37 -64 37h-32l14 79h32q28 0 46.5 14.5t18.5 37.5q0 36 -42 36q-22 0 -36.5 -12t-19.5 -31h-97q15 59 60 93.5t108 34.5q57 0 89 -29.5
t32 -77.5q0 -77 -73 -103z" />
    <glyph glyph-name="uni2084" unicode="&#x2084;" horiz-adv-x="418" 
d="M343 -19l-14 -85h-53l-13 -76h-96l13 76h-214l10 62l165 270h101l-147 -247h100l20 111h96l-20 -111h52z" />
    <glyph glyph-name="uni2085" unicode="&#x2085;" horiz-adv-x="395" 
d="M316 139h-188l-9 -51h54q63 0 96 -30.5t33 -81.5q0 -70 -52.5 -117.5t-130.5 -47.5q-68 0 -104 33t-34 90h97q8 -38 56 -38q31 0 52.5 18.5t21.5 45.5q0 44 -52 44h-143l40 224h279z" />
    <glyph glyph-name="uni2086" unicode="&#x2086;" horiz-adv-x="390" 
d="M184 103q58 -4 92 -38t34 -85q0 -69 -55.5 -119t-136.5 -50q-64 0 -103 36.5t-39 89.5q0 32 14 58.5t49 68.5l131 164h115zM132 -110q33 0 56.5 21.5t23.5 51.5q0 25 -15.5 40t-41.5 15q-30 0 -53 -17q-30 -33 -30 -55q0 -24 16.5 -40t43.5 -16z" />
    <glyph glyph-name="uni2087" unicode="&#x2087;" horiz-adv-x="342" 
d="M20 228h302l-11 -60l-225 -348h-110l205 315h-177z" />
    <glyph glyph-name="uni2088" unicode="&#x2088;" horiz-adv-x="414" 
d="M276 33q43 -28 43 -80q0 -61 -52.5 -101.5t-138.5 -40.5q-69 0 -108 30t-39 78q0 79 79 117q-31 25 -31 66q0 59 50 97t124 38q60 0 96 -28t36 -75q0 -66 -59 -101zM189 160q-26 0 -44.5 -15.5t-18.5 -40.5q0 -19 13 -31t33 -12q26 0 45 16.5t19 41.5q0 18 -13 29.5
t-34 11.5zM142 -107q29 0 48.5 16.5t19.5 41.5q0 19 -13.5 30.5t-36.5 11.5q-29 0 -48.5 -16.5t-19.5 -41.5q0 -19 13.5 -30.5t36.5 -11.5z" />
    <glyph glyph-name="uni2089" unicode="&#x2089;" horiz-adv-x="390" 
d="M208 238q64 0 103 -36.5t39 -89.5q0 -32 -14 -58.5t-49 -68.5l-131 -164h-115l101 125q-58 4 -92 38t-34 85q0 69 55.5 119t136.5 50zM171 31q30 0 53 17q30 33 30 55q0 24 -16.5 40t-43.5 16q-33 0 -56.5 -21.5t-23.5 -51.5q0 -25 15.5 -40t41.5 -15z" />
    <glyph glyph-name="Euro" unicode="&#x20ac;" horiz-adv-x="819" 
d="M415 119q64 0 127 42t92 111h140q-46 -130 -149.5 -207t-232.5 -77q-113 0 -192.5 60t-100.5 161h-74l16 92h53q1 13 5 39q2 14 4 19h-52l16 92h68q53 109 157.5 175t224.5 66q129 0 205 -77t76 -207h-140q-5 75 -47.5 114t-117.5 39q-65 0 -120 -29t-91 -81h286l-40 -92
h-287q-2 -5 -4 -19q-4 -28 -4 -39h272l-39 -92h-215q21 -43 63.5 -66.5t100.5 -23.5z" />
    <glyph glyph-name="uni20B9" unicode="&#x20b9;" horiz-adv-x="614" 
d="M603 574h-152q17 -34 20 -74h119l-19 -106h-115q-24 -62 -80.5 -104t-134.5 -60l212 -230h-195l-192 216l22 126h106q81 0 119 52h-216l19 106h214q-21 54 -98 54h-106l22 126h474z" />
    <glyph glyph-name="uni2116" unicode="&#x2116;" horiz-adv-x="1349" 
d="M1009 185q-96 0 -154.5 58t-58.5 152q0 123 89 207t213 84q95 0 154 -59.5t59 -152.5q0 -122 -89 -205.5t-213 -83.5zM621 680h136l-120 -680h-105l-292 433l-76 -433h-136l120 680h83l310 -453zM1077 567q-63 0 -106 -46t-43 -110q0 -48 27 -77.5t75 -29.5
q63 0 106 44.5t43 108.5q0 47 -27.5 78.5t-74.5 31.5zM742 0l20 116h482l-20 -116h-482z" />
    <glyph glyph-name="uni2117" unicode="&#x2117;" horiz-adv-x="834" 
d="M437 695q150 0 257 -102t107 -253t-107 -253t-257 -102t-257 102t-107 253t107 253t257 102zM436 609q-112 0 -192.5 -78t-80.5 -191t80.5 -191t192.5 -78t193 78t81 191t-81 191t-193 78zM460 508q57 0 92.5 -31t35.5 -83q0 -51 -35.5 -80.5t-95.5 -29.5h-55v-89h-78
v313h136zM459 434h-57v-80h57q48 0 48 41q0 18 -12.5 28.5t-35.5 10.5z" />
    <glyph glyph-name="trademark" unicode="&#x2122;" horiz-adv-x="698" 
d="M359 608h-96l-39 -221h-73l39 221h-96l12 71h265zM729 679l-51 -292h-74l25 143l-91 -110h-40v1l-54 110l-24 -144h-73l51 292h53l84 -164l140 164h54z" />
    <glyph glyph-name="oneeighth" unicode="&#x215b;" horiz-adv-x="943" 
d="M332 272h-305l14 81h107l40 225l-108 -30l14 84l153 48h52l-58 -327h105zM667 680h91l-465 -680h-91zM837 213q43 -28 43 -80q0 -61 -52.5 -101.5t-138.5 -40.5q-69 0 -108 30t-39 78q0 79 79 117q-31 25 -31 66q0 59 50 97t124 38q60 0 96 -28t36 -75q0 -66 -59 -101z
M750 340q-26 0 -44.5 -15.5t-18.5 -40.5q0 -19 13 -31t33 -12q26 0 45 16.5t19 41.5q0 18 -13 29.5t-34 11.5zM703 73q29 0 48.5 16.5t19.5 41.5q0 19 -13.5 30.5t-36.5 11.5q-29 0 -48.5 -16.5t-19.5 -41.5q0 -19 13.5 -30.5t36.5 -11.5z" />
    <glyph glyph-name="threeeighths" unicode="&#x215c;" horiz-adv-x="924" 
d="M370 400q0 -59 -45.5 -96.5t-121.5 -37.5q-68 0 -107.5 35t-39.5 93h97q7 -43 56 -43q29 0 48 14.5t19 35.5q0 37 -64 37h-32l14 79h32q28 0 46.5 14.5t18.5 37.5q0 36 -42 36q-22 0 -36.5 -12t-19.5 -31h-97q15 59 60 93.5t108 34.5q57 0 89 -29.5t32 -77.5
q0 -77 -73 -103q58 -24 58 -80zM651 680h91l-465 -680h-91zM818 213q43 -28 43 -80q0 -61 -52.5 -101.5t-138.5 -40.5q-69 0 -108 30t-39 78q0 79 79 117q-31 25 -31 66q0 59 50 97t124 38q60 0 96 -28t36 -75q0 -66 -59 -101zM731 340q-26 0 -44.5 -15.5t-18.5 -40.5
q0 -19 13 -31t33 -12q26 0 45 16.5t19 41.5q0 18 -13 29.5t-34 11.5zM684 73q29 0 48.5 16.5t19.5 41.5q0 19 -13.5 30.5t-36.5 11.5q-29 0 -48.5 -16.5t-19.5 -41.5q0 -19 13.5 -30.5t36.5 -11.5z" />
    <glyph glyph-name="fiveeighths" unicode="&#x215d;" horiz-adv-x="925" 
d="M382 428q0 -70 -52.5 -117.5t-130.5 -47.5q-68 0 -104 33t-34 90h97q8 -38 56 -38q31 0 52.5 18.5t21.5 45.5q0 44 -52 44h-143l40 224h279l-16 -89h-188l-9 -51h54q63 0 96 -30.5t33 -81.5zM656 680h91l-465 -680h-91zM819 213q43 -28 43 -80q0 -61 -52.5 -101.5
t-138.5 -40.5q-69 0 -108 30t-39 78q0 79 79 117q-31 25 -31 66q0 59 50 97t124 38q60 0 96 -28t36 -75q0 -66 -59 -101zM732 340q-26 0 -44.5 -15.5t-18.5 -40.5q0 -19 13 -31t33 -12q26 0 45 16.5t19 41.5q0 18 -13 29.5t-34 11.5zM685 73q29 0 48.5 16.5t19.5 41.5
q0 19 -13.5 30.5t-36.5 11.5q-29 0 -48.5 -16.5t-19.5 -41.5q0 -19 13.5 -30.5t36.5 -11.5z" />
    <glyph glyph-name="seveneighths" unicode="&#x215e;" horiz-adv-x="844" 
d="M166 272h-110l205 315h-177l16 93h302l-11 -60zM561 680h91l-465 -680h-91zM738 213q43 -28 43 -80q0 -61 -52.5 -101.5t-138.5 -40.5q-69 0 -108 30t-39 78q0 79 79 117q-31 25 -31 66q0 59 50 97t124 38q60 0 96 -28t36 -75q0 -66 -59 -101zM651 340q-26 0 -44.5 -15.5
t-18.5 -40.5q0 -19 13 -31t33 -12q26 0 45 16.5t19 41.5q0 18 -13 29.5t-34 11.5zM604 73q29 0 48.5 16.5t19.5 41.5q0 19 -13.5 30.5t-36.5 11.5q-29 0 -48.5 -16.5t-19.5 -41.5q0 -19 13.5 -30.5t36.5 -11.5z" />
    <glyph glyph-name="arrowleft" unicode="&#x2190;" horiz-adv-x="766" 
d="M726 279h-462l201 -195l-87 -87l-344 344l344 344l87 -87l-200 -194h461v-125z" />
    <glyph glyph-name="arrowup" unicode="&#x2191;" horiz-adv-x="778" 
d="M327 0v462l-195 -201l-87 87l344 344l344 -344l-87 -87l-194 200v-461h-125z" />
    <glyph glyph-name="arrowright" unicode="&#x2192;" horiz-adv-x="766" 
d="M40 279v125h461l-200 194l87 87l344 -344l-344 -344l-87 87l201 195h-462z" />
    <glyph glyph-name="arrowdown" unicode="&#x2193;" horiz-adv-x="778" 
d="M327 680h125v-461l194 200l87 -87l-344 -344l-344 344l87 87l195 -201v462z" />
    <glyph glyph-name="uni2196" unicode="&#x2196;" horiz-adv-x="794" 
d="M769 88l-88 -88l-469 469l1 -276h-123v487h487v-123l-277 1z" />
    <glyph glyph-name="uni2197" unicode="&#x2197;" horiz-adv-x="794" 
d="M25 88l469 470l-277 -1v123h487v-487h-123l1 276l-469 -469z" />
    <glyph glyph-name="uni2198" unicode="&#x2198;" horiz-adv-x="794" 
d="M25 592l88 88l469 -469l-1 276h123v-487h-487v123l277 -1z" />
    <glyph glyph-name="uni2199" unicode="&#x2199;" horiz-adv-x="794" 
d="M769 592l-469 -470l277 1v-123h-487v487h123l-1 -276l469 469z" />
    <glyph glyph-name="minus" unicode="&#x2212;" horiz-adv-x="684" 
d="M105 272l22 121h482l-22 -121h-482z" />
    <glyph glyph-name="R.ss02" horiz-adv-x="688" 
d="M664 484q0 -102 -67.5 -173t-177.5 -89l207 -222h-170l-203 216h-50l-38 -216h-136l119 680h282q109 0 171.5 -53.5t62.5 -142.5zM262 554l-37 -212h141q71 0 116.5 33.5t45.5 87.5q0 42 -33.5 66.5t-91.5 24.5h-141z" />
    <glyph glyph-name="Racute.ss02" horiz-adv-x="688" 
d="M571 906l-126 -151h-118l99 151h145zM664 484q0 -102 -67.5 -173t-177.5 -89l207 -222h-170l-203 216h-50l-38 -216h-136l119 680h282q109 0 171.5 -53.5t62.5 -142.5zM262 554l-37 -212h141q71 0 116.5 33.5t45.5 87.5q0 42 -33.5 66.5t-91.5 24.5h-141z" />
    <glyph glyph-name="Rcaron.ss02" horiz-adv-x="688" 
d="M456 745h-123l-91 155h114l49 -82l74 82h122zM664 484q0 -102 -67.5 -173t-177.5 -89l207 -222h-170l-203 216h-50l-38 -216h-136l119 680h282q109 0 171.5 -53.5t62.5 -142.5zM262 554l-37 -212h141q71 0 116.5 33.5t45.5 87.5q0 42 -33.5 66.5t-91.5 24.5h-141z" />
    <glyph glyph-name="Rcommaaccent.ss02" horiz-adv-x="688" 
d="M664 484q0 -102 -67.5 -173t-177.5 -89l207 -222h-170l-203 216h-50l-38 -216h-136l119 680h282q109 0 171.5 -53.5t62.5 -142.5zM262 554l-37 -212h141q71 0 116.5 33.5t45.5 87.5q0 42 -33.5 66.5t-91.5 24.5h-141zM293 -45q31 0 52.5 -20t21.5 -49q0 -20 -12.5 -39
t-76.5 -98h-72l57 76q-44 18 -44 61q0 28 22 48.5t52 20.5z" />
    <glyph glyph-name="Q.ss03" horiz-adv-x="814" 
d="M483 692q133 0 217.5 -86t84.5 -214q0 -107 -60 -201t-156.5 -148.5t-201.5 -54.5q-133 0 -217.5 86t-84.5 214q0 107 60 201t156.5 148.5t201.5 54.5zM379 118q103 0 185.5 77.5t82.5 185.5q0 78 -47 129.5t-132 51.5q-106 0 -185.5 -77t-79.5 -184q0 -78 47 -130.5
t129 -52.5zM389 -54l333 -40l-38 -136q-284 67 -325 78z" />
    <glyph glyph-name="i.loclTRK" horiz-adv-x="287" 
d="M215 570q-34 0 -57 22t-23 55q0 34 23 56t57 22q33 0 56.5 -22.5t23.5 -55.5t-23.5 -55t-56.5 -22zM125 477h131l-84 -477h-131z" />
    <glyph glyph-name="germandbls.case" horiz-adv-x="735" 
d="M750 680l-15 -82l-176 -188q64 -14 101.5 -58.5t37.5 -110.5q0 -109 -85.5 -182.5t-216.5 -73.5q-71 0 -131 15l21 120q60 -19 114 -19q68 0 112.5 32.5t44.5 82.5q0 39 -32.5 62.5t-88.5 23.5h-67l12 64l166 188h-149q-57 0 -97.5 -33t-49.5 -86l-77 -435h-136l76 430
q19 112 103.5 181t202.5 69h330z" />
    <glyph glyph-name="l.ss01" horiz-adv-x="382" 
d="M277 710l-96 -543q-11 -61 49 -61q38 0 79 23l-2 -123q-73 -21 -119 -21q-82 0 -118 44.5t-22 127.5l98 553h131z" />
    <glyph glyph-name="lacute.ss01" horiz-adv-x="382" 
d="M263 919h145l-126 -151h-118zM277 710l-96 -543q-11 -61 49 -61q38 0 79 23l-2 -123q-73 -21 -119 -21q-82 0 -118 44.5t-22 127.5l98 553h131z" />
    <glyph glyph-name="lcaron.ss01" horiz-adv-x="382" 
d="M277 710l-96 -543q-11 -61 49 -61q38 0 79 23l-2 -123q-73 -21 -119 -21q-82 0 -118 44.5t-22 127.5l98 553h131zM346 710h133l-75 -204h-99z" />
    <glyph glyph-name="lcommaaccent.ss01" horiz-adv-x="382" 
d="M277 710l-96 -543q-11 -61 49 -61q38 0 79 23l-2 -123q-73 -21 -119 -21q-82 0 -118 44.5t-22 127.5l98 553h131zM75 -251l57 76q-44 18 -44 61q0 28 22 48.5t52 20.5q31 0 52.5 -20t21.5 -49q0 -20 -12.5 -39t-76.5 -98h-72z" />
    <glyph glyph-name="ldot.ss01" horiz-adv-x="378" 
d="M277 710l-96 -543q-11 -61 49 -61q38 0 79 23l-2 -123q-73 -21 -119 -21q-82 0 -118 44.5t-22 127.5l98 553h131zM316 255q-34 0 -57.5 22.5t-23.5 55.5t23.5 55.5t57.5 22.5t57.5 -22.5t23.5 -55.5t-23.5 -55.5t-57.5 -22.5z" />
    <glyph glyph-name="lslash.ss01" horiz-adv-x="378" 
d="M181 167q-11 -61 49 -61q38 0 79 23l-2 -123q-73 -21 -119 -21q-82 0 -118 44.5t-22 127.5l21 120l-58 -22l24 133l58 22l53 300h131l-44 -246l77 29l-23 -133l-77 -29z" />
    <glyph glyph-name="y.ss04" horiz-adv-x="611" 
d="M452 477h131l-85 -480q-19 -110 -98.5 -174.5t-187.5 -64.5q-103 0 -162 57.5t-51 147.5h133q-2 -40 24.5 -67.5t75.5 -27.5t87 35.5t48 93.5l12 68q-69 -50 -146 -50q-95 0 -142 64t-28 169l40 229h131l-39 -221q-10 -58 12.5 -90t74.5 -32q57 0 120 63z" />
    <glyph glyph-name="yacute.ss04" horiz-adv-x="611" 
d="M529 686l-126 -151h-118l99 151h145zM452 477h131l-85 -480q-19 -110 -98.5 -174.5t-187.5 -64.5q-103 0 -162 57.5t-51 147.5h133q-2 -40 24.5 -67.5t75.5 -27.5t87 35.5t48 93.5l12 68q-69 -50 -146 -50q-95 0 -142 64t-28 169l40 229h131l-39 -221q-10 -58 12.5 -90
t74.5 -32q57 0 120 63z" />
    <glyph glyph-name="ycircumflex.ss04" horiz-adv-x="611" 
d="M361 607l-71 -82h-125l145 155h123l91 -155h-115zM452 477h131l-85 -480q-19 -110 -98.5 -174.5t-187.5 -64.5q-103 0 -162 57.5t-51 147.5h133q-2 -40 24.5 -67.5t75.5 -27.5t87 35.5t48 93.5l12 68q-69 -50 -146 -50q-95 0 -142 64t-28 169l40 229h131l-39 -221
q-10 -58 12.5 -90t74.5 -32q57 0 120 63z" />
    <glyph glyph-name="ydieresis.ss04" horiz-adv-x="606" 
d="M251 533q-32 0 -54.5 21.5t-22.5 52.5t22.5 52.5t54.5 21.5t54.5 -21.5t22.5 -52.5t-22.5 -52.5t-54.5 -21.5zM456 533q-32 0 -54.5 21.5t-22.5 52.5t22.5 52.5t54.5 21.5t54.5 -21.5t22.5 -52.5t-22.5 -52.5t-54.5 -21.5zM452 477h131l-85 -480q-19 -110 -98.5 -174.5
t-187.5 -64.5q-103 0 -162 57.5t-51 147.5h133q-2 -40 24.5 -67.5t75.5 -27.5t87 35.5t48 93.5l12 68q-69 -50 -146 -50q-95 0 -142 64t-28 169l40 229h131l-39 -221q-10 -58 12.5 -90t74.5 -32q57 0 120 63z" />
    <glyph glyph-name="ygrave.ss04" horiz-adv-x="611" 
d="M405 535h-118l-100 151h145zM452 477h131l-85 -480q-19 -110 -98.5 -174.5t-187.5 -64.5q-103 0 -162 57.5t-51 147.5h133q-2 -40 24.5 -67.5t75.5 -27.5t87 35.5t48 93.5l12 68q-69 -50 -146 -50q-95 0 -142 64t-28 169l40 229h131l-39 -221q-10 -58 12.5 -90t74.5 -32
q57 0 120 63z" />
    <glyph glyph-name="a.ss06" horiz-adv-x="550" 
d="M317 489q99 0 149.5 -54.5t33.5 -150.5l-50 -284h-129l6 33q-65 -42 -133 -42q-82 0 -129 35.5t-47 96.5q0 78 58 119.5t153 41.5h142q17 93 -74 93q-78 0 -96 -60h-131q13 59 54 99.5t90 56.5t103 16zM219 98q63 0 126 36l9 53h-131q-77 0 -77 -42q0 -19 17.5 -33
t55.5 -14z" />
    <glyph glyph-name="aacute.ss06" horiz-adv-x="550" 
d="M503 686l-126 -151h-118l99 151h145zM317 489q99 0 149.5 -54.5t33.5 -150.5l-50 -284h-129l6 33q-65 -42 -133 -42q-82 0 -129 35.5t-47 96.5q0 78 58 119.5t153 41.5h142q17 93 -74 93q-78 0 -96 -60h-131q13 59 54 99.5t90 56.5t103 16zM219 98q63 0 126 36l9 53h-131
q-77 0 -77 -42q0 -19 17.5 -33t55.5 -14z" />
    <glyph glyph-name="abreve.ss06" horiz-adv-x="550" 
d="M318 519q-72 0 -108 41t-23 118h95q-12 -72 48 -72q26 0 48 17t28 55h99q-13 -77 -64 -118t-123 -41zM317 489q99 0 149.5 -54.5t33.5 -150.5l-50 -284h-129l6 33q-65 -42 -133 -42q-82 0 -129 35.5t-47 96.5q0 78 58 119.5t153 41.5h142q17 93 -74 93q-78 0 -96 -60
h-131q13 59 54 99.5t90 56.5t103 16zM219 98q63 0 126 36l9 53h-131q-77 0 -77 -42q0 -19 17.5 -33t55.5 -14z" />
    <glyph glyph-name="uni01CE.ss06" horiz-adv-x="550" 
d="M380 525h-123l-91 155h114l49 -82l74 82h122zM317 489q99 0 149.5 -54.5t33.5 -150.5l-50 -284h-129l6 33q-65 -42 -133 -42q-82 0 -129 35.5t-47 96.5q0 78 58 119.5t153 41.5h142q17 93 -74 93q-78 0 -96 -60h-131q13 59 54 99.5t90 56.5t103 16zM219 98q63 0 126 36
l9 53h-131q-77 0 -77 -42q0 -19 17.5 -33t55.5 -14z" />
    <glyph glyph-name="acircumflex.ss06" horiz-adv-x="550" 
d="M335 607l-71 -82h-125l145 155h123l91 -155h-115zM317 489q99 0 149.5 -54.5t33.5 -150.5l-50 -284h-129l6 33q-65 -42 -133 -42q-82 0 -129 35.5t-47 96.5q0 78 58 119.5t153 41.5h142q17 93 -74 93q-78 0 -96 -60h-131q13 59 54 99.5t90 56.5t103 16zM219 98
q63 0 126 36l9 53h-131q-77 0 -77 -42q0 -19 17.5 -33t55.5 -14z" />
    <glyph glyph-name="adieresis.ss06" horiz-adv-x="550" 
d="M225 533q-32 0 -54.5 21.5t-22.5 52.5t22.5 52.5t54.5 21.5t54.5 -21.5t22.5 -52.5t-22.5 -52.5t-54.5 -21.5zM430 533q-32 0 -54.5 21.5t-22.5 52.5t22.5 52.5t54.5 21.5t54.5 -21.5t22.5 -52.5t-22.5 -52.5t-54.5 -21.5zM317 489q99 0 149.5 -54.5t33.5 -150.5
l-50 -284h-129l6 33q-65 -42 -133 -42q-82 0 -129 35.5t-47 96.5q0 78 58 119.5t153 41.5h142q17 93 -74 93q-78 0 -96 -60h-131q13 59 54 99.5t90 56.5t103 16zM219 98q63 0 126 36l9 53h-131q-77 0 -77 -42q0 -19 17.5 -33t55.5 -14z" />
    <glyph glyph-name="agrave.ss06" horiz-adv-x="550" 
d="M379 535h-118l-100 151h145zM317 489q99 0 149.5 -54.5t33.5 -150.5l-50 -284h-129l6 33q-65 -42 -133 -42q-82 0 -129 35.5t-47 96.5q0 78 58 119.5t153 41.5h142q17 93 -74 93q-78 0 -96 -60h-131q13 59 54 99.5t90 56.5t103 16zM219 98q63 0 126 36l9 53h-131
q-77 0 -77 -42q0 -19 17.5 -33t55.5 -14z" />
    <glyph glyph-name="amacron.ss06" horiz-adv-x="550" 
d="M483 649l-18 -95h-280l18 95h280zM317 489q99 0 149.5 -54.5t33.5 -150.5l-50 -284h-129l6 33q-65 -42 -133 -42q-82 0 -129 35.5t-47 96.5q0 78 58 119.5t153 41.5h142q17 93 -74 93q-78 0 -96 -60h-131q13 59 54 99.5t90 56.5t103 16zM219 98q63 0 126 36l9 53h-131
q-77 0 -77 -42q0 -19 17.5 -33t55.5 -14z" />
    <glyph glyph-name="aogonek.ss06" horiz-adv-x="550" 
d="M448 0q-64 -8 -64 -40q0 -28 55 -28q17 0 43 6l13 -96q-26 -12 -73 -12q-66 0 -106.5 32t-40.5 84q0 48 51 80l1 7q-65 -42 -133 -42q-82 0 -129 35.5t-47 96.5q0 78 58 119.5t153 41.5h142q17 93 -74 93q-78 0 -96 -60h-131q13 59 54 99.5t90 56.5t103 16
q99 0 149.5 -54.5t33.5 -150.5l-50 -284h-2zM219 98q63 0 126 36l9 53h-131q-77 0 -77 -42q0 -19 17.5 -33t55.5 -14z" />
    <glyph glyph-name="aring.ss06" horiz-adv-x="541" 
d="M337 521q-52 0 -84 30t-32 79t32 78.5t84 29.5t84 -29.5t32 -78.5t-32 -79t-84 -30zM337 672q-19 0 -31 -11.5t-12 -30.5q0 -20 12 -31.5t31 -11.5t31 11.5t12 31.5q0 19 -12 30.5t-31 11.5zM317 489q99 0 149.5 -54.5t33.5 -150.5l-50 -284h-129l6 33q-65 -42 -133 -42
q-82 0 -129 35.5t-47 96.5q0 78 58 119.5t153 41.5h142q17 93 -74 93q-78 0 -96 -60h-131q13 59 54 99.5t90 56.5t103 16zM219 98q63 0 126 36l9 53h-131q-77 0 -77 -42q0 -19 17.5 -33t55.5 -14z" />
    <glyph glyph-name="atilde.ss06" horiz-adv-x="541" 
d="M250 564h-89q-1 42 16 71t43.5 39.5t56 10t55.5 -12.5l31 -14q31 -11 45 -3t14 29h89q1 -42 -15.5 -71t-42.5 -40t-56 -10t-57 13l-31 14q-29 12 -44 3.5t-15 -29.5zM317 489q99 0 149.5 -54.5t33.5 -150.5l-50 -284h-129l6 33q-65 -42 -133 -42q-82 0 -129 35.5
t-47 96.5q0 78 58 119.5t153 41.5h142q17 93 -74 93q-78 0 -96 -60h-131q13 59 54 99.5t90 56.5t103 16zM219 98q63 0 126 36l9 53h-131q-77 0 -77 -42q0 -19 17.5 -33t55.5 -14z" />
    <glyph glyph-name="zero.osf" horiz-adv-x="648" 
d="M377 556q108 0 175 -65t67 -171q0 -144 -95.5 -238t-236.5 -94q-108 0 -176.5 65.5t-68.5 170.5q0 144 97 238t238 94zM303 108q73 0 128.5 55t55.5 137q0 60 -35.5 98t-90.5 38q-75 0 -131 -55t-56 -137q0 -61 36 -98.5t93 -37.5z" />
    <glyph glyph-name="one.osf" horiz-adv-x="519" 
d="M313 111h164l-20 -111h-474l20 111h174l52 295l-175 -51l20 115l238 80h78z" />
    <glyph glyph-name="two.osf" horiz-adv-x="561" 
d="M517 375q0 -35 -12.5 -66t-31 -53.5t-51.5 -47.5t-60.5 -41.5t-72.5 -42.5q-15 -9 -23 -13h213l-19 -111h-459l12 70l159 104q14 9 40.5 26t42 27.5t38 26t35.5 27.5t26.5 26.5t19.5 29t6 28.5q0 29 -20 48.5t-62 19.5q-49 0 -82 -28t-44 -77h-132q20 101 93 161.5
t181 60.5q97 0 150 -50t53 -125z" />
    <glyph glyph-name="three.osf" horiz-adv-x="573" 
d="M422 201q68 -40 68 -121q0 -106 -71 -169t-196 -63q-101 0 -163 54.5t-60 144.5h132q8 -83 101 -83q55 0 91.5 28.5t36.5 71.5q0 37 -29.5 58t-80.5 21h-52l19 109h52l-3 -16l3 16q52 0 86 30.5t34 77.5q0 35 -21 55t-57 20q-87 0 -112 -86h-132q23 93 92.5 147.5
t172.5 54.5q86 0 136 -48t50 -125q0 -118 -97 -177z" />
    <glyph glyph-name="four.osf" horiz-adv-x="638" 
d="M584 116l-20 -116h-89l-24 -134h-131l24 134h-348l15 84l272 462h138l-248 -430h191l35 197h131l-35 -197h89z" />
    <glyph glyph-name="five.osf" horiz-adv-x="593" 
d="M544 422h-312l-28 -121h110q93 0 147.5 -51.5t54.5 -133.5q0 -111 -83.5 -188t-206.5 -77q-108 0 -164 53t-54 146h132q11 -83 107 -83q58 0 98.5 37t40.5 90q0 41 -29 66t-80 25h-225l83 358h431z" />
    <glyph glyph-name="six.osf" horiz-adv-x="608" 
d="M346 466q102 -1 163 -57.5t61 -145.5q0 -116 -88 -195.5t-223 -79.5q-103 0 -164 58t-61 146q0 53 22 96t75 109l229 283h158zM278 97q65 0 111 42.5t46 99.5q0 45 -30.5 76.5t-81.5 31.5q-52 0 -93 -26q-40 -44 -52 -66.5t-12 -52.5q0 -44 31 -74.5t81 -30.5z" />
    <glyph glyph-name="seven.osf" horiz-adv-x="503" 
d="M69 540h475l-14 -82l-379 -598h-160l352 553h-296z" />
    <glyph glyph-name="eight.osf" horiz-adv-x="617" 
d="M491 357q81 -46 81 -137q0 -101 -85.5 -166.5t-223.5 -65.5q-110 0 -172 48t-62 127q0 66 36.5 117t102.5 80q-58 42 -58 115q0 94 80 155.5t199 61.5q95 0 152 -45t57 -119q0 -114 -107 -171zM370 586q-54 0 -90.5 -31t-36.5 -76q0 -36 25.5 -60t67.5 -24q53 0 90 33.5
t37 77.5q0 35 -25 57.5t-68 22.5zM283 100q58 0 99 33.5t41 80.5q0 38 -29 63t-75 25q-58 0 -98 -33.5t-40 -81.5q0 -38 28 -62.5t74 -24.5z" />
    <glyph glyph-name="nine.osf" horiz-adv-x="609" 
d="M362 556q103 0 164 -58t61 -146q0 -53 -22 -96t-75 -109l-229 -283h-158l172 214q-102 1 -163 57.5t-61 145.5q0 116 88 195.5t223 79.5zM298 197q52 0 93 26q40 44 52 66.5t12 52.5q0 44 -31 74.5t-81 30.5q-65 0 -111 -42.5t-46 -99.5q0 -45 30.5 -76.5t81.5 -31.5z
" />
    <glyph glyph-name="zero.osf.zero" horiz-adv-x="648" 
d="M377 556q108 0 175 -65t67 -171q0 -144 -95.5 -238t-236.5 -94q-108 0 -176.5 65.5t-68.5 170.5q0 144 97 238t238 94zM361 436q-75 0 -131 -55t-56 -137q0 -9 2 -23l257 193q-31 22 -72 22zM303 108q73 0 128.5 55t55.5 137q0 22 -4 38l-266 -199q34 -31 86 -31z" />
    <glyph glyph-name="zero.tf" horiz-adv-x="670" 
d="M416 692q118 0 180 -75t62 -200q0 -181 -100.5 -305t-267.5 -124q-118 0 -180.5 75.5t-62.5 200.5q0 180 101 304t268 124zM304 111q70 0 119.5 45t72 109t25.5 139q3 76 -26 120.5t-93 44.5q-54 0 -96 -25.5t-67 -69t-39 -93.5t-16 -105q-3 -76 26 -120.5t94 -44.5z" />
    <glyph glyph-name="one.tf" horiz-adv-x="670" 
d="M594 111l-20 -111h-524l20 111h194l75 425l-175 -51l20 115l238 80h78l-100 -569h194z" />
    <glyph glyph-name="two.tf" horiz-adv-x="670" 
d="M451 269l-166 -158h264l-20 -111h-459l12 70l262 254q53 52 73 73t38.5 51.5t18.5 57.5q0 30 -19.5 49.5t-61.5 19.5q-49 0 -82 -26.5t-45 -75.5h-132q21 100 93.5 159.5t181.5 59.5q97 0 150 -49t53 -123q0 -61 -33 -110.5t-128 -140.5z" />
    <glyph glyph-name="three.tf" horiz-adv-x="670" 
d="M505 341q68 -40 68 -121q0 -106 -71 -169t-196 -63q-101 0 -163 54.5t-60 144.5h132q8 -83 101 -83q55 0 91.5 28.5t36.5 71.5q0 37 -29.5 58t-80.5 21h-52l19 109h52l-3 -16l3 16q52 0 86 30.5t34 77.5q0 35 -21 55t-57 20q-87 0 -112 -86h-132q23 93 92.5 147.5
t172.5 54.5q86 0 136 -48t50 -125q0 -118 -97 -177z" />
    <glyph glyph-name="four.tf" horiz-adv-x="670" 
d="M620 250l-20 -116h-89l-24 -134h-131l24 134h-348l15 84l272 462h138l-248 -430h191l35 197h131l-35 -197h89z" />
    <glyph glyph-name="five.tf" horiz-adv-x="670" 
d="M615 559h-312l-28 -121h110q93 0 147.5 -51.5t54.5 -133.5q0 -111 -83.5 -188t-206.5 -77q-108 0 -164 53t-54 146h132q11 -83 107 -83q58 0 98.5 37t40.5 90q0 41 -29 66t-80 25h-225l83 358h431z" />
    <glyph glyph-name="six.tf" horiz-adv-x="670" 
d="M374 466q102 -1 163 -57.5t61 -145.5q0 -116 -88 -195.5t-223 -79.5q-103 0 -164 58t-61 146q0 53 22 96t75 109l229 283h158zM306 97q65 0 111 42.5t46 99.5q0 45 -30.5 76.5t-81.5 31.5q-52 0 -93 -26q-40 -44 -52 -66.5t-12 -52.5q0 -44 31 -74.5t81 -30.5z" />
    <glyph glyph-name="seven.tf" horiz-adv-x="670" 
d="M186 680h475l-14 -82l-379 -598h-160l352 553h-296z" />
    <glyph glyph-name="eight.tf" horiz-adv-x="670" 
d="M518 357q81 -46 81 -137q0 -101 -85.5 -166.5t-223.5 -65.5q-110 0 -172 48t-62 127q0 66 36.5 117t102.5 80q-58 42 -58 115q0 94 80 155.5t199 61.5q95 0 152 -45t57 -119q0 -114 -107 -171zM397 586q-54 0 -90.5 -31t-36.5 -76q0 -36 25.5 -60t67.5 -24q53 0 90 33.5
t37 77.5q0 35 -25 57.5t-68 22.5zM310 100q58 0 99 33.5t41 80.5q0 38 -29 63t-75 25q-58 0 -98 -33.5t-40 -81.5q0 -38 28 -62.5t74 -24.5z" />
    <glyph glyph-name="nine.tf" horiz-adv-x="670" 
d="M419 692q103 0 164 -58t61 -146q0 -53 -22 -96t-75 -109l-229 -283h-158l172 214q-102 1 -163 57.5t-61 145.5q0 116 88 195.5t223 79.5zM355 333q52 0 93 26q40 44 52 66.5t12 52.5q0 44 -31 74.5t-81 30.5q-65 0 -111 -42.5t-46 -99.5q0 -45 30.5 -76.5t81.5 -31.5z
" />
    <glyph glyph-name="zero.zero" horiz-adv-x="723" 
d="M443 692q121 0 186 -78t65 -210q0 -113 -46.5 -207.5t-133.5 -151.5t-197 -57q-121 0 -186.5 78.5t-65.5 210.5q0 173 106 294t272 121zM421 569q-101 0 -159 -85t-58 -207q0 -16 1 -24l299 288q-33 28 -83 28zM339 111q100 0 158 85.5t58 207.5q0 30 -6 56l-313 -300
q36 -49 103 -49z" />
    <glyph glyph-name="zero.dnom" horiz-adv-x="452" 
d="M258 417q78 0 120 -48t42 -125q0 -105 -66 -179t-172 -74q-77 0 -119.5 48.5t-42.5 124.5q0 105 66.5 179t171.5 74zM198 81q57 0 89 45t32 106q0 42 -19.5 68.5t-57.5 26.5q-57 0 -89 -45t-32 -106q0 -42 19.5 -68.5t57.5 -26.5z" />
    <glyph glyph-name="one.dnom" horiz-adv-x="340" 
d="M193 81h105l-14 -81h-305l14 81h107l40 225l-108 -30l14 84l153 48h52z" />
    <glyph glyph-name="two.dnom" horiz-adv-x="368" 
d="M251 166l-91 -85h147l-15 -81h-301l9 51l175 158q40 36 53 52.5t13 34.5q0 16 -11 25.5t-29 9.5q-55 0 -66 -54h-97q12 64 58 102t117 38q62 0 95.5 -30t33.5 -74q0 -34 -18.5 -65t-72.5 -82z" />
    <glyph glyph-name="three.dnom" horiz-adv-x="381" 
d="M263 204q58 -24 58 -80q0 -59 -45.5 -96.5t-121.5 -37.5q-68 0 -107.5 35t-39.5 93h97q7 -43 56 -43q29 0 48 14.5t19 35.5q0 37 -64 37h-32l14 79h32q28 0 46.5 14.5t18.5 37.5q0 36 -42 36q-22 0 -36.5 -12t-19.5 -31h-97q15 59 60 93.5t108 34.5q57 0 89 -29.5
t32 -77.5q0 -77 -73 -103z" />
    <glyph glyph-name="four.dnom" horiz-adv-x="418" 
d="M375 161l-14 -85h-53l-13 -76h-96l13 76h-214l10 62l165 270h101l-147 -247h100l20 111h96l-20 -111h52z" />
    <glyph glyph-name="five.dnom" horiz-adv-x="395" 
d="M348 319h-188l-9 -51h54q63 0 96 -30.5t33 -81.5q0 -70 -52.5 -117.5t-130.5 -47.5q-68 0 -104 33t-34 90h97q8 -38 56 -38q31 0 52.5 18.5t21.5 45.5q0 44 -52 44h-143l40 224h279z" />
    <glyph glyph-name="six.dnom" horiz-adv-x="390" 
d="M216 283q58 -4 92 -38t34 -85q0 -69 -55.5 -119t-136.5 -50q-64 0 -103 36.5t-39 89.5q0 32 14 58.5t49 68.5l131 164h115zM164 70q33 0 56.5 21.5t23.5 51.5q0 25 -15.5 40t-41.5 15q-30 0 -53 -17q-30 -33 -30 -55q0 -24 16.5 -40t43.5 -16z" />
    <glyph glyph-name="seven.dnom" horiz-adv-x="342" 
d="M52 408h302l-11 -60l-225 -348h-110l205 315h-177z" />
    <glyph glyph-name="eight.dnom" horiz-adv-x="414" 
d="M308 213q43 -28 43 -80q0 -61 -52.5 -101.5t-138.5 -40.5q-69 0 -108 30t-39 78q0 79 79 117q-31 25 -31 66q0 59 50 97t124 38q60 0 96 -28t36 -75q0 -66 -59 -101zM221 340q-26 0 -44.5 -15.5t-18.5 -40.5q0 -19 13 -31t33 -12q26 0 45 16.5t19 41.5q0 18 -13 29.5
t-34 11.5zM174 73q29 0 48.5 16.5t19.5 41.5q0 19 -13.5 30.5t-36.5 11.5q-29 0 -48.5 -16.5t-19.5 -41.5q0 -19 13.5 -30.5t36.5 -11.5z" />
    <glyph glyph-name="nine.dnom" horiz-adv-x="390" 
d="M240 418q64 0 103 -36.5t39 -89.5q0 -32 -14 -58.5t-49 -68.5l-131 -164h-115l101 125q-58 4 -92 38t-34 85q0 69 55.5 119t136.5 50zM203 211q30 0 53 17q30 32 30 55q0 24 -16.5 40t-43.5 16q-33 0 -56.5 -21.5t-23.5 -51.5q0 -25 15.5 -40t41.5 -15z" />
    <glyph glyph-name="zero.numr" horiz-adv-x="452" 
d="M306 689q78 0 120 -48t42 -125q0 -105 -66 -179t-172 -74q-77 0 -119.5 48.5t-42.5 124.5q0 105 66.5 179t171.5 74zM246 353q57 0 89 45t32 106q0 42 -19.5 68.5t-57.5 26.5q-57 0 -89 -45t-32 -106q0 -42 19.5 -68.5t57.5 -26.5z" />
    <glyph glyph-name="one.numr" horiz-adv-x="340" 
d="M241 353h105l-14 -81h-305l14 81h107l40 225l-108 -30l14 84l153 48h52z" />
    <glyph glyph-name="two.numr" horiz-adv-x="368" 
d="M299 438l-91 -85h147l-15 -81h-301l9 51l175 158q40 36 53 52.5t13 34.5q0 16 -11 25.5t-29 9.5q-55 0 -66 -54h-97q12 64 58 102t117 38q62 0 95.5 -30t33.5 -74q0 -34 -18.5 -65t-72.5 -82z" />
    <glyph glyph-name="three.numr" horiz-adv-x="381" 
d="M312 480q58 -24 58 -80q0 -59 -45.5 -96.5t-121.5 -37.5q-68 0 -107.5 35t-39.5 93h97q7 -43 56 -43q29 0 48 14.5t19 35.5q0 37 -64 37h-32l14 79h32q28 0 46.5 14.5t18.5 37.5q0 36 -42 36q-22 0 -36.5 -12t-19.5 -31h-97q15 59 60 93.5t108 34.5q57 0 89 -29.5
t32 -77.5q0 -77 -73 -103z" />
    <glyph glyph-name="four.numr" horiz-adv-x="418" 
d="M423 433l-14 -85h-53l-13 -76h-96l13 76h-214l10 62l165 270h101l-147 -247h100l20 111h96l-20 -111h52z" />
    <glyph glyph-name="five.numr" horiz-adv-x="395" 
d="M396 591h-188l-9 -51h54q63 0 96 -30.5t33 -81.5q0 -70 -52.5 -117.5t-130.5 -47.5q-68 0 -104 33t-34 90h97q8 -38 56 -38q31 0 52.5 18.5t21.5 45.5q0 44 -52 44h-143l40 224h279z" />
    <glyph glyph-name="six.numr" horiz-adv-x="390" 
d="M264 555q58 -4 92 -38t34 -85q0 -69 -55.5 -119t-136.5 -50q-64 0 -103 36.5t-39 89.5q0 32 14 58.5t49 68.5l131 164h115zM212 342q33 0 56.5 21.5t23.5 51.5q0 25 -15.5 40t-41.5 15q-30 0 -53 -17q-30 -33 -30 -55q0 -24 16.5 -40t43.5 -16z" />
    <glyph glyph-name="seven.numr" horiz-adv-x="342" 
d="M100 680h302l-11 -60l-225 -348h-110l205 315h-177z" />
    <glyph glyph-name="eight.numr" horiz-adv-x="414" 
d="M357 489q43 -28 43 -80q0 -61 -52.5 -101.5t-138.5 -40.5q-69 0 -108 30t-39 78q0 79 79 117q-31 25 -31 66q0 59 50 97t124 38q60 0 96 -28t36 -75q0 -66 -59 -101zM270 616q-26 0 -44.5 -15.5t-18.5 -40.5q0 -19 13 -31t33 -12q26 0 45 16.5t19 41.5q0 18 -13 29.5
t-34 11.5zM223 349q29 0 48.5 16.5t19.5 41.5q0 19 -13.5 30.5t-36.5 11.5q-29 0 -48.5 -16.5t-19.5 -41.5q0 -19 13.5 -30.5t36.5 -11.5z" />
    <glyph glyph-name="nine.numr" horiz-adv-x="390" 
d="M289 694q64 0 103 -36.5t39 -89.5q0 -32 -14 -58.5t-49 -68.5l-131 -164h-115l101 125q-58 4 -92 38t-34 85q0 69 55.5 119t136.5 50zM252 487q30 0 53 17q30 32 30 55q0 24 -16.5 40t-43.5 16q-33 0 -56.5 -21.5t-23.5 -51.5q0 -25 15.5 -40t41.5 -15z" />
    <glyph glyph-name="backslash.case" horiz-adv-x="364" 
d="M233 -47l-218 777h136l218 -777h-136z" />
    <glyph glyph-name="periodcentered.case" horiz-adv-x="218" 
d="M127 269q-33 0 -56 22t-23 55q0 32 23 54t56 22t56.5 -22t23.5 -54q0 -33 -23.5 -55t-56.5 -22z" />
    <glyph glyph-name="bullet.case" horiz-adv-x="334" 
d="M183 196q-55 0 -96 40.5t-41 95.5t41 95.5t96 40.5q56 0 97 -40.5t41 -95.5t-41 -95.5t-97 -40.5z" />
    <glyph glyph-name="exclamdown.case" horiz-adv-x="287" 
d="M209 686q33 0 56 -22t23 -55q0 -32 -23 -54t-56 -22t-56.5 22t-23.5 54q0 33 23.5 55t56.5 22zM30 0l92 462h116l-70 -462h-138z" />
    <glyph glyph-name="questiondown.case" horiz-adv-x="522" 
d="M349 533q-33 0 -56.5 22t-23.5 54q0 33 23.5 55t56.5 22t56 -22t23 -55q0 -32 -23 -54t-56 -22zM224 -11q-94 0 -149 50.5t-55 135.5q0 92 64 151.5t167 70.5l18 70h102l-18 -159h-72q-54 0 -93 -33t-39 -86q0 -39 23 -61.5t63 -22.5q41 0 73.5 23.5t44.5 62.5h132
q-23 -93 -93 -147.5t-168 -54.5z" />
    <glyph glyph-name="slash.case" horiz-adv-x="384" 
d="M103 -47h-136l354 777h136z" />
    <glyph glyph-name="braceleft.case" horiz-adv-x="353" 
d="M275 454q-8 -48 -27 -72t-67 -38q43 -14 53.5 -38t1.5 -72l-18 -104q-5 -26 14.5 -42.5t56.5 -16.5l-23 -128q-95 0 -144.5 51.5t-34.5 135.5l18 100q6 38 -8 47t-63 9l20 116q34 0 48.5 2.5t26 14.5t16.5 39l17 100q15 84 82.5 135.5t162.5 51.5l-22 -128
q-36 0 -61.5 -16.5t-30.5 -42.5z" />
    <glyph glyph-name="braceright.case" horiz-adv-x="353" 
d="M115 234q8 48 27 72t67 38q-43 14 -53.5 38t-1.5 72l18 104q5 26 -14.5 42.5t-56.5 16.5l23 128q95 0 144.5 -51.5t34.5 -135.5l-18 -100q-6 -38 8 -47t63 -9l-20 -116q-34 0 -48.5 -2.5t-26 -14.5t-16.5 -39l-17 -100q-15 -84 -82.5 -135.5t-162.5 -51.5l22 128
q36 0 61.5 16.5t30.5 42.5z" />
    <glyph glyph-name="bracketleft.case" horiz-adv-x="388" 
d="M266 604l-92 -523h147l-23 -126h-278l137 775h278l-22 -126h-147z" />
    <glyph glyph-name="bracketright.case" horiz-adv-x="387" 
d="M158 81l92 523h-147l23 126h278l-137 -775h-278l22 126h147z" />
    <glyph glyph-name="parenleft.case" horiz-adv-x="372" 
d="M407 643q-95 -84 -137 -144.5t-59 -147.5q-17 -88 4 -153t85 -149l-100 -85q-85 92 -116.5 186.5t-10.5 210.5q20 114 81.5 198t182.5 179z" />
    <glyph glyph-name="parenright.case" horiz-adv-x="370" 
d="M210 738q85 -92 116.5 -186.5t10.5 -210.5q-20 -114 -81.5 -198t-182.5 -179l-70 95q95 84 137 144.5t59 147.5q17 88 -4 153t-85 149z" />
    <glyph glyph-name="emdash.case" horiz-adv-x="1056" 
d="M105 275h852l23 111h-852z" />
    <glyph glyph-name="endash.case" horiz-adv-x="701" 
d="M105 275h497l23 111h-497z" />
    <glyph glyph-name="hyphen.case" horiz-adv-x="552" 
d="M104 269h349l23 121h-349z" />
    <glyph glyph-name="guillemotleft.case" horiz-adv-x="458" 
d="M156 486h126l-120 -159l65 -149h-126l-65 154zM346 486h126l-120 -159l65 -149h-126l-65 154z" />
    <glyph glyph-name="guillemotright.case" horiz-adv-x="459" 
d="M145 178h-126l120 159l-65 149h126l65 -154zM335 178h-126l120 159l-65 149h126l65 -154z" />
    <glyph glyph-name="guilsinglleft.case" horiz-adv-x="268" 
d="M156 486h126l-120 -159l65 -149h-126l-65 154z" />
    <glyph glyph-name="guilsinglright.case" horiz-adv-x="269" 
d="M135 178h-126l120 159l-65 149h126l65 -154z" />
    <glyph glyph-name="cent.tf" horiz-adv-x="670" 
d="M369 368q-55 0 -95.5 -37t-50.5 -93q-11 -58 17 -94t83 -36q40 0 72 20.5t46 55.5h134q-23 -73 -83.5 -124.5t-137.5 -65.5l-18 -101h-118l19 103q-83 19 -122 83.5t-23 158.5q16 88 79 154t150 87l22 120h118l-21 -117q73 -14 115 -65t39 -125h-134q-2 35 -26.5 55.5
t-64.5 20.5z" />
    <glyph glyph-name="dollar.tf" horiz-adv-x="670" 
d="M652 473h-135q2 50 -26 77.5t-90 27.5q-63 0 -102 -26.5t-39 -73.5q0 -29 22 -45.5t66 -25.5l77 -16q89 -19 134 -56.5t45 -103.5q0 -101 -75.5 -167.5t-196.5 -76.5l-18 -104h-118l20 111q-90 20 -136 80t-36 150h135q-1 -60 34.5 -88.5t112.5 -28.5q62 0 97.5 23.5
t35.5 63.5q0 46 -78 64l-107 24q-86 19 -126 62t-36 120q5 93 68.5 150t157.5 74l19 111h118l-19 -106q42 -5 77 -18.5t64.5 -38.5t44.5 -66.5t10 -96.5z" />
    <glyph glyph-name="Euro.tf" horiz-adv-x="670" 
d="M345 108q68 0 103 41h161q-44 -76 -118 -120t-167 -44q-106 0 -170 61t-79 163h-62l17 92h42q2 32 7 58h-39l16 92h49q43 111 134 177.5t210 66.5q98 0 158.5 -49t73.5 -134h-152q-9 28 -36 44t-66 16q-60 0 -106 -32.5t-74 -88.5h260l-40 -92h-250q-5 -26 -7 -58h234
l-40 -92h-184q29 -101 125 -101z" />
    <glyph glyph-name="florin.tf" horiz-adv-x="670" 
d="M593 564q-84 0 -112 -91l-29 -96h167l-19 -110h-182l-53 -169q-30 -98 -92.5 -155t-150.5 -57q-60 0 -112 16l38 114q43 -9 69 -9q84 0 112 91l53 169h-130l19 110h145l29 96q30 98 92.5 155t150.5 57q60 0 112 -16l-38 -114q-43 9 -69 9z" />
    <glyph glyph-name="uni20B9.tf" horiz-adv-x="670" 
d="M631 574h-152q17 -34 20 -74h119l-19 -106h-115q-24 -62 -80.5 -104t-134.5 -60l212 -230h-195l-192 216l22 126h106q81 0 119 52h-216l19 106h214q-21 54 -98 54h-106l22 126h474z" />
    <glyph glyph-name="sterling.tf" horiz-adv-x="670" 
d="M433 579q-53 0 -92 -34.5t-49 -91.5l-11 -65h194l-20 -114h-194l-29 -160h353l-21 -114h-542l21 114h58l29 160h-59l20 114h59l11 65q20 109 100 175.5t192 66.5q102 0 159 -56.5t52 -150.5h-133q-2 42 -27.5 66.5t-70.5 24.5z" />
    <glyph glyph-name="yen.tf" horiz-adv-x="670" 
d="M713 680l-258 -379h135l-16 -95h-174l-8 -45h174l-17 -95h-174l-12 -66h-138l12 66h-175l17 95h175l8 45h-175l16 95h137l-126 379h151l95 -305l202 305h151z" />
    <glyph glyph-name="arrowup.ss05" horiz-adv-x="570" 
d="M470 334l-80 -80l-183 -182l-80 80l183 182l-185 183l80 80l185 -183z" />
    <glyph glyph-name="arrowright.ss05" horiz-adv-x="570" 
d="M445 517l-185 -183l183 -182l-80 -80l-183 182l-80 80l80 80l185 183z" />
    <glyph glyph-name="arrowdown.ss05" horiz-adv-x="705" 
d="M615 398l-182 -183l-80 -80l-80 80l-183 185l80 80l183 -185l182 183z" />
    <glyph glyph-name="arrowleft.ss05" horiz-adv-x="705" 
d="M615 215l-80 -80l-182 183l-183 -185l-80 80l183 185l80 80l80 -80z" />
    <glyph glyph-name="at.case" horiz-adv-x="989" 
d="M590 740q165 0 265.5 -98t100.5 -256q0 -123 -54 -206t-165 -83q-104 0 -134 66q-70 -65 -160 -65q-77 0 -124 50.5t-47 126.5q0 99 73 171.5t172 72.5q69 0 113 -38l5 29h116l-41 -231q-14 -85 44 -85q55 0 80.5 49t25.5 127q0 124 -79 201.5t-207 77.5
q-165 0 -290.5 -114.5t-125.5 -272.5q0 -124 82.5 -206t207.5 -82q122 0 228 72l38 -79q-128 -84 -280 -84q-163 0 -268.5 103t-105.5 262q0 134 74.5 248t196 179t259.5 65zM480 202q65 0 113 60q2 22 6 44l9 52q-27 59 -90 59q-47 0 -86.5 -35t-39.5 -90q0 -41 25.5 -65.5
t62.5 -24.5z" />
    <glyph glyph-name="bar.case" horiz-adv-x="262" 
d="M157 730h122l-137 -777h-122z" />
    <glyph glyph-name="brokenbar.case" horiz-adv-x="263" 
d="M279 730l-59 -338h-122l59 338h122zM202 290l-60 -337h-122l60 337h122z" />
    <glyph glyph-name="registered.ss07" horiz-adv-x="834" 
d="M427 695q150 0 257 -102t107 -253t-107 -253t-257 -102t-257 102t-107 253t107 253t257 102zM426 71q112 0 193 78t81 191t-81 191t-193 78t-192.5 -78t-80.5 -191t80.5 -191t192.5 -78zM571 394q0 -67 -57 -94l69 -105h-98l-54 89h-46v-89h-78v313h136q57 0 92.5 -31
t35.5 -83zM385 434v-80h57q48 0 48 41q0 18 -12.5 28.5t-35.5 10.5h-57z" />
    <glyph glyph-name="caron.alt" 
d="M259 680h133l-75 -204h-99z" />
    <glyph glyph-name="acute.case" 
d="M342 866h145l-126 -151h-118z" />
    <glyph glyph-name="breve.case" 
d="M498 874q-13 -77 -64 -118t-123 -41t-108 41t-23 118h95q-12 -72 48 -72q26 0 48 17t28 55h99z" />
    <glyph glyph-name="caron.case" 
d="M408 860h122l-145 -155h-123l-91 155h114l49 -82z" />
    <glyph glyph-name="circumflex.case" 
d="M385 705l-48 82l-71 -82h-125l145 155h123l91 -155h-115z" />
    <glyph glyph-name="dieresis.case" 
d="M223 881q32 0 54.5 -21.5t22.5 -52.5t-22.5 -52.5t-54.5 -21.5t-54.5 21.5t-22.5 52.5t22.5 52.5t54.5 21.5zM428 881q32 0 54.5 -21.5t22.5 -52.5t-22.5 -52.5t-54.5 -21.5t-54.5 21.5t-22.5 52.5t22.5 52.5t54.5 21.5z" />
    <glyph glyph-name="dotaccent.case" 
d="M300 729q-34 0 -57.5 22.5t-23.5 55.5t23.5 55.5t57.5 22.5t57.5 -22.5t23.5 -55.5t-23.5 -55.5t-57.5 -22.5z" />
    <glyph glyph-name="grave.case" 
d="M331 866l73 -151h-118l-100 151h145z" />
    <glyph glyph-name="hungarumlaut.case" 
d="M219 866h135l-80 -151h-108zM369 866h135l-80 -151h-108z" />
    <glyph glyph-name="macron.case" 
d="M194 829h280l-18 -95h-280z" />
    <glyph glyph-name="ring.case" 
d="M322 938q52 0 84 -29.5t32 -78.5t-32 -79t-84 -30t-84 30t-32 79t32 78.5t84 29.5zM322 787q20 0 31.5 11.5t11.5 31.5q0 19 -12 30.5t-31 11.5t-31 -11.5t-12 -30.5q0 -20 11.5 -31.5t31.5 -11.5z" />
    <glyph glyph-name="tilde.case" 
d="M503 863q1 -42 -15.5 -71t-42.5 -40t-56 -10t-57 13l-31 14q-29 12 -44 3.5t-15 -29.5h-89q-1 42 16 71t43.5 39.5t56 10t55.5 -12.5l31 -14q31 -11 45 -3t14 29h89z" />
    </font>
</defs>
</svg>
