<?xml version="1.0" standalone="no"?>
<!DOCTYPE svg PUBLIC "-//W3C//DTD SVG 1.1//EN" "http://www.w3.org/Graphics/SVG/1.1/DTD/svg11.dtd" >
<svg xmlns="http://www.w3.org/2000/svg" xmlns:xlink="http://www.w3.org/1999/xlink" version="1.1">
<metadata>
Created by FontForge 20170731 at Fri Dec 22 01:02:06 2017
 By Aleksey,,,
Copyright (c) 2016 by Rene' Bieder. All rights reserved.
</metadata>
<defs>
<font id="Campton-ThinItalic" horiz-adv-x="600" >
  <font-face 
    font-family="Campton Thin"
    font-weight="200"
    font-style="italic"
    font-stretch="normal"
    units-per-em="1000"
    panose-1="2 11 0 4 2 1 2 2 2 3"
    ascent="770"
    descent="-230"
    x-height="450"
    cap-height="680"
    bbox="-373 -230 1476 949"
    underline-thickness="50"
    underline-position="-200"
    slope="-10"
    unicode-range="U+0020-FB02"
  />
<missing-glyph horiz-adv-x="870" 
d="M100 680h670v-680h-670v680zM700 129v481h-481zM170 547v-477h477z" />
    <glyph glyph-name="fi" unicode="fi" horiz-adv-x="583" 
d="M522 450l-79 -450h-21l75 430h-297l-76 -430h-21l75 430h-137l4 20h137l22 126q11 66 56 106t107 40q34 0 79 -12l-9 -18q-42 10 -74 10q-52 0 -90 -35.5t-48 -92.5l-22 -124h319z" />
    <glyph glyph-name="fl" unicode="fl" horiz-adv-x="582" 
d="M547 710h21l-126 -710h-21l76 430h-297l-76 -430h-21l75 430h-137l4 20h137l22 126q11 66 56 106t107 40q34 0 79 -12l-9 -18q-42 10 -74 10q-52 0 -90 -35.5t-48 -92.5l-22 -124h298z" />
    <glyph glyph-name=".notdef" horiz-adv-x="870" 
d="M100 680h670v-680h-670v680zM700 129v481h-481zM170 547v-477h477z" />
    <glyph glyph-name=".null" horiz-adv-x="0" 
 />
    <glyph glyph-name="nonmarkingreturn" horiz-adv-x="333" 
 />
    <glyph glyph-name="space" unicode=" " horiz-adv-x="280" 
 />
    <glyph glyph-name="exclam" unicode="!" horiz-adv-x="246" 
d="M214 680l-92 -520h-22l92 520h22zM86 -8q-10 0 -16.5 6.5t-6.5 16.5t6.5 16.5t16.5 6.5t16.5 -6.5t6.5 -16.5t-6.5 -16.5t-16.5 -6.5z" />
    <glyph glyph-name="quotedbl" unicode="&#x22;" horiz-adv-x="305" 
d="M143 680h21l-46 -259h-21zM287 680h21l-46 -259h-21z" />
    <glyph glyph-name="numbersign" unicode="#" horiz-adv-x="710" 
d="M567 442l-98 -200h138l-2 -16h-144l-110 -226h-21l110 226h-254l-110 -226h-21l110 226h-115l2 16h121l98 200h-128l2 16h134l109 223h21l-109 -223h254l109 223h21l-109 -223h125l-2 -16h-131zM546 442h-254l-98 -200h254z" />
    <glyph glyph-name="dollar" unicode="$" horiz-adv-x="653" 
d="M401 692q107 -1 166.5 -50.5t57.5 -128.5h-22q-2 74 -57 116.5t-152 42.5q-105 0 -168 -48.5t-63 -120.5q0 -102 146 -130l97 -19q90 -18 128.5 -57.5t38.5 -106.5q0 -90 -72.5 -146t-197.5 -56q-18 0 -26 1l-23 -130h-21l23 131q-100 11 -151 67t-48 155h22
q-2 -100 56 -152t172 -52t179 49t65 128q0 59 -34 96.5t-120 53.5l-100 19q-156 29 -156 148q0 79 65.5 132.5t173.5 57.5l24 137h21z" />
    <glyph glyph-name="percent" unicode="%" horiz-adv-x="1125" 
d="M353 695q66 0 107.5 -44t41.5 -111q0 -88 -64 -150.5t-150 -62.5q-67 0 -108.5 44t-41.5 111q0 88 64.5 150.5t150.5 62.5zM804 680l-444 -680h-24l444 680h24zM292 349q75 0 132 55t57 132q0 60 -37 99t-95 39q-75 0 -132.5 -55.5t-57.5 -132.5q0 -59 37.5 -98t95.5 -39
zM877 353q66 0 108 -44t42 -111q0 -88 -64 -150.5t-151 -62.5q-66 0 -107.5 44t-41.5 111q0 88 64 150.5t150 62.5zM816 7q75 0 132.5 55t57.5 132q0 60 -37 99t-95 39q-75 0 -132.5 -55t-57.5 -133q0 -59 37 -98t95 -39z" />
    <glyph glyph-name="ampersand" unicode="&#x26;" horiz-adv-x="736" 
d="M535 126v-1l126 -125h-32l-110 110q-118 -121 -259 -121q-91 0 -144 44.5t-53 115.5q0 84 60.5 142t140.5 82q-58 73 -58 134q0 80 60 134t149 54q73 0 115.5 -42t36.5 -120h-20q3 69 -34 105.5t-101 36.5q-79 0 -131.5 -48t-52.5 -119q0 -24 9 -48t19 -42t38 -49.5
t45.5 -49l60.5 -60.5l121 -121l159 171h23zM265 9q128 0 241 114l-122 122q-65 65 -107 113q-85 -26 -138.5 -78.5t-53.5 -126.5q0 -65 48 -104.5t132 -39.5z" />
    <glyph glyph-name="quotesingle" unicode="'" horiz-adv-x="161" 
d="M143 680h21l-46 -259h-21z" />
    <glyph glyph-name="parenleft" unicode="(" horiz-adv-x="356" 
d="M357 706q-105 -73 -166.5 -170t-84.5 -230q-24 -121 4.5 -225.5t105.5 -176.5l-15 -15q-82 71 -112 183.5t-5 236.5q46 270 264 414z" />
    <glyph glyph-name="parenright" unicode=")" horiz-adv-x="356" 
d="M183 723q82 -71 112 -183.5t5 -236.5q-46 -270 -264 -414l-9 17q105 73 166.5 170t84.5 230q24 121 -4.5 225.5t-105.5 176.5z" />
    <glyph glyph-name="asterisk" unicode="*" horiz-adv-x="395" 
d="M270 552l135 34l4 -17l-134 -35l91 -91l-13 -13l-91 91l-35 -133l-17 4l35 135l-134 -35l-5 17l133 35l-88 88l13 13l89 -89l35 135l17 -5z" />
    <glyph glyph-name="plus" unicode="+" horiz-adv-x="683" 
d="M577 305h-210l-37 -211h-23l37 211h-210l4 21h210l37 211h23l-37 -211h210z" />
    <glyph glyph-name="comma" unicode="," horiz-adv-x="177" 
d="M-18 -160l80 155q-18 3 -18 20q0 10 6.5 16.5t16.5 6.5t16.5 -6.5t6.5 -16.5q0 -9 -17 -41l-73 -134h-18z" />
    <glyph glyph-name="hyphen" unicode="-" horiz-adv-x="554" 
d="M128 271h314l4 19h-314z" />
    <glyph glyph-name="period" unicode="." horiz-adv-x="146" 
d="M36 -8q-10 0 -16.5 6.5t-6.5 16.5t6.5 16.5t16.5 6.5t16.5 -6.5t6.5 -16.5t-6.5 -16.5t-16.5 -6.5z" />
    <glyph glyph-name="slash" unicode="/" horiz-adv-x="400" 
d="M428 730l-434 -890h-22l434 890h22z" />
    <glyph glyph-name="zero" unicode="0" horiz-adv-x="714" 
d="M440 692q110 0 169.5 -73t59.5 -199q0 -187 -98.5 -309.5t-256.5 -122.5q-110 0 -169.5 73t-59.5 199q0 187 98.5 309.5t256.5 122.5zM318 8q146 0 237 116t91 293q0 118 -54.5 186.5t-155.5 68.5q-146 0 -237 -116t-91 -293q0 -118 54.5 -186.5t155.5 -68.5z" />
    <glyph glyph-name="one" unicode="1" horiz-adv-x="496" 
d="M235 20h190l-4 -20h-421l4 20h210l111 634l-208 -77l4 23l220 80h10z" />
    <glyph glyph-name="two" unicode="2" horiz-adv-x="557" 
d="M317 226l-250 -206h396l-4 -20h-438l3 13l277 227q53 43 78.5 65t56 52.5t43.5 52.5t22 50.5t9 60.5q0 68 -45 109.5t-123 41.5q-82 0 -145.5 -43.5t-85.5 -115.5h-21q21 81 91 130t163 49q88 0 138.5 -46t50.5 -122q0 -42 -10 -74t-39.5 -68t-64 -68t-102.5 -88z" />
    <glyph glyph-name="three" unicode="3" horiz-adv-x="588" 
d="M388 345q52 -16 81 -54t29 -91q0 -94 -72.5 -153t-185.5 -59q-99 0 -157.5 45t-51.5 117h22q-4 -64 47.5 -103t139.5 -39q103 0 169.5 53t66.5 136q0 63 -43.5 100.5t-118.5 37.5h-59l3 20h59q86 0 142.5 51.5t56.5 131.5q0 62 -43.5 98t-120.5 36t-134 -36.5t-76 -98.5
h-23q20 71 83 113t151 42q87 0 136 -40.5t49 -110.5t-41 -122.5t-109 -73.5z" />
    <glyph glyph-name="four" unicode="4" horiz-adv-x="646" 
d="M568 182l-4 -20h-124l-29 -162h-21l29 162h-381l3 13l309 505h23l-303 -498h352l42 238h21l-42 -238h125z" />
    <glyph glyph-name="five" unicode="5" horiz-adv-x="580" 
d="M570 660h-376l-63 -257h205q92 0 144.5 -45.5t52.5 -122.5q0 -103 -77 -175t-193 -72q-106 0 -166 50t-62 139h23q2 -80 57 -124.5t151 -44.5q105 0 175 65.5t70 158.5q0 69 -47.5 110t-132.5 41l-226 -1l73 298h395z" />
    <glyph glyph-name="six" unicode="6" horiz-adv-x="632" 
d="M354 445q92 0 148.5 -52.5t56.5 -138.5q0 -116 -83.5 -191t-202.5 -75q-92 0 -148 52t-56 139q0 97 78 183l298 318h31l-250 -263q63 28 128 28zM277 8q107 0 183 68.5t76 173.5q0 79 -51 127t-134 48q-105 0 -177 -63l-12 -13q-70 -70 -70 -167q0 -79 50.5 -126.5
t134.5 -47.5z" />
    <glyph glyph-name="seven" unicode="7" horiz-adv-x="501" 
d="M107 680h456l-2 -14l-463 -666h-28l461 660h-427z" />
    <glyph glyph-name="eight" unicode="8" horiz-adv-x="638" 
d="M418 359q66 -14 103 -54t37 -96q0 -97 -80 -159t-202 -62q-98 0 -155 45t-57 122q0 78 55 132.5t147 72.5q-53 15 -82.5 49t-29.5 84q0 84 72.5 141.5t174.5 57.5q83 0 134 -42.5t51 -109.5q0 -69 -46 -116.5t-122 -64.5zM175 495q0 -60 46 -94t122 -34q95 0 158 46
t63 124q0 60 -46 98t-120 38q-91 0 -157 -52t-66 -126zM279 8q111 0 183.5 56t72.5 143q0 65 -53 104.5t-142 39.5q-111 0 -182.5 -53.5t-71.5 -139.5q0 -69 52 -109.5t141 -40.5z" />
    <glyph glyph-name="nine" unicode="9" horiz-adv-x="632" 
d="M399 692q92 0 148 -52t56 -139q0 -97 -78 -183l-298 -318h-31l250 263q-63 -28 -128 -28q-92 0 -148.5 52.5t-56.5 138.5q0 116 83.5 191t202.5 75zM510 331q70 70 70 167q0 79 -50.5 126.5t-134.5 47.5q-107 0 -183 -68.5t-76 -173.5q0 -79 51 -127t134 -48
q105 0 177 63z" />
    <glyph glyph-name="colon" unicode=":" horiz-adv-x="148" 
d="M112 414q-10 0 -16.5 6.5t-6.5 16.5t6.5 16.5t16.5 6.5t16.5 -6.5t6.5 -16.5t-6.5 -16.5t-16.5 -6.5zM36 -8q-10 0 -16.5 6.5t-6.5 16.5t6.5 16.5t16.5 6.5t16.5 -6.5t6.5 -16.5t-6.5 -16.5t-16.5 -6.5z" />
    <glyph glyph-name="semicolon" unicode=";" horiz-adv-x="177" 
d="M134 414q-10 0 -16.5 6.5t-6.5 16.5t6.5 16.5t16.5 6.5t16.5 -6.5t6.5 -16.5t-6.5 -16.5t-16.5 -6.5zM-18 -160l80 155q-18 3 -18 20q0 10 6.5 16.5t16.5 6.5t16.5 -6.5t6.5 -16.5q0 -9 -17 -41l-73 -134h-18z" />
    <glyph glyph-name="less" unicode="&#x3c;" horiz-adv-x="543" 
d="M36 288l4 23l459 210l-4 -25l-433 -199l363 -196l-4 -23z" />
    <glyph glyph-name="equal" unicode="=" horiz-adv-x="723" 
d="M639 434l-3 -21h-482l3 21h482zM606 244l-4 -21h-482l4 21h482z" />
    <glyph glyph-name="greater" unicode="&#x3e;" horiz-adv-x="543" 
d="M528 311l-4 -23l-459 -210l4 25l433 199l-363 196l4 23z" />
    <glyph glyph-name="question" unicode="?" 
d="M364 695q83 0 133 -50t50 -125q0 -96 -75 -165.5t-183 -69.5l-20 -114h-20l20 134h23q96 0 164.5 63t68.5 148q0 68 -45.5 113.5t-119.5 45.5q-62 0 -119 -37t-81 -96h-22q27 69 91 111t135 42zM231 38q10 0 16.5 -6.5t6.5 -16.5t-6.5 -16.5t-16.5 -6.5t-16.5 6.5
t-6.5 16.5t6.5 16.5t16.5 6.5z" />
    <glyph glyph-name="at" unicode="@" horiz-adv-x="946" 
d="M542 625q146 0 243.5 -96t97.5 -235q0 -102 -52 -176.5t-139 -74.5q-76 0 -85 72q-72 -79 -169 -79q-69 0 -113.5 44t-44.5 115q0 93 67.5 155.5t156.5 62.5q88 0 134 -67l9 48h21l-36 -204q-11 -62 2.5 -94.5t60.5 -32.5q72 0 118.5 66t46.5 160q0 132 -92 223.5
t-229 91.5q-111 0 -214 -56t-168.5 -154.5t-65.5 -211.5q0 -136 91 -227t227 -91q140 0 262 89l11 -18q-128 -92 -276 -92q-146 0 -242.5 95t-96.5 239q0 122 69 226.5t178 163t228 58.5zM443 56q93 0 163 80q0 22 5 54l23 129q-43 74 -131 74q-81 0 -141 -55.5t-60 -139.5
q0 -63 39.5 -102.5t101.5 -39.5z" />
    <glyph glyph-name="A" unicode="A" horiz-adv-x="741" 
d="M637 0l-71 244h-384l-157 -244h-26l439 680h23l199 -680h-23zM195 264h365l-114 389z" />
    <glyph glyph-name="B" unicode="B" horiz-adv-x="709" 
d="M472 353q150 -27 150 -142q0 -93 -81 -152t-208 -59h-258l120 680h258q86 0 136.5 -39t50.5 -103q0 -69 -43 -117t-125 -68zM213 660l-52 -300h206q114 0 181.5 47t67.5 128q0 57 -44.5 91t-121.5 34h-237zM337 20q114 0 187.5 52.5t73.5 135.5q0 63 -53 97.5t-152 34.5
h-236l-56 -320h236z" />
    <glyph glyph-name="C" unicode="C" horiz-adv-x="808" 
d="M501 671q-138 0 -251.5 -96.5t-138.5 -234.5q-24 -138 55 -234.5t217 -96.5q110 0 199.5 56.5t129.5 148.5h24q-43 -101 -140 -163.5t-216 -62.5q-147 0 -231.5 102.5t-59.5 249.5q26 147 147.5 249.5t268.5 102.5q119 0 193 -62.5t82 -163.5h-24q-8 92 -76.5 148.5
t-178.5 56.5z" />
    <glyph glyph-name="D" unicode="D" horiz-adv-x="760" 
d="M413 680q139 0 220 -76t81 -202q0 -174 -120 -288t-301 -114h-218l120 680h218zM297 20q170 0 282.5 107.5t112.5 271.5q0 118 -76 189.5t-206 71.5h-197l-112 -640h196z" />
    <glyph glyph-name="E" unicode="E" horiz-adv-x="667" 
d="M643 660h-430l-54 -310h390l-4 -20h-390l-54 -310h430l-4 -20h-452l120 680h452z" />
    <glyph glyph-name="F" unicode="F" horiz-adv-x="637" 
d="M633 660h-420l-57 -325h380l-3 -20h-380l-56 -315h-22l120 680h442z" />
    <glyph glyph-name="G" unicode="G" horiz-adv-x="826" 
d="M502 671q-138 0 -252 -96.5t-139 -234.5q-24 -139 53.5 -235t214.5 -96q130 0 225.5 88t124.5 223h-297l3 20h320v-3l-60 -337h-22l36 201q-51 -97 -138.5 -155t-194.5 -58q-147 0 -230 102.5t-57 249.5t148 249.5t269 102.5q113 0 190 -63t84 -163h-22q-7 90 -79 147.5
t-177 57.5z" />
    <glyph glyph-name="H" unicode="H" horiz-adv-x="759" 
d="M702 680h22l-120 -680h-22l58 331h-485l-58 -331h-22l120 680h22l-58 -330h485z" />
    <glyph glyph-name="I" unicode="I" horiz-adv-x="252" 
d="M217 680l-120 -680h-22l120 680h22z" />
    <glyph glyph-name="J" unicode="J" horiz-adv-x="619" 
d="M589 680l-79 -444q-20 -115 -94 -181.5t-178 -66.5q-91 0 -143 49.5t-54 134.5h22q3 -77 49 -120.5t131 -43.5q93 0 159.5 61t85.5 167l79 444h22z" />
    <glyph glyph-name="K" unicode="K" horiz-adv-x="717" 
d="M701 680l-373 -317l295 -363h-30l-283 347l-178 -151l-35 -196h-22l120 680h22l-80 -452l533 452h31z" />
    <glyph glyph-name="L" unicode="L" horiz-adv-x="597" 
d="M101 20h400l-4 -20h-422l120 680h22z" />
    <glyph glyph-name="M" unicode="M" horiz-adv-x="850" 
d="M815 680l-120 -680h-22l114 640l-362 -480h-24l-192 481l-112 -641h-22l120 680h24l197 -496l374 496h25z" />
    <glyph glyph-name="N" unicode="N" horiz-adv-x="782" 
d="M725 680h22l-120 -680h-26l-389 651l-115 -651h-22l120 680h25l390 -651z" />
    <glyph glyph-name="O" unicode="O" horiz-adv-x="852" 
d="M508 692q130 0 214 -86t84 -215q0 -107 -60 -200.5t-157.5 -148t-204.5 -54.5q-130 0 -214 86t-84 215q0 107 60 200.5t157.5 148t204.5 54.5zM387 9q101 0 192.5 51t148 139.5t56.5 188.5q0 121 -78.5 202t-200.5 81q-101 0 -192.5 -51t-148 -139.5t-56.5 -188.5
q0 -121 78.5 -202t200.5 -81z" />
    <glyph glyph-name="P" unicode="P" horiz-adv-x="668" 
d="M413 680q101 0 160 -50t59 -132q0 -109 -83.5 -178.5t-211.5 -69.5h-196l-44 -250h-22l120 680h218zM341 270q116 0 192.5 63.5t76.5 161.5q0 75 -54 120t-146 45h-197l-68 -390h196z" />
    <glyph glyph-name="Q" unicode="Q" horiz-adv-x="852" 
d="M806 391q0 -116 -71 -215.5t-181 -149.5l147 -186l-18 -16l-151 192q-73 -28 -148 -28q-130 0 -214 86t-84 215q0 107 60 200.5t157.5 148t204.5 54.5q130 0 214 -86t84 -215zM108 292q0 -121 78.5 -202t200.5 -81q101 0 192.5 51t148 139.5t56.5 188.5q0 121 -78.5 202
t-200.5 81q-101 0 -192.5 -51t-148 -139.5t-56.5 -188.5z" />
    <glyph glyph-name="R" unicode="R" horiz-adv-x="695" 
d="M643 507q0 -101 -72.5 -164.5t-191.5 -71.5l196 -271h-29l-194 270h-2h-205l-48 -270h-22l120 680h228q102 0 161 -46t59 -127zM354 290q118 0 192.5 58t74.5 156q0 73 -54 114.5t-148 41.5h-206l-65 -370h206z" />
    <glyph glyph-name="S" unicode="S" horiz-adv-x="653" 
d="M397 692q109 0 169.5 -49.5t58.5 -129.5h-22q-2 74 -57 116.5t-152 42.5q-105 0 -168 -48.5t-63 -120.5q0 -102 146 -130l97 -19q90 -18 128.5 -57.5t38.5 -106.5q0 -90 -72.5 -146t-197.5 -56q-123 0 -186.5 57t-59.5 167h22q-2 -100 56 -152t172 -52t179 49t65 128
q0 59 -34 96.5t-120 53.5l-100 19q-156 29 -156 148q0 82 70.5 136t185.5 54z" />
    <glyph glyph-name="T" unicode="T" horiz-adv-x="622" 
d="M672 680l-4 -20h-270l-116 -660h-22l116 660h-270l4 20h562z" />
    <glyph glyph-name="U" unicode="U" horiz-adv-x="771" 
d="M741 680l-71 -404q-22 -124 -113.5 -206t-214.5 -82q-124 0 -187 82t-41 206l71 404h22l-71 -404q-21 -115 36 -191.5t171 -76.5t199 76.5t106 191.5l71 404h22z" />
    <glyph glyph-name="V" unicode="V" horiz-adv-x="721" 
d="M743 680h26l-440 -685h-23l-198 685h24l190 -656z" />
    <glyph glyph-name="W" unicode="W" horiz-adv-x="1014" 
d="M1038 680h24l-360 -685h-21l-101 653l-333 -653h-21l-118 685h22l111 -652l333 652h22l101 -651z" />
    <glyph glyph-name="X" unicode="X" horiz-adv-x="652" 
d="M687 680l-326 -341l218 -339h-27l-207 322l-321 -322h-32l340 339l-205 341h28l193 -324l306 324h33z" />
    <glyph glyph-name="Y" unicode="Y" horiz-adv-x="640" 
d="M696 680l-364 -423l-45 -257h-22l45 257l-214 423h25l202 -400l346 400h27z" />
    <glyph glyph-name="Z" unicode="Z" horiz-adv-x="655" 
d="M654 680l-3 -17l-581 -643h468l-4 -20h-500l3 17l584 643h-461l4 20h490z" />
    <glyph glyph-name="bracketleft" unicode="[" horiz-adv-x="341" 
d="M221 710l-141 -800h131l-3 -20h-152l148 840h152l-4 -20h-131z" />
    <glyph glyph-name="backslash" unicode="\" horiz-adv-x="400" 
d="M50 730h22l278 -890h-22z" />
    <glyph glyph-name="bracketright" unicode="]" horiz-adv-x="341" 
d="M150 -90l141 800h-131l3 20h152l-148 -840h-152l4 20h131z" />
    <glyph glyph-name="asciicircum" unicode="^" horiz-adv-x="374" 
d="M268 680l96 -230h-22l-88 210l-162 -210h-22l178 230h20z" />
    <glyph glyph-name="underscore" unicode="_" horiz-adv-x="679" 
d="M-16 -177l4 19h568l-4 -19h-568z" />
    <glyph glyph-name="grave" unicode="`" 
d="M247 706l87 -136h-24l-88 136h25z" />
    <glyph glyph-name="a" unicode="a" horiz-adv-x="625" 
d="M544 450h21l-80 -450h-21l13 75q-87 -87 -205 -87q-89 0 -145.5 57.5t-56.5 144.5q0 110 87 191t199 81q117 0 174 -88zM275 8q121 0 208 101l41 231q-51 102 -171 102q-102 0 -181.5 -74.5t-79.5 -174.5q0 -79 51.5 -132t131.5 -53z" />
    <glyph glyph-name="b" unicode="b" horiz-adv-x="620" 
d="M347 462q88 0 144.5 -57.5t56.5 -144.5q0 -110 -87 -191t-199 -81q-116 0 -174 88l-13 -76h-21l125 710h21l-59 -335q87 87 206 87zM266 8q102 0 181 74.5t79 174.5q0 79 -51.5 132t-131.5 53q-121 0 -208 -100l-41 -232q53 -102 172 -102z" />
    <glyph glyph-name="c" unicode="c" horiz-adv-x="579" 
d="M344 442q-93 0 -162.5 -62.5t-86.5 -154.5q-16 -92 31.5 -154.5t140.5 -62.5q67 0 121 33.5t78 90.5h23q-27 -66 -88 -105t-138 -39q-102 0 -155 68t-35 169t95.5 169t179.5 68q76 0 122.5 -39t51.5 -105h-23q-5 57 -46.5 90.5t-108.5 33.5z" />
    <glyph glyph-name="d" unicode="d" horiz-adv-x="626" 
d="M591 710h21l-126 -710h-21l14 76q-90 -88 -206 -88q-88 0 -145 58t-57 145q0 110 87 190.5t199 80.5q118 0 175 -87zM276 8q120 0 209 102l41 231q-52 101 -172 101q-102 0 -181.5 -74t-79.5 -174q0 -79 52 -132.5t131 -53.5z" />
    <glyph glyph-name="e" unicode="e" horiz-adv-x="596" 
d="M520 217h-426q-14 -89 35 -149t139 -60q59 0 110 26t75 68h24q-28 -52 -87 -83t-126 -31q-102 0 -155.5 68t-35.5 169q17 99 95 168t177 69q96 0 144.5 -67.5t30.5 -177.5zM344 442q-86 0 -156 -58t-90 -147h403q10 91 -31 148t-126 57z" />
    <glyph glyph-name="f" unicode="f" horiz-adv-x="358" 
d="M363 702q-52 0 -90 -35.5t-48 -92.5l-22 -124h187l-4 -20h-186l-76 -430h-21l75 430h-137l4 20h137l22 126q11 66 56 106t107 40q34 0 79 -12l-9 -18q-42 10 -74 10z" />
    <glyph glyph-name="g" unicode="g" horiz-adv-x="626" 
d="M544 450h21l-81 -461q-17 -99 -87 -159t-170 -60q-81 0 -131.5 40t-55.5 106h23q5 -57 50 -91.5t117 -34.5q90 0 153.5 54.5t79.5 144.5l15 87q-90 -88 -216 -88q-86 0 -139 56.5t-53 142.5q0 112 82 193.5t194 81.5q126 0 185 -89zM265 8q60 0 118.5 27t100.5 75l42 235
q-27 47 -75 72t-108 25q-102 0 -176.5 -75t-74.5 -177q0 -79 47.5 -130.5t125.5 -51.5z" />
    <glyph glyph-name="h" unicode="h" horiz-adv-x="573" 
d="M352 462q83 0 125.5 -50.5t26.5 -139.5l-48 -272h-21l48 272q15 80 -23 125t-111 45q-62 0 -119.5 -26t-94.5 -73l-60 -343h-21l125 710h21l-59 -333q82 85 211 85z" />
    <glyph glyph-name="i" unicode="i" horiz-adv-x="247" 
d="M195 606q-10 0 -16.5 6.5t-6.5 16.5t6.5 16.5t16.5 6.5t16.5 -6.5t6.5 -16.5t-6.5 -16.5t-16.5 -6.5zM152 450h21l-79 -450h-21z" />
    <glyph glyph-name="j" unicode="j" horiz-adv-x="255" 
d="M203 606q-10 0 -16.5 6.5t-6.5 16.5t6.5 16.5t16.5 6.5t16.5 -6.5t6.5 -16.5t-6.5 -16.5t-16.5 -6.5zM187 450l-90 -514q-16 -90 -54 -128t-112 -38l3 20q63 0 96 33.5t46 112.5l90 514h21z" />
    <glyph glyph-name="k" unicode="k" horiz-adv-x="558" 
d="M503 450l-248 -190l218 -260h-28l-207 247l-130 -99l-26 -148h-21l125 710h21l-94 -532l358 272h32z" />
    <glyph glyph-name="l" unicode="l" horiz-adv-x="221" 
d="M186 710h21l-126 -710h-21z" />
    <glyph glyph-name="m" unicode="m" horiz-adv-x="898" 
d="M678 462q84 0 125.5 -49.5t25.5 -140.5l-48 -272h-21l48 272q15 82 -21.5 126t-110.5 44q-121 0 -195 -108q0 -34 -5 -62l-48 -272h-21l48 272q15 84 -18 127t-104 43q-56 0 -109 -25.5t-89 -71.5l-61 -345h-21l80 450h21l-13 -71q77 83 192 83q124 0 145 -103
q77 103 200 103z" />
    <glyph glyph-name="n" unicode="n" horiz-adv-x="572" 
d="M351 462q83 0 125.5 -50.5t26.5 -139.5l-48 -272h-21l48 272q15 80 -23 125t-111 45q-61 0 -118.5 -26t-94.5 -72l-61 -344h-21l80 450h21l-13 -72q81 84 210 84z" />
    <glyph glyph-name="o" unicode="o" horiz-adv-x="629" 
d="M356 462q88 0 144.5 -58t56.5 -145q0 -109 -87 -190t-198 -81q-89 0 -145.5 57.5t-56.5 144.5q0 110 87 191t199 81zM275 8q101 0 180.5 74t79.5 174q0 79 -51.5 132.5t-130.5 53.5q-102 0 -181.5 -74.5t-79.5 -174.5q0 -79 51.5 -132t131.5 -53z" />
    <glyph glyph-name="p" unicode="p" horiz-adv-x="620" 
d="M346 462q88 0 145 -58t57 -145q0 -110 -87 -190.5t-199 -80.5q-118 0 -174 87l-52 -293h-21l118 668h21l-13 -76q88 88 205 88zM265 8q102 0 181.5 74t79.5 174q0 79 -52 132.5t-131 53.5q-122 0 -208 -102l-41 -231q50 -101 171 -101z" />
    <glyph glyph-name="q" unicode="q" horiz-adv-x="625" 
d="M544 450h21l-118 -667h-21l52 292q-89 -87 -206 -87q-89 0 -145.5 57.5t-56.5 144.5q0 110 87 191t199 81q117 0 175 -88zM275 8q121 0 209 101l41 231q-53 102 -172 102q-102 0 -181.5 -74.5t-79.5 -174.5q0 -79 51.5 -132t131.5 -53z" />
    <glyph glyph-name="r" unicode="r" horiz-adv-x="328" 
d="M136 347q39 53 95.5 84t114.5 31l-3 -20q-60 0 -118 -37.5t-97 -101.5l-54 -303h-21l80 450h21z" />
    <glyph glyph-name="s" unicode="s" horiz-adv-x="545" 
d="M79 126q5 -56 48 -87t122 -31q81 0 129 31.5t48 87.5q0 72 -88 87l-104 17q-58 10 -87 32.5t-29 65.5q0 61 53.5 97t137.5 36q83 0 130.5 -36t41.5 -97h-20q3 55 -36 84t-116 29q-78 0 -124 -29t-46 -80q0 -34 23 -53t76 -29l95 -16q52 -9 83 -31.5t31 -73.5
q0 -67 -55 -104.5t-143 -37.5q-87 0 -137.5 36.5t-54.5 101.5h22z" />
    <glyph glyph-name="t" unicode="t" horiz-adv-x="413" 
d="M204 430l-49 -276q-11 -66 13.5 -106t76.5 -40q41 0 78 15l1 -23q-48 -12 -83 -12q-62 0 -91 45.5t-16 120.5l49 276h-140l3 20h140l30 170h21l-30 -170h174l-3 -20h-174z" />
    <glyph glyph-name="u" unicode="u" horiz-adv-x="584" 
d="M498 450h21l-79 -450h-21l13 72q-81 -84 -211 -84q-83 0 -125 50t-27 140l48 272h21l-48 -272q-14 -80 24 -125t111 -45q61 0 118.5 26t94.5 72z" />
    <glyph glyph-name="v" unicode="v" horiz-adv-x="567" 
d="M531 450h24l-300 -450h-25l-142 450h23l135 -425z" />
    <glyph glyph-name="w" unicode="w" horiz-adv-x="767" 
d="M732 450h23l-250 -450h-23l-67 415l-212 -415h-23l-92 450h22l85 -418l215 418h21l67 -420z" />
    <glyph glyph-name="x" unicode="x" horiz-adv-x="518" 
d="M513 450l-237 -226l158 -224h-26l-149 208l-224 -208h-30l242 225l-153 225h25l144 -209l220 209h30z" />
    <glyph glyph-name="y" unicode="y" horiz-adv-x="591" 
d="M552 450h27l-434 -668h-27l122 188l-152 480h24l144 -455z" />
    <glyph glyph-name="z" unicode="z" horiz-adv-x="489" 
d="M469 450l-3 -17l-413 -413h340l-4 -20h-369l3 17l412 413h-325l4 20h355z" />
    <glyph glyph-name="braceleft" unicode="{" horiz-adv-x="358" 
d="M222 470q-22 -129 -98 -156q35 -14 45 -51.5t-2 -104.5l-19 -109q-11 -66 13.5 -106t76.5 -40l-3 -20q-62 0 -91.5 45.5t-16.5 120.5l19 109q14 79 -6.5 112.5t-83.5 33.5l4 20q63 0 95 33.5t46 112.5l20 109q13 75 58.5 120.5t107.5 45.5l-4 -20q-51 0 -90.5 -43
t-50.5 -103z" />
    <glyph glyph-name="bar" unicode="|" horiz-adv-x="252" 
d="M204 730h22l-157 -890h-22z" />
    <glyph glyph-name="braceright" unicode="}" horiz-adv-x="358" 
d="M167 158q22 129 98 156q-35 14 -45 51.5t2 104.5l19 109q11 66 -13.5 106t-76.5 40l3 20q62 0 91.5 -45.5t16.5 -120.5l-19 -109q-14 -79 6.5 -112.5t83.5 -33.5l-4 -20q-63 0 -95 -33.5t-46 -112.5l-20 -109q-13 -75 -58.5 -120.5t-107.5 -45.5l4 20q51 0 90.5 43
t50.5 103z" />
    <glyph glyph-name="asciitilde" unicode="~" horiz-adv-x="472" 
d="M419 386q0 -31 -14.5 -51t-35.5 -26.5t-43.5 -3.5t-39.5 15l-72 51q-19 13 -42 13.5t-41 -15.5t-18 -46h-20q0 41 25 62.5t54.5 19t53.5 -15.5l72 -51q19 -13 42.5 -13.5t41 15.5t17.5 46h20z" />
    <glyph glyph-name="exclamdown" unicode="&#xa1;" horiz-adv-x="247" 
d="M162 466q10 0 16.5 -6.5t6.5 -16.5t-6.5 -16.5t-16.5 -6.5t-16.5 6.5t-6.5 16.5t6.5 16.5t16.5 6.5zM34 -222l92 520h22l-92 -520h-22z" />
    <glyph glyph-name="cent" unicode="&#xa2;" horiz-adv-x="580" 
d="M344 442q-93 0 -162.5 -62.5t-86.5 -154.5q-16 -92 31.5 -154.5t140.5 -62.5q67 0 121 33.5t78 90.5h23q-27 -66 -88 -105t-138 -39h-3l-23 -129h-21l23 130q-91 9 -137 75.5t-29 160.5t86.5 160.5t163.5 75.5l24 138h21l-24 -137h4q76 0 122.5 -39t51.5 -105h-23
q-5 57 -46.5 90.5t-108.5 33.5z" />
    <glyph glyph-name="sterling" unicode="&#xa3;" horiz-adv-x="645" 
d="M439 695q93 0 143.5 -51.5t43.5 -138.5h-22q5 78 -40.5 124t-128.5 46q-91 0 -155.5 -55t-80.5 -145l-29 -165h272l-4 -20h-271l-48 -270h419l-4 -20h-528l4 20h87l48 270h-88l4 20h87l29 165q17 99 89 159.5t173 60.5z" />
    <glyph glyph-name="yen" unicode="&#xa5;" horiz-adv-x="640" 
d="M332 257l-4 -23h197l-4 -21h-197l-14 -84h196l-4 -21h-196l-19 -108h-22l19 108h-190l4 21h190l14 84h-189l4 21h189l4 23l-214 423h25l202 -400l346 400h27z" />
    <glyph glyph-name="brokenbar" unicode="&#xa6;" horiz-adv-x="253" 
d="M226 730l-69 -394h-22l69 394h22zM139 234l-70 -394h-22l70 394h22z" />
    <glyph glyph-name="section" unicode="&#xa7;" horiz-adv-x="539" 
d="M343 690q79 0 124 -40t42 -110h-20q2 61 -38 95.5t-110 34.5q-76 0 -126.5 -37.5t-50.5 -102.5q0 -36 30 -63t99 -62l84 -43q53 -28 79.5 -57t26.5 -68q0 -58 -42.5 -94.5t-99.5 -45.5q56 -41 56 -93q0 -73 -56 -117.5t-144 -44.5q-79 0 -124.5 40t-42.5 110h20
q-2 -61 38 -95.5t110 -34.5q77 0 127.5 37t50.5 102q0 38 -26.5 62.5t-103.5 63.5l-84 43q-106 53 -106 125q0 59 43 95.5t100 45.5q-57 40 -57 92q0 73 56.5 117.5t144.5 44.5zM364 346l-78 41q-9 5 -19 10t-22 11.5t-18 9.5q-62 -2 -105.5 -34t-43.5 -88q0 -31 22 -57
t75 -53l78 -40q60 -31 61 -32q61 3 104 34.5t43 86.5q0 31 -22.5 57.5t-74.5 53.5z" />
    <glyph glyph-name="dieresis" unicode="&#xa8;" 
d="M237 624q11 0 18 -7t7 -18t-7 -18t-18 -7t-18 7t-7 18t7 18t18 7zM403 624q11 0 18 -7t7 -18t-7 -18t-18 -7t-18 7t-7 18t7 18t18 7z" />
    <glyph glyph-name="copyright" unicode="&#xa9;" horiz-adv-x="878" 
d="M459 695q150 0 257 -102t107 -253t-107 -253t-257 -102t-257 102t-107 253t107 253t257 102zM458 4q140 0 242 97.5t102 238.5t-102 238.5t-242 97.5t-241.5 -97.5t-101.5 -238.5t101.5 -238.5t241.5 -97.5zM458 519q-71 0 -122 -52.5t-51 -126.5t51 -126.5t122 -52.5
q57 0 100.5 32t57.5 82h21q-15 -58 -65 -95t-114 -37q-79 0 -136 58t-57 139t57 139t136 58q64 0 114 -37t65 -95h-21q-14 50 -57.5 82t-100.5 32z" />
    <glyph glyph-name="ordfeminine" unicode="&#xaa;" horiz-adv-x="354" 
d="M254 686q57 0 89 -39t21 -100l-29 -166h-19l7 38q-61 -48 -129 -48q-48 0 -76.5 21.5t-28.5 58.5q0 42 33.5 69t98.5 27h124q10 54 -17.5 88t-76.5 34q-38 0 -66 -19t-39 -54h-21q12 43 47.5 66.5t81.5 23.5zM200 391q70 0 127 51l15 87h-124q-56 0 -82.5 -21t-26.5 -54
q0 -30 24.5 -46.5t66.5 -16.5z" />
    <glyph glyph-name="guillemotleft" unicode="&#xab;" horiz-adv-x="404" 
d="M192 396h26l-147 -146l96 -142h-25l-97 144zM332 396h26l-147 -146l96 -142h-25l-97 144z" />
    <glyph glyph-name="registered" unicode="&#xae;" horiz-adv-x="542" 
d="M321 695q91 0 156 -62t65 -153t-65 -153t-156 -62t-156 62t-65 153t65 153t156 62zM321 282q82 0 142 57.5t60 140.5t-60 140.5t-142 57.5t-142 -57.5t-60 -140.5t60 -140.5t142 -57.5zM335 454h-1l88 -92h-23l-87 92h-55v-92h-17v239h95q34 0 58 -21t24 -53t-23.5 -52.5
t-58.5 -20.5zM257 585v-115h78q26 0 45 16t19 41q0 26 -19 42t-45 16h-78z" />
    <glyph glyph-name="macron" unicode="&#xaf;" 
d="M178 608h276l-4 -18h-276z" />
    <glyph glyph-name="degree" unicode="&#xb0;" horiz-adv-x="502" 
d="M306 695q68 0 114.5 -45.5t46.5 -112.5q0 -66 -46.5 -111.5t-114.5 -45.5t-114.5 45.5t-46.5 111.5q0 67 46.5 112.5t114.5 45.5zM306 401q58 0 98.5 39.5t40.5 96.5q0 58 -40.5 98t-98.5 40t-98.5 -40t-40.5 -98q0 -57 40.5 -96.5t98.5 -39.5z" />
    <glyph glyph-name="plusminus" unicode="&#xb1;" horiz-adv-x="683" 
d="M584 346l-4 -21h-209l-32 -180h-23l32 180h-210l4 21h210l32 181h23l-32 -181h209zM94 76h442l-4 -21h-442z" />
    <glyph glyph-name="uni00B2" unicode="&#xb2;" horiz-adv-x="353" 
d="M238 441l-123 -99h206l-3 -19h-245l2 12l147 118q45 36 64.5 53.5t34.5 41.5t15 50q0 33 -22.5 53.5t-62.5 20.5q-42 0 -72 -22t-41 -59h-21q12 46 48 73t88 27q49 0 76.5 -25t27.5 -65t-25.5 -72.5t-93.5 -87.5z" />
    <glyph glyph-name="uni00B3" unicode="&#xb3;" horiz-adv-x="364" 
d="M285 505q56 -19 56 -75q0 -50 -40 -81.5t-104 -31.5q-56 0 -88.5 24.5t-29.5 64.5h22q-2 -32 24.5 -51t72.5 -19q53 0 87.5 25.5t34.5 66.5q0 31 -23.5 49.5t-63.5 18.5h-33l4 18h33v-1v1q44 0 73.5 25.5t29.5 64.5q0 31 -23 49.5t-63 18.5q-41 0 -69.5 -18.5
t-39.5 -50.5h-21q12 40 47.5 64t85.5 24q48 0 75.5 -23t27.5 -61q0 -36 -20 -63t-55 -39z" />
    <glyph glyph-name="acute" unicode="&#xb4;" 
d="M411 706h25l-112 -136h-24z" />
    <glyph glyph-name="paragraph" unicode="&#xb6;" horiz-adv-x="779" 
d="M283 680h328v-840h-22v820h-178v-820h-22v410h-106q-99 0 -166 60t-67 155t67 155t166 60zM389 660h-106q-89 0 -149.5 -54.5t-60.5 -140.5t60.5 -140.5t149.5 -54.5h106v390z" />
    <glyph glyph-name="periodcentered" unicode="&#xb7;" horiz-adv-x="147" 
d="M79 235q-10 0 -16.5 6.5t-6.5 16.5t6.5 16.5t16.5 6.5t16.5 -6.5t6.5 -16.5t-6.5 -16.5t-16.5 -6.5z" />
    <glyph glyph-name="cedilla" unicode="&#xb8;" 
d="M272 -86l-73 -133h-23l72 133h24z" />
    <glyph glyph-name="uni00B9" unicode="&#xb9;" horiz-adv-x="288" 
d="M183 342h104l-4 -19h-238l4 19h113l56 317l-112 -38l3 20l124 42h11z" />
    <glyph glyph-name="ordmasculine" unicode="&#xba;" horiz-adv-x="389" 
d="M282 686q59 0 97 -39t38 -97q0 -74 -58.5 -129t-132.5 -55q-59 0 -96.5 39.5t-37.5 97.5q0 74 57.5 128.5t132.5 54.5zM229 385q65 0 115.5 48.5t50.5 113.5q0 51 -33 85.5t-83 34.5q-66 0 -115.5 -48t-49.5 -114q0 -51 32 -85.5t83 -34.5z" />
    <glyph glyph-name="guillemotright" unicode="&#xbb;" horiz-adv-x="404" 
d="M82 108h-26l147 146l-96 142h25l97 -144zM222 108h-26l147 146l-96 142h25l97 -144z" />
    <glyph glyph-name="onequarter" unicode="&#xbc;" horiz-adv-x="829" 
d="M283 322h-238l4 19h113l56 317l-112 -38l3 20l124 42h11l-61 -341h104zM616 680h24l-444 -680h-24zM758 103l-4 -20h-67l-14 -83h-20l14 83h-211l3 14l167 263h22l-161 -257h184l21 122h20l-21 -122h67z" />
    <glyph glyph-name="onehalf" unicode="&#xbd;" horiz-adv-x="833" 
d="M283 322h-238l4 19h113l56 317l-112 -38l3 20l124 42h11l-61 -341h104zM616 680h24l-444 -680h-24zM661 118l-123 -99h206l-3 -19h-245l2 12l147 118q45 36 64.5 53.5t34.5 41.5t15 50q0 33 -22.5 53.5t-62.5 20.5q-42 0 -72 -22t-41 -59h-21q12 46 48 73t88 27
q49 0 76.5 -25t27.5 -65t-25.5 -72.5t-93.5 -87.5z" />
    <glyph glyph-name="threequarters" unicode="&#xbe;" horiz-adv-x="829" 
d="M341 433q0 -50 -40 -81.5t-104 -31.5q-56 0 -88.5 24.5t-29.5 64.5h22q-2 -32 24.5 -51t72.5 -19q53 0 87.5 25.5t34.5 66.5q0 31 -23.5 49.5t-63.5 18.5h-33l4 18h33v-1v1q44 0 73.5 25.5t29.5 64.5q0 31 -23 49.5t-63 18.5q-41 0 -69.5 -18.5t-39.5 -50.5h-21
q12 40 47.5 64t85.5 24q48 0 75.5 -23t27.5 -61q0 -36 -20 -63t-55 -39q56 -19 56 -75zM618 680h24l-444 -680h-24zM758 103l-4 -20h-67l-14 -83h-20l14 83h-211l3 14l167 263h22l-161 -257h184l21 122h20l-21 -122h67z" />
    <glyph glyph-name="questiondown" unicode="&#xbf;" 
d="M369 503q-10 0 -16.5 6.5t-6.5 16.5t6.5 16.5t16.5 6.5t16.5 -6.5t6.5 -16.5t-6.5 -16.5t-16.5 -6.5zM236 -154q-83 0 -133 50t-50 125q0 96 75 165.5t183 69.5l20 114h20l-20 -134h-23q-96 0 -164.5 -63t-68.5 -148q0 -68 45.5 -113.5t119.5 -45.5q62 0 119 37t81 96h22
q-27 -69 -91 -111t-135 -42z" />
    <glyph glyph-name="Agrave" unicode="&#xc0;" horiz-adv-x="741" 
d="M468 760h-24l-88 136h25zM637 0l-71 244h-384l-157 -244h-26l439 680h23l199 -680h-23zM195 264h365l-114 389z" />
    <glyph glyph-name="Aacute" unicode="&#xc1;" horiz-adv-x="741" 
d="M585 896l-112 -136h-24l111 136h25zM637 0l-71 244h-384l-157 -244h-26l439 680h23l199 -680h-23zM195 264h365l-114 389z" />
    <glyph glyph-name="Acircumflex" unicode="&#xc2;" horiz-adv-x="741" 
d="M491 886l-139 -122h-31l153 136h36l101 -136h-26zM637 0l-71 244h-384l-157 -244h-26l439 680h23l199 -680h-23zM195 264h365l-114 389z" />
    <glyph glyph-name="Atilde" unicode="&#xc3;" horiz-adv-x="741" 
d="M435 842q-29 23 -61 13.5t-32 -48.5h-19q0 35 21 53t49.5 16.5t51.5 -18.5l37 -26q34 -25 64 -15t30 50h19q0 -54 -41 -68.5t-81 16.5zM637 0l-71 244h-384l-157 -244h-26l439 680h23l199 -680h-23zM195 264h365l-114 389z" />
    <glyph glyph-name="Adieresis" unicode="&#xc4;" horiz-adv-x="741" 
d="M386 784q-10 0 -17.5 7t-7.5 18t7.5 18t17.5 7t17.5 -7t7.5 -18t-7.5 -18t-17.5 -7zM552 784q-10 0 -17.5 7t-7.5 18t7.5 18t17.5 7t17.5 -7t7.5 -18t-7.5 -18t-17.5 -7zM637 0l-71 244h-384l-157 -244h-26l439 680h23l199 -680h-23zM195 264h365l-114 389z" />
    <glyph glyph-name="Aring" unicode="&#xc5;" horiz-adv-x="741" 
d="M469 777q-37 0 -62 24.5t-25 61.5t25 61.5t62 24.5t62 -24.5t25 -61.5t-25 -61.5t-62 -24.5zM469 931q-28 0 -48 -20t-20 -48q0 -29 19.5 -48.5t48.5 -19.5t48.5 19.5t19.5 48.5q0 28 -20 48t-48 20zM637 0l-71 244h-384l-157 -244h-26l439 680h23l199 -680h-23zM195 264
h365l-114 389z" />
    <glyph glyph-name="AE" unicode="&#xc6;" horiz-adv-x="1183" 
d="M1159 660h-430l-54 -310h390l-4 -20h-390l-54 -310h430l-4 -20h-452l43 244h-351l-255 -244h-29l708 680h456zM304 264h334l68 385z" />
    <glyph glyph-name="Ccedilla" unicode="&#xc7;" horiz-adv-x="808" 
d="M501 671q-138 0 -251.5 -96.5t-138.5 -234.5q-24 -138 55 -234.5t217 -96.5q110 0 199.5 56.5t129.5 148.5h24q-43 -101 -140 -163.5t-216 -62.5q-147 0 -231.5 102.5t-59.5 249.5q26 147 147.5 249.5t268.5 102.5q119 0 193 -62.5t82 -163.5h-24q-8 92 -76.5 148.5
t-178.5 56.5zM261 -219l72 133h24l-73 -133h-23z" />
    <glyph glyph-name="Egrave" unicode="&#xc8;" horiz-adv-x="667" 
d="M440 760h-24l-88 136h25zM643 660h-430l-54 -310h390l-4 -20h-390l-54 -310h430l-4 -20h-452l120 680h452z" />
    <glyph glyph-name="Eacute" unicode="&#xc9;" horiz-adv-x="667" 
d="M557 896l-112 -136h-24l111 136h25zM643 660h-430l-54 -310h390l-4 -20h-390l-54 -310h430l-4 -20h-452l120 680h452z" />
    <glyph glyph-name="Ecircumflex" unicode="&#xca;" horiz-adv-x="667" 
d="M463 886l-139 -122h-31l153 136h36l101 -136h-26zM643 660h-430l-54 -310h390l-4 -20h-390l-54 -310h430l-4 -20h-452l120 680h452z" />
    <glyph glyph-name="Edieresis" unicode="&#xcb;" horiz-adv-x="667" 
d="M358 784q-10 0 -17.5 7t-7.5 18t7.5 18t17.5 7t17.5 -7t7.5 -18t-7.5 -18t-17.5 -7zM524 784q-10 0 -17.5 7t-7.5 18t7.5 18t17.5 7t17.5 -7t7.5 -18t-7.5 -18t-17.5 -7zM643 660h-430l-54 -310h390l-4 -20h-390l-54 -310h430l-4 -20h-452l120 680h452z" />
    <glyph glyph-name="Igrave" unicode="&#xcc;" horiz-adv-x="252" 
d="M138 896l87 -136h-24l-88 136h25zM217 680l-120 -680h-22l120 680h22z" />
    <glyph glyph-name="Iacute" unicode="&#xcd;" horiz-adv-x="252" 
d="M317 896h25l-112 -136h-24zM217 680l-120 -680h-22l120 680h22z" />
    <glyph glyph-name="Icircumflex" unicode="&#xce;" horiz-adv-x="252" 
d="M342 764l-94 122l-139 -122h-31l153 136h36l101 -136h-26zM217 680l-120 -680h-22l120 680h22z" />
    <glyph glyph-name="Idieresis" unicode="&#xcf;" horiz-adv-x="252" 
d="M143 834q11 0 18 -7t7 -18t-7 -18t-18 -7t-18 7t-7 18t7 18t18 7zM309 834q11 0 18 -7t7 -18t-7 -18t-18 -7t-18 7t-7 18t7 18t18 7zM217 680l-120 -680h-22l120 680h22z" />
    <glyph glyph-name="Eth" unicode="&#xd0;" horiz-adv-x="761" 
d="M413 680q139 0 220 -76t81 -202q0 -174 -120 -288t-301 -114h-218l58 330h-96l4 20h96l58 330h218zM297 20q170 0 282.5 107.5t112.5 271.5q0 118 -76 189.5t-206 71.5h-197l-54 -310h199l-4 -20h-199l-54 -310h196z" />
    <glyph glyph-name="Ntilde" unicode="&#xd1;" horiz-adv-x="782" 
d="M467 842q-29 23 -61 13.5t-32 -48.5h-19q0 35 21 53t49.5 16.5t51.5 -18.5l37 -26q34 -25 64 -15t30 50h19q0 -54 -41 -68.5t-81 16.5zM725 680h22l-120 -680h-26l-389 651l-115 -651h-22l120 680h25l390 -651z" />
    <glyph glyph-name="Ograve" unicode="&#xd2;" horiz-adv-x="852" 
d="M446 896l87 -136h-24l-88 136h25zM508 692q130 0 214 -86t84 -215q0 -107 -60 -200.5t-157.5 -148t-204.5 -54.5q-130 0 -214 86t-84 215q0 107 60 200.5t157.5 148t204.5 54.5zM387 9q101 0 192.5 51t148 139.5t56.5 188.5q0 121 -78.5 202t-200.5 81q-101 0 -192.5 -51
t-148 -139.5t-56.5 -188.5q0 -121 78.5 -202t200.5 -81z" />
    <glyph glyph-name="Oacute" unicode="&#xd3;" horiz-adv-x="852" 
d="M625 896h25l-112 -136h-24zM508 692q130 0 214 -86t84 -215q0 -107 -60 -200.5t-157.5 -148t-204.5 -54.5q-130 0 -214 86t-84 215q0 107 60 200.5t157.5 148t204.5 54.5zM387 9q101 0 192.5 51t148 139.5t56.5 188.5q0 121 -78.5 202t-200.5 81q-101 0 -192.5 -51
t-148 -139.5t-56.5 -188.5q0 -121 78.5 -202t200.5 -81z" />
    <glyph glyph-name="Ocircumflex" unicode="&#xd4;" horiz-adv-x="852" 
d="M650 764l-94 122l-139 -122h-31l153 136h36l101 -136h-26zM508 692q130 0 214 -86t84 -215q0 -107 -60 -200.5t-157.5 -148t-204.5 -54.5q-130 0 -214 86t-84 215q0 107 60 200.5t157.5 148t204.5 54.5zM387 9q101 0 192.5 51t148 139.5t56.5 188.5q0 121 -78.5 202
t-200.5 81q-101 0 -192.5 -51t-148 -139.5t-56.5 -188.5q0 -121 78.5 -202t200.5 -81z" />
    <glyph glyph-name="Otilde" unicode="&#xd5;" horiz-adv-x="852" 
d="M660 867q0 -54 -41 -68.5t-81 16.5l-38 27q-29 23 -61 13.5t-32 -48.5h-19q0 35 21 53t49.5 16.5t51.5 -18.5l37 -26q35 -25 64.5 -15t29.5 50h19zM508 692q130 0 214 -86t84 -215q0 -107 -60 -200.5t-157.5 -148t-204.5 -54.5q-130 0 -214 86t-84 215q0 107 60 200.5
t157.5 148t204.5 54.5zM387 9q101 0 192.5 51t148 139.5t56.5 188.5q0 121 -78.5 202t-200.5 81q-101 0 -192.5 -51t-148 -139.5t-56.5 -188.5q0 -121 78.5 -202t200.5 -81z" />
    <glyph glyph-name="Odieresis" unicode="&#xd6;" horiz-adv-x="852" 
d="M466 834q10 0 17.5 -7t7.5 -18t-7.5 -18t-17.5 -7t-17.5 7t-7.5 18t7.5 18t17.5 7zM632 834q10 0 17.5 -7t7.5 -18t-7.5 -18t-17.5 -7t-17.5 7t-7.5 18t7.5 18t17.5 7zM508 692q130 0 214 -86t84 -215q0 -107 -60 -200.5t-157.5 -148t-204.5 -54.5q-130 0 -214 86
t-84 215q0 107 60 200.5t157.5 148t204.5 54.5zM387 9q101 0 192.5 51t148 139.5t56.5 188.5q0 121 -78.5 202t-200.5 81q-101 0 -192.5 -51t-148 -139.5t-56.5 -188.5q0 -121 78.5 -202t200.5 -81z" />
    <glyph glyph-name="multiply" unicode="&#xd7;" horiz-adv-x="650" 
d="M340 315l140 -170l-18 -15l-140 170l-200 -170l-16 18l200 170l-136 167l18 15l136 -167l200 170l16 -18z" />
    <glyph glyph-name="Oslash" unicode="&#xd8;" horiz-adv-x="858" 
d="M719 609q87 -87 87 -218q0 -107 -60 -200.5t-157.5 -148t-204.5 -54.5q-126 0 -211 83l-77 -76l-15 14l78 77q-73 84 -73 203q0 107 60 200.5t157.5 148t204.5 54.5q115 0 196 -70l78 77l15 -14zM108 292q0 -111 68 -190l512 504q-76 65 -183 65q-101 0 -192.5 -51
t-148 -139.5t-56.5 -188.5zM387 9q101 0 192.5 51t148 139.5t56.5 188.5q0 123 -81 204l-513 -505q80 -78 197 -78z" />
    <glyph glyph-name="Ugrave" unicode="&#xd9;" horiz-adv-x="771" 
d="M385 896l87 -136h-24l-88 136h25zM741 680l-71 -404q-22 -124 -113.5 -206t-214.5 -82q-124 0 -187 82t-41 206l71 404h22l-71 -404q-21 -115 36 -191.5t171 -76.5t199 76.5t106 191.5l71 404h22z" />
    <glyph glyph-name="Uacute" unicode="&#xda;" horiz-adv-x="771" 
d="M564 896h25l-112 -136h-24zM741 680l-71 -404q-22 -124 -113.5 -206t-214.5 -82q-124 0 -187 82t-41 206l71 404h22l-71 -404q-21 -115 36 -191.5t171 -76.5t199 76.5t106 191.5l71 404h22z" />
    <glyph glyph-name="Ucircumflex" unicode="&#xdb;" horiz-adv-x="771" 
d="M589 764l-94 122l-139 -122h-31l153 136h36l101 -136h-26zM741 680l-71 -404q-22 -124 -113.5 -206t-214.5 -82q-124 0 -187 82t-41 206l71 404h22l-71 -404q-21 -115 36 -191.5t171 -76.5t199 76.5t106 191.5l71 404h22z" />
    <glyph glyph-name="Udieresis" unicode="&#xdc;" horiz-adv-x="771" 
d="M390 834q10 0 17.5 -7t7.5 -18t-7.5 -18t-17.5 -7t-17.5 7t-7.5 18t7.5 18t17.5 7zM556 834q10 0 17.5 -7t7.5 -18t-7.5 -18t-17.5 -7t-17.5 7t-7.5 18t7.5 18t17.5 7zM741 680l-71 -404q-22 -124 -113.5 -206t-214.5 -82q-124 0 -187 82t-41 206l71 404h22l-71 -404
q-21 -115 36 -191.5t171 -76.5t199 76.5t106 191.5l71 404h22z" />
    <glyph glyph-name="Yacute" unicode="&#xdd;" horiz-adv-x="640" 
d="M512 896l-112 -136h-24l111 136h25zM696 680l-364 -423l-45 -257h-22l45 257l-214 423h25l202 -400l346 400h27z" />
    <glyph glyph-name="Thorn" unicode="&#xde;" horiz-adv-x="667" 
d="M392 560q100 0 159 -50t59 -132q0 -109 -83 -178.5t-211 -69.5h-196l-23 -130h-22l120 680h22l-21 -120h196zM319 150q116 0 192.5 63.5t76.5 161.5q0 75 -54 120t-146 45h-196l-69 -390h196z" />
    <glyph glyph-name="germandbls" unicode="&#xdf;" horiz-adv-x="593" 
d="M398 350q72 -11 111.5 -52.5t39.5 -106.5q0 -86 -64.5 -141.5t-161.5 -55.5q-61 0 -117 17l4 21q56 -17 110 -17q92 0 149.5 49t57.5 126q0 71 -48.5 110t-125.5 39h-29l3 18q89 -3 149 51.5t60 126.5q0 57 -40.5 97t-118.5 40q-83 0 -143.5 -48t-75.5 -137l-85 -487h-21
l85 489q16 94 82.5 148.5t158.5 54.5q84 0 132.5 -44t48.5 -112q0 -65 -43.5 -116.5t-117.5 -69.5z" />
    <glyph glyph-name="agrave" unicode="&#xe0;" horiz-adv-x="625" 
d="M379 550h-24l-88 136h25zM544 450h21l-80 -450h-21l13 75q-87 -87 -205 -87q-89 0 -145.5 57.5t-56.5 144.5q0 110 87 191t199 81q117 0 174 -88zM275 8q121 0 208 101l41 231q-51 102 -171 102q-102 0 -181.5 -74.5t-79.5 -174.5q0 -79 51.5 -132t131.5 -53z" />
    <glyph glyph-name="aacute" unicode="&#xe1;" horiz-adv-x="625" 
d="M495 685l-112 -136h-24l111 136h25zM544 450h21l-80 -450h-21l13 75q-87 -87 -205 -87q-89 0 -145.5 57.5t-56.5 144.5q0 110 87 191t199 81q117 0 174 -88zM275 8q121 0 208 101l41 231q-51 102 -171 102q-102 0 -181.5 -74.5t-79.5 -174.5q0 -79 51.5 -132t131.5 -53z
" />
    <glyph glyph-name="acircumflex" unicode="&#xe2;" horiz-adv-x="625" 
d="M419 666l-139 -122h-31l153 136h36l101 -136h-26zM544 450h21l-80 -450h-21l13 75q-87 -87 -205 -87q-89 0 -145.5 57.5t-56.5 144.5q0 110 87 191t199 81q117 0 174 -88zM275 8q121 0 208 101l41 231q-51 102 -171 102q-102 0 -181.5 -74.5t-79.5 -174.5
q0 -79 51.5 -132t131.5 -53z" />
    <glyph glyph-name="atilde" unicode="&#xe3;" horiz-adv-x="625" 
d="M370 632q-29 23 -61 13.5t-32 -48.5h-19q0 35 21 53t49.5 16.5t51.5 -18.5l37 -26q35 -25 64.5 -15t29.5 50h19q0 -54 -41 -68.5t-81 16.5zM544 450h21l-80 -450h-21l13 75q-87 -87 -205 -87q-89 0 -145.5 57.5t-56.5 144.5q0 110 87 191t199 81q117 0 174 -88zM275 8
q121 0 208 101l41 231q-51 102 -171 102q-102 0 -181.5 -74.5t-79.5 -174.5q0 -79 51.5 -132t131.5 -53z" />
    <glyph glyph-name="adieresis" unicode="&#xe4;" horiz-adv-x="625" 
d="M297 594q-11 0 -18 7t-7 18t7 18t18 7t18 -7t7 -18t-7 -18t-18 -7zM463 594q-11 0 -18 7t-7 18t7 18t18 7t18 -7t7 -18t-7 -18t-18 -7zM544 450h21l-80 -450h-21l13 75q-87 -87 -205 -87q-89 0 -145.5 57.5t-56.5 144.5q0 110 87 191t199 81q117 0 174 -88zM275 8
q121 0 208 101l41 231q-51 102 -171 102q-102 0 -181.5 -74.5t-79.5 -174.5q0 -79 51.5 -132t131.5 -53z" />
    <glyph glyph-name="aring" unicode="&#xe5;" horiz-adv-x="625" 
d="M380 547q-37 0 -62 24.5t-25 61.5t25 61.5t62 24.5t62 -24.5t25 -61.5t-25 -61.5t-62 -24.5zM380 701q-28 0 -48 -20t-20 -48q0 -29 20 -48.5t48 -19.5t48 19.5t20 48.5q0 28 -20 48t-48 20zM544 450h21l-80 -450h-21l13 75q-87 -87 -205 -87q-89 0 -145.5 57.5
t-56.5 144.5q0 110 87 191t199 81q117 0 174 -88zM275 8q121 0 208 101l41 231q-51 102 -171 102q-102 0 -181.5 -74.5t-79.5 -174.5q0 -79 51.5 -132t131.5 -53z" />
    <glyph glyph-name="ae" unicode="&#xe6;" horiz-adv-x="969" 
d="M467 217q-14 -89 35 -149t139 -60q59 0 110 26t75 68h24q-28 -52 -87 -83t-126 -31q-65 0 -111 29t-68 79q-109 -111 -253 -111q-73 0 -116 32.5t-43 87.5q0 60 46.5 96t134.5 36h221l6 22q9 83 -26.5 130t-117.5 47q-61 0 -106.5 -26t-63.5 -70h-24q22 53 74.5 84.5
t123.5 31.5q76 0 117.5 -37t46.5 -105q37 67 101 107.5t139 40.5q96 0 144.5 -67.5t30.5 -177.5h-426zM717 442q-81 0 -148 -52t-93 -133l-3 -20h401q10 91 -31 148t-126 57zM211 7q139 0 240 109q-15 49 -6 101h-222q-76 0 -115.5 -29t-39.5 -79q0 -47 39 -74.5t104 -27.5z
" />
    <glyph glyph-name="ccedilla" unicode="&#xe7;" horiz-adv-x="579" 
d="M344 442q-93 0 -162.5 -62.5t-86.5 -154.5q-16 -92 31.5 -154.5t140.5 -62.5q67 0 121 33.5t78 90.5h23q-27 -66 -88 -105t-138 -39q-102 0 -155 68t-35 169t95.5 169t179.5 68q76 0 122.5 -39t51.5 -105h-23q-5 57 -46.5 90.5t-108.5 33.5zM146 -219l72 133h24l-73 -133
h-23z" />
    <glyph glyph-name="egrave" unicode="&#xe8;" horiz-adv-x="596" 
d="M366 550h-24l-88 136h25zM520 217h-426q-14 -89 35 -149t139 -60q59 0 110 26t75 68h24q-28 -52 -87 -83t-126 -31q-102 0 -155.5 68t-35.5 169q17 99 95 168t177 69q96 0 144.5 -67.5t30.5 -177.5zM344 442q-86 0 -156 -58t-90 -147h403q10 91 -31 148t-126 57z" />
    <glyph glyph-name="eacute" unicode="&#xe9;" horiz-adv-x="596" 
d="M482 685l-112 -136h-24l111 136h25zM520 217h-426q-14 -89 35 -149t139 -60q59 0 110 26t75 68h24q-28 -52 -87 -83t-126 -31q-102 0 -155.5 68t-35.5 169q17 99 95 168t177 69q96 0 144.5 -67.5t30.5 -177.5zM344 442q-86 0 -156 -58t-90 -147h403q10 91 -31 148
t-126 57z" />
    <glyph glyph-name="ecircumflex" unicode="&#xea;" horiz-adv-x="596" 
d="M406 666l-139 -122h-31l153 136h36l101 -136h-26zM345 462q96 0 144.5 -67.5t30.5 -177.5h-426q-14 -89 35 -149t139 -60q59 0 110 26t75 68h24q-28 -52 -87 -83t-126 -31q-102 0 -155.5 68t-35.5 169q17 99 95 168t177 69zM501 237q10 91 -31 148t-126 57
q-86 0 -156 -58t-90 -147h403z" />
    <glyph glyph-name="edieresis" unicode="&#xeb;" horiz-adv-x="596" 
d="M284 594q-10 0 -17.5 7t-7.5 18t7.5 18t17.5 7t17.5 -7t7.5 -18t-7.5 -18t-17.5 -7zM450 594q-10 0 -17.5 7t-7.5 18t7.5 18t17.5 7t17.5 -7t7.5 -18t-7.5 -18t-17.5 -7zM520 217h-426q-14 -89 35 -149t139 -60q59 0 110 26t75 68h24q-28 -52 -87 -83t-126 -31
q-102 0 -155.5 68t-35.5 169q17 99 95 168t177 69q96 0 144.5 -67.5t30.5 -177.5zM344 442q-86 0 -156 -58t-90 -147h403q10 91 -31 148t-126 57z" />
    <glyph glyph-name="igrave" unicode="&#xec;" horiz-adv-x="221" 
d="M83 686l87 -136h-24l-88 136h25zM140 450h21l-80 -450h-21z" />
    <glyph glyph-name="iacute" unicode="&#xed;" horiz-adv-x="221" 
d="M261 685h25l-112 -136h-24zM140 450h21l-80 -450h-21z" />
    <glyph glyph-name="icircumflex" unicode="&#xee;" horiz-adv-x="221" 
d="M304 544l-94 122l-139 -122h-31l153 136h36l101 -136h-26zM140 450h21l-80 -450h-21z" />
    <glyph glyph-name="idieresis" unicode="&#xef;" horiz-adv-x="221" 
d="M88 644q10 0 17.5 -7t7.5 -18t-7.5 -18t-17.5 -7t-17.5 7t-7.5 18t7.5 18t17.5 7zM254 644q10 0 17.5 -7t7.5 -18t-7.5 -18t-17.5 -7t-17.5 7t-7.5 18t7.5 18t17.5 7zM140 450h21l-80 -450h-21z" />
    <glyph glyph-name="eth" unicode="&#xf0;" horiz-adv-x="627" 
d="M433 616q59 -53 93.5 -136.5t34.5 -171.5q0 -143 -86.5 -231.5t-200.5 -88.5q-91 0 -147.5 57t-56.5 144q0 110 87 191.5t198 81.5q67 0 116.5 -32.5t70.5 -88.5q-11 163 -129 268l-190 -67l-3 19l176 62q-56 43 -128 62l30 10q70 -24 120 -64l77 27l3 -19zM275 8
q99 0 180.5 78t81.5 185q0 75 -51.5 123t-135.5 48q-100 0 -179 -74.5t-79 -174.5q0 -79 51.5 -132t131.5 -53z" />
    <glyph glyph-name="ntilde" unicode="&#xf1;" horiz-adv-x="572" 
d="M324 632q-29 23 -61 13.5t-32 -48.5h-19q0 35 21 53t49.5 16.5t51.5 -18.5l37 -26q35 -25 64.5 -15t29.5 50h19q0 -54 -41 -68.5t-81 16.5zM351 462q83 0 125.5 -50.5t26.5 -139.5l-48 -272h-21l48 272q15 80 -23 125t-111 45q-61 0 -118.5 -26t-94.5 -72l-61 -344h-21
l80 450h21l-13 -72q81 84 210 84z" />
    <glyph glyph-name="ograve" unicode="&#xf2;" horiz-adv-x="629" 
d="M286 686l87 -136h-24l-88 136h25zM356 462q88 0 144.5 -58t56.5 -145q0 -109 -87 -190t-198 -81q-89 0 -145.5 57.5t-56.5 144.5q0 110 87 191t199 81zM275 8q101 0 180.5 74t79.5 174q0 79 -51.5 132.5t-130.5 53.5q-102 0 -181.5 -74.5t-79.5 -174.5q0 -79 51.5 -132
t131.5 -53z" />
    <glyph glyph-name="oacute" unicode="&#xf3;" horiz-adv-x="629" 
d="M464 685h25l-112 -136h-24zM356 462q88 0 144.5 -58t56.5 -145q0 -109 -87 -190t-198 -81q-89 0 -145.5 57.5t-56.5 144.5q0 110 87 191t199 81zM275 8q101 0 180.5 74t79.5 174q0 79 -51.5 132.5t-130.5 53.5q-102 0 -181.5 -74.5t-79.5 -174.5q0 -79 51.5 -132
t131.5 -53z" />
    <glyph glyph-name="ocircumflex" unicode="&#xf4;" horiz-adv-x="629" 
d="M507 544l-94 122l-139 -122h-31l153 136h36l101 -136h-26zM356 462q88 0 144.5 -58t56.5 -145q0 -109 -87 -190t-198 -81q-89 0 -145.5 57.5t-56.5 144.5q0 110 87 191t199 81zM275 8q101 0 180.5 74t79.5 174q0 79 -51.5 132.5t-130.5 53.5q-102 0 -181.5 -74.5
t-79.5 -174.5q0 -79 51.5 -132t131.5 -53z" />
    <glyph glyph-name="otilde" unicode="&#xf5;" horiz-adv-x="629" 
d="M524 657q0 -54 -41 -68.5t-81 16.5l-38 27q-29 23 -61 13.5t-32 -48.5h-19q0 35 21 53t49.5 16.5t51.5 -18.5l37 -26q35 -25 64.5 -15t29.5 50h19zM356 462q88 0 144.5 -58t56.5 -145q0 -109 -87 -190t-198 -81q-89 0 -145.5 57.5t-56.5 144.5q0 110 87 191t199 81z
M275 8q101 0 180.5 74t79.5 174q0 79 -51.5 132.5t-130.5 53.5q-102 0 -181.5 -74.5t-79.5 -174.5q0 -79 51.5 -132t131.5 -53z" />
    <glyph glyph-name="odieresis" unicode="&#xf6;" horiz-adv-x="629" 
d="M301 644q11 0 18 -7t7 -18t-7 -18t-18 -7t-18 7t-7 18t7 18t18 7zM467 644q11 0 18 -7t7 -18t-7 -18t-18 -7t-18 7t-7 18t7 18t18 7zM356 462q88 0 144.5 -58t56.5 -145q0 -109 -87 -190t-198 -81q-89 0 -145.5 57.5t-56.5 144.5q0 110 87 191t199 81zM275 8
q101 0 180.5 74t79.5 174q0 79 -51.5 132.5t-130.5 53.5q-102 0 -181.5 -74.5t-79.5 -174.5q0 -79 51.5 -132t131.5 -53z" />
    <glyph glyph-name="divide" unicode="&#xf7;" horiz-adv-x="682" 
d="M387 473q-10 0 -16.5 6.5t-6.5 16.5t6.5 16.5t16.5 6.5t16.5 -6.5t6.5 -16.5t-6.5 -16.5t-16.5 -6.5zM134 305l4 21h442l-4 -21h-442zM324 111q-10 0 -16.5 6.5t-6.5 16.5t6.5 16.5t16.5 6.5t16.5 -6.5t6.5 -16.5t-6.5 -16.5t-16.5 -6.5z" />
    <glyph glyph-name="oslash" unicode="&#xf8;" horiz-adv-x="629" 
d="M498 407q59 -59 59 -148q0 -109 -87 -190t-198 -81q-85 0 -143 55l-59 -58l-13 14l59 58q-46 56 -46 133q0 110 87 191t199 81q74 0 127 -43l52 51l13 -14zM92 193q0 -69 40 -120l335 330q-47 39 -114 39q-102 0 -181.5 -74.5t-79.5 -174.5zM275 8q101 0 180.5 74
t79.5 174q0 80 -53 135l-337 -332q51 -51 130 -51z" />
    <glyph glyph-name="ugrave" unicode="&#xf9;" horiz-adv-x="584" 
d="M340 550h-24l-88 136h25zM498 450h21l-79 -450h-21l13 72q-81 -84 -211 -84q-83 0 -125 50t-27 140l48 272h21l-48 -272q-14 -80 24 -125t111 -45q61 0 118.5 26t94.5 72z" />
    <glyph glyph-name="uacute" unicode="&#xfa;" horiz-adv-x="584" 
d="M448 685l-112 -136h-24l111 136h25zM498 450h21l-79 -450h-21l13 72q-81 -84 -211 -84q-83 0 -125 50t-27 140l48 272h21l-48 -272q-14 -80 24 -125t111 -45q61 0 118.5 26t94.5 72z" />
    <glyph glyph-name="ucircumflex" unicode="&#xfb;" horiz-adv-x="584" 
d="M345 666l-139 -122h-31l153 136h36l101 -136h-26zM498 450h21l-79 -450h-21l13 72q-81 -84 -211 -84q-83 0 -125 50t-27 140l48 272h21l-48 -272q-14 -80 24 -125t111 -45q61 0 118.5 26t94.5 72z" />
    <glyph glyph-name="udieresis" unicode="&#xfc;" horiz-adv-x="585" 
d="M248 594q-10 0 -17.5 7t-7.5 18t7.5 18t17.5 7t17.5 -7t7.5 -18t-7.5 -18t-17.5 -7zM414 594q-10 0 -17.5 7t-7.5 18t7.5 18t17.5 7t17.5 -7t7.5 -18t-7.5 -18t-17.5 -7zM498 450h21l-79 -450h-21l13 72q-81 -84 -211 -84q-83 0 -125 50t-27 140l48 272h21l-48 -272
q-14 -80 24 -125t111 -45q61 0 118.5 26t94.5 72z" />
    <glyph glyph-name="yacute" unicode="&#xfd;" horiz-adv-x="591" 
d="M448 685l-112 -136h-24l111 136h25zM552 450h27l-434 -668h-27l122 188l-152 480h24l144 -455z" />
    <glyph glyph-name="thorn" unicode="&#xfe;" horiz-adv-x="621" 
d="M347 464q88 0 145 -59t57 -146q0 -110 -87 -192t-199 -82q-118 0 -175 91l-52 -294h-21l164 928h21l-60 -337q91 91 207 91zM264 5q102 0 182.5 75.5t80.5 175.5q0 79 -52 133.5t-131 54.5q-120 0 -210 -105l-40 -229q52 -105 170 -105z" />
    <glyph glyph-name="ydieresis" unicode="&#xff;" horiz-adv-x="591" 
d="M250 594q-10 0 -17.5 7t-7.5 18t7.5 18t17.5 7t17.5 -7t7.5 -18t-7.5 -18t-17.5 -7zM416 594q-10 0 -17.5 7t-7.5 18t7.5 18t17.5 7t17.5 -7t7.5 -18t-7.5 -18t-17.5 -7zM552 450h27l-434 -668h-27l122 188l-152 480h24l144 -455z" />
    <glyph glyph-name="Amacron" unicode="&#x100;" horiz-adv-x="741" 
d="M603 798l-4 -18h-276l4 18h276zM637 0l-71 244h-384l-157 -244h-26l439 680h23l199 -680h-23zM195 264h365l-114 389z" />
    <glyph glyph-name="amacron" unicode="&#x101;" horiz-adv-x="625" 
d="M537 588l-4 -18h-276l4 18h276zM544 450h21l-80 -450h-21l13 75q-87 -87 -205 -87q-89 0 -145.5 57.5t-56.5 144.5q0 110 87 191t199 81q117 0 174 -88zM275 8q121 0 208 101l41 231q-51 102 -171 102q-102 0 -181.5 -74.5t-79.5 -174.5q0 -79 51.5 -132t131.5 -53z" />
    <glyph glyph-name="Abreve" unicode="&#x102;" horiz-adv-x="741" 
d="M466 771q-52 0 -86 33t-24 91h20q-8 -50 20.5 -77.5t70.5 -27.5q41 0 80 28t47 77h22q-10 -59 -54 -91.5t-96 -32.5zM637 0l-71 244h-384l-157 -244h-26l439 680h23l199 -680h-23zM195 264h365l-114 389z" />
    <glyph glyph-name="abreve" unicode="&#x103;" horiz-adv-x="625" 
d="M383 541q-52 0 -86 33t-24 91h20q-8 -50 20.5 -77.5t70.5 -27.5q41 0 80 28t47 77h22q-10 -59 -54 -91.5t-96 -32.5zM544 450h21l-80 -450h-21l13 75q-87 -87 -205 -87q-89 0 -145.5 57.5t-56.5 144.5q0 110 87 191t199 81q117 0 174 -88zM275 8q121 0 208 101l41 231
q-51 102 -171 102q-102 0 -181.5 -74.5t-79.5 -174.5q0 -79 51.5 -132t131.5 -53z" />
    <glyph glyph-name="Aogonek" unicode="&#x104;" horiz-adv-x="741" 
d="M683 -181l2 -21q-14 -3 -33 -3q-51 0 -82.5 26.5t-31.5 69.5q0 69 96 120l-68 233h-384l-157 -244h-26l439 680h23l199 -680q-22 -10 -36 -18.5t-30.5 -21.5t-25 -30t-8.5 -37q0 -35 26 -55.5t69 -20.5q12 0 28 2zM195 264h365l-114 389z" />
    <glyph glyph-name="aogonek" unicode="&#x105;" horiz-adv-x="625" 
d="M480 -183q12 0 28 2l2 -21q-14 -3 -33 -3q-51 0 -82.5 26.5t-31.5 69.5q0 71 104 124l10 60q-87 -87 -205 -87q-89 0 -145.5 57.5t-56.5 144.5q0 110 87 191t199 81q117 0 174 -88l14 76h21l-80 -450q-22 -10 -36 -18.5t-30.5 -21.5t-25 -30t-8.5 -37q0 -35 26 -55.5
t69 -20.5zM275 8q121 0 208 101l41 231q-51 102 -171 102q-102 0 -181.5 -74.5t-79.5 -174.5q0 -79 51.5 -132t131.5 -53z" />
    <glyph glyph-name="Cacute" unicode="&#x106;" horiz-adv-x="808" 
d="M640 896l-112 -136h-24l111 136h25zM501 671q-138 0 -251.5 -96.5t-138.5 -234.5q-24 -138 55 -234.5t217 -96.5q110 0 199.5 56.5t129.5 148.5h24q-43 -101 -140 -163.5t-216 -62.5q-147 0 -231.5 102.5t-59.5 249.5q26 147 147.5 249.5t268.5 102.5q119 0 193 -62.5
t82 -163.5h-24q-8 92 -76.5 148.5t-178.5 56.5z" />
    <glyph glyph-name="cacute" unicode="&#x107;" horiz-adv-x="579" 
d="M489 685l-112 -136h-24l111 136h25zM344 442q-93 0 -162.5 -62.5t-86.5 -154.5q-16 -92 31.5 -154.5t140.5 -62.5q67 0 121 33.5t78 90.5h23q-27 -66 -88 -105t-138 -39q-102 0 -155 68t-35 169t95.5 169t179.5 68q76 0 122.5 -39t51.5 -105h-23q-5 57 -46.5 90.5
t-108.5 33.5z" />
    <glyph glyph-name="Cdotaccent" unicode="&#x10a;" horiz-adv-x="808" 
d="M534 784q-10 0 -17.5 7t-7.5 18t7.5 18t17.5 7t17.5 -7t7.5 -18t-7.5 -18t-17.5 -7zM501 671q-138 0 -251.5 -96.5t-138.5 -234.5q-24 -138 55 -234.5t217 -96.5q110 0 199.5 56.5t129.5 148.5h24q-43 -101 -140 -163.5t-216 -62.5q-147 0 -231.5 102.5t-59.5 249.5
q26 147 147.5 249.5t268.5 102.5q119 0 193 -62.5t82 -163.5h-24q-8 92 -76.5 148.5t-178.5 56.5z" />
    <glyph glyph-name="cdotaccent" unicode="&#x10b;" horiz-adv-x="579" 
d="M374 594q-10 0 -17.5 7t-7.5 18t7.5 18t17.5 7t17.5 -7t7.5 -18t-7.5 -18t-17.5 -7zM344 442q-93 0 -162.5 -62.5t-86.5 -154.5q-16 -92 31.5 -154.5t140.5 -62.5q67 0 121 33.5t78 90.5h23q-27 -66 -88 -105t-138 -39q-102 0 -155 68t-35 169t95.5 169t179.5 68
q76 0 122.5 -39t51.5 -105h-23q-5 57 -46.5 90.5t-108.5 33.5z" />
    <glyph glyph-name="Ccaron" unicode="&#x10c;" horiz-adv-x="808" 
d="M569 764h-35l-103 136h26l95 -122l138 122h30zM501 671q-138 0 -251.5 -96.5t-138.5 -234.5q-24 -138 55 -234.5t217 -96.5q110 0 199.5 56.5t129.5 148.5h24q-43 -101 -140 -163.5t-216 -62.5q-147 0 -231.5 102.5t-59.5 249.5q26 147 147.5 249.5t268.5 102.5
q119 0 193 -62.5t82 -163.5h-24q-8 92 -76.5 148.5t-178.5 56.5z" />
    <glyph glyph-name="ccaron" unicode="&#x10d;" horiz-adv-x="579" 
d="M390 544h-35l-103 136h26l95 -122l138 122h30zM348 462q76 0 122.5 -39t51.5 -105h-23q-5 57 -46.5 90.5t-108.5 33.5q-93 0 -162.5 -62.5t-86.5 -154.5q-16 -92 31.5 -154.5t140.5 -62.5q67 0 121 33.5t78 90.5h23q-27 -66 -88 -105t-138 -39q-102 0 -155 68t-35 169
t95.5 169t179.5 68z" />
    <glyph glyph-name="Dcaron" unicode="&#x10e;" horiz-adv-x="760" 
d="M466 764h-35l-103 136h26l95 -122l138 122h30zM413 680q139 0 220 -76t81 -202q0 -174 -120 -288t-301 -114h-218l120 680h218zM297 20q170 0 282.5 107.5t112.5 271.5q0 118 -76 189.5t-206 71.5h-197l-112 -640h196z" />
    <glyph glyph-name="dcaron" unicode="&#x10f;" horiz-adv-x="626" 
d="M532 375l59 335h21l-126 -710h-21l14 76q-90 -88 -206 -88q-88 0 -145 58t-57 145q0 110 87 190.5t199 80.5q118 0 175 -87zM723 710h22l-47 -170h-19zM276 8q120 0 209 102l41 231q-52 101 -172 101q-102 0 -181.5 -74t-79.5 -174q0 -79 52 -132.5t131 -53.5z" />
    <glyph glyph-name="Dcroat" unicode="&#x110;" horiz-adv-x="761" 
d="M413 680q139 0 220 -76t81 -202q0 -174 -120 -288t-301 -114h-218l58 330h-96l4 20h96l58 330h218zM297 20q170 0 282.5 107.5t112.5 271.5q0 118 -76 189.5t-206 71.5h-197l-54 -310h199l-4 -20h-199l-54 -310h196z" />
    <glyph glyph-name="dcroat" unicode="&#x111;" horiz-adv-x="625" 
d="M671 616l-3 -19h-76l-106 -597h-21l14 76q-90 -88 -206 -88q-88 0 -145 58t-57 145q0 110 87 190.5t199 80.5q118 0 175 -87l39 222h-190l3 19h190l17 94h21l-17 -94h76zM276 8q120 0 209 102l41 231q-52 101 -172 101q-102 0 -181.5 -74t-79.5 -174q0 -79 52 -132.5
t131 -53.5z" />
    <glyph glyph-name="Emacron" unicode="&#x112;" horiz-adv-x="667" 
d="M575 798l-4 -18h-276l4 18h276zM643 660h-430l-54 -310h390l-4 -20h-390l-54 -310h430l-4 -20h-452l120 680h452z" />
    <glyph glyph-name="emacron" unicode="&#x113;" horiz-adv-x="596" 
d="M524 588l-4 -18h-276l4 18h276zM520 217h-426q-14 -89 35 -149t139 -60q59 0 110 26t75 68h24q-28 -52 -87 -83t-126 -31q-102 0 -155.5 68t-35.5 169q17 99 95 168t177 69q96 0 144.5 -67.5t30.5 -177.5zM344 442q-86 0 -156 -58t-90 -147h403q10 91 -31 148t-126 57z
" />
    <glyph glyph-name="Edotaccent" unicode="&#x116;" horiz-adv-x="667" 
d="M421 784q-11 0 -18 7t-7 18t7 18t18 7t18 -7t7 -18t-7 -18t-18 -7zM643 660h-430l-54 -310h390l-4 -20h-390l-54 -310h430l-4 -20h-452l120 680h452z" />
    <glyph glyph-name="edotaccent" unicode="&#x117;" horiz-adv-x="596" 
d="M390 594q-10 0 -17.5 7t-7.5 18t7.5 18t17.5 7t17.5 -7t7.5 -18t-7.5 -18t-17.5 -7zM520 217h-426q-14 -89 35 -149t139 -60q59 0 110 26t75 68h24q-28 -52 -87 -83t-126 -31q-102 0 -155.5 68t-35.5 169q17 99 95 168t177 69q96 0 144.5 -67.5t30.5 -177.5zM344 442
q-86 0 -156 -58t-90 -147h403q10 91 -31 148t-126 57z" />
    <glyph glyph-name="Eogonek" unicode="&#x118;" horiz-adv-x="667" 
d="M643 660h-430l-54 -310h390l-4 -20h-390l-54 -310h430l-4 -20q-22 -10 -36 -18.5t-30.5 -21.5t-25 -30t-8.5 -37q0 -35 26 -55.5t69 -20.5q12 0 28 2l2 -21q-14 -3 -33 -3q-51 0 -82.5 26.5t-31.5 69.5q0 63 76 109h-406l120 680h452z" />
    <glyph glyph-name="eogonek" unicode="&#x119;" horiz-adv-x="598" 
d="M520 217h-426q-14 -89 35 -149t139 -60q59 0 110 26t75 68h24q-11 -20 -31 -42q-7 -8 -25 -26.5t-24.5 -27t-13.5 -25.5t-7 -37q0 -35 26 -55.5t69 -20.5q12 0 28 2l2 -21q-14 -3 -33 -3q-51 0 -82.5 26.5t-31.5 69.5q0 40 22 70q-51 -24 -112 -24q-102 0 -155.5 68
t-35.5 169q17 99 95 168t177 69q96 0 144.5 -67.5t30.5 -177.5zM344 442q-86 0 -156 -58t-90 -147h403q10 91 -31 148t-126 57z" />
    <glyph glyph-name="Ecaron" unicode="&#x11a;" horiz-adv-x="667" 
d="M486 764h-35l-103 136h26l95 -122l138 122h30zM643 660h-430l-54 -310h390l-4 -20h-390l-54 -310h430l-4 -20h-452l120 680h452z" />
    <glyph glyph-name="ecaron" unicode="&#x11b;" horiz-adv-x="596" 
d="M383 544h-35l-103 136h26l95 -122l138 122h30zM345 462q96 0 144.5 -67.5t30.5 -177.5h-426q-14 -89 35 -149t139 -60q59 0 110 26t75 68h24q-28 -52 -87 -83t-126 -31q-102 0 -155.5 68t-35.5 169q17 99 95 168t177 69zM501 237q10 91 -31 148t-126 57q-86 0 -156 -58
t-90 -147h403z" />
    <glyph glyph-name="Gbreve" unicode="&#x11e;" horiz-adv-x="826" 
d="M521 771q-52 0 -86 33t-24 91h20q-8 -50 20.5 -77.5t70.5 -27.5q41 0 80 28t47 77h22q-10 -59 -54 -91.5t-96 -32.5zM502 671q-138 0 -252 -96.5t-139 -234.5q-24 -139 53.5 -235t214.5 -96q130 0 225.5 88t124.5 223h-297l3 20h320v-3l-60 -337h-22l36 201
q-51 -97 -138.5 -155t-194.5 -58q-147 0 -230 102.5t-57 249.5t148 249.5t269 102.5q113 0 190 -63t84 -163h-22q-7 90 -79 147.5t-177 57.5z" />
    <glyph glyph-name="gbreve" unicode="&#x11f;" horiz-adv-x="626" 
d="M355 541q-52 0 -86 33t-24 91h20q-8 -50 20.5 -77.5t70.5 -27.5q41 0 80 28t47 77h22q-10 -59 -54 -91.5t-96 -32.5zM544 450h21l-81 -461q-17 -99 -87 -159t-170 -60q-81 0 -131.5 40t-55.5 106h23q5 -57 50 -91.5t117 -34.5q90 0 153.5 54.5t79.5 144.5l15 87
q-90 -88 -216 -88q-86 0 -139 56.5t-53 142.5q0 112 82 193.5t194 81.5q126 0 185 -89zM265 8q60 0 118.5 27t100.5 75l42 235q-27 47 -75 72t-108 25q-102 0 -176.5 -75t-74.5 -177q0 -79 47.5 -130.5t125.5 -51.5z" />
    <glyph glyph-name="Gdotaccent" unicode="&#x120;" horiz-adv-x="827" 
d="M520 784q-10 0 -17.5 7t-7.5 18t7.5 18t17.5 7t17.5 -7t7.5 -18t-7.5 -18t-17.5 -7zM502 671q-138 0 -252 -96.5t-139 -234.5q-24 -139 53.5 -235t214.5 -96q130 0 225.5 88t124.5 223h-297l3 20h320v-3l-60 -337h-22l36 201q-51 -97 -138.5 -155t-194.5 -58
q-147 0 -230 102.5t-57 249.5t148 249.5t269 102.5q113 0 190 -63t84 -163h-22q-7 90 -79 147.5t-177 57.5z" />
    <glyph glyph-name="gdotaccent" unicode="&#x121;" horiz-adv-x="626" 
d="M387 594q-11 0 -18 7t-7 18t7 18t18 7t18 -7t7 -18t-7 -18t-18 -7zM544 450h21l-81 -461q-17 -99 -87 -159t-170 -60q-81 0 -131.5 40t-55.5 106h23q5 -57 50 -91.5t117 -34.5q90 0 153.5 54.5t79.5 144.5l15 87q-90 -88 -216 -88q-86 0 -139 56.5t-53 142.5
q0 112 82 193.5t194 81.5q126 0 185 -89zM265 8q60 0 118.5 27t100.5 75l42 235q-27 47 -75 72t-108 25q-102 0 -176.5 -75t-74.5 -177q0 -79 47.5 -130.5t125.5 -51.5z" />
    <glyph glyph-name="Gcommaaccent" unicode="&#x122;" horiz-adv-x="826" 
d="M502 671q-138 0 -252 -96.5t-139 -234.5q-24 -139 53.5 -235t214.5 -96q130 0 225.5 88t124.5 223h-297l3 20h320v-3l-60 -337h-22l36 201q-51 -97 -138.5 -155t-194.5 -58q-147 0 -230 102.5t-57 249.5t148 249.5t269 102.5q113 0 190 -63t84 -163h-22q-7 90 -79 147.5
t-177 57.5zM346 -81q9 0 17 -6.5t8 -20.5q0 -10 -9 -27t-54 -92h-18l57 98q-26 0 -26 23q0 11 7 18t18 7z" />
    <glyph glyph-name="gcommaaccent" unicode="&#x123;" horiz-adv-x="625" 
d="M372 581q-9 0 -17 6.5t-8 20.5q0 10 9 27t54 92h18l-57 -98q26 0 26 -23q0 -11 -7 -18t-18 -7zM544 450h21l-81 -461q-17 -99 -87 -159t-170 -60q-81 0 -131.5 40t-55.5 106h23q5 -57 50 -91.5t117 -34.5q90 0 153.5 54.5t79.5 144.5l15 87q-90 -88 -216 -88
q-86 0 -139 56.5t-53 142.5q0 112 82 193.5t194 81.5q126 0 185 -89zM265 8q60 0 118.5 27t100.5 75l42 235q-27 47 -75 72t-108 25q-102 0 -176.5 -75t-74.5 -177q0 -79 47.5 -130.5t125.5 -51.5z" />
    <glyph glyph-name="Hbar" unicode="&#x126;" horiz-adv-x="759" 
d="M746 540l-4 -20h-46l-92 -520h-22l58 331h-485l-58 -331h-22l92 520h-52l4 20h51l25 140h22l-25 -140h485l25 140h22l-25 -140h47zM644 350l30 170h-485l-30 -170h485z" />
    <glyph glyph-name="hbar" unicode="&#x127;" horiz-adv-x="572" 
d="M352 462q83 0 125.5 -50.5t26.5 -139.5l-48 -272h-21l48 272q15 80 -23 125t-111 45q-62 0 -119.5 -26t-94.5 -73l-60 -343h-21l104 588h-89l4 20h88l18 102h21l-18 -102h189l-4 -20h-188l-38 -211q82 85 211 85z" />
    <glyph glyph-name="Imacron" unicode="&#x12a;" horiz-adv-x="252" 
d="M84 798h276l-4 -18h-276zM217 680l-120 -680h-22l120 680h22z" />
    <glyph glyph-name="imacron" unicode="&#x12b;" horiz-adv-x="221" 
d="M35 588h276l-4 -18h-276zM140 450h21l-80 -450h-21z" />
    <glyph glyph-name="Iogonek" unicode="&#x12e;" horiz-adv-x="252" 
d="M92 -183q12 0 28 2l2 -21q-13 -3 -33 -3q-51 0 -82.5 26.5t-31.5 69.5q0 73 103 123l117 666h22l-120 -680q-22 -10 -36 -18.5t-30.5 -21.5t-25 -30t-8.5 -37q0 -35 26 -55.5t69 -20.5z" />
    <glyph glyph-name="iogonek" unicode="&#x12f;" horiz-adv-x="247" 
d="M195 652q10 0 16.5 -6.5t6.5 -16.5t-6.5 -16.5t-16.5 -6.5t-16.5 6.5t-6.5 16.5t6.5 16.5t16.5 6.5zM94 0q-22 -10 -36 -18.5t-30.5 -21.5t-25 -30t-8.5 -37q0 -35 26 -55.5t69 -20.5q12 0 28 2l2 -21q-13 -3 -33 -3q-51 0 -82.5 26.5t-31.5 69.5q0 71 104 124l76 435h21
z" />
    <glyph glyph-name="Idotaccent" unicode="&#x130;" horiz-adv-x="252" 
d="M236 784q-10 0 -17.5 7t-7.5 18t7.5 18t17.5 7t17.5 -7t7.5 -18t-7.5 -18t-17.5 -7zM217 680l-120 -680h-22l120 680h22z" />
    <glyph glyph-name="dotlessi" unicode="&#x131;" horiz-adv-x="221" 
d="M140 450h21l-80 -450h-21z" />
    <glyph glyph-name="IJ" unicode="&#x132;" horiz-adv-x="871" 
d="M217 680l-120 -680h-22l120 680h22zM841 680l-79 -444q-20 -115 -94 -181.5t-178 -66.5q-91 0 -143 49.5t-54 134.5h22q3 -77 49 -120.5t131 -43.5q93 0 159.5 61t85.5 167l79 444h22z" />
    <glyph glyph-name="ij" unicode="&#x133;" horiz-adv-x="502" 
d="M195 606q-10 0 -16.5 6.5t-6.5 16.5t6.5 16.5t16.5 6.5t16.5 -6.5t6.5 -16.5t-6.5 -16.5t-16.5 -6.5zM450 606q-10 0 -16.5 6.5t-6.5 16.5t6.5 16.5t16.5 6.5t16.5 -6.5t6.5 -16.5t-6.5 -16.5t-16.5 -6.5zM152 450h21l-79 -450h-21zM434 450l-90 -514q-16 -90 -54 -128
t-112 -38l3 20q63 0 96 33.5t46 112.5l90 514h21z" />
    <glyph glyph-name="Kcommaaccent" unicode="&#x136;" horiz-adv-x="717" 
d="M701 680l-373 -317l295 -363h-30l-283 347l-178 -151l-35 -196h-22l120 680h22l-80 -452l533 452h31zM297 -81q9 0 17 -6.5t8 -20.5q0 -10 -9 -27t-54 -92h-18l57 98q-26 0 -26 23q0 11 7 18t18 7z" />
    <glyph glyph-name="kcommaaccent" unicode="&#x137;" horiz-adv-x="558" 
d="M503 450l-248 -190l218 -260h-28l-207 247l-130 -99l-26 -148h-21l125 710h21l-94 -532l358 272h32zM250 -81q9 0 17 -6.5t8 -20.5q0 -10 -9 -27t-54 -92h-18l57 98q-26 0 -26 23q0 11 7 18t18 7z" />
    <glyph glyph-name="Lacute" unicode="&#x139;" horiz-adv-x="597" 
d="M345 896l-112 -136h-24l111 136h25zM101 20h400l-4 -20h-422l120 680h22z" />
    <glyph glyph-name="lacute" unicode="&#x13a;" horiz-adv-x="221" 
d="M325 945h25l-112 -136h-24zM186 710h21l-126 -710h-21z" />
    <glyph glyph-name="Lcommaaccent" unicode="&#x13b;" horiz-adv-x="597" 
d="M101 20h400l-4 -20h-422l120 680h22zM277 -81q9 0 17 -6.5t8 -20.5q0 -10 -9 -27t-54 -92h-18l57 98q-26 0 -26 23q0 11 7 18t18 7z" />
    <glyph glyph-name="lcommaaccent" unicode="&#x13c;" horiz-adv-x="221" 
d="M186 710h21l-126 -710h-21zM-2 -227l57 98q-26 0 -26 23q0 11 7 18t18 7q9 0 17 -6.5t8 -20.5q0 -10 -9 -27t-54 -92h-18z" />
    <glyph glyph-name="Lcaron" unicode="&#x13d;" horiz-adv-x="597" 
d="M101 20h400l-4 -20h-422l120 680h22zM413 680l-47 -170h-19l44 170h22z" />
    <glyph glyph-name="lcaron" unicode="&#x13e;" horiz-adv-x="221" 
d="M186 710h21l-126 -710h-21zM297 710h22l-47 -170h-19z" />
    <glyph glyph-name="Ldot" unicode="&#x13f;" horiz-adv-x="597" 
d="M101 20h400l-4 -20h-422l120 680h22zM365 276q-11 0 -18 7t-7 18t7 18t18 7t18 -7t7 -18t-7 -18t-18 -7z" />
    <glyph glyph-name="ldot" unicode="&#x140;" horiz-adv-x="352" 
d="M186 710h21l-126 -710h-21zM241 280q-11 0 -18 7t-7 18t7 18t18 7t18 -7t7 -18t-7 -18t-18 -7z" />
    <glyph glyph-name="Lslash" unicode="&#x141;" horiz-adv-x="597" 
d="M101 20h400l-4 -20h-422l45 255l-88 -48l4 25l88 48l71 400h22l-68 -387l183 99l-5 -25l-183 -99z" />
    <glyph glyph-name="lslash" unicode="&#x142;" horiz-adv-x="221" 
d="M238 418l-5 -25l-91 -50l-61 -343h-21l59 330l-85 -46l5 25l84 46l63 355h21l-61 -342z" />
    <glyph glyph-name="Nacute" unicode="&#x143;" horiz-adv-x="782" 
d="M587 896l-112 -136h-24l111 136h25zM725 680h22l-120 -680h-26l-389 651l-115 -651h-22l120 680h25l390 -651z" />
    <glyph glyph-name="nacute" unicode="&#x144;" horiz-adv-x="572" 
d="M459 685l-112 -136h-24l111 136h25zM351 462q83 0 125.5 -50.5t26.5 -139.5l-48 -272h-21l48 272q15 80 -23 125t-111 45q-61 0 -118.5 -26t-94.5 -72l-61 -344h-21l80 450h21l-13 -72q81 84 210 84z" />
    <glyph glyph-name="Ncommaaccent" unicode="&#x145;" horiz-adv-x="782" 
d="M725 680h22l-120 -680h-26l-389 651l-115 -651h-22l120 680h25l390 -651zM335 -81q9 0 17 -6.5t8 -20.5q0 -10 -9 -27t-54 -92h-18l57 98q-26 0 -26 23q0 11 7 18t18 7z" />
    <glyph glyph-name="ncommaaccent" unicode="&#x146;" horiz-adv-x="572" 
d="M351 462q83 0 125.5 -50.5t26.5 -139.5l-48 -272h-21l48 272q15 80 -23 125t-111 45q-61 0 -118.5 -26t-94.5 -72l-61 -344h-21l80 450h21l-13 -72q81 84 210 84zM236 -81q9 0 17 -6.5t8 -20.5q0 -10 -9 -27t-54 -92h-18l57 98q-26 0 -26 23q0 11 7 18t18 7z" />
    <glyph glyph-name="Ncaron" unicode="&#x147;" horiz-adv-x="782" 
d="M516 764h-35l-103 136h26l95 -122l138 122h30zM725 680h22l-120 -680h-26l-389 651l-115 -651h-22l120 680h25l390 -651z" />
    <glyph glyph-name="ncaron" unicode="&#x148;" horiz-adv-x="572" 
d="M360 544h-35l-103 136h26l95 -122l138 122h30zM351 462q83 0 125.5 -50.5t26.5 -139.5l-48 -272h-21l48 272q15 80 -23 125t-111 45q-61 0 -118.5 -26t-94.5 -72l-61 -344h-21l80 450h21l-13 -72q81 84 210 84z" />
    <glyph glyph-name="Omacron" unicode="&#x14c;" horiz-adv-x="852" 
d="M392 798h276l-4 -18h-276zM508 692q130 0 214 -86t84 -215q0 -107 -60 -200.5t-157.5 -148t-204.5 -54.5q-130 0 -214 86t-84 215q0 107 60 200.5t157.5 148t204.5 54.5zM387 9q101 0 192.5 51t148 139.5t56.5 188.5q0 121 -78.5 202t-200.5 81q-101 0 -192.5 -51
t-148 -139.5t-56.5 -188.5q0 -121 78.5 -202t200.5 -81z" />
    <glyph glyph-name="omacron" unicode="&#x14d;" horiz-adv-x="629" 
d="M255 588h276l-4 -18h-276zM356 462q88 0 144.5 -58t56.5 -145q0 -109 -87 -190t-198 -81q-89 0 -145.5 57.5t-56.5 144.5q0 110 87 191t199 81zM275 8q101 0 180.5 74t79.5 174q0 79 -51.5 132.5t-130.5 53.5q-102 0 -181.5 -74.5t-79.5 -174.5q0 -79 51.5 -132
t131.5 -53z" />
    <glyph glyph-name="Ohungarumlaut" unicode="&#x150;" horiz-adv-x="852" 
d="M513 896h24l-86 -136h-24zM637 896h24l-87 -136h-23zM508 692q130 0 214 -86t84 -215q0 -107 -60 -200.5t-157.5 -148t-204.5 -54.5q-130 0 -214 86t-84 215q0 107 60 200.5t157.5 148t204.5 54.5zM387 9q101 0 192.5 51t148 139.5t56.5 188.5q0 121 -78.5 202t-200.5 81
q-101 0 -192.5 -51t-148 -139.5t-56.5 -188.5q0 -121 78.5 -202t200.5 -81z" />
    <glyph glyph-name="ohungarumlaut" unicode="&#x151;" horiz-adv-x="629" 
d="M383 686h24l-86 -136h-24zM507 686h24l-87 -136h-23zM356 462q88 0 144.5 -58t56.5 -145q0 -109 -87 -190t-198 -81q-89 0 -145.5 57.5t-56.5 144.5q0 110 87 191t199 81zM275 8q101 0 180.5 74t79.5 174q0 79 -51.5 132.5t-130.5 53.5q-102 0 -181.5 -74.5t-79.5 -174.5
q0 -79 51.5 -132t131.5 -53z" />
    <glyph glyph-name="OE" unicode="&#x152;" horiz-adv-x="1077" 
d="M1053 660h-430l-54 -310h390l-4 -20h-390l-54 -310h430l-4 -20h-521q-150 0 -240 81t-90 209q0 165 130.5 277.5t319.5 112.5h521zM489 22l112 636l-69 1q-179 0 -301 -105.5t-122 -260.5q0 -120 84.5 -196t225.5 -76z" />
    <glyph glyph-name="oe" unicode="&#x153;" horiz-adv-x="1053" 
d="M553 217q-1 -7 -5 -21q-5 -82 44 -135t133 -53q59 0 110 26t75 68h24q-28 -52 -87 -83t-126 -31q-80 0 -131 43t-62 114q-36 -70 -106.5 -113.5t-149.5 -43.5q-89 0 -145.5 57.5t-56.5 144.5q0 110 87 191t199 81q77 0 131 -45.5t67 -117.5q35 72 102 117.5t146 45.5
q96 0 144.5 -67.5t30.5 -177.5h-424zM275 8q85 0 156.5 54t94.5 134q2 20 4 29q1 9 5 22v9q0 79 -51.5 132.5t-130.5 53.5q-102 0 -181.5 -74.5t-79.5 -174.5q0 -79 51.5 -132t131.5 -53zM801 442q-84 0 -152.5 -55.5t-91.5 -141.5q-1 -2 -1 -8h402q10 91 -31 148t-126 57z
" />
    <glyph glyph-name="Racute" unicode="&#x154;" horiz-adv-x="695" 
d="M509 896l-112 -136h-24l111 136h25zM643 507q0 -101 -72.5 -164.5t-191.5 -71.5l196 -271h-29l-194 270h-2h-205l-48 -270h-22l120 680h228q102 0 161 -46t59 -127zM354 290q118 0 192.5 58t74.5 156q0 73 -54 114.5t-148 41.5h-206l-65 -370h206z" />
    <glyph glyph-name="racute" unicode="&#x155;" horiz-adv-x="328" 
d="M355 685l-112 -136h-24l111 136h25zM136 347q39 53 95.5 84t114.5 31l-3 -20q-60 0 -118 -37.5t-97 -101.5l-54 -303h-21l80 450h21z" />
    <glyph glyph-name="Rcommaaccent" unicode="&#x156;" horiz-adv-x="695" 
d="M643 507q0 -101 -72.5 -164.5t-191.5 -71.5l196 -271h-29l-194 270h-2h-205l-48 -270h-22l120 680h228q102 0 161 -46t59 -127zM354 290q118 0 192.5 58t74.5 156q0 73 -54 114.5t-148 41.5h-206l-65 -370h206zM271 -81q9 0 17 -6.5t8 -20.5q0 -10 -9 -27t-54 -92h-18
l57 98q-26 0 -26 23q0 11 7 18t18 7z" />
    <glyph glyph-name="rcommaaccent" unicode="&#x157;" horiz-adv-x="328" 
d="M136 347q39 53 95.5 84t114.5 31l-3 -20q-60 0 -118 -37.5t-97 -101.5l-54 -303h-21l80 450h21zM46 -81q9 0 17 -6.5t8 -20.5q0 -10 -9 -27t-54 -92h-18l57 98q-26 0 -26 23q0 11 7 18t18 7z" />
    <glyph glyph-name="Rcaron" unicode="&#x158;" horiz-adv-x="695" 
d="M438 764h-35l-103 136h26l95 -122l138 122h30zM643 507q0 -101 -72.5 -164.5t-191.5 -71.5l196 -271h-29l-194 270h-2h-205l-48 -270h-22l120 680h228q102 0 161 -46t59 -127zM354 290q118 0 192.5 58t74.5 156q0 73 -54 114.5t-148 41.5h-206l-65 -370h206z" />
    <glyph glyph-name="rcaron" unicode="&#x159;" horiz-adv-x="328" 
d="M256 544h-35l-103 136h26l95 -122l138 122h30zM136 347q39 53 95.5 84t114.5 31l-3 -20q-60 0 -118 -37.5t-97 -101.5l-54 -303h-21l80 450h21z" />
    <glyph glyph-name="Sacute" unicode="&#x15a;" horiz-adv-x="653" 
d="M498 896h25l-112 -136h-24zM397 692q109 0 169.5 -49.5t58.5 -129.5h-22q-2 74 -57 116.5t-152 42.5q-105 0 -168 -48.5t-63 -120.5q0 -102 146 -130l97 -19q90 -18 128.5 -57.5t38.5 -106.5q0 -90 -72.5 -146t-197.5 -56q-123 0 -186.5 57t-59.5 167h22q-2 -100 56 -152
t172 -52t179 49t65 128q0 59 -34 96.5t-120 53.5l-100 19q-156 29 -156 148q0 82 70.5 136t185.5 54z" />
    <glyph glyph-name="sacute" unicode="&#x15b;" horiz-adv-x="545" 
d="M420 685h25l-112 -136h-24zM79 126q5 -56 48 -87t122 -31q81 0 129 31.5t48 87.5q0 72 -88 87l-104 17q-58 10 -87 32.5t-29 65.5q0 61 53.5 97t137.5 36q83 0 130.5 -36t41.5 -97h-20q3 55 -36 84t-116 29q-78 0 -124 -29t-46 -80q0 -34 23 -53t76 -29l95 -16
q52 -9 83 -31.5t31 -73.5q0 -67 -55 -104.5t-143 -37.5q-87 0 -137.5 36.5t-54.5 101.5h22z" />
    <glyph glyph-name="Scedilla" unicode="&#x15e;" horiz-adv-x="653" 
d="M397 692q109 0 169.5 -49.5t58.5 -129.5h-22q-2 74 -57 116.5t-152 42.5q-105 0 -168 -48.5t-63 -120.5q0 -102 146 -130l97 -19q90 -18 128.5 -57.5t38.5 -106.5q0 -90 -72.5 -146t-197.5 -56q-123 0 -186.5 57t-59.5 167h22q-2 -100 56 -152t172 -52t179 49t65 128
q0 59 -34 96.5t-120 53.5l-100 19q-156 29 -156 148q0 82 70.5 136t185.5 54zM260 -86l-73 -133h-23l72 133h24z" />
    <glyph glyph-name="scedilla" unicode="&#x15f;" horiz-adv-x="545" 
d="M79 126q5 -56 48 -87t122 -31q81 0 129 31.5t48 87.5q0 72 -88 87l-104 17q-58 10 -87 32.5t-29 65.5q0 61 53.5 97t137.5 36q83 0 130.5 -36t41.5 -97h-20q3 55 -36 84t-116 29q-78 0 -124 -29t-46 -80q0 -34 23 -53t76 -29l95 -16q52 -9 83 -31.5t31 -73.5
q0 -67 -55 -104.5t-143 -37.5q-87 0 -137.5 36.5t-54.5 101.5h22zM233 -86l-73 -133h-23l72 133h24z" />
    <glyph glyph-name="Scaron" unicode="&#x160;" horiz-adv-x="653" 
d="M573 900h30l-151 -136h-35l-103 136h26l95 -122zM397 692q109 0 169.5 -49.5t58.5 -129.5h-22q-2 74 -57 116.5t-152 42.5q-105 0 -168 -48.5t-63 -120.5q0 -102 146 -130l97 -19q90 -18 128.5 -57.5t38.5 -106.5q0 -90 -72.5 -146t-197.5 -56q-123 0 -186.5 57
t-59.5 167h22q-2 -100 56 -152t172 -52t179 49t65 128q0 59 -34 96.5t-120 53.5l-100 19q-156 29 -156 148q0 82 70.5 136t185.5 54z" />
    <glyph glyph-name="scaron" unicode="&#x161;" horiz-adv-x="545" 
d="M467 680h30l-151 -136h-35l-103 136h26l95 -122zM79 126q5 -56 48 -87t122 -31q81 0 129 31.5t48 87.5q0 72 -88 87l-104 17q-58 10 -87 32.5t-29 65.5q0 61 53.5 97t137.5 36q83 0 130.5 -36t41.5 -97h-20q3 55 -36 84t-116 29q-78 0 -124 -29t-46 -80q0 -34 23 -53
t76 -29l95 -16q52 -9 83 -31.5t31 -73.5q0 -67 -55 -104.5t-143 -37.5q-87 0 -137.5 36.5t-54.5 101.5h22z" />
    <glyph glyph-name="uni0162" unicode="&#x162;" horiz-adv-x="622" 
d="M672 680l-4 -20h-270l-116 -660h-22l116 660h-270l4 20h562zM178 -219l72 133h24l-73 -133h-23z" />
    <glyph glyph-name="uni0163" unicode="&#x163;" horiz-adv-x="413" 
d="M204 430l-49 -276q-11 -66 13.5 -106t76.5 -40q41 0 78 15l1 -23q-48 -12 -83 -12q-62 0 -91 45.5t-16 120.5l49 276h-140l3 20h140l30 170h21l-30 -170h174l-3 -20h-174zM101 -219l72 133h24l-73 -133h-23z" />
    <glyph glyph-name="Tcaron" unicode="&#x164;" horiz-adv-x="622" 
d="M426 764h-35l-103 136h26l95 -122l138 122h30zM672 680l-4 -20h-270l-116 -660h-22l116 660h-270l4 20h562z" />
    <glyph glyph-name="tcaron" unicode="&#x165;" horiz-adv-x="413" 
d="M370 712l-47 -170h-19l44 170h22zM204 430l-49 -276q-11 -66 13.5 -106t76.5 -40q41 0 78 15l1 -23q-48 -12 -83 -12q-62 0 -91 45.5t-16 120.5l49 276h-140l3 20h140l30 170h21l-30 -170h174l-3 -20h-174z" />
    <glyph glyph-name="Umacron" unicode="&#x16a;" horiz-adv-x="771" 
d="M331 798h276l-4 -18h-276zM741 680l-71 -404q-22 -124 -113.5 -206t-214.5 -82q-124 0 -187 82t-41 206l71 404h22l-71 -404q-21 -115 36 -191.5t171 -76.5t199 76.5t106 191.5l71 404h22z" />
    <glyph glyph-name="umacron" unicode="&#x16b;" horiz-adv-x="584" 
d="M490 588l-4 -18h-276l4 18h276zM498 450h21l-79 -450h-21l13 72q-81 -84 -211 -84q-83 0 -125 50t-27 140l48 272h21l-48 -272q-14 -80 24 -125t111 -45q61 0 118.5 26t94.5 72z" />
    <glyph glyph-name="Uring" unicode="&#x16e;" horiz-adv-x="771" 
d="M473 949q37 0 62 -24.5t25 -61.5t-25 -61.5t-62 -24.5t-62 24.5t-25 61.5t25 61.5t62 24.5zM473 795q29 0 48.5 19.5t19.5 48.5q0 28 -20 48t-48 20t-48 -20t-20 -48q0 -29 19.5 -48.5t48.5 -19.5zM741 680l-71 -404q-22 -124 -113.5 -206t-214.5 -82q-124 0 -187 82
t-41 206l71 404h22l-71 -404q-21 -115 36 -191.5t171 -76.5t199 76.5t106 191.5l71 404h22z" />
    <glyph glyph-name="uring" unicode="&#x16f;" horiz-adv-x="584" 
d="M333 547q-37 0 -62 24.5t-25 61.5t25 61.5t62 24.5t62 -24.5t25 -61.5t-25 -61.5t-62 -24.5zM333 701q-28 0 -48 -20t-20 -48q0 -29 19.5 -48.5t48.5 -19.5t48.5 19.5t19.5 48.5q0 28 -20 48t-48 20zM498 450h21l-79 -450h-21l13 72q-81 -84 -211 -84q-83 0 -125 50
t-27 140l48 272h21l-48 -272q-14 -80 24 -125t111 -45q61 0 118.5 26t94.5 72z" />
    <glyph glyph-name="Uhungarumlaut" unicode="&#x170;" horiz-adv-x="771" 
d="M472 896h24l-86 -136h-24zM596 896h24l-87 -136h-23zM741 680l-71 -404q-22 -124 -113.5 -206t-214.5 -82q-124 0 -187 82t-41 206l71 404h22l-71 -404q-21 -115 36 -191.5t171 -76.5t199 76.5t106 191.5l71 404h22z" />
    <glyph glyph-name="uhungarumlaut" unicode="&#x171;" horiz-adv-x="584" 
d="M344 686l-86 -136h-24l86 136h24zM468 686l-87 -136h-23l86 136h24zM498 450h21l-79 -450h-21l13 72q-81 -84 -211 -84q-83 0 -125 50t-27 140l48 272h21l-48 -272q-14 -80 24 -125t111 -45q61 0 118.5 26t94.5 72z" />
    <glyph glyph-name="Uogonek" unicode="&#x172;" horiz-adv-x="771" 
d="M719 680h22l-71 -404q-15 -85 -64 -152t-122 -103l1 -1q-29 -14 -47.5 -25.5t-35.5 -34t-17 -48.5q0 -35 26 -55.5t69 -20.5q12 0 28 2l2 -21q-14 -3 -33 -3q-51 0 -82.5 26.5t-31.5 69.5q0 47 42 84q-30 -6 -63 -6q-124 0 -187 82t-41 206l71 404h22l-71 -404
q-21 -115 36 -191.5t171 -76.5t199 76.5t106 191.5z" />
    <glyph glyph-name="uogonek" unicode="&#x173;" horiz-adv-x="584" 
d="M434 -183q12 0 28 2l2 -21q-14 -3 -33 -3q-51 0 -82.5 26.5t-31.5 69.5q0 73 105 124l10 57q-81 -84 -211 -84q-83 0 -125 50t-27 140l48 272h21l-48 -272q-14 -80 24 -125t111 -45q61 0 118.5 26t94.5 72l60 344h21l-79 -450h-1q-22 -10 -36 -18.5t-30.5 -21.5t-25 -30
t-8.5 -37q0 -35 26 -55.5t69 -20.5z" />
    <glyph glyph-name="Wcircumflex" unicode="&#x174;" horiz-adv-x="1014" 
d="M627 886l-139 -122h-31l153 136h36l101 -136h-26zM1038 680h24l-360 -685h-21l-101 653l-333 -653h-21l-118 685h22l111 -652l333 652h22l101 -651z" />
    <glyph glyph-name="wcircumflex" unicode="&#x175;" horiz-adv-x="767" 
d="M481 666l-139 -122h-31l153 136h36l101 -136h-26zM732 450h23l-250 -450h-23l-67 415l-212 -415h-23l-92 450h22l85 -418l215 418h21l67 -420z" />
    <glyph glyph-name="Ycircumflex" unicode="&#x176;" horiz-adv-x="640" 
d="M418 886l-139 -122h-31l153 136h36l101 -136h-26zM696 680l-364 -423l-45 -257h-22l45 257l-214 423h25l202 -400l346 400h27z" />
    <glyph glyph-name="ycircumflex" unicode="&#x177;" horiz-adv-x="561" 
d="M353 666l-139 -122h-31l153 136h36l101 -136h-26zM552 450h27l-434 -668h-27l122 188l-152 480h24l144 -455z" />
    <glyph glyph-name="Ydieresis" unicode="&#x178;" horiz-adv-x="640" 
d="M313 784q-11 0 -18 7t-7 18t7 18t18 7t18 -7t7 -18t-7 -18t-18 -7zM479 784q-11 0 -18 7t-7 18t7 18t18 7t18 -7t7 -18t-7 -18t-18 -7zM696 680l-364 -423l-45 -257h-22l45 257l-214 423h25l202 -400l346 400h27z" />
    <glyph glyph-name="Zacute" unicode="&#x179;" horiz-adv-x="655" 
d="M523 896l-112 -136h-24l111 136h25zM654 680l-3 -17l-581 -643h468l-4 -20h-500l3 17l584 643h-461l4 20h490z" />
    <glyph glyph-name="zacute" unicode="&#x17a;" horiz-adv-x="489" 
d="M420 685l-112 -136h-24l111 136h25zM469 450l-3 -17l-413 -413h340l-4 -20h-369l3 17l412 413h-325l4 20h355z" />
    <glyph glyph-name="Zdotaccent" unicode="&#x17b;" horiz-adv-x="655" 
d="M417 784q-11 0 -18 7t-7 18t7 18t18 7t18 -7t7 -18t-7 -18t-18 -7zM654 680l-3 -17l-581 -643h468l-4 -20h-500l3 17l584 643h-461l4 20h490z" />
    <glyph glyph-name="zdotaccent" unicode="&#x17c;" horiz-adv-x="489" 
d="M305 594q-11 0 -18 7t-7 18t7 18t18 7t18 -7t7 -18t-7 -18t-18 -7zM469 450l-3 -17l-413 -413h340l-4 -20h-369l3 17l412 413h-325l4 20h355z" />
    <glyph glyph-name="Zcaron" unicode="&#x17d;" horiz-adv-x="655" 
d="M452 764h-35l-103 136h26l95 -122l138 122h30zM654 680l-3 -17l-581 -643h468l-4 -20h-500l3 17l584 643h-461l4 20h490z" />
    <glyph glyph-name="zcaron" unicode="&#x17e;" horiz-adv-x="489" 
d="M321 544h-35l-103 136h26l95 -122l138 122h30zM110 430l4 20h355l-3 -17l-413 -413h340l-4 -20h-369l3 17l412 413h-325z" />
    <glyph glyph-name="florin" unicode="&#x192;" horiz-adv-x="425" 
d="M434 685q34 0 79 -12l-8 -18q-42 10 -74 10q-99 0 -139 -126l-56 -179h172l-4 -20h-174l-78 -259q-45 -146 -163 -146q-34 0 -79 12l8 18q42 -10 74 -10q99 0 139 126l78 259h-130l4 20h132l56 179q47 146 163 146z" />
    <glyph glyph-name="uni01CD" unicode="&#x1cd;" horiz-adv-x="741" 
d="M484 764h-35l-103 136h26l95 -122l138 122h30zM637 0l-71 244h-384l-157 -244h-26l439 680h23l199 -680h-23zM195 264h365l-114 389z" />
    <glyph glyph-name="uni01CE" unicode="&#x1ce;" horiz-adv-x="625" 
d="M396 544h-35l-103 136h26l95 -122l138 122h30zM544 450h21l-80 -450h-21l13 75q-87 -87 -205 -87q-89 0 -145.5 57.5t-56.5 144.5q0 110 87 191t199 81q117 0 174 -88zM275 8q121 0 208 101l41 231q-51 102 -171 102q-102 0 -181.5 -74.5t-79.5 -174.5q0 -79 51.5 -132
t131.5 -53z" />
    <glyph glyph-name="Scommaaccent" unicode="&#x218;" horiz-adv-x="653" 
d="M397 692q109 0 169.5 -49.5t58.5 -129.5h-22q-2 74 -57 116.5t-152 42.5q-105 0 -168 -48.5t-63 -120.5q0 -102 146 -130l97 -19q90 -18 128.5 -57.5t38.5 -106.5q0 -90 -72.5 -146t-197.5 -56q-123 0 -186.5 57t-59.5 167h22q-2 -100 56 -152t172 -52t179 49t65 128
q0 59 -34 96.5t-120 53.5l-100 19q-156 29 -156 148q0 82 70.5 136t185.5 54zM229 -227l57 98q-26 0 -26 23q0 11 7 18t18 7q9 0 17 -6.5t8 -20.5q0 -10 -9 -27t-54 -92h-18z" />
    <glyph glyph-name="scommaaccent" unicode="&#x219;" horiz-adv-x="545" 
d="M79 126q5 -56 48 -87t122 -31q81 0 129 31.5t48 87.5q0 72 -88 87l-104 17q-58 10 -87 32.5t-29 65.5q0 61 53.5 97t137.5 36q83 0 130.5 -36t41.5 -97h-20q3 55 -36 84t-116 29q-78 0 -124 -29t-46 -80q0 -34 23 -53t76 -29l95 -16q52 -9 83 -31.5t31 -73.5
q0 -67 -55 -104.5t-143 -37.5q-87 0 -137.5 36.5t-54.5 101.5h22zM182 -227l57 98q-26 0 -26 23q0 11 7 18t18 7q9 0 17 -6.5t8 -20.5q0 -10 -9 -27t-54 -92h-18z" />
    <glyph glyph-name="uni021A" unicode="&#x21a;" horiz-adv-x="622" 
d="M672 680l-4 -20h-270l-116 -660h-22l116 660h-270l4 20h562zM250 -81q9 0 17 -6.5t8 -20.5q0 -10 -9 -27t-54 -92h-18l57 98q-26 0 -26 23q0 11 7 18t18 7z" />
    <glyph glyph-name="uni021B" unicode="&#x21b;" horiz-adv-x="413" 
d="M204 430l-49 -276q-11 -66 13.5 -106t76.5 -40q41 0 78 15l1 -23q-48 -12 -83 -12q-62 0 -91 45.5t-16 120.5l49 276h-140l3 20h140l30 170h21l-30 -170h174l-3 -20h-174zM202 -81q9 0 17 -6.5t8 -20.5q0 -10 -9 -27t-54 -92h-18l57 98q-26 0 -26 23q0 11 7 18t18 7z" />
    <glyph glyph-name="circumflex" unicode="&#x2c6;" 
d="M436 574l-94 122l-139 -122h-31l153 136h36l101 -136h-26z" />
    <glyph glyph-name="caron" unicode="&#x2c7;" 
d="M486 710h30l-151 -136h-35l-103 136h26l95 -122z" />
    <glyph glyph-name="breve" unicode="&#x2d8;" 
d="M467 685q-10 -59 -54 -91.5t-96 -32.5t-86 33t-24 91h20q-8 -50 20.5 -77.5t70.5 -27.5q41 0 80 28t47 77h22z" />
    <glyph glyph-name="dotaccent" unicode="&#x2d9;" 
d="M330 574q-10 0 -17.5 7t-7.5 18t7.5 18t17.5 7t17.5 -7t7.5 -18t-7.5 -18t-17.5 -7z" />
    <glyph glyph-name="ring" unicode="&#x2da;" 
d="M320 739q37 0 62 -24.5t25 -61.5t-25 -61.5t-62 -24.5t-62 24.5t-25 61.5t25 61.5t62 24.5zM320 585q28 0 48 19.5t20 48.5q0 28 -20 48t-48 20t-48 -20t-20 -48q0 -29 20 -48.5t48 -19.5z" />
    <glyph glyph-name="ogonek" unicode="&#x2db;" 
d="M360 -7q-22 -10 -36 -18.5t-30.5 -21.5t-25 -30t-8.5 -37q0 -35 26 -55.5t69 -20.5q12 0 28 2l2 -21q-14 -3 -33 -3q-51 0 -82.5 26.5t-31.5 69.5q0 24 10.5 45t29.5 37t34.5 25.5t37.5 20.5z" />
    <glyph glyph-name="tilde" unicode="&#x2dc;" 
d="M446 677q0 -54 -41 -68.5t-81 16.5l-38 27q-29 23 -61 13.5t-32 -48.5h-19q0 35 21 53t49.5 16.5t51.5 -18.5l37 -26q35 -25 64.5 -15t29.5 50h19z" />
    <glyph glyph-name="hungarumlaut" unicode="&#x2dd;" 
d="M309 706h24l-86 -136h-24zM433 706h24l-87 -136h-23z" />
    <glyph glyph-name="uni0326" unicode="&#x326;" horiz-adv-x="0" 
d="M-373 -227l57 98q-26 0 -26 23q0 11 7 18t18 7q9 0 17 -6.5t8 -20.5q0 -10 -9 -27t-54 -92h-18z" />
    <glyph glyph-name="Wgrave" unicode="&#x1e80;" horiz-adv-x="1014" 
d="M604 760h-24l-88 136h25zM1038 680h24l-360 -685h-21l-101 653l-333 -653h-21l-118 685h22l111 -652l333 652h22l101 -651z" />
    <glyph glyph-name="wgrave" unicode="&#x1e81;" horiz-adv-x="767" 
d="M441 550h-24l-88 136h25zM732 450h23l-250 -450h-23l-67 415l-212 -415h-23l-92 450h22l85 -418l215 418h21l67 -420z" />
    <glyph glyph-name="Wacute" unicode="&#x1e82;" horiz-adv-x="1014" 
d="M721 896l-112 -136h-24l111 136h25zM1038 680h24l-360 -685h-21l-101 653l-333 -653h-21l-118 685h22l111 -652l333 652h22l101 -651z" />
    <glyph glyph-name="wacute" unicode="&#x1e83;" horiz-adv-x="767" 
d="M557 685l-112 -136h-24l111 136h25zM732 450h23l-250 -450h-23l-67 415l-212 -415h-23l-92 450h22l85 -418l215 418h21l67 -420z" />
    <glyph glyph-name="Wdieresis" unicode="&#x1e84;" horiz-adv-x="1014" 
d="M522 784q-10 0 -17.5 7t-7.5 18t7.5 18t17.5 7t17.5 -7t7.5 -18t-7.5 -18t-17.5 -7zM688 784q-10 0 -17.5 7t-7.5 18t7.5 18t17.5 7t17.5 -7t7.5 -18t-7.5 -18t-17.5 -7zM1038 680h24l-360 -685h-21l-101 653l-333 -653h-21l-118 685h22l111 -652l333 652h22l101 -651z
" />
    <glyph glyph-name="wdieresis" unicode="&#x1e85;" horiz-adv-x="767" 
d="M359 594q-11 0 -18 7t-7 18t7 18t18 7t18 -7t7 -18t-7 -18t-18 -7zM525 594q-11 0 -18 7t-7 18t7 18t18 7t18 -7t7 -18t-7 -18t-18 -7zM732 450h23l-250 -450h-23l-67 415l-212 -415h-23l-92 450h22l85 -418l215 418h21l67 -420z" />
    <glyph glyph-name="uni1E9E" unicode="&#x1e9e;" horiz-adv-x="716" 
d="M705 680l-3 -16l-307 -295h52q89 0 141.5 -43t52.5 -114q0 -98 -81 -161t-204 -63q-61 0 -121 17l4 22q57 -19 122 -19q112 0 184.5 56.5t72.5 144.5q0 64 -47 102t-127 38h-87l1 11l313 300h-278q-88 0 -151 -53.5t-79 -142.5l-82 -464h-21l82 464q17 97 87 156.5
t168 59.5h308z" />
    <glyph glyph-name="Ygrave" unicode="&#x1ef2;" horiz-adv-x="640" 
d="M395 760h-24l-88 136h25zM696 680l-364 -423l-45 -257h-22l45 257l-214 423h25l202 -400l346 400h27z" />
    <glyph glyph-name="ygrave" unicode="&#x1ef3;" horiz-adv-x="561" 
d="M347 550h-24l-88 136h25zM552 450h27l-434 -668h-27l122 188l-152 480h24l144 -455z" />
    <glyph glyph-name="endash" unicode="&#x2013;" horiz-adv-x="737" 
d="M128 270h497l4 21h-497z" />
    <glyph glyph-name="emdash" unicode="&#x2014;" horiz-adv-x="950" 
d="M128 270h710l4 21h-710z" />
    <glyph glyph-name="quoteleft" unicode="&#x2018;" horiz-adv-x="178" 
d="M208 680l-80 -155q18 -3 18 -20q0 -10 -6.5 -16.5t-16.5 -6.5t-16.5 6.5t-6.5 16.5q0 9 17 41l73 134h18z" />
    <glyph glyph-name="quoteright" unicode="&#x2019;" horiz-adv-x="178" 
d="M96 485l80 155q-18 3 -18 20q0 10 6.5 16.5t16.5 6.5t16.5 -6.5t6.5 -16.5q0 -9 -17 -41l-73 -134h-18z" />
    <glyph glyph-name="quotesinglbase" unicode="&#x201a;" horiz-adv-x="177" 
d="M-18 -160l80 155q-18 3 -18 20q0 10 6.5 16.5t16.5 6.5t16.5 -6.5t6.5 -16.5q0 -9 -17 -41l-73 -134h-18z" />
    <glyph glyph-name="quotedblleft" unicode="&#x201c;" horiz-adv-x="318" 
d="M208 680l-80 -155q18 -3 18 -20q0 -10 -6.5 -16.5t-16.5 -6.5t-16.5 6.5t-6.5 16.5q0 9 17 41l73 134h18zM348 680l-80 -155q18 -3 18 -20q0 -10 -6.5 -16.5t-16.5 -6.5t-16.5 6.5t-6.5 16.5q0 9 17 41l73 134h18z" />
    <glyph glyph-name="quotedblright" unicode="&#x201d;" horiz-adv-x="319" 
d="M96 485l80 155q-18 3 -18 20q0 10 6.5 16.5t16.5 6.5t16.5 -6.5t6.5 -16.5q0 -9 -17 -41l-73 -134h-18zM237 485l80 155q-18 3 -18 20q0 10 6.5 16.5t16.5 6.5t16.5 -6.5t6.5 -16.5q0 -9 -17 -41l-73 -134h-18z" />
    <glyph glyph-name="quotedblbase" unicode="&#x201e;" horiz-adv-x="318" 
d="M-18 -160l80 155q-18 3 -18 20q0 10 6.5 16.5t16.5 6.5t16.5 -6.5t6.5 -16.5q0 -9 -17 -41l-73 -134h-18zM123 -160l80 155q-18 3 -18 20q0 10 6.5 16.5t16.5 6.5t16.5 -6.5t6.5 -16.5q0 -9 -17 -41l-73 -134h-18z" />
    <glyph glyph-name="dagger" unicode="&#x2020;" horiz-adv-x="404" 
d="M402 576h-132l-39 -222h-21l39 222h-131l4 21h131l23 131h21l-23 -131h132z" />
    <glyph glyph-name="daggerdbl" unicode="&#x2021;" horiz-adv-x="405" 
d="M274 596l-18 -99h132l-3 -21h-132l-22 -122h-21l22 122h-131l3 21h131l18 99h-131l3 21h131l20 111h21l-20 -111h132l-3 -21h-132z" />
    <glyph glyph-name="bullet" unicode="&#x2022;" horiz-adv-x="305" 
d="M167 200q-39 0 -68 29t-29 68t29 68t68 29q40 0 69 -29t29 -68t-29 -68t-69 -29z" />
    <glyph glyph-name="ellipsis" unicode="&#x2026;" horiz-adv-x="489" 
d="M36 -8q-10 0 -16.5 6.5t-6.5 16.5t6.5 16.5t16.5 6.5t16.5 -6.5t6.5 -16.5t-6.5 -16.5t-16.5 -6.5zM211 -8q-10 0 -16.5 6.5t-6.5 16.5t6.5 16.5t16.5 6.5t16.5 -6.5t6.5 -16.5t-6.5 -16.5t-16.5 -6.5zM379 -8q-10 0 -16.5 6.5t-6.5 16.5t6.5 16.5t16.5 6.5t16.5 -6.5
t6.5 -16.5t-6.5 -16.5t-16.5 -6.5z" />
    <glyph glyph-name="perthousand" unicode="&#x2030;" horiz-adv-x="1574" 
d="M353 695q66 0 107.5 -44t41.5 -111q0 -88 -64 -150.5t-150 -62.5q-67 0 -108.5 44t-41.5 111q0 88 64.5 150.5t150.5 62.5zM804 680l-444 -680h-24l444 680h24zM349 674q-75 0 -132.5 -55.5t-57.5 -132.5q0 -59 37.5 -98t95.5 -39q75 0 132 55t57 132q0 60 -37 99t-95 39
zM877 353q66 0 108 -44t42 -111q0 -88 -64 -150.5t-151 -62.5q-66 0 -107.5 44t-41.5 111q0 88 64 150.5t150 62.5zM1326 353q67 0 108.5 -44t41.5 -111q0 -88 -64 -150.5t-151 -62.5q-66 0 -107.5 44t-41.5 111q0 88 64 150.5t150 62.5zM874 332q-75 0 -132.5 -55
t-57.5 -133q0 -59 37 -98t95 -39q75 0 132.5 55t57.5 132q0 60 -37 99t-95 39zM1323 332q-75 0 -132.5 -55t-57.5 -133q0 -59 37 -98t95 -39q75 0 132.5 55t57.5 132q0 60 -37 99t-95 39z" />
    <glyph glyph-name="guilsinglleft" unicode="&#x2039;" horiz-adv-x="264" 
d="M192 396h26l-147 -146l96 -142h-25l-97 144z" />
    <glyph glyph-name="guilsinglright" unicode="&#x203a;" horiz-adv-x="264" 
d="M82 108h-26l147 146l-96 142h25l97 -144z" />
    <glyph glyph-name="fraction" unicode="&#x2044;" horiz-adv-x="408" 
d="M438 680l-444 -680h-24l444 680h24z" />
    <glyph glyph-name="uni2070" unicode="&#x2070;" horiz-adv-x="422" 
d="M294 691q63 0 97.5 -41.5t34.5 -108.5q0 -95 -55.5 -160.5t-142.5 -65.5q-63 0 -97.5 42t-34.5 109q0 93 56 159t142 66zM231 335q76 0 124.5 59.5t48.5 143.5q0 59 -29.5 96.5t-83.5 37.5q-75 0 -124 -60t-49 -143q0 -60 29.5 -97t83.5 -37z" />
    <glyph glyph-name="uni2074" unicode="&#x2074;" horiz-adv-x="388" 
d="M374 426l-4 -20h-67l-14 -83h-20l14 83h-211l3 14l167 263h22l-161 -257h184l21 122h20l-21 -122h67z" />
    <glyph glyph-name="uni2075" unicode="&#x2075;" horiz-adv-x="365" 
d="M371 664h-209l-26 -144h-20l29 163h229zM331 445q0 34 -25.5 55t-69.5 21l-100 -1l4 20h101q52 0 81.5 -25t29.5 -67q0 -55 -42.5 -94t-108.5 -39q-52 0 -84.5 28t-33.5 75h22q1 -38 28.5 -61t70.5 -23q55 0 91 32.5t36 78.5z" />
    <glyph glyph-name="uni2076" unicode="&#x2076;" horiz-adv-x="358" 
d="M236 561q52 0 84 -28t32 -75q0 -61 -46.5 -102t-113.5 -41q-52 0 -84.5 29t-32.5 76q0 49 44 98l159 165h26l-125 -132q28 10 57 10zM195 334q55 0 95 34t40 85q0 39 -27.5 63.5t-70.5 24.5q-58 0 -92 -31l-5 -5q-38 -34 -38 -83q0 -39 27 -63.5t71 -24.5z" />
    <glyph glyph-name="uni2077" unicode="&#x2077;" horiz-adv-x="291" 
d="M102 683h256l-3 -13l-248 -347h-26l243 340h-226z" />
    <glyph glyph-name="uni2078" unicode="&#x2078;" horiz-adv-x="377" 
d="M292 513q69 -21 69 -79q0 -52 -44.5 -85.5t-114.5 -33.5q-56 0 -88.5 25t-32.5 66q0 40 28 68.5t75 39.5q-55 19 -55 69q0 45 41 76.5t98 31.5q48 0 78 -23.5t30 -59.5q0 -35 -23 -59.5t-61 -35.5zM151 585q0 -30 24 -47.5t64 -17.5q50 0 82.5 23.5t32.5 61.5
q0 29 -24 48.5t-64 19.5q-47 0 -81 -25.5t-34 -62.5zM205 334q58 0 95.5 28t37.5 71q0 32 -27.5 52t-74.5 20q-57 0 -94 -26.5t-37 -68.5q0 -34 27 -55t73 -21z" />
    <glyph glyph-name="uni2079" unicode="&#x2079;" horiz-adv-x="358" 
d="M281 699q52 0 84.5 -29t32.5 -76q0 -49 -44 -98l-159 -165h-26l125 132q-28 -10 -57 -10q-52 0 -84 28t-32 75q0 61 46.5 102t113.5 41zM338 509q38 34 38 83q0 39 -27 63.5t-71 24.5q-55 0 -95 -34t-40 -85q0 -39 27.5 -63.5t70.5 -24.5q58 0 92 31z" />
    <glyph glyph-name="uni2080" unicode="&#x2080;" horiz-adv-x="422" 
d="M205 188q63 0 97.5 -41.5t34.5 -108.5q0 -95 -55.5 -160.5t-142.5 -65.5q-63 0 -97.5 42t-34.5 109q0 93 56 159t142 66zM142 -168q76 0 124.5 59.5t48.5 143.5q0 59 -29.5 96.5t-83.5 37.5q-75 0 -124 -60t-49 -143q0 -60 29.5 -97t83.5 -37z" />
    <glyph glyph-name="uni2081" unicode="&#x2081;" horiz-adv-x="288" 
d="M94 -161h104l-4 -19h-238l4 19h113l56 317l-112 -38l3 20l124 42h11z" />
    <glyph glyph-name="uni2082" unicode="&#x2082;" horiz-adv-x="353" 
d="M149 -62l-123 -99h206l-3 -19h-245l2 12l147 118q45 36 64.5 53.5t34.5 41.5t15 50q0 33 -22.5 53.5t-62.5 20.5q-42 0 -72 -22t-41 -59h-21q12 46 48 73t88 27q49 0 76.5 -25t27.5 -65t-25.5 -72.5t-93.5 -87.5z" />
    <glyph glyph-name="uni2083" unicode="&#x2083;" horiz-adv-x="364" 
d="M196 2q56 -19 56 -75q0 -50 -40 -81.5t-104 -31.5q-56 0 -88.5 24.5t-29.5 64.5h22q-2 -32 24.5 -51t72.5 -19q53 0 87.5 25.5t34.5 66.5q0 31 -23.5 49.5t-63.5 18.5h-33l4 18h33v-1v1q44 0 73.5 25.5t29.5 64.5q0 31 -23 49.5t-63 18.5q-41 0 -69.5 -18.5t-39.5 -50.5
h-21q12 40 47.5 64t85.5 24q48 0 75.5 -23t27.5 -61q0 -36 -20 -63t-55 -39z" />
    <glyph glyph-name="uni2084" unicode="&#x2084;" horiz-adv-x="388" 
d="M285 -77l-4 -20h-67l-14 -83h-20l14 83h-211l3 14l167 263h22l-161 -257h184l21 122h20l-21 -122h67z" />
    <glyph glyph-name="uni2085" unicode="&#x2085;" horiz-adv-x="365" 
d="M282 161h-209l-26 -144h-20l29 163h229zM242 -58q0 34 -25.5 55t-69.5 21l-100 -1l4 20h101q52 0 81.5 -25t29.5 -67q0 -55 -42.5 -94t-108.5 -39q-52 0 -84.5 28t-33.5 75h22q1 -38 28.5 -61t70.5 -23q55 0 91 32.5t36 78.5z" />
    <glyph glyph-name="uni2086" unicode="&#x2086;" horiz-adv-x="358" 
d="M147 58q52 0 84 -28t32 -75q0 -61 -46.5 -102t-113.5 -41q-52 0 -84.5 29t-32.5 76q0 49 44 98l159 165h26l-125 -132q28 10 57 10zM106 -169q55 0 95 34t40 85q0 39 -27.5 63.5t-70.5 24.5q-58 0 -92 -31l-5 -5q-38 -34 -38 -83q0 -39 27 -63.5t71 -24.5z" />
    <glyph glyph-name="uni2087" unicode="&#x2087;" horiz-adv-x="291" 
d="M13 180h256l-3 -13l-248 -347h-26l243 340h-226z" />
    <glyph glyph-name="uni2088" unicode="&#x2088;" horiz-adv-x="377" 
d="M203 10q69 -21 69 -79q0 -52 -44.5 -85.5t-114.5 -33.5q-56 0 -88.5 25t-32.5 66q0 40 28 68.5t75 39.5q-55 19 -55 69q0 45 41 76.5t98 31.5q48 0 78 -23.5t30 -59.5q0 -35 -23 -59.5t-61 -35.5zM62 82q0 -30 24 -47.5t64 -17.5q50 0 82.5 23.5t32.5 61.5q0 29 -24 48.5
t-64 19.5q-47 0 -81 -25.5t-34 -62.5zM116 -169q58 0 95.5 28t37.5 71q0 32 -27.5 52t-74.5 20q-57 0 -94 -26.5t-37 -68.5q0 -34 27 -55t73 -21z" />
    <glyph glyph-name="uni2089" unicode="&#x2089;" horiz-adv-x="358" 
d="M191 189q52 0 84.5 -29t32.5 -76q0 -49 -44 -98l-159 -165h-26l125 132q-28 -10 -57 -10q-52 0 -84 28t-32 75q0 61 46.5 102t113.5 41zM248 -1q38 34 38 83q0 39 -27 63.5t-71 24.5q-55 0 -95 -34t-40 -85q0 -39 27.5 -63.5t70.5 -24.5q58 0 92 31z" />
    <glyph glyph-name="Euro" unicode="&#x20ac;" horiz-adv-x="893" 
d="M586 671q-117 0 -220 -72t-148 -183h372l-9 -20h-370q-10 -27 -15 -56q-6 -40 -5 -74h334l-8 -20h-324q12 -105 87.5 -171t187.5 -66q110 0 199.5 56.5t129.5 148.5h24q-43 -101 -140 -163.5t-216 -62.5q-121 0 -202.5 72t-92.5 186h-138l3 20h134q-1 34 5 74q4 27 14 56
h-130l4 20h134q48 120 158 198t236 78q119 0 193 -62.5t82 -163.5h-24q-8 92 -76.5 148.5t-178.5 56.5z" />
    <glyph glyph-name="uni20B9" unicode="&#x20b9;" horiz-adv-x="619" 
d="M624 680l-3 -20h-257q105 -42 105 -153q0 -15 -1 -23h122l-4 -20h-121q-16 -90 -94.5 -142t-194.5 -52h-61l285 -270h-32l-285 270l4 20h93q105 0 176 46.5t86 127.5h-313l4 20h312q1 7 1 20q0 73 -54 114.5t-147 41.5h-93l3 20h469z" />
    <glyph glyph-name="uni2116" unicode="&#x2116;" horiz-adv-x="1403" 
d="M610 29l115 651h22l-120 -680h-26l-389 651l-115 -651h-22l120 680h25zM1019 128q-89 0 -145.5 57.5t-56.5 144.5q0 110 87 191t199 81q88 0 144.5 -58t56.5 -145q0 -109 -87 -190t-198 -81zM1100 582q-102 0 -181.5 -74.5t-79.5 -174.5q0 -79 51.5 -132t131.5 -53
q101 0 180.5 74t79.5 174q0 79 -51.5 132.5t-130.5 53.5zM780 0l4 20h454l-4 -20h-454z" />
    <glyph glyph-name="uni2117" unicode="&#x2117;" horiz-adv-x="878" 
d="M459 695q150 0 257 -102t107 -253t-107 -253t-257 -102t-257 102t-107 253t107 253t257 102zM459 676q-140 0 -241.5 -97.5t-101.5 -238.5t101.5 -238.5t241.5 -97.5t242 97.5t102 238.5t-102 238.5t-242 97.5zM478 537q68 0 110 -33.5t42 -88.5t-42 -88t-110 -33h-112
v-151h-20v394h132zM478 519h-112v-207h112q59 0 95.5 28.5t36.5 74.5q0 47 -36.5 75.5t-95.5 28.5z" />
    <glyph glyph-name="trademark" unicode="&#x2122;" horiz-adv-x="671" 
d="M341 679l-2 -16h-117l-48 -276h-18l48 276h-115l2 16h250zM687 679l-51 -292h-18l46 258l-161 -214h-8l-88 217l-45 -261h-18l51 292h17l90 -221l166 221h19z" />
    <glyph glyph-name="oneeighth" unicode="&#x215b;" horiz-adv-x="736" 
d="M45 322l4 19h113l56 317l-112 -38l3 20l124 42h11l-61 -341h104l-4 -19h-238zM567 680h24l-444 -680h-24zM593 190q69 -21 69 -79q0 -52 -44.5 -85.5t-114.5 -33.5q-56 0 -88.5 25t-32.5 66q0 40 28 68.5t75 39.5q-55 19 -55 69q0 45 41 76.5t98 31.5q48 0 78 -23.5
t30 -59.5q0 -35 -23 -59.5t-61 -35.5zM452 262q0 -30 24 -47.5t64 -17.5q50 0 82.5 23.5t32.5 61.5q0 29 -24 48.5t-64 19.5q-47 0 -81 -25.5t-34 -62.5zM506 11q58 0 95.5 28t37.5 71q0 32 -27.5 52t-74.5 20q-57 0 -94 -26.5t-37 -68.5q0 -34 27 -55t73 -21z" />
    <glyph glyph-name="threeeighths" unicode="&#x215c;" horiz-adv-x="791" 
d="M341 433q0 -50 -40 -81.5t-104 -31.5q-56 0 -88.5 24.5t-29.5 64.5h22q-2 -32 24.5 -51t72.5 -19q53 0 87.5 25.5t34.5 66.5q0 31 -23.5 49.5t-63.5 18.5h-33l4 18h33v-1v1q44 0 73.5 25.5t29.5 64.5q0 31 -23 49.5t-63 18.5q-41 0 -69.5 -18.5t-39.5 -50.5h-21
q12 40 47.5 64t85.5 24q48 0 75.5 -23t27.5 -61q0 -36 -20 -63t-55 -39q56 -19 56 -75zM618 680h24l-444 -680h-24zM648 190q69 -21 69 -79q0 -52 -44.5 -85.5t-114.5 -33.5q-56 0 -88.5 25t-32.5 66q0 40 28 68.5t75 39.5q-55 19 -55 69q0 45 41 76.5t98 31.5
q48 0 78 -23.5t30 -59.5q0 -35 -23 -59.5t-61 -35.5zM507 262q0 -30 24 -47.5t64 -17.5q50 0 82.5 23.5t32.5 61.5q0 29 -24 48.5t-64 19.5q-47 0 -81 -25.5t-34 -62.5zM561 11q58 0 95.5 28t37.5 71q0 32 -27.5 52t-74.5 20q-57 0 -94 -26.5t-37 -68.5q0 -34 27 -55t73 -21
z" />
    <glyph glyph-name="fiveeighths" unicode="&#x215d;" horiz-adv-x="797" 
d="M371 663h-209l-26 -144h-20l29 163h229zM628 680h24l-444 -680h-24zM352 447q0 -55 -42.5 -94t-108.5 -39q-52 0 -84.5 28t-33.5 75h22q1 -38 28.5 -61t70.5 -23q55 0 91 32.5t36 78.5q0 34 -25.5 55t-69.5 21l-100 -1l4 20h101q52 0 81.5 -25t29.5 -67zM654 190
q69 -21 69 -79q0 -52 -44.5 -85.5t-114.5 -33.5q-56 0 -88.5 25t-32.5 66q0 40 28 68.5t75 39.5q-55 19 -55 69q0 45 41 76.5t98 31.5q48 0 78 -23.5t30 -59.5q0 -35 -23 -59.5t-61 -35.5zM513 262q0 -30 24 -47.5t64 -17.5q50 0 82.5 23.5t32.5 61.5q0 29 -24 48.5
t-64 19.5q-47 0 -81 -25.5t-34 -62.5zM567 11q58 0 95.5 28t37.5 71q0 32 -27.5 52t-74.5 20q-57 0 -94 -26.5t-37 -68.5q0 -34 27 -55t73 -21z" />
    <glyph glyph-name="seveneighths" unicode="&#x215e;" horiz-adv-x="694" 
d="M107 322h-26l243 340h-226l4 20h256l-3 -13zM509 680h24l-444 -680h-24zM551 190q69 -21 69 -79q0 -52 -44.5 -85.5t-114.5 -33.5q-56 0 -88.5 25t-32.5 66q0 40 28 68.5t75 39.5q-55 19 -55 69q0 45 41 76.5t98 31.5q48 0 78 -23.5t30 -59.5q0 -35 -23 -59.5t-61 -35.5z
M410 262q0 -30 24 -47.5t64 -17.5q50 0 82.5 23.5t32.5 61.5q0 29 -24 48.5t-64 19.5q-47 0 -81 -25.5t-34 -62.5zM464 11q58 0 95.5 28t37.5 71q0 32 -27.5 52t-74.5 20q-57 0 -94 -26.5t-37 -68.5q0 -34 27 -55t73 -21z" />
    <glyph glyph-name="arrowleft" unicode="&#x2190;" horiz-adv-x="766" 
d="M726 332h-653l324 -324l-15 -14l-348 348l348 348l15 -14l-324 -324h653v-20z" />
    <glyph glyph-name="arrowup" unicode="&#x2191;" horiz-adv-x="786" 
d="M383 0v653l-324 -324l-14 15l348 348l348 -348l-14 -15l-324 324v-653h-20z" />
    <glyph glyph-name="arrowright" unicode="&#x2192;" horiz-adv-x="766" 
d="M40 332v20h653l-324 324l15 14l348 -348l-348 -348l-15 14l324 324h-653z" />
    <glyph glyph-name="arrowdown" unicode="&#x2193;" horiz-adv-x="786" 
d="M383 680h20v-653l324 324l14 -15l-348 -348l-348 348l14 15l324 -324v653z" />
    <glyph glyph-name="uni2196" unicode="&#x2196;" horiz-adv-x="823" 
d="M773 11l-14 -14l-648 648v-458l-21 1v492h492l1 -21h-458z" />
    <glyph glyph-name="uni2197" unicode="&#x2197;" horiz-adv-x="863" 
d="M90 11l648 648h-458l1 21h492v-492l-21 -1v458l-648 -648z" />
    <glyph glyph-name="uni2198" unicode="&#x2198;" horiz-adv-x="823" 
d="M50 669l14 14l648 -648v458l21 -1v-492h-492l-1 21h458z" />
    <glyph glyph-name="uni2199" unicode="&#x2199;" horiz-adv-x="798" 
d="M773 669l-648 -648h458l-1 -21h-492v492l21 1v-458l648 648z" />
    <glyph glyph-name="minus" unicode="&#x2212;" horiz-adv-x="682" 
d="M134 305l4 21h442l-4 -21h-442z" />
    <glyph glyph-name="R.ss02" horiz-adv-x="701" 
d="M643 502q0 -104 -82 -168t-211 -64h-122l353 -270h-38l-352 270h-46l-48 -270h-22l120 680h228q103 0 161.5 -46t58.5 -132zM213 660l-65 -369h205q117 0 192.5 57.5t75.5 150.5q0 78 -51.5 119.5t-145.5 41.5h-211z" />
    <glyph glyph-name="Racute.ss02" horiz-adv-x="701" 
d="M522 896l-112 -136h-24l111 136h25zM643 502q0 -104 -82 -168t-211 -64h-122l353 -270h-38l-352 270h-46l-48 -270h-22l120 680h228q103 0 161.5 -46t58.5 -132zM213 660l-65 -369h205q117 0 192.5 57.5t75.5 150.5q0 78 -51.5 119.5t-145.5 41.5h-211z" />
    <glyph glyph-name="Rcaron.ss02" horiz-adv-x="701" 
d="M451 764h-35l-103 136h26l95 -122l138 122h30zM643 502q0 -104 -82 -168t-211 -64h-122l353 -270h-38l-352 270h-46l-48 -270h-22l120 680h228q103 0 161.5 -46t58.5 -132zM213 660l-65 -369h205q117 0 192.5 57.5t75.5 150.5q0 78 -51.5 119.5t-145.5 41.5h-211z" />
    <glyph glyph-name="Rcommaaccent.ss02" horiz-adv-x="701" 
d="M643 502q0 -104 -82 -168t-211 -64h-122l353 -270h-38l-352 270h-46l-48 -270h-22l120 680h228q103 0 161.5 -46t58.5 -132zM213 660l-65 -369h205q117 0 192.5 57.5t75.5 150.5q0 78 -51.5 119.5t-145.5 41.5h-211zM284 -81q9 0 17 -6.5t8 -20.5q0 -10 -9 -27t-54 -92
h-18l57 98q-26 0 -26 23q0 11 7 18t18 7z" />
    <glyph glyph-name="Q.ss03" horiz-adv-x="852" 
d="M508 692q130 0 214 -86t84 -215q0 -107 -60 -200.5t-157.5 -148t-204.5 -54.5q-130 0 -214 86t-84 215q0 107 60 200.5t157.5 148t204.5 54.5zM387 9q101 0 192.5 51t148 139.5t56.5 188.5q0 121 -78.5 202t-200.5 81q-101 0 -192.5 -51t-148 -139.5t-56.5 -188.5
q0 -121 78.5 -202t200.5 -81zM383 -99l324 -87l-8 -23q-123 32 -323 93z" />
    <glyph glyph-name="i.loclTRK" horiz-adv-x="247" 
d="M195 606q-10 0 -16.5 6.5t-6.5 16.5t6.5 16.5t16.5 6.5t16.5 -6.5t6.5 -16.5t-6.5 -16.5t-16.5 -6.5zM152 450h21l-79 -450h-21z" />
    <glyph glyph-name="germandbls.case" horiz-adv-x="716" 
d="M705 680l-3 -16l-307 -295h52q89 0 141.5 -43t52.5 -114q0 -98 -81 -161t-204 -63q-61 0 -121 17l4 22q57 -19 122 -19q112 0 184.5 56.5t72.5 144.5q0 64 -47 102t-127 38h-87l1 11l313 300h-278q-88 0 -151 -53.5t-79 -142.5l-82 -464h-21l82 464q17 97 87 156.5
t168 59.5h308z" />
    <glyph glyph-name="l.ss01" horiz-adv-x="333" 
d="M207 710l-106 -599q-19 -106 67 -106q28 0 79 11l1 -19q-50 -12 -83 -12q-107 0 -85 126l106 599h21z" />
    <glyph glyph-name="lacute.ss01" horiz-adv-x="333" 
d="M315 945h25l-112 -136h-24zM207 710l-106 -599q-19 -106 67 -106q28 0 79 11l1 -19q-50 -12 -83 -12q-107 0 -85 126l106 599h21z" />
    <glyph glyph-name="lcaron.ss01" horiz-adv-x="333" 
d="M207 710l-106 -599q-19 -106 67 -106q28 0 79 11l1 -19q-50 -12 -83 -12q-107 0 -85 126l106 599h21zM307 710h22l-47 -170h-19z" />
    <glyph glyph-name="lcommaaccent.ss01" horiz-adv-x="333" 
d="M207 710l-106 -599q-19 -106 67 -106q28 0 79 11l1 -19q-50 -12 -83 -12q-107 0 -85 126l106 599h21zM86 -227l57 98q-26 0 -26 23q0 11 7 18t18 7q9 0 17 -6.5t8 -20.5q0 -10 -9 -27t-54 -92h-18z" />
    <glyph glyph-name="ldot.ss01" horiz-adv-x="333" 
d="M207 710l-106 -599q-19 -106 67 -106q28 0 79 11l1 -19q-50 -12 -83 -12q-107 0 -85 126l106 599h21zM242 280q-10 0 -17.5 7t-7.5 18t7.5 18t17.5 7t17.5 -7t7.5 -18t-7.5 -18t-17.5 -7z" />
    <glyph glyph-name="lslash.ss01" horiz-adv-x="333" 
d="M168 5q28 0 79 11l1 -19q-50 -12 -83 -12q-107 0 -85 126l37 211l-69 -38l5 25l69 38l64 363h21l-62 -351l107 59l-5 -25l-106 -58l-40 -224q-19 -106 67 -106z" />
    <glyph glyph-name="y.ss04" horiz-adv-x="596" 
d="M509 450h21l-84 -481q-17 -92 -81 -145.5t-157 -53.5q-81 0 -129.5 40.5t-53.5 105.5h23q5 -56 48 -91t115 -35q84 0 141.5 48t72.5 131l18 104q-38 -41 -92.5 -63t-110.5 -22q-90 0 -133 50t-27 140l48 272h21l-48 -272q-15 -81 23 -125.5t119 -44.5q58 0 114 26.5
t92 73.5z" />
    <glyph glyph-name="yacute.ss04" horiz-adv-x="596" 
d="M457 685l-112 -136h-24l111 136h25zM509 450h21l-84 -481q-17 -92 -81 -145.5t-157 -53.5q-81 0 -129.5 40.5t-53.5 105.5h23q5 -56 48 -91t115 -35q84 0 141.5 48t72.5 131l18 104q-38 -41 -92.5 -63t-110.5 -22q-90 0 -133 50t-27 140l48 272h21l-48 -272
q-15 -81 23 -125.5t119 -44.5q58 0 114 26.5t92 73.5z" />
    <glyph glyph-name="ycircumflex.ss04" horiz-adv-x="596" 
d="M381 666l-139 -122h-31l153 136h36l101 -136h-26zM509 450h21l-84 -481q-17 -92 -81 -145.5t-157 -53.5q-81 0 -129.5 40.5t-53.5 105.5h23q5 -56 48 -91t115 -35q84 0 141.5 48t72.5 131l18 104q-38 -41 -92.5 -63t-110.5 -22q-90 0 -133 50t-27 140l48 272h21l-48 -272
q-15 -81 23 -125.5t119 -44.5q58 0 114 26.5t92 73.5z" />
    <glyph glyph-name="ydieresis.ss04" horiz-adv-x="596" 
d="M259 594q-11 0 -18 7t-7 18t7 18t18 7t18 -7t7 -18t-7 -18t-18 -7zM425 594q-11 0 -18 7t-7 18t7 18t18 7t18 -7t7 -18t-7 -18t-18 -7zM509 450h21l-84 -481q-17 -92 -81 -145.5t-157 -53.5q-81 0 -129.5 40.5t-53.5 105.5h23q5 -56 48 -91t115 -35q84 0 141.5 48
t72.5 131l18 104q-38 -41 -92.5 -63t-110.5 -22q-90 0 -133 50t-27 140l48 272h21l-48 -272q-15 -81 23 -125.5t119 -44.5q58 0 114 26.5t92 73.5z" />
    <glyph glyph-name="ygrave.ss04" horiz-adv-x="596" 
d="M341 550h-24l-88 136h25zM509 450h21l-84 -481q-17 -92 -81 -145.5t-157 -53.5q-81 0 -129.5 40.5t-53.5 105.5h23q5 -56 48 -91t115 -35q84 0 141.5 48t72.5 131l18 104q-38 -41 -92.5 -63t-110.5 -22q-90 0 -133 50t-27 140l48 272h21l-48 -272q-15 -81 23 -125.5
t119 -44.5q58 0 114 26.5t92 73.5z" />
    <glyph glyph-name="a.ss06" horiz-adv-x="549" 
d="M314 462q93 0 136 -58t25 -157l-43 -247h-22l11 63q-95 -75 -215 -75q-74 0 -117 31.5t-43 86.5q0 60 48.5 100.5t134.5 40.5h224q17 90 -21 142.5t-121 52.5q-144 0 -180 -132h-24q43 152 207 152zM212 10q121 0 214 81l23 135h-223q-75 0 -116 -33.5t-41 -82.5
q0 -46 38.5 -73t104.5 -27z" />
    <glyph glyph-name="aacute.ss06" horiz-adv-x="549" 
d="M462 685l-112 -136h-24l111 136h25zM314 462q93 0 136 -58t25 -157l-43 -247h-22l11 63q-95 -75 -215 -75q-74 0 -117 31.5t-43 86.5q0 60 48.5 100.5t134.5 40.5h224q17 90 -21 142.5t-121 52.5q-144 0 -180 -132h-24q43 152 207 152zM212 10q121 0 214 81l23 135h-223
q-75 0 -116 -33.5t-41 -82.5q0 -46 38.5 -73t104.5 -27z" />
    <glyph glyph-name="abreve.ss06" horiz-adv-x="549" 
d="M315 541q-52 0 -86 33t-24 91h20q-8 -50 20.5 -77.5t70.5 -27.5q41 0 80 28t47 77h22q-10 -59 -54 -91.5t-96 -32.5zM314 462q93 0 136 -58t25 -157l-43 -247h-22l11 63q-95 -75 -215 -75q-74 0 -117 31.5t-43 86.5q0 60 48.5 100.5t134.5 40.5h224q17 90 -21 142.5
t-121 52.5q-144 0 -180 -132h-24q43 152 207 152zM212 10q121 0 214 81l23 135h-223q-75 0 -116 -33.5t-41 -82.5q0 -46 38.5 -73t104.5 -27z" />
    <glyph glyph-name="uni01CE.ss06" horiz-adv-x="549" 
d="M363 544h-35l-103 136h26l95 -122l138 122h30zM314 462q93 0 136 -58t25 -157l-43 -247h-22l11 63q-95 -75 -215 -75q-74 0 -117 31.5t-43 86.5q0 60 48.5 100.5t134.5 40.5h224q17 90 -21 142.5t-121 52.5q-144 0 -180 -132h-24q43 152 207 152zM212 10q121 0 214 81
l23 135h-223q-75 0 -116 -33.5t-41 -82.5q0 -46 38.5 -73t104.5 -27z" />
    <glyph glyph-name="acircumflex.ss06" horiz-adv-x="545" 
d="M366 666l-139 -122h-31l153 136h36l101 -136h-26zM314 462q93 0 136 -58t25 -157l-43 -247h-22l11 63q-95 -75 -215 -75q-74 0 -117 31.5t-43 86.5q0 60 48.5 100.5t134.5 40.5h224q17 90 -21 142.5t-121 52.5q-144 0 -180 -132h-24q43 152 207 152zM212 10q121 0 214 81
l23 135h-223q-75 0 -116 -33.5t-41 -82.5q0 -46 38.5 -73t104.5 -27z" />
    <glyph glyph-name="adieresis.ss06" horiz-adv-x="549" 
d="M264 594q-10 0 -17.5 7t-7.5 18t7.5 18t17.5 7t17.5 -7t7.5 -18t-7.5 -18t-17.5 -7zM430 594q-10 0 -17.5 7t-7.5 18t7.5 18t17.5 7t17.5 -7t7.5 -18t-7.5 -18t-17.5 -7zM314 462q93 0 136 -58t25 -157l-43 -247h-22l11 63q-95 -75 -215 -75q-74 0 -117 31.5t-43 86.5
q0 60 48.5 100.5t134.5 40.5h224q17 90 -21 142.5t-121 52.5q-144 0 -180 -132h-24q43 152 207 152zM212 10q121 0 214 81l23 135h-223q-75 0 -116 -33.5t-41 -82.5q0 -46 38.5 -73t104.5 -27z" />
    <glyph glyph-name="agrave.ss06" horiz-adv-x="549" 
d="M346 550h-24l-88 136h25zM314 462q93 0 136 -58t25 -157l-43 -247h-22l11 63q-95 -75 -215 -75q-74 0 -117 31.5t-43 86.5q0 60 48.5 100.5t134.5 40.5h224q17 90 -21 142.5t-121 52.5q-144 0 -180 -132h-24q43 152 207 152zM212 10q121 0 214 81l23 135h-223
q-75 0 -116 -33.5t-41 -82.5q0 -46 38.5 -73t104.5 -27z" />
    <glyph glyph-name="amacron.ss06" horiz-adv-x="545" 
d="M484 588l-4 -18h-276l4 18h276zM314 462q93 0 136 -58t25 -157l-43 -247h-22l11 63q-95 -75 -215 -75q-74 0 -117 31.5t-43 86.5q0 60 48.5 100.5t134.5 40.5h224q17 90 -21 142.5t-121 52.5q-144 0 -180 -132h-24q43 152 207 152zM212 10q121 0 214 81l23 135h-223
q-75 0 -116 -33.5t-41 -82.5q0 -46 38.5 -73t104.5 -27z" />
    <glyph glyph-name="aogonek.ss06" horiz-adv-x="549" 
d="M432 0q-22 -10 -36 -18.5t-30.5 -21.5t-25 -30t-8.5 -37q0 -35 26 -55.5t69 -20.5q12 0 28 2l2 -21q-14 -3 -33 -3q-51 0 -82.5 26.5t-31.5 69.5q0 72 102 123l9 49q-95 -75 -215 -75q-74 0 -117 31.5t-43 86.5q0 60 48.5 100.5t134.5 40.5h224q17 90 -21 142.5
t-121 52.5q-144 0 -180 -132h-24q43 152 207 152q93 0 136 -58t25 -157zM212 10q121 0 214 81l23 135h-223q-75 0 -116 -33.5t-41 -82.5q0 -46 38.5 -73t104.5 -27z" />
    <glyph glyph-name="aring.ss06" horiz-adv-x="545" 
d="M337 547q-37 0 -62 24.5t-25 61.5t25 61.5t62 24.5t62 -24.5t25 -61.5t-25 -61.5t-62 -24.5zM337 701q-28 0 -48 -20t-20 -48q0 -29 19.5 -48.5t48.5 -19.5t48.5 19.5t19.5 48.5q0 28 -20 48t-48 20zM314 462q93 0 136 -58t25 -157l-43 -247h-22l11 63q-95 -75 -215 -75
q-74 0 -117 31.5t-43 86.5q0 60 48.5 100.5t134.5 40.5h224q17 90 -21 142.5t-121 52.5q-144 0 -180 -132h-24q43 152 207 152zM212 10q121 0 214 81l23 135h-223q-75 0 -116 -33.5t-41 -82.5q0 -46 38.5 -73t104.5 -27z" />
    <glyph glyph-name="atilde.ss06" horiz-adv-x="545" 
d="M317 632q-29 23 -61 13.5t-32 -48.5h-19q0 35 21 53t49.5 16.5t51.5 -18.5l37 -26q34 -25 64 -15t30 50h19q0 -54 -41 -68.5t-81 16.5zM314 462q93 0 136 -58t25 -157l-43 -247h-22l11 63q-95 -75 -215 -75q-74 0 -117 31.5t-43 86.5q0 60 48.5 100.5t134.5 40.5h224
q17 90 -21 142.5t-121 52.5q-144 0 -180 -132h-24q43 152 207 152zM212 10q121 0 214 81l23 135h-223q-75 0 -116 -33.5t-41 -82.5q0 -46 38.5 -73t104.5 -27z" />
    <glyph glyph-name="zero.osf" horiz-adv-x="689" 
d="M400 546q102 0 163.5 -62t61.5 -167q0 -144 -94 -236.5t-229 -92.5q-102 0 -163.5 62t-61.5 167q0 144 94 236.5t229 92.5zM305 8q124 0 210 86t86 220q0 97 -55.5 154.5t-148.5 57.5q-124 0 -210 -86t-86 -220q0 -97 55.5 -154.5t148.5 -57.5z" />
    <glyph glyph-name="one.osf" horiz-adv-x="496" 
d="M235 20h190l-4 -20h-421l4 20h210l88 504l-208 -77l4 23l220 80h10z" />
    <glyph glyph-name="two.osf" horiz-adv-x="537" 
d="M218 116l-155 -96h379l-3 -20h-428l2 13l190 117q138 85 177 118q89 72 89 153q0 64 -42 99t-115 35q-81 0 -142.5 -44.5t-83.5 -117.5h-21q21 82 89 132t160 50q83 0 130 -39.5t47 -111.5q0 -29 -7.5 -54.5t-27 -50t-38.5 -44t-56 -45.5t-65 -44t-79 -50z" />
    <glyph glyph-name="three.osf" horiz-adv-x="587" 
d="M363 205q52 -16 81 -54t29 -91q0 -94 -72.5 -153t-185.5 -59q-99 0 -157.5 45t-51.5 117h22q-4 -64 47.5 -103t139.5 -39q103 0 169.5 53t66.5 136q0 63 -43.5 100.5t-118.5 37.5h-59l3 20h59q86 0 142.5 51.5t56.5 131.5q0 62 -43.5 98t-120.5 36t-134 -36.5t-76 -98.5
h-23q20 71 83 113t151 42q87 0 136 -40.5t49 -110.5t-41 -122.5t-109 -73.5z" />
    <glyph glyph-name="four.osf" horiz-adv-x="646" 
d="M545 52l-4 -20h-124l-29 -162h-21l29 162h-381l3 13l309 505h23l-303 -498h352l42 238h21l-42 -238h125z" />
    <glyph glyph-name="five.osf" horiz-adv-x="579" 
d="M545 523h-376l-63 -257h205q92 0 144.5 -45.5t52.5 -122.5q0 -103 -77 -175t-193 -72q-106 0 -166 50t-62 139h23q2 -80 57 -124.5t151 -44.5q105 0 175 65.5t70 158.5q0 69 -47.5 110t-132.5 41l-226 -1l73 298h395z" />
    <glyph glyph-name="six.osf" horiz-adv-x="632" 
d="M354 445q92 0 148.5 -52.5t56.5 -138.5q0 -116 -83.5 -191t-202.5 -75q-92 0 -148 52t-56 139q0 97 78 183l298 318h31l-250 -263q63 28 128 28zM277 8q107 0 183 68.5t76 173.5q0 79 -51 127t-134 48q-105 0 -177 -63l-12 -13q-70 -70 -70 -167q0 -79 50.5 -126.5
t134.5 -47.5z" />
    <glyph glyph-name="seven.osf" horiz-adv-x="502" 
d="M83 540h456l-2 -14l-463 -666h-28l461 660h-427z" />
    <glyph glyph-name="eight.osf" horiz-adv-x="638" 
d="M418 359q66 -14 103 -54t37 -96q0 -97 -80 -159t-202 -62q-98 0 -155 45t-57 122q0 78 55 132.5t147 72.5q-53 15 -82.5 49t-29.5 84q0 84 72.5 141.5t174.5 57.5q83 0 134 -42.5t51 -109.5q0 -69 -46 -116.5t-122 -64.5zM175 495q0 -60 46 -94t122 -34q95 0 158 46
t63 124q0 60 -46 98t-120 38q-91 0 -157 -52t-66 -126zM279 8q111 0 183.5 56t72.5 143q0 65 -53 104.5t-142 39.5q-111 0 -182.5 -53.5t-71.5 -139.5q0 -69 52 -109.5t141 -40.5z" />
    <glyph glyph-name="nine.osf" horiz-adv-x="632" 
d="M371 536q92 0 148 -52t56 -139q0 -97 -78 -183l-298 -318h-31l250 263q-63 -28 -128 -28q-92 0 -148.5 52.5t-56.5 138.5q0 116 83.5 191t202.5 75zM482 175q70 70 70 167q0 79 -50.5 126.5t-134.5 47.5q-107 0 -183 -68.5t-76 -173.5q0 -79 51 -127t134 -48
q105 0 177 63z" />
    <glyph glyph-name="zero.osf.zero" horiz-adv-x="689" 
d="M400 546q102 0 163.5 -62t61.5 -167q0 -144 -94 -236.5t-229 -92.5q-102 0 -163.5 62t-61.5 167q0 144 94 236.5t229 92.5zM397 526q-124 0 -210 -86t-86 -220q0 -67 28 -117l435 343q-56 80 -167 80zM305 8q124 0 210 86t86 220q0 65 -27 116l-434 -344q55 -78 165 -78z
" />
    <glyph glyph-name="zero.tf" horiz-adv-x="670" 
d="M418 692q98 0 153.5 -73t55.5 -198q0 -186 -96.5 -309.5t-238.5 -123.5q-98 0 -153.5 73t-55.5 198q0 186 96.5 309.5t238.5 123.5zM296 8q130 0 219 117.5t89 293.5q0 117 -50.5 185t-139.5 68q-130 0 -219 -117.5t-89 -293.5q0 -117 50.5 -185t139.5 -68z" />
    <glyph glyph-name="one.tf" horiz-adv-x="670" 
d="M536 20l-4 -20h-461l4 20h217l111 634l-208 -77l4 23l220 80h10l-116 -660h223z" />
    <glyph glyph-name="two.tf" horiz-adv-x="670" 
d="M377 226l-250 -206h396l-4 -20h-438l3 13l277 227q53 43 78.5 65t56 52.5t43.5 52.5t22 50.5t9 60.5q0 68 -45 109.5t-123 41.5q-82 0 -145.5 -43.5t-85.5 -115.5h-21q21 81 91 130t163 49q88 0 138.5 -46t50.5 -122q0 -42 -10 -74t-39.5 -68t-64 -68t-102.5 -88z" />
    <glyph glyph-name="three.tf" horiz-adv-x="670" 
d="M440 345q52 -16 81 -54t29 -91q0 -94 -72.5 -153t-185.5 -59q-99 0 -157.5 45t-51.5 117h22q-4 -64 47.5 -103t139.5 -39q103 0 169.5 53t66.5 136q0 63 -43.5 100.5t-118.5 37.5h-59l3 20h59q86 0 142.5 51.5t56.5 131.5q0 62 -43.5 98t-120.5 36t-134 -36.5t-76 -98.5
h-23q20 71 83 113t151 42q87 0 136 -40.5t49 -110.5t-41 -122.5t-109 -73.5z" />
    <glyph glyph-name="four.tf" horiz-adv-x="670" 
d="M590 182l-4 -20h-124l-29 -162h-21l29 162h-381l3 13l309 505h23l-303 -498h352l42 238h21l-42 -238h125z" />
    <glyph glyph-name="five.tf" horiz-adv-x="670" 
d="M612 660h-376l-63 -257h205q92 0 144.5 -45.5t52.5 -122.5q0 -103 -77 -175t-193 -72q-106 0 -166 50t-62 139h23q2 -80 57 -124.5t151 -44.5q105 0 175 65.5t70 158.5q0 69 -47.5 110t-132.5 41l-226 -1l73 298h395z" />
    <glyph glyph-name="six.tf" horiz-adv-x="670" 
d="M362 445q92 0 148.5 -52.5t56.5 -138.5q0 -116 -83.5 -191t-202.5 -75q-92 0 -148 52t-56 139q0 97 78 183l298 318h31l-250 -263q63 28 128 28zM285 8q107 0 183 68.5t76 173.5q0 79 -51 127t-134 48q-105 0 -177 -63l-12 -13q-70 -70 -70 -167q0 -79 50.5 -126.5
t134.5 -47.5z" />
    <glyph glyph-name="seven.tf" horiz-adv-x="670" 
d="M187 680h456l-2 -14l-463 -666h-28l461 660h-427z" />
    <glyph glyph-name="eight.tf" horiz-adv-x="670" 
d="M434 359q66 -14 103 -54t37 -96q0 -97 -80 -159t-202 -62q-98 0 -155 45t-57 122q0 78 55 132.5t147 72.5q-53 15 -82.5 49t-29.5 84q0 84 72.5 141.5t174.5 57.5q83 0 134 -42.5t51 -109.5q0 -69 -46 -116.5t-122 -64.5zM191 495q0 -60 46 -94t122 -34q95 0 158 46
t63 124q0 60 -46 98t-120 38q-91 0 -157 -52t-66 -126zM295 8q111 0 183.5 56t72.5 143q0 65 -53 104.5t-142 39.5q-111 0 -182.5 -53.5t-71.5 -139.5q0 -69 52 -109.5t141 -40.5z" />
    <glyph glyph-name="nine.tf" horiz-adv-x="670" 
d="M411 692q92 0 148 -52t56 -139q0 -97 -78 -183l-298 -318h-31l250 263q-63 -28 -128 -28q-92 0 -148.5 52.5t-56.5 138.5q0 116 83.5 191t202.5 75zM522 331q70 70 70 167q0 79 -50.5 126.5t-134.5 47.5q-107 0 -183 -68.5t-76 -173.5q0 -79 51 -127t134 -48
q105 0 177 63z" />
    <glyph glyph-name="zero.zero" horiz-adv-x="714" 
d="M440 692q110 0 169.5 -73t59.5 -199q0 -187 -98.5 -309.5t-256.5 -122.5q-110 0 -169.5 73t-59.5 199q0 187 98.5 309.5t256.5 122.5zM436 672q-146 0 -237 -116t-91 -293q0 -79 24 -136l476 453q-55 92 -172 92zM318 8q146 0 237 116t91 293q0 85 -29 146l-475 -456
q53 -99 176 -99z" />
    <glyph glyph-name="zero.dnom" horiz-adv-x="422" 
d="M237 368q63 0 97.5 -41.5t34.5 -108.5q0 -95 -55.5 -160.5t-142.5 -65.5q-63 0 -97.5 42t-34.5 109q0 93 56 159t142 66zM174 12q76 0 124.5 59.5t48.5 143.5q0 59 -29.5 96.5t-83.5 37.5q-75 0 -124 -60t-49 -143q0 -60 29.5 -97t83.5 -37z" />
    <glyph glyph-name="one.dnom" horiz-adv-x="288" 
d="M126 19h104l-4 -19h-238l4 19h113l56 317l-112 -38l3 20l124 42h11z" />
    <glyph glyph-name="two.dnom" horiz-adv-x="353" 
d="M181 118l-123 -99h206l-3 -19h-245l2 12l147 118q45 36 64.5 53.5t34.5 41.5t15 50q0 33 -22.5 53.5t-62.5 20.5q-42 0 -72 -22t-41 -59h-21q12 46 48 73t88 27q49 0 76.5 -25t27.5 -65t-25.5 -72.5t-93.5 -87.5z" />
    <glyph glyph-name="three.dnom" horiz-adv-x="364" 
d="M228 182q56 -19 56 -75q0 -50 -40 -81.5t-104 -31.5q-56 0 -88.5 24.5t-29.5 64.5h22q-2 -32 24.5 -51t72.5 -19q53 0 87.5 25.5t34.5 66.5q0 31 -23.5 49.5t-63.5 18.5h-33l4 18h33v-1v1q44 0 73.5 25.5t29.5 64.5q0 31 -23 49.5t-63 18.5q-41 0 -69.5 -18.5
t-39.5 -50.5h-21q12 40 47.5 64t85.5 24q48 0 75.5 -23t27.5 -61q0 -36 -20 -63t-55 -39z" />
    <glyph glyph-name="four.dnom" horiz-adv-x="388" 
d="M317 103l-4 -20h-67l-14 -83h-20l14 83h-211l3 14l167 263h22l-161 -257h184l21 122h20l-21 -122h67z" />
    <glyph glyph-name="five.dnom" horiz-adv-x="365" 
d="M314 341h-209l-26 -144h-20l29 163h229zM274 122q0 34 -25.5 55t-69.5 21l-100 -1l4 20h101q52 0 81.5 -25t29.5 -67q0 -55 -42.5 -94t-108.5 -39q-52 0 -84.5 28t-33.5 75h22q1 -38 28.5 -61t70.5 -23q55 0 91 32.5t36 78.5z" />
    <glyph glyph-name="six.dnom" horiz-adv-x="358" 
d="M179 238q52 0 84 -28t32 -75q0 -61 -46.5 -102t-113.5 -41q-52 0 -84.5 29t-32.5 76q0 49 44 98l159 165h26l-125 -132q28 10 57 10zM138 11q55 0 95 34t40 85q0 39 -27.5 63.5t-70.5 24.5q-58 0 -92 -31l-5 -5q-38 -34 -38 -83q0 -39 27 -63.5t71 -24.5z" />
    <glyph glyph-name="seven.dnom" horiz-adv-x="291" 
d="M45 360h256l-3 -13l-248 -347h-26l243 340h-226z" />
    <glyph glyph-name="eight.dnom" horiz-adv-x="377" 
d="M235 190q69 -21 69 -79q0 -52 -44.5 -85.5t-114.5 -33.5q-56 0 -88.5 25t-32.5 66q0 40 28 68.5t75 39.5q-55 19 -55 69q0 45 41 76.5t98 31.5q48 0 78 -23.5t30 -59.5q0 -35 -23 -59.5t-61 -35.5zM94 262q0 -30 24 -47.5t64 -17.5q50 0 82.5 23.5t32.5 61.5
q0 29 -24 48.5t-64 19.5q-47 0 -81 -25.5t-34 -62.5zM148 11q58 0 95.5 28t37.5 71q0 32 -27.5 52t-74.5 20q-57 0 -94 -26.5t-37 -68.5q0 -34 27 -55t73 -21z" />
    <glyph glyph-name="nine.dnom" horiz-adv-x="358" 
d="M223 369q52 0 84.5 -29t32.5 -76q0 -49 -44 -98l-159 -165h-26l125 132q-28 -10 -57 -10q-52 0 -84 28t-32 75q0 61 46.5 102t113.5 41zM280 179q38 34 38 83q0 39 -27 63.5t-71 24.5q-55 0 -95 -34t-40 -85q0 -39 27.5 -63.5t70.5 -24.5q58 0 92 31z" />
    <glyph glyph-name="zero.numr" horiz-adv-x="422" 
d="M294 690q63 0 97.5 -41.5t34.5 -108.5q0 -95 -55.5 -160.5t-142.5 -65.5q-63 0 -97.5 42t-34.5 109q0 93 56 159t142 66zM231 334q76 0 124.5 59.5t48.5 143.5q0 59 -29.5 96.5t-83.5 37.5q-75 0 -124 -60t-49 -143q0 -60 29.5 -97t83.5 -37z" />
    <glyph glyph-name="one.numr" horiz-adv-x="288" 
d="M183 341h104l-4 -19h-238l4 19h113l56 317l-112 -38l3 20l124 42h11z" />
    <glyph glyph-name="two.numr" horiz-adv-x="353" 
d="M238 440l-123 -99h206l-3 -19h-245l2 12l147 118q45 36 64.5 53.5t34.5 41.5t15 50q0 33 -22.5 53.5t-62.5 20.5q-42 0 -72 -22t-41 -59h-21q12 46 48 73t88 27q49 0 76.5 -25t27.5 -65t-25.5 -72.5t-93.5 -87.5z" />
    <glyph glyph-name="three.numr" horiz-adv-x="364" 
d="M285 508q56 -19 56 -75q0 -50 -40 -81.5t-104 -31.5q-56 0 -88.5 24.5t-29.5 64.5h22q-2 -32 24.5 -51t72.5 -19q53 0 87.5 25.5t34.5 66.5q0 31 -23.5 49.5t-63.5 18.5h-33l4 18h33v-1v1q44 0 73.5 25.5t29.5 64.5q0 31 -23 49.5t-63 18.5q-41 0 -69.5 -18.5
t-39.5 -50.5h-21q12 40 47.5 64t85.5 24q48 0 75.5 -23t27.5 -61q0 -36 -20 -63t-55 -39z" />
    <glyph glyph-name="four.numr" horiz-adv-x="388" 
d="M374 425l-4 -20h-67l-14 -83h-20l14 83h-211l3 14l167 263h22l-161 -257h184l21 122h20l-21 -122h67z" />
    <glyph glyph-name="five.numr" horiz-adv-x="365" 
d="M371 663h-209l-26 -144h-20l29 163h229zM331 444q0 34 -25.5 55t-69.5 21l-100 -1l4 20h101q52 0 81.5 -25t29.5 -67q0 -55 -42.5 -94t-108.5 -39q-52 0 -84.5 28t-33.5 75h22q1 -38 28.5 -61t70.5 -23q55 0 91 32.5t36 78.5z" />
    <glyph glyph-name="six.numr" horiz-adv-x="358" 
d="M236 560q52 0 84 -28t32 -75q0 -61 -46.5 -102t-113.5 -41q-52 0 -84.5 29t-32.5 76q0 49 44 98l159 165h26l-125 -132q28 10 57 10zM195 333q55 0 95 34t40 85q0 39 -27.5 63.5t-70.5 24.5q-58 0 -92 -31l-5 -5q-38 -34 -38 -83q0 -39 27 -63.5t71 -24.5z" />
    <glyph glyph-name="seven.numr" horiz-adv-x="291" 
d="M102 682h256l-3 -13l-248 -347h-26l243 340h-226z" />
    <glyph glyph-name="eight.numr" horiz-adv-x="377" 
d="M292 516q69 -21 69 -79q0 -52 -44.5 -85.5t-114.5 -33.5q-56 0 -88.5 25t-32.5 66q0 40 28 68.5t75 39.5q-55 19 -55 69q0 45 41 76.5t98 31.5q48 0 78 -23.5t30 -59.5q0 -35 -23 -59.5t-61 -35.5zM151 588q0 -30 24 -47.5t64 -17.5q50 0 82.5 23.5t32.5 61.5
q0 29 -24 48.5t-64 19.5q-47 0 -81 -25.5t-34 -62.5zM205 337q58 0 95.5 28t37.5 71q0 32 -27.5 52t-74.5 20q-57 0 -94 -26.5t-37 -68.5q0 -34 27 -55t73 -21z" />
    <glyph glyph-name="nine.numr" horiz-adv-x="358" 
d="M280 695q52 0 84.5 -29t32.5 -76q0 -49 -44 -98l-159 -165h-26l125 132q-28 -10 -57 -10q-52 0 -84 28t-32 75q0 61 46.5 102t113.5 41zM337 505q38 34 38 83q0 39 -27 63.5t-71 24.5q-55 0 -95 -34t-40 -85q0 -39 27.5 -63.5t70.5 -24.5q58 0 92 31z" />
    <glyph glyph-name="backslash.case" horiz-adv-x="347" 
d="M295 -47l-245 777h22l245 -777h-22z" />
    <glyph glyph-name="periodcentered.case" horiz-adv-x="146" 
d="M92 310q-10 0 -16.5 6.5t-6.5 16.5t6.5 16.5t16.5 6.5t16.5 -6.5t6.5 -16.5t-6.5 -16.5t-16.5 -6.5z" />
    <glyph glyph-name="bullet.case" horiz-adv-x="305" 
d="M173 235q-39 0 -68 29t-29 68t29 68t68 29q40 0 69 -29t29 -68t-29 -68t-69 -29z" />
    <glyph glyph-name="exclamdown.case" horiz-adv-x="247" 
d="M201 688q10 0 16.5 -6.5t6.5 -16.5t-6.5 -16.5t-16.5 -6.5t-16.5 6.5t-6.5 16.5t6.5 16.5t16.5 6.5zM73 0l92 520h22l-92 -520h-22z" />
    <glyph glyph-name="questiondown.case" 
d="M394 642q-10 0 -16.5 6.5t-6.5 16.5t6.5 16.5t16.5 6.5t16.5 -6.5t6.5 -16.5t-6.5 -16.5t-16.5 -6.5zM261 -15q-83 0 -133 50t-50 125q0 96 75 165.5t183 69.5l20 114h20l-20 -134h-23q-96 0 -164.5 -63t-68.5 -148q0 -68 45.5 -113.5t119.5 -45.5q62 0 119 37t81 96h22
q-27 -69 -91 -111t-135 -42z" />
    <glyph glyph-name="slash.case" horiz-adv-x="367" 
d="M14 -47h-22l381 777h22z" />
    <glyph glyph-name="braceleft.case" horiz-adv-x="359" 
d="M228 500q-23 -129 -98 -156q66 -27 43 -156l-14 -79q-11 -66 13.5 -106t76.5 -40l-3 -20q-62 0 -91.5 45.5t-16.5 120.5l14 79q14 79 -6.5 112.5t-83.5 33.5l3 20q63 0 96 33.5t46 112.5l14 79q14 75 59.5 120.5t106.5 45.5l-3 -20q-51 0 -91 -43t-51 -103z" />
    <glyph glyph-name="braceright.case" horiz-adv-x="358" 
d="M172 188q23 129 98 156q-66 27 -43 156l14 79q11 66 -13.5 106t-76.5 40l3 20q62 0 91.5 -45.5t16.5 -120.5l-14 -79q-14 -79 6.5 -112.5t83.5 -33.5l-3 -20q-63 0 -96 -33.5t-46 -112.5l-14 -79q-13 -75 -59 -120.5t-107 -45.5l3 20q51 0 91 43t51 103z" />
    <glyph glyph-name="bracketleft.case" horiz-adv-x="342" 
d="M222 710l-130 -740h131l-4 -20h-152l138 780h152l-4 -20h-131z" />
    <glyph glyph-name="bracketright.case" horiz-adv-x="342" 
d="M161 -30l130 740h-131l4 20h152l-138 -780h-152l4 20h131z" />
    <glyph glyph-name="parenleft.case" horiz-adv-x="357" 
d="M359 708q-106 -76 -166.5 -166.5t-83.5 -215.5q-47 -220 117 -372l-15 -15q-83 72 -115 174t-8 216q47 252 261 394z" />
    <glyph glyph-name="parenright.case" horiz-adv-x="357" 
d="M183 723q83 -72 115 -174t8 -216q-47 -252 -261 -394l-10 15q106 76 166.5 166.5t83.5 215.5q47 220 -117 372z" />
    <glyph glyph-name="emdash.case" horiz-adv-x="951" 
d="M139 331h710l4 21h-710z" />
    <glyph glyph-name="endash.case" horiz-adv-x="738" 
d="M139 330h497l4 21h-497z" />
    <glyph glyph-name="hyphen.case" horiz-adv-x="555" 
d="M139 331h314l4 19h-314z" />
    <glyph glyph-name="guillemotleft.case" horiz-adv-x="404" 
d="M208 486h26l-147 -146l96 -142h-25l-97 144zM348 486h26l-147 -146l96 -142h-25l-97 144z" />
    <glyph glyph-name="guillemotright.case" horiz-adv-x="404" 
d="M98 198h-26l147 146l-96 142h25l97 -144zM238 198h-26l147 146l-96 142h25l97 -144z" />
    <glyph glyph-name="guilsinglleft.case" horiz-adv-x="264" 
d="M208 486h26l-147 -146l96 -142h-25l-97 144z" />
    <glyph glyph-name="guilsinglright.case" horiz-adv-x="264" 
d="M98 198h-26l147 146l-96 142h25l97 -144z" />
    <glyph glyph-name="cent.tf" horiz-adv-x="670" 
d="M378 442q-93 0 -162.5 -62.5t-86.5 -154.5q-16 -92 31.5 -154.5t140.5 -62.5q67 0 121 33.5t78 90.5h23q-27 -66 -88 -105t-138 -39h-3l-23 -129h-21l23 130q-91 9 -137 75.5t-29 160.5t86.5 160.5t163.5 75.5l24 138h21l-24 -137h4q76 0 122.5 -39t51.5 -105h-23
q-5 57 -46.5 90.5t-108.5 33.5z" />
    <glyph glyph-name="dollar.tf" horiz-adv-x="670" 
d="M409 692q107 -1 166.5 -50.5t57.5 -128.5h-22q-2 74 -57 116.5t-152 42.5q-105 0 -168 -48.5t-63 -120.5q0 -102 146 -130l97 -19q90 -18 128.5 -57.5t38.5 -106.5q0 -90 -72.5 -146t-197.5 -56q-18 0 -26 1l-23 -130h-21l23 131q-100 11 -151 67t-48 155h22
q-2 -100 56 -152t172 -52t179 49t65 128q0 59 -34 96.5t-120 53.5l-100 19q-156 29 -156 148q0 79 65.5 132.5t173.5 57.5l24 137h21z" />
    <glyph glyph-name="Euro.tf" horiz-adv-x="670" 
d="M471 695q72 0 121 -30t69 -85h-27q-18 45 -61.5 70t-105.5 25q-111 0 -192 -70.5t-115 -188.5h357l-9 -20h-354q-15 -68 -15 -130h313l-8 -20h-305q4 -111 58.5 -176t151.5 -65q117 0 184 78h29q-79 -98 -216 -98q-107 0 -166.5 70t-63.5 191h-57l3 20h54q0 62 15 130
h-46l4 20h48q35 127 123.5 203t210.5 76z" />
    <glyph glyph-name="florin.tf" horiz-adv-x="670" 
d="M564 685q34 0 79 -12l-8 -18q-42 10 -74 10q-99 0 -139 -126l-56 -179h172l-4 -20h-174l-78 -259q-45 -146 -163 -146q-34 0 -79 12l8 18q42 -10 74 -10q99 0 139 126l78 259h-130l4 20h132l56 179q47 146 163 146z" />
    <glyph glyph-name="uni20B9.tf" horiz-adv-x="670" 
d="M650 680l-3 -20h-257q105 -42 105 -153q0 -15 -1 -23h122l-4 -20h-121q-16 -90 -94.5 -142t-194.5 -52h-61l285 -270h-32l-285 270l4 20h93q105 0 176 46.5t86 127.5h-313l4 20h312q1 7 1 20q0 73 -54 114.5t-147 41.5h-93l3 20h469z" />
    <glyph glyph-name="sterling.tf" horiz-adv-x="670" 
d="M457 695q93 0 143.5 -51.5t43.5 -138.5h-22q5 78 -40.5 124t-128.5 46q-91 0 -155.5 -55t-80.5 -145l-29 -165h272l-4 -20h-271l-48 -270h419l-4 -20h-528l4 20h87l48 270h-88l4 20h87l29 165q17 99 89 159.5t173 60.5z" />
    <glyph glyph-name="yen.tf" horiz-adv-x="670" 
d="M352 257l-4 -23h193l-4 -21h-193l-14 -84h192l-3 -21h-193l-19 -108h-22l19 108h-193l3 21h194l14 84h-193l4 21h193l4 23l-165 423h25l155 -402l295 402h25z" />
    <glyph glyph-name="arrowup.ss05" horiz-adv-x="551" 
d="M175 587l236 -236l-236 -236l-15 14l222 222l-222 222z" />
    <glyph glyph-name="arrowright.ss05" horiz-adv-x="571" 
d="M391 573l-222 -222l222 -222l-15 -14l-236 236l236 236z" />
    <glyph glyph-name="arrowdown.ss05" horiz-adv-x="672" 
d="M558 427l14 -15l-236 -236l-236 236l14 15l222 -222z" />
    <glyph glyph-name="arrowleft.ss05" horiz-adv-x="672" 
d="M572 201l-14 -15l-222 222l-222 -222l-14 15l236 236z" />
    <glyph glyph-name="at.case" horiz-adv-x="946" 
d="M554 695q146 0 243.5 -96t97.5 -235q0 -102 -52 -176.5t-139 -74.5q-76 0 -85 72q-72 -79 -169 -79q-69 0 -113.5 44t-44.5 115q0 93 67.5 155.5t156.5 62.5q88 0 134 -67l9 48h21l-36 -204q-11 -62 2.5 -94.5t60.5 -32.5q72 0 118.5 66t46.5 160q0 132 -92 223.5
t-229 91.5q-111 0 -214 -56t-168.5 -154.5t-65.5 -211.5q0 -136 91 -227t227 -91q140 0 262 89l11 -18q-128 -92 -276 -92q-146 0 -242.5 95t-96.5 239q0 122 69 226.5t178 163t228 58.5zM455 126q93 0 163 80q0 22 5 54l23 129q-43 74 -131 74q-81 0 -141 -55.5t-60 -139.5
q0 -63 39.5 -102.5t101.5 -39.5z" />
    <glyph glyph-name="bar.case" horiz-adv-x="252" 
d="M204 730h22l-137 -777h-22z" />
    <glyph glyph-name="brokenbar.case" horiz-adv-x="253" 
d="M226 730l-59 -338h-22l59 338h22zM149 290l-60 -337h-22l60 337h22z" />
    <glyph glyph-name="registered.ss07" horiz-adv-x="878" 
d="M458 695q150 0 257 -102t107 -253t-107 -253t-257 -102t-257 102t-107 253t107 253t257 102zM458 4q140 0 242 97.5t102 238.5t-102 238.5t-242 97.5t-241.5 -97.5t-101.5 -238.5t101.5 -238.5t241.5 -97.5zM616 415q0 -52 -37.5 -84.5t-100.5 -36.5l147 -151h-26
l-145 151h-102v-151h-20v394h132q68 0 110 -33.5t42 -88.5zM352 519v-207h112q59 0 95.5 28.5t36.5 74.5q0 47 -36.5 75.5t-95.5 28.5h-112z" />
    <glyph glyph-name="caron.alt" 
d="M296 680h22l-47 -170h-19z" />
    <glyph glyph-name="acute.case" 
d="M411 896h25l-112 -136h-24z" />
    <glyph glyph-name="breve.case" 
d="M467 895q-10 -59 -54 -91.5t-96 -32.5t-86 33t-24 91h20q-8 -50 20.5 -77.5t70.5 -27.5q41 0 80 28t47 77h22z" />
    <glyph glyph-name="caron.case" 
d="M486 900h30l-151 -136h-35l-103 136h26l95 -122z" />
    <glyph glyph-name="circumflex.case" 
d="M436 764l-94 122l-139 -122h-31l153 136h36l101 -136h-26z" />
    <glyph glyph-name="dieresis.case" 
d="M237 834q11 0 18 -7t7 -18t-7 -18t-18 -7t-18 7t-7 18t7 18t18 7zM403 834q11 0 18 -7t7 -18t-7 -18t-18 -7t-18 7t-7 18t7 18t18 7z" />
    <glyph glyph-name="dotaccent.case" 
d="M330 784q-10 0 -17.5 7t-7.5 18t7.5 18t17.5 7t17.5 -7t7.5 -18t-7.5 -18t-17.5 -7z" />
    <glyph glyph-name="grave.case" 
d="M247 896l87 -136h-24l-88 136h25z" />
    <glyph glyph-name="hungarumlaut.case" 
d="M309 896h24l-86 -136h-24zM433 896h24l-87 -136h-23z" />
    <glyph glyph-name="macron.case" 
d="M178 798h276l-4 -18h-276z" />
    <glyph glyph-name="ring.case" 
d="M320 949q37 0 62 -24.5t25 -61.5t-25 -61.5t-62 -24.5t-62 24.5t-25 61.5t25 61.5t62 24.5zM320 795q28 0 48 19.5t20 48.5q0 28 -20 48t-48 20t-48 -20t-20 -48q0 -29 20 -48.5t48 -19.5z" />
    <glyph glyph-name="tilde.case" 
d="M446 867q0 -54 -41 -68.5t-81 16.5l-38 27q-29 23 -61 13.5t-32 -48.5h-19q0 35 21 53t49.5 16.5t51.5 -18.5l37 -26q35 -25 64.5 -15t29.5 50h19z" />
    </font>
</defs>
</svg>
