<?xml version="1.0" standalone="no"?>
<!DOCTYPE svg PUBLIC "-//W3C//DTD SVG 1.1//EN" "http://www.w3.org/Graphics/SVG/1.1/DTD/svg11.dtd" >
<svg xmlns="http://www.w3.org/2000/svg" xmlns:xlink="http://www.w3.org/1999/xlink" version="1.1">
<metadata>
Created by FontForge 20170731 at Fri Dec 22 00:57:42 2017
 By Aleksey,,,
Copyright (c) 2017 by Rene' Bieder. All rights reserved.
</metadata>
<defs>
<font id="Campton-ExtraLight" horiz-adv-x="624" >
  <font-face 
    font-family="Campton ExtraLight"
    font-weight="250"
    font-stretch="normal"
    units-per-em="1000"
    panose-1="2 11 0 4 2 1 2 2 2 3"
    ascent="770"
    descent="-230"
    x-height="453"
    cap-height="680"
    bbox="-355 -242 1429 952"
    underline-thickness="50"
    underline-position="-200"
    unicode-range="U+0020-FB02"
  />
<missing-glyph horiz-adv-x="870" 
d="M100 680h670v-680h-670v680zM700 129v481h-481zM170 547v-477h477z" />
    <glyph glyph-name="fi" unicode="fi" horiz-adv-x="595" 
d="M500 453v-453h-35v422h-291v-422h-34v422h-137v31h137v116q0 69 40 111t106 42q36 0 84 -12l-7 -29q-47 9 -75 9q-52 0 -83 -33t-31 -88v-116h326z" />
    <glyph glyph-name="fl" unicode="fl" horiz-adv-x="595" 
d="M465 710h35v-710h-35v422h-291v-422h-34v422h-137v31h137v116q0 69 40 111t106 42q36 0 84 -12l-7 -30q-43 10 -75 10q-52 0 -83 -33t-31 -88v-116h291v257z" />
    <glyph glyph-name=".notdef" horiz-adv-x="870" 
d="M100 680h670v-680h-670v680zM700 129v481h-481zM170 547v-477h477z" />
    <glyph glyph-name=".null" horiz-adv-x="0" 
 />
    <glyph glyph-name="nonmarkingreturn" horiz-adv-x="333" 
 />
    <glyph glyph-name="space" unicode=" " horiz-adv-x="278" 
 />
    <glyph glyph-name="exclam" unicode="!" horiz-adv-x="251" 
d="M144 680l-2 -513h-33l-2 513h37zM125 -8q-12 0 -21 8.5t-9 21.5t9 21.5t21 8.5q13 0 22 -8.5t9 -21.5t-9 -21.5t-22 -8.5z" />
    <glyph glyph-name="quotedbl" unicode="&#x22;" horiz-adv-x="314" 
d="M66 685h32v-261h-32v261zM216 685h32v-261h-32v261z" />
    <glyph glyph-name="numbersign" unicode="#" horiz-adv-x="718" 
d="M539 434l-59 -187h135v-29h-144l-68 -218h-35l68 218h-240l-68 -218h-35l68 218h-113v29h122l58 187h-125v29h134l69 218h35l-68 -218h239l69 218h35l-68 -218h122v-29h-131zM503 434h-239l-59 -187h240z" />
    <glyph glyph-name="dollar" unicode="$" horiz-adv-x="655" 
d="M587 185q0 -86 -62 -139t-166 -58v-126h-33v126q-114 4 -181.5 61t-81.5 165h36q31 -193 242 -193q95 0 152 44t57 117q0 54 -38.5 90t-110.5 49l-140 27q-82 16 -124 57.5t-42 105.5q0 82 63.5 131.5t167.5 49.5v133h33v-134q97 -7 155 -55t70 -128h-36
q-30 152 -220 152q-88 0 -141.5 -40t-53.5 -109q0 -104 142 -130l133 -26q86 -16 132.5 -59.5t46.5 -110.5z" />
    <glyph glyph-name="percent" unicode="%" horiz-adv-x="1083" 
d="M279 692q77 0 129 -53t52 -132q0 -80 -52 -133t-129 -53q-78 0 -130 53t-52 133q0 79 52.5 132t129.5 53zM778 680l-446 -680h-33l447 680h32zM279 352q63 0 107 44.5t44 110.5t-44 110.5t-107 44.5t-107 -44.5t-44 -110.5t44 -110.5t107 -44.5zM805 359q77 0 129 -53
t52 -132q0 -80 -52 -133t-129 -53q-78 0 -130 53t-52 133q0 79 52.5 132t129.5 53zM805 19q63 0 107 44.5t44 110.5t-44 110.5t-107 44.5t-107 -44.5t-44 -110.5t44 -110.5t107 -44.5z" />
    <glyph glyph-name="ampersand" unicode="&#x26;" horiz-adv-x="734" 
d="M697 0h-49l-119 102q-96 -114 -233 -114q-104 0 -167.5 53.5t-63.5 137.5q0 70 45 121t111 74q-41 43 -59 77.5t-18 75.5q0 74 51 121t132 47q75 0 125.5 -43.5t58.5 -123.5h-34q-8 65 -49 100t-101 35q-65 0 -106 -38.5t-41 -98.5q0 -39 26 -79.5t51 -64.5t104 -92
q17 -15 26 -23l138 -119l123 167h37l-134 -185l-2 -3zM297 21q123 0 208 102l-145 125q-85 74 -115 102q-65 -22 -105 -65.5t-40 -103.5q0 -71 53.5 -115.5t143.5 -44.5z" />
    <glyph glyph-name="quotesingle" unicode="'" horiz-adv-x="164" 
d="M66 685h32v-261h-32v261z" />
    <glyph glyph-name="parenleft" unicode="(" horiz-adv-x="333" 
d="M107 305q0 -130 44.5 -225t135.5 -170l-21 -24q-194 149 -194 419q0 271 194 420l21 -24q-91 -75 -135.5 -170t-44.5 -226z" />
    <glyph glyph-name="parenright" unicode=")" horiz-adv-x="333" 
d="M67 725q194 -149 194 -420q0 -270 -194 -419l-21 24q91 75 135.5 170t44.5 225q0 131 -44.5 226t-135.5 170z" />
    <glyph glyph-name="asterisk" unicode="*" horiz-adv-x="397" 
d="M223 539l116 -69l-12 -21l-116 68v-125h-26v125l-115 -68l-12 21l116 69l-116 68l12 22l115 -68v122h26v-123l116 69l12 -22z" />
    <glyph glyph-name="plus" unicode="+" horiz-adv-x="701" 
d="M574 301h-206v-206h-36v206h-206v33h206v206h36v-206h206v-33z" />
    <glyph glyph-name="comma" unicode="," horiz-adv-x="183" 
d="M48 -152l49 148q-21 6 -21 26q0 13 8.5 21.5t21.5 8.5q12 0 21 -8.5t9 -21.5q0 -8 -9 -33l-54 -141h-25z" />
    <glyph glyph-name="hyphen" unicode="-" horiz-adv-x="571" 
d="M126 262h319v32h-319v-32z" />
    <glyph glyph-name="period" unicode="." horiz-adv-x="155" 
d="M78 -8q-13 0 -21.5 8.5t-8.5 21.5t8.5 21.5t21.5 8.5q12 0 21 -8.5t9 -21.5t-9 -21.5t-21 -8.5z" />
    <glyph glyph-name="slash" unicode="/" horiz-adv-x="401" 
d="M359 730l-274 -890h-35l274 890h35z" />
    <glyph glyph-name="zero" unicode="0" horiz-adv-x="716" 
d="M358 692q134 0 210 -95.5t76 -256.5t-76 -256.5t-210 -95.5t-210 95.5t-76 256.5t76 256.5t210 95.5zM358 21q117 0 183 86.5t66 232.5t-66 232.5t-183 86.5t-182.5 -86.5t-65.5 -232.5t65.5 -232.5t182.5 -86.5z" />
    <glyph glyph-name="one" unicode="1" horiz-adv-x="499" 
d="M294 31h187v-31h-428v31h206v607l-192 -74v36l209 80h18v-649z" />
    <glyph glyph-name="two" unicode="2" horiz-adv-x="558" 
d="M125 31h383v-31h-441v20l227 222q87 83 124.5 136.5t37.5 113.5q0 74 -51 121t-134 47q-78 0 -130 -41.5t-60 -110.5h-36q7 84 68.5 134t156.5 50q101 0 161.5 -55.5t60.5 -144.5q0 -65 -39 -123t-132 -146z" />
    <glyph glyph-name="three" unicode="3" horiz-adv-x="579" 
d="M383 346q60 -19 94.5 -64t34.5 -107q0 -83 -63 -134.5t-165 -51.5q-99 0 -163.5 45.5t-71.5 120.5h36q7 -61 62 -97.5t138 -36.5q86 0 139 42.5t53 111.5t-49.5 111.5t-130.5 42.5h-58v31h58q72 0 116 41t44 108q0 69 -48.5 110t-130.5 41q-73 0 -119.5 -35t-54.5 -94
h-37q8 74 64.5 117.5t145.5 43.5q98 0 156.5 -50t58.5 -133q0 -58 -29 -100.5t-80 -62.5z" />
    <glyph glyph-name="four" unicode="4" horiz-adv-x="645" 
d="M596 191v-32h-120v-159h-35v159h-376v21l216 500h38l-210 -489h332v232h35v-232h120z" />
    <glyph glyph-name="five" unicode="5" horiz-adv-x="582" 
d="M297 407q105 0 167.5 -55.5t62.5 -145.5q0 -95 -63 -156.5t-167 -61.5q-93 0 -159.5 51t-83.5 139h37q16 -73 72 -115.5t134 -42.5q88 0 141.5 52.5t53.5 132.5q0 77 -53.5 123.5t-144.5 46.5h-197l1 305h399v-33h-365l-1 -240h166z" />
    <glyph glyph-name="six" unicode="6" horiz-adv-x="629" 
d="M315 448q106 0 174.5 -64t68.5 -165q0 -103 -68 -167t-175 -64t-175.5 63.5t-68.5 166.5q0 79 50 148l234 314h44l-188 -252q48 20 104 20zM315 19q90 0 148.5 55t58.5 144q0 87 -58.5 142t-148.5 55q-101 0 -159 -61l-6 -8q-43 -55 -43 -129q0 -88 58.5 -143t149.5 -55z
" />
    <glyph glyph-name="seven" unicode="7" horiz-adv-x="501" 
d="M19 680h458v-22l-337 -658h-42l333 647h-412v33z" />
    <glyph glyph-name="eight" unicode="8" horiz-adv-x="635" 
d="M409 359q73 -18 114.5 -64t41.5 -110q0 -89 -68 -143t-179 -54q-112 0 -179.5 54t-67.5 143q0 64 41.5 110t114.5 64q-59 18 -92.5 58t-33.5 98q0 77 61.5 127t155.5 50t155.5 -50t61.5 -127q0 -58 -33.5 -98t-92.5 -58zM136 514q0 -67 50.5 -105t131.5 -38
q80 0 130.5 38t50.5 105q0 64 -51.5 106t-129.5 42q-79 0 -130.5 -42t-51.5 -106zM318 20q94 0 151.5 45.5t57.5 120.5q0 71 -57.5 115t-151.5 44t-151.5 -44t-57.5 -115q0 -75 57.5 -120.5t151.5 -45.5z" />
    <glyph glyph-name="nine" unicode="9" horiz-adv-x="629" 
d="M314 692q107 0 175.5 -63.5t68.5 -166.5q0 -79 -50 -148l-234 -314h-44l188 252q-48 -20 -104 -20q-106 0 -174.5 64t-68.5 165q0 103 68 167t175 64zM479 334q43 55 43 129q0 88 -58.5 143t-149.5 55q-90 0 -148.5 -55t-58.5 -144q0 -87 58.5 -142t148.5 -55
q101 0 159 61z" />
    <glyph glyph-name="colon" unicode=":" horiz-adv-x="155" 
d="M78 404q-13 0 -21.5 8.5t-8.5 21.5t8.5 21.5t21.5 8.5q12 0 21 -8.5t9 -21.5t-9 -21.5t-21 -8.5zM78 -8q-13 0 -21.5 8.5t-8.5 21.5t8.5 21.5t21.5 8.5q12 0 21 -8.5t9 -21.5t-9 -21.5t-21 -8.5z" />
    <glyph glyph-name="semicolon" unicode=";" horiz-adv-x="183" 
d="M106 404q-13 0 -21.5 8.5t-8.5 21.5t8.5 21.5t21.5 8.5q12 0 21 -8.5t9 -21.5t-9 -21.5t-21 -8.5zM48 -152l49 148q-21 6 -21 26q0 13 8.5 21.5t21.5 8.5q12 0 21 -8.5t9 -21.5q0 -8 -9 -33l-54 -141h-25z" />
    <glyph glyph-name="less" unicode="&#x3c;" horiz-adv-x="560" 
d="M59 319l422 207v-36l-383 -190l383 -189v-36l-422 207v37z" />
    <glyph glyph-name="equal" unicode="=" horiz-adv-x="735" 
d="M608 440v-33h-482v33h482zM608 249v-34h-482v34h482z" />
    <glyph glyph-name="greater" unicode="&#x3e;" horiz-adv-x="560" 
d="M501 319v-37l-422 -207v36l383 189l-383 190v36z" />
    <glyph glyph-name="question" unicode="?" horiz-adv-x="590" 
d="M273 176h-31l-3 137h29q81 0 133.5 51t52.5 124t-51.5 122.5t-130.5 49.5q-60 0 -108 -34.5t-60 -90.5h-36q14 72 70.5 114.5t132.5 42.5q95 0 156.5 -58.5t61.5 -145.5q0 -86 -60 -144t-156 -59v-109zM257 -8q-13 0 -21.5 8.5t-8.5 21.5t8.5 21.5t21.5 8.5t21.5 -8.5
t8.5 -21.5t-8.5 -21.5t-21.5 -8.5z" />
    <glyph glyph-name="at" unicode="@" horiz-adv-x="984" 
d="M630 400h33v-208q0 -60 19 -90.5t63 -30.5q57 0 89.5 48t32.5 124q0 147 -111 252.5t-264 105.5t-263.5 -106.5t-110.5 -259.5t110.5 -259.5t263.5 -106.5q138 0 242 87l19 -26q-113 -91 -261 -91q-168 0 -287 114t-119 282t119.5 282t286.5 114q168 0 287 -113.5
t119 -273.5q0 -88 -39 -145.5t-114 -57.5q-79 0 -104 71q-59 -77 -154 -77q-80 0 -135 54t-55 138q0 83 55 137t135 54q86 0 143 -63v45zM491 66q90 0 143 78q-4 21 -4 52v118q-54 73 -139 73q-68 0 -114 -44.5t-46 -115.5t46 -116t114 -45z" />
    <glyph glyph-name="A" unicode="A" horiz-adv-x="742" 
d="M666 0l-107 231h-375l-107 -231h-40l316 680h36l316 -680h-39zM198 263h347l-173 375z" />
    <glyph glyph-name="B" unicode="B" horiz-adv-x="694" 
d="M458 353q83 -14 126 -57.5t43 -110.5q0 -83 -69 -134t-183 -51h-266v680h265q98 0 156.5 -45.5t58.5 -121.5q0 -125 -131 -160zM372 648h-226v-284h208q95 0 147 38.5t52 108.5q0 62 -49.5 99.5t-131.5 37.5zM375 33q97 0 156.5 42.5t59.5 111.5q0 70 -56.5 108
t-159.5 38h-229v-300h229z" />
    <glyph glyph-name="C" unicode="C" horiz-adv-x="816" 
d="M425 21q106 0 181 55t99 145h39q-26 -105 -112 -170t-207 -65q-147 0 -250 103t-103 251q0 147 103 249.5t250 102.5q121 0 207 -64t112 -169h-39q-24 90 -99 144.5t-181 54.5q-132 0 -224 -92.5t-92 -225.5t92 -226t224 -93z" />
    <glyph glyph-name="D" unicode="D" horiz-adv-x="759" 
d="M333 680q158 0 256 -92.5t98 -241.5q0 -155 -98 -250.5t-256 -95.5h-224v680h224zM333 33q142 0 229.5 86.5t87.5 226.5q0 134 -87.5 217.5t-229.5 83.5h-187v-614h187z" />
    <glyph glyph-name="E" unicode="E" horiz-adv-x="643" 
d="M567 647h-421v-291h381v-33h-381v-290h421v-33h-458v680h458v-33z" />
    <glyph glyph-name="F" unicode="F" horiz-adv-x="604" 
d="M558 647h-412v-306h371v-34h-371v-307h-37v680h449v-33z" />
    <glyph glyph-name="G" unicode="G" horiz-adv-x="841" 
d="M418 312v33h324v-345h-32l-2 184q-36 -90 -110 -143t-176 -53q-147 0 -248.5 102t-101.5 249q0 148 103.5 250.5t251.5 102.5q114 0 202.5 -63t114.5 -166h-39q-24 88 -102 141.5t-176 53.5q-133 0 -225.5 -92.5t-92.5 -226.5q0 -132 90 -224.5t223 -92.5q123 0 198.5 82
t84.5 208h-287z" />
    <glyph glyph-name="H" unicode="H" horiz-adv-x="755" 
d="M609 680h37v-680h-37v322h-463v-322h-37v680h37v-324h463v324z" />
    <glyph glyph-name="I" unicode="I" horiz-adv-x="255" 
d="M109 680h37v-680h-37v680z" />
    <glyph glyph-name="J" unicode="J" horiz-adv-x="593" 
d="M494 680v-441q0 -117 -63.5 -184t-169.5 -67q-94 0 -155.5 51t-77.5 140h36q14 -74 66 -116t133 -42q88 0 141.5 58.5t53.5 159.5v441h36z" />
    <glyph glyph-name="K" unicode="K" horiz-adv-x="700" 
d="M620 0l-327 339l-147 -149v-190h-37v680h37v-439l435 439h47l-310 -315l350 -365h-48z" />
    <glyph glyph-name="L" unicode="L" horiz-adv-x="577" 
d="M146 33h394v-33h-431v680h37v-647z" />
    <glyph glyph-name="M" unicode="M" horiz-adv-x="850" 
d="M740 680v-680h-36l1 606l-264 -453h-32l-265 455l2 -608h-37v680h33l283 -485l282 485h33z" />
    <glyph glyph-name="N" unicode="N" horiz-adv-x="778" 
d="M632 680h37v-680h-38l-485 621v-621h-37v680h37l486 -624v624z" />
    <glyph glyph-name="O" unicode="O" horiz-adv-x="853" 
d="M426 692q147 0 250.5 -102.5t103.5 -249.5t-103.5 -249.5t-250.5 -102.5t-250.5 102.5t-103.5 249.5t103.5 249.5t250.5 102.5zM426 22q133 0 225.5 93t92.5 225q0 133 -92.5 225.5t-225.5 92.5q-132 0 -224.5 -92.5t-92.5 -225.5q0 -132 92.5 -225t224.5 -93z" />
    <glyph glyph-name="P" unicode="P" horiz-adv-x="635" 
d="M333 680q115 0 185 -60t70 -158q0 -99 -71 -159t-187 -60h-184v-243h-37v680h224zM332 276q99 0 159.5 51t60.5 135q0 83 -60.5 134t-159.5 51h-186v-371h186z" />
    <glyph glyph-name="Q" unicode="Q" horiz-adv-x="853" 
d="M780 340q0 -105 -55.5 -190.5t-147.5 -128.5l140 -176l-27 -24l-147 186q-59 -19 -117 -19q-147 0 -250.5 102.5t-103.5 249.5t103.5 249.5t250.5 102.5t250.5 -102.5t103.5 -249.5zM109 340q0 -132 92.5 -225t224.5 -93q133 0 225.5 93t92.5 225q0 133 -92.5 225.5
t-225.5 92.5q-132 0 -224.5 -92.5t-92.5 -225.5z" />
    <glyph glyph-name="R" unicode="R" horiz-adv-x="668" 
d="M573 0l-230 263h-197v-263h-37v680h236q115 0 184.5 -55.5t69.5 -152.5q0 -87 -56.5 -141.5t-153.5 -65.5l233 -265h-49zM146 647v-350h198q99 0 159 46.5t60 128.5q0 81 -60 128t-159 47h-198z" />
    <glyph glyph-name="S" unicode="S" horiz-adv-x="655" 
d="M327 692q111 0 177.5 -48.5t79.5 -135.5h-36q-30 152 -220 152q-88 0 -141.5 -40t-53.5 -109q0 -104 142 -130l133 -26q86 -16 132.5 -59.5t46.5 -110.5q0 -90 -68 -143.5t-179 -53.5q-120 0 -191 57.5t-86 168.5h36q31 -193 242 -193q95 0 152 44t57 117q0 54 -38.5 90
t-110.5 49l-140 27q-82 16 -124 57.5t-42 105.5q0 82 63.5 131.5t168.5 49.5z" />
    <glyph glyph-name="T" unicode="T" horiz-adv-x="626" 
d="M596 680v-33h-265v-647h-36v647h-265v33h566z" />
    <glyph glyph-name="U" unicode="U" horiz-adv-x="761" 
d="M662 680v-400q0 -127 -78 -209.5t-203 -82.5q-126 0 -204 82.5t-78 209.5v400h37v-400q0 -112 68 -185.5t177 -73.5t177 73.5t68 185.5v400h36z" />
    <glyph glyph-name="V" unicode="V" horiz-adv-x="728" 
d="M660 680h39l-317 -685h-36l-317 685h40l295 -638z" />
    <glyph glyph-name="W" unicode="W" horiz-adv-x="1020" 
d="M954 680h37l-237 -685h-35l-209 627l-209 -627h-35l-237 685h37l217 -631l210 631h34l210 -631z" />
    <glyph glyph-name="X" unicode="X" horiz-adv-x="655" 
d="M623 0h-44l-251 311l-252 -311h-44l272 339l-262 341h46l240 -313l239 313h45l-261 -341z" />
    <glyph glyph-name="Y" unicode="Y" horiz-adv-x="647" 
d="M588 680h41l-287 -427v-253h-37v253l-286 427h40l265 -393z" />
    <glyph glyph-name="Z" unicode="Z" horiz-adv-x="655" 
d="M579 680v-23l-455 -624h455v-33h-508v23l458 624h-448v33h498z" />
    <glyph glyph-name="bracketleft" unicode="[" horiz-adv-x="333" 
d="M144 697v-778h133v-33h-168v844h168v-33h-133z" />
    <glyph glyph-name="backslash" unicode="\" horiz-adv-x="401" 
d="M46 730h35l274 -890h-35z" />
    <glyph glyph-name="bracketright" unicode="]" horiz-adv-x="333" 
d="M189 697h-133v33h168v-844h-168v33h133v778z" />
    <glyph glyph-name="asciicircum" unicode="^" horiz-adv-x="380" 
d="M206 680l136 -231h-34l-118 201l-118 -201h-34l136 231h32z" />
    <glyph glyph-name="underscore" unicode="_" horiz-adv-x="663" 
d="M48 -181v31h568v-31h-568z" />
    <glyph glyph-name="grave" unicode="`" horiz-adv-x="600" 
d="M258 706l85 -138h-36l-89 138h40z" />
    <glyph glyph-name="a" unicode="a" 
d="M494 453h35v-453h-35v68q-71 -80 -184 -80q-99 0 -169 69.5t-70 169.5q0 99 70 168.5t169 69.5q113 0 184 -81v69zM313 20q117 0 181 96v220q-65 97 -181 97q-86 0 -146.5 -60t-60.5 -146t60.5 -146.5t146.5 -60.5z" />
    <glyph glyph-name="b" unicode="b" 
d="M314 465q99 0 169 -69.5t70 -168.5q0 -100 -70 -169.5t-169 -69.5q-113 0 -184 81v-69h-35v710h35v-325q71 80 184 80zM311 20q86 0 146.5 60.5t60.5 146.5t-60.5 146t-146.5 60q-117 0 -181 -96v-220q65 -97 181 -97z" />
    <glyph glyph-name="c" unicode="c" horiz-adv-x="581" 
d="M305 20q64 0 109 32t59 87h37q-15 -69 -70.5 -110t-134.5 -41q-102 0 -168 68.5t-66 170.5q0 101 66 169.5t168 68.5q79 0 134.5 -41t70.5 -109h-37q-14 54 -59 86t-109 32q-88 0 -143.5 -59.5t-55.5 -146.5t55.5 -147t143.5 -60z" />
    <glyph glyph-name="d" unicode="d" 
d="M494 710h35v-710h-35v69q-71 -81 -184 -81q-99 0 -169 69.5t-70 169.5q0 99 70 168.5t169 69.5q113 0 184 -80v325zM313 20q116 0 181 97v220q-64 96 -181 96q-86 0 -146.5 -60t-60.5 -146t60.5 -146.5t146.5 -60.5z" />
    <glyph glyph-name="e" unicode="e" horiz-adv-x="593" 
d="M303 465q102 0 163.5 -71t55.5 -179h-416q5 -83 59.5 -139t138.5 -56q57 0 100 23t60 63h39q-20 -55 -73.5 -86.5t-125.5 -31.5q-101 0 -167 69t-66 170t66 169.5t166 68.5zM303 434q-82 0 -136.5 -54.5t-59.5 -135.5h381q-1 84 -53 137t-132 53z" />
    <glyph glyph-name="f" unicode="f" horiz-adv-x="370" 
d="M288 690q-52 0 -83 -33t-31 -88v-116h187v-31h-187v-422h-34v422h-137v31h137v116q0 69 40 111t106 42q36 0 84 -12l-7 -30q-43 10 -75 10z" />
    <glyph glyph-name="g" unicode="g" 
d="M494 453h35v-491q0 -94 -60.5 -149t-162.5 -55q-89 0 -149.5 42t-75.5 111h37q13 -55 63 -88t125 -33q86 0 137 46.5t51 125.5v110q-74 -80 -192 -80q-99 0 -165 68t-66 168q0 101 66 169t165 68q119 0 192 -81v69zM304 24q57 0 107.5 25t82.5 71v216q-33 47 -83 72.5
t-107 25.5q-85 0 -141.5 -59.5t-56.5 -146.5q0 -86 56.5 -145t141.5 -59z" />
    <glyph glyph-name="h" unicode="h" horiz-adv-x="575" 
d="M318 465q85 0 137 -51.5t52 -143.5v-270h-35v269q0 78 -43.5 121t-113.5 43q-56 0 -105.5 -25t-79.5 -69v-339h-35v710h35v-323q67 78 188 78z" />
    <glyph glyph-name="i" unicode="i" horiz-adv-x="251" 
d="M126 602q-13 0 -22 8t-9 21t9 21.5t22 8.5q12 0 21 -8.5t9 -21.5q0 -12 -9 -20.5t-21 -8.5zM109 453h34v-453h-34v453z" />
    <glyph glyph-name="j" unicode="j" horiz-adv-x="247" 
d="M122 602q-13 0 -21.5 8t-8.5 21t8.5 21.5t21.5 8.5t21.5 -8.5t8.5 -21.5t-8.5 -21t-21.5 -8zM140 453v-522q0 -93 -33.5 -133t-113.5 -40l-2 32q62 0 88 32t26 107v524h35z" />
    <glyph glyph-name="k" unicode="k" horiz-adv-x="547" 
d="M472 0l-234 239l-108 -97v-142h-35v710h35v-522l297 265h47l-211 -191l257 -262h-48z" />
    <glyph glyph-name="l" unicode="l" horiz-adv-x="226" 
d="M95 710h35v-710h-35v710z" />
    <glyph glyph-name="m" unicode="m" horiz-adv-x="899" 
d="M653 465q84 0 131 -46.5t47 -138.5v-280h-35v280q0 77 -37.5 115t-106.5 38q-117 0 -175 -102q4 -20 4 -50v-281h-35v281q0 77 -38 114.5t-106 37.5q-113 0 -172 -94v-339h-35v453h35v-65q61 77 173 77q124 0 162 -94q65 94 188 94z" />
    <glyph glyph-name="n" unicode="n" horiz-adv-x="575" 
d="M318 465q85 0 137 -51.5t52 -143.5v-270h-35v269q0 78 -43.5 121t-113.5 43q-56 0 -105.5 -25t-79.5 -69v-339h-35v453h35v-66q67 78 188 78z" />
    <glyph glyph-name="o" unicode="o" 
d="M312 465q102 0 171.5 -68.5t69.5 -169.5t-69.5 -170t-171.5 -69t-171.5 69t-69.5 170t69.5 169.5t171.5 68.5zM312 20q87 0 146.5 59.5t59.5 147.5q0 87 -59.5 146.5t-146.5 59.5q-86 0 -146 -59.5t-60 -146.5t60 -147t146 -60z" />
    <glyph glyph-name="p" unicode="p" 
d="M314 465q99 0 169 -69.5t70 -168.5q0 -100 -70 -169.5t-169 -69.5q-113 0 -184 80v-298h-35v683h35v-69q71 81 184 81zM311 20q86 0 146.5 60.5t60.5 146.5t-60.5 146.5t-146.5 60.5q-116 0 -181 -98v-220q64 -96 181 -96z" />
    <glyph glyph-name="q" unicode="q" 
d="M494 453h35v-683h-35v298q-71 -80 -184 -80q-99 0 -169 69.5t-70 169.5q0 99 70 168.5t169 69.5q113 0 184 -81v69zM313 20q117 0 181 96v220q-65 98 -181 98q-86 0 -146.5 -60.5t-60.5 -146.5t60.5 -146.5t146.5 -60.5z" />
    <glyph glyph-name="r" unicode="r" horiz-adv-x="341" 
d="M130 358q31 51 81 80.5t107 29.5v-33q-58 -1 -108.5 -36t-79.5 -95v-304h-35v453h35v-95z" />
    <glyph glyph-name="s" unicode="s" horiz-adv-x="540" 
d="M99 131q28 -112 179 -112q68 0 108.5 26.5t40.5 72.5q0 38 -27 61.5t-71 29.5l-106 17q-135 22 -135 116q0 57 48 90.5t127 33.5q81 0 135.5 -36t59.5 -101h-33q-17 106 -161 106q-65 0 -103 -24.5t-38 -67.5q0 -69 107 -86l95 -16q136 -22 136 -123q0 -60 -51 -95
t-134 -35q-92 0 -145 38t-66 105h34z" />
    <glyph glyph-name="t" unicode="t" horiz-adv-x="418" 
d="M360 35l6 -34q-46 -13 -85 -13q-77 0 -111 40t-34 131v263h-135v31h135v171h35v-171h174v-31h-174v-263q0 -74 26 -106t86 -32q33 0 77 14z" />
    <glyph glyph-name="u" unicode="u" horiz-adv-x="575" 
d="M445 453h35v-453h-35v66q-67 -78 -188 -78q-84 0 -136.5 52t-52.5 143v270h35v-269q0 -78 43.5 -121t114.5 -43q56 0 105 25t79 70v338z" />
    <glyph glyph-name="v" unicode="v" horiz-adv-x="569" 
d="M485 453h38l-221 -453h-36l-220 453h38l201 -410z" />
    <glyph glyph-name="w" unicode="w" horiz-adv-x="771" 
d="M687 453h38l-171 -453h-34l-135 401l-134 -401h-35l-170 453h38l149 -400l135 400h34l136 -400z" />
    <glyph glyph-name="x" unicode="x" horiz-adv-x="523" 
d="M482 0h-44l-176 201l-178 -201h-43l197 226l-191 228h43l171 -202l172 202h44l-192 -228z" />
    <glyph glyph-name="y" unicode="y" horiz-adv-x="594" 
d="M510 454h38l-321 -684h-38l95 202l-238 482h38l218 -443z" />
    <glyph glyph-name="z" unicode="z" horiz-adv-x="490" 
d="M434 453v-23l-327 -399h327v-31h-377v22l326 400h-313v31h364z" />
    <glyph glyph-name="braceleft" unicode="{" horiz-adv-x="357" 
d="M190 462q0 -65 -16.5 -100.5t-55.5 -49.5q39 -14 55.5 -49.5t16.5 -100.5v-114q0 -61 30.5 -98t80.5 -37v-34q-65 0 -105.5 46.5t-40.5 122.5v113q0 74 -25.5 104.5t-86.5 30.5v32q61 0 86.5 30.5t25.5 104.5v113q0 76 40.5 122.5t105.5 46.5v-33q-50 0 -80.5 -37
t-30.5 -99v-114z" />
    <glyph glyph-name="bar" unicode="|" horiz-adv-x="305" 
d="M135 730h35v-890h-35v890z" />
    <glyph glyph-name="braceright" unicode="}" horiz-adv-x="359" 
d="M169 462v114q0 62 -30.5 99t-80.5 37v33q65 0 105.5 -46.5t40.5 -122.5v-113q0 -74 25.5 -104.5t86.5 -30.5v-32q-61 0 -86.5 -30.5t-25.5 -104.5v-113q0 -76 -40.5 -122.5t-105.5 -46.5v34q50 0 80.5 37t30.5 98v114q0 65 16.5 100.5t55.5 49.5q-39 14 -55.5 49.5
t-16.5 100.5z" />
    <glyph glyph-name="asciitilde" unicode="~" horiz-adv-x="468" 
d="M402 389q0 -44 -26 -68.5t-57 -22.5t-57 16l-70 49q-27 21 -60.5 9t-33.5 -54h-32q0 33 15.5 55t37.5 29t45.5 4.5t41.5 -14.5l70 -49q20 -11 41 -12t37 14.5t16 43.5h32z" />
    <glyph glyph-name="exclamdown" unicode="&#xa1;" horiz-adv-x="251" 
d="M125 469q13 0 22 -8.5t9 -21.5t-9 -21.5t-22 -8.5q-12 0 -21 8.5t-9 21.5t9 21.5t21 8.5zM144 -219h-37l2 513h33z" />
    <glyph glyph-name="cent" unicode="&#xa2;" horiz-adv-x="581" 
d="M305 20q64 0 109 32t59 87h37q-14 -66 -65 -106t-125 -45v-125h-33v126q-95 6 -155.5 73.5t-60.5 164.5q0 96 60.5 163.5t155.5 73.5v135h33v-134q74 -5 125 -45t65 -105h-37q-14 54 -59 86t-109 32q-88 0 -143.5 -59.5t-55.5 -146.5t55.5 -147t143.5 -60z" />
    <glyph glyph-name="sterling" unicode="&#xa3;" horiz-adv-x="641" 
d="M171 288v-256h411v-32h-530v32h83v256h-83v32h83v150q0 100 62.5 161t164.5 61q94 0 154.5 -52t69.5 -140h-36q-9 73 -59.5 116.5t-128.5 43.5q-86 0 -138.5 -52t-52.5 -138v-150h262v-32h-262z" />
    <glyph glyph-name="yen" unicode="&#xa5;" horiz-adv-x="647" 
d="M342 253v-11h191v-30h-191v-79h191v-30h-191v-103h-37v103h-190v30h190v79h-190v30h190v11l-286 427h40l265 -393l264 393h41z" />
    <glyph glyph-name="brokenbar" unicode="&#xa6;" horiz-adv-x="305" 
d="M170 730v-394h-35v394h35zM170 234v-394h-35v394h35z" />
    <glyph glyph-name="section" unicode="&#xa7;" horiz-adv-x="540" 
d="M492 220q0 -48 -30.5 -79t-76.5 -43q62 -43 62 -111q0 -67 -49.5 -106t-128.5 -39q-81 0 -132.5 41t-61.5 114h35q8 -58 50.5 -90.5t108.5 -32.5q64 0 103 29.5t39 84.5q0 43 -29 69t-108 64l-96 44q-68 32 -99 65.5t-31 81.5t30.5 79t76.5 43q-63 44 -63 111t49.5 106
t129.5 39q81 0 132.5 -41t61.5 -114h-35q-8 58 -50.5 90.5t-108.5 32.5q-63 0 -102.5 -30t-39.5 -85q0 -42 29 -68.5t108 -63.5l96 -44q68 -32 99 -65.5t31 -81.5zM344 122q49 3 81 28.5t32 70.5q0 35 -25.5 62t-86.5 56l-91 42q-41 19 -58 29q-49 -4 -81 -29.5t-32 -70.5
q0 -34 25 -61t87 -56l91 -42q41 -19 58 -29z" />
    <glyph glyph-name="dieresis" unicode="&#xa8;" horiz-adv-x="600" 
d="M214 634q13 0 22.5 -9t9.5 -22t-9 -22.5t-23 -9.5t-23 9.5t-9 22.5t9.5 22t22.5 9zM386 634q13 0 22.5 -9t9.5 -22t-9 -22.5t-23 -9.5t-23 9.5t-9 22.5t9.5 22t22.5 9z" />
    <glyph glyph-name="copyright" unicode="&#xa9;" horiz-adv-x="873" 
d="M436 695q150 0 257 -102t107 -253t-107 -253t-257 -102t-257 102t-107 253t107 253t257 102zM435 12q137 0 236.5 95.5t99.5 232.5t-99.5 232.5t-236.5 95.5q-136 0 -235 -95.5t-99 -232.5t99 -232.5t235 -95.5zM436 506q-67 0 -114 -48.5t-47 -117.5t47 -117.5
t114 -48.5q52 0 92.5 29t53.5 76h31q-14 -58 -63.5 -95t-113.5 -37q-78 0 -134.5 56.5t-56.5 136.5t56.5 136.5t134.5 56.5q64 0 113.5 -37t63.5 -95h-31q-13 47 -53.5 76t-92.5 29z" />
    <glyph glyph-name="ordfeminine" unicode="&#xaa;" horiz-adv-x="354" 
d="M184 686q56 0 89 -30t33 -83v-195h-27v36q-51 -46 -115 -46q-55 0 -88.5 25.5t-33.5 69.5q0 37 28 60.5t80 23.5h129v26q0 41 -25 64.5t-70 23.5q-94 0 -105 -77h-28q6 51 42 76.5t91 25.5zM166 395q66 0 113 48v80h-130q-39 0 -59.5 -17t-20.5 -43q0 -32 26 -50t71 -18z
" />
    <glyph glyph-name="guillemotleft" unicode="&#xab;" horiz-adv-x="413" 
d="M174 397h38l-119 -145l119 -145h-38l-118 145zM320 397h38l-119 -145l119 -145h-38l-118 145z" />
    <glyph glyph-name="registered" unicode="&#xae;" horiz-adv-x="546" 
d="M273 695q93 0 159 -63.5t66 -156.5t-66 -156t-159 -63t-159 63t-66 156q0 94 66 157t159 63zM273 279q80 0 139.5 57t59.5 139t-59 139.5t-140 57.5t-140.5 -57.5t-59.5 -139.5t59.5 -139t140.5 -57zM369 521q0 -31 -22 -51t-55 -22l82 -88h-28l-80 88h-53v-88h-21v235
h94q35 0 59 -21t24 -53zM213 575v-107h73q25 0 42.5 14.5t17.5 38.5t-17.5 39t-42.5 15h-73z" />
    <glyph glyph-name="macron" unicode="&#xaf;" horiz-adv-x="600" 
d="M161 617h276v-29h-276v29z" />
    <glyph glyph-name="degree" unicode="&#xb0;" horiz-adv-x="498" 
d="M249 695q69 0 116 -46t47 -113t-47 -113t-116 -46t-116 46t-47 113t47 113t116 46zM249 407q54 0 92.5 37.5t38.5 91.5t-38.5 91.5t-92.5 37.5q-55 0 -93 -37.5t-38 -91.5t38 -91.5t93 -37.5z" />
    <glyph glyph-name="plusminus" unicode="&#xb1;" horiz-adv-x="700" 
d="M573 358v-33h-205v-174h-36v174h-206v33h206v175h36v-175h205zM126 86h447v-34h-447v34z" />
    <glyph glyph-name="uni00B2" unicode="&#xb2;" horiz-adv-x="355" 
d="M108 345h199v-27h-252v17l129 123q46 43 65 69t19 56q0 36 -24.5 59t-67.5 23q-41 0 -65 -21t-28 -57h-30q3 48 35 76.5t87 28.5q57 0 90.5 -30.5t33.5 -77.5q0 -34 -20.5 -64.5t-69.5 -76.5z" />
    <glyph glyph-name="uni00B3" unicode="&#xb3;" horiz-adv-x="366" 
d="M247 505q67 -24 67 -90q0 -45 -36 -74t-95 -29q-57 0 -93.5 26t-41.5 68h31q5 -30 33 -48t72 -18t72 20.5t28 54.5t-26 55t-70 21h-33v25h33q37 0 60.5 21t23.5 53q0 34 -25 55t-67 21q-38 0 -62 -18t-29 -48h-30q5 42 37 67.5t83 25.5q56 0 89 -28.5t33 -74.5
q0 -60 -54 -85z" />
    <glyph glyph-name="acute" unicode="&#xb4;" horiz-adv-x="600" 
d="M360 706h40l-89 -138h-36z" />
    <glyph glyph-name="paragraph" unicode="&#xb6;" horiz-adv-x="719" 
d="M282 680h342v-840h-37v808h-166v-808h-36v405h-103q-100 0 -168 60.5t-68 157.5q0 96 68 156.5t168 60.5zM385 648h-103q-84 0 -141.5 -51.5t-57.5 -133.5t57.5 -134t141.5 -52h103v371z" />
    <glyph glyph-name="periodcentered" unicode="&#xb7;" horiz-adv-x="155" 
d="M78 231q-13 0 -21.5 8.5t-8.5 21.5t8.5 21.5t21.5 8.5q12 0 21 -8.5t9 -21.5t-9 -21.5t-21 -8.5z" />
    <glyph glyph-name="cedilla" unicode="&#xb8;" horiz-adv-x="600" 
d="M325 -82l-51 -136h-32l48 136h35z" />
    <glyph glyph-name="uni00B9" unicode="&#xb9;" horiz-adv-x="295" 
d="M173 346h103v-27h-246v27h113v297l-105 -29v28l119 34h16v-330z" />
    <glyph glyph-name="ordmasculine" unicode="&#xba;" horiz-adv-x="389" 
d="M194 364q-66 0 -113.5 47t-47.5 115q0 67 47.5 113.5t113.5 46.5q67 0 114.5 -46.5t47.5 -113.5q0 -68 -47.5 -115t-114.5 -47zM194 391q55 0 93.5 39.5t38.5 95.5q0 55 -38.5 94t-93.5 39t-93 -38.5t-38 -94.5t38 -95.5t93 -39.5z" />
    <glyph glyph-name="guillemotright" unicode="&#xbb;" horiz-adv-x="413" 
d="M93 397l118 -145l-118 -145h-38l119 145l-119 145h38zM239 397l118 -145l-118 -145h-38l119 145l-119 145h38z" />
    <glyph glyph-name="onequarter" unicode="&#xbc;" horiz-adv-x="842" 
d="M622 680h32l-447 -680h-32zM276 343v-27h-246v27h113v297l-105 -29v28l119 34h16v-330h103zM794 110v-28h-65v-82h-29v82h-212v20l121 264h32l-115 -256h174v121h29v-121h65z" />
    <glyph glyph-name="onehalf" unicode="&#xbd;" horiz-adv-x="844" 
d="M623 680h32l-447 -680h-32zM276 343v-27h-246v27h113v297l-105 -29v28l119 34h16v-330h103zM597 27h199v-27h-252v17l129 123q46 43 65 69t19 56q0 36 -24.5 59t-67.5 23q-41 0 -65 -21t-28 -57h-30q3 48 35 76.5t87 28.5q57 0 90.5 -30.5t33.5 -77.5q0 -34 -20.5 -64.5
t-69.5 -76.5z" />
    <glyph glyph-name="threequarters" unicode="&#xbe;" horiz-adv-x="838" 
d="M314 416q0 -45 -36 -74t-95 -29q-57 0 -93.5 26t-41.5 68h31q5 -30 33 -48t72 -18t72 20.5t28 54.5t-26 55t-70 21h-33v25h33q37 0 60.5 21t23.5 53q0 34 -25 55t-67 21q-38 0 -62 -18t-29 -48h-30q5 42 37 67.5t83 25.5q56 0 89 -28.5t33 -74.5q0 -60 -54 -85
q67 -24 67 -90zM621 680h32l-447 -680h-32zM790 110v-28h-65v-82h-29v82h-212v20l121 264h32l-115 -256h174v121h29v-121h65z" />
    <glyph glyph-name="questiondown" unicode="&#xbf;" horiz-adv-x="590" 
d="M333 549q13 0 21.5 -8.5t8.5 -21.5t-8.5 -21.5t-21.5 -8.5t-21.5 8.5t-8.5 21.5t8.5 21.5t21.5 8.5zM317 365h31l3 -137h-29q-81 0 -133.5 -51t-52.5 -124t51.5 -122.5t130.5 -49.5q60 0 108 34.5t60 90.5h36q-14 -72 -70.5 -114.5t-132.5 -42.5q-95 0 -156.5 58.5
t-61.5 145.5q0 86 60 144t156 59v109z" />
    <glyph glyph-name="Agrave" unicode="&#xc0;" horiz-adv-x="742" 
d="M398 759h-36l-89 138h40zM666 0l-107 231h-375l-107 -231h-40l316 680h36l316 -680h-39zM198 263h347l-173 375z" />
    <glyph glyph-name="Aacute" unicode="&#xc1;" horiz-adv-x="742" 
d="M473 897l-89 -138h-36l85 138h40zM666 0l-107 231h-375l-107 -231h-40l316 680h36l316 -680h-39zM198 263h347l-173 375z" />
    <glyph glyph-name="Acircumflex" unicode="&#xc2;" horiz-adv-x="742" 
d="M372 878l-109 -116h-38l125 139h43l126 -139h-38zM666 0l-107 231h-375l-107 -231h-40l316 680h36l316 -680h-39zM198 263h347l-173 375z" />
    <glyph glyph-name="Atilde" unicode="&#xc3;" horiz-adv-x="742" 
d="M338 836q-28 22 -57.5 12.5t-29.5 -45.5h-30q0 38 22.5 58t52 19.5t54.5 -17.5l38 -27q34 -24 61 -13.5t27 47.5h30q0 -39 -21 -60.5t-50 -20t-58 19.5zM666 0l-107 231h-375l-107 -231h-40l316 680h36l316 -680h-39zM198 263h347l-173 375z" />
    <glyph glyph-name="Adieresis" unicode="&#xc4;" horiz-adv-x="742" 
d="M286 779q-14 0 -23 9.5t-9 22.5t9.5 22t22.5 9t22.5 -9t9.5 -22t-9 -22.5t-23 -9.5zM458 779q-14 0 -23 9.5t-9 22.5t9.5 22t22.5 9t22.5 -9t9.5 -22t-9 -22.5t-23 -9.5zM666 0l-107 231h-375l-107 -231h-40l316 680h36l316 -680h-39zM198 263h347l-173 375z" />
    <glyph glyph-name="Aring" unicode="&#xc5;" horiz-adv-x="742" 
d="M372 775q-39 0 -65 25.5t-26 63.5t26 63t65 25q38 0 64 -25t26 -63t-26 -63.5t-64 -25.5zM372 928q-28 0 -46.5 -19t-18.5 -45q0 -28 18.5 -46.5t46.5 -18.5q27 0 46 18.5t19 46.5q0 26 -19 45t-46 19zM666 0l-107 231h-375l-107 -231h-40l316 680h36l316 -680h-39z
M198 263h347l-173 375z" />
    <glyph glyph-name="AE" unicode="&#xc6;" horiz-adv-x="1090" 
d="M1014 647h-421v-291h381v-33h-381v-290h421v-33h-458v231h-300l-174 -231h-45l515 680h462v-33zM281 264h275v364z" />
    <glyph glyph-name="Ccedilla" unicode="&#xc7;" horiz-adv-x="816" 
d="M425 21q106 0 181 55t99 145h39q-26 -105 -112 -170t-207 -65q-147 0 -250 103t-103 251q0 147 103 249.5t250 102.5q121 0 207 -64t112 -169h-39q-24 90 -99 144.5t-181 54.5q-132 0 -224 -92.5t-92 -225.5t92 -226t224 -93zM350 -218l48 136h35l-51 -136h-32z" />
    <glyph glyph-name="Egrave" unicode="&#xc8;" horiz-adv-x="643" 
d="M364 759h-36l-89 138h40zM567 647h-421v-291h381v-33h-381v-290h421v-33h-458v680h458v-33z" />
    <glyph glyph-name="Eacute" unicode="&#xc9;" horiz-adv-x="643" 
d="M439 897l-89 -138h-36l85 138h40zM567 647h-421v-291h381v-33h-381v-290h421v-33h-458v680h458v-33z" />
    <glyph glyph-name="Ecircumflex" unicode="&#xca;" horiz-adv-x="643" 
d="M338 878l-109 -116h-38l125 139h43l126 -139h-38zM567 647h-421v-291h381v-33h-381v-290h421v-33h-458v680h458v-33z" />
    <glyph glyph-name="Edieresis" unicode="&#xcb;" horiz-adv-x="643" 
d="M252 779q-14 0 -23 9.5t-9 22.5t9.5 22t22.5 9t22.5 -9t9.5 -22t-9 -22.5t-23 -9.5zM424 779q-14 0 -23 9.5t-9 22.5t9.5 22t22.5 9t22.5 -9t9.5 -22t-9 -22.5t-23 -9.5zM567 647h-421v-291h381v-33h-381v-290h421v-33h-458v680h458v-33z" />
    <glyph glyph-name="Igrave" unicode="&#xcc;" horiz-adv-x="255" 
d="M69 897l85 -138h-36l-89 138h40zM109 680h37v-680h-37v680z" />
    <glyph glyph-name="Iacute" unicode="&#xcd;" horiz-adv-x="255" 
d="M189 897h40l-89 -138h-36zM109 680h37v-680h-37v680z" />
    <glyph glyph-name="Icircumflex" unicode="&#xce;" horiz-adv-x="255" 
d="M237 762l-109 116l-109 -116h-38l125 139h43l126 -139h-38zM109 680h37v-680h-37v680z" />
    <glyph glyph-name="Idieresis" unicode="&#xcf;" horiz-adv-x="255" 
d="M42 842q13 0 22.5 -9t9.5 -22t-9 -22.5t-23 -9.5t-23 9.5t-9 22.5t9.5 22t22.5 9zM214 842q13 0 22.5 -9t9.5 -22t-9 -22.5t-23 -9.5t-23 9.5t-9 22.5t9.5 22t22.5 9zM109 680h37v-680h-37v680z" />
    <glyph glyph-name="Eth" unicode="&#xd0;" horiz-adv-x="758" 
d="M333 680q158 0 256 -92.5t98 -241.5q0 -155 -98 -250.5t-256 -95.5h-224v324h-73v32h73v324h224zM333 33q142 0 229.5 86.5t87.5 226.5q0 134 -87.5 217.5t-229.5 83.5h-187v-291h207v-32h-207v-291h187z" />
    <glyph glyph-name="Ntilde" unicode="&#xd1;" horiz-adv-x="778" 
d="M355 836q-29 22 -58 12.5t-29 -45.5h-30q0 38 22.5 58t52 19.5t54.5 -17.5l38 -27q34 -24 61 -13.5t27 47.5h30q0 -39 -21 -60.5t-50 -20t-58 19.5zM632 680h37v-680h-38l-485 621v-621h-37v680h37l486 -624v624z" />
    <glyph glyph-name="Ograve" unicode="&#xd2;" horiz-adv-x="853" 
d="M367 897l85 -138h-36l-89 138h40zM426 692q147 0 250.5 -102.5t103.5 -249.5t-103.5 -249.5t-250.5 -102.5t-250.5 102.5t-103.5 249.5t103.5 249.5t250.5 102.5zM426 22q133 0 225.5 93t92.5 225q0 133 -92.5 225.5t-225.5 92.5q-132 0 -224.5 -92.5t-92.5 -225.5
q0 -132 92.5 -225t224.5 -93z" />
    <glyph glyph-name="Oacute" unicode="&#xd3;" horiz-adv-x="853" 
d="M487 897h40l-89 -138h-36zM426 692q147 0 250.5 -102.5t103.5 -249.5t-103.5 -249.5t-250.5 -102.5t-250.5 102.5t-103.5 249.5t103.5 249.5t250.5 102.5zM426 22q133 0 225.5 93t92.5 225q0 133 -92.5 225.5t-225.5 92.5q-132 0 -224.5 -92.5t-92.5 -225.5
q0 -132 92.5 -225t224.5 -93z" />
    <glyph glyph-name="Ocircumflex" unicode="&#xd4;" horiz-adv-x="853" 
d="M535 762l-109 116l-109 -116h-38l125 139h43l126 -139h-38zM426 692q147 0 250.5 -102.5t103.5 -249.5t-103.5 -249.5t-250.5 -102.5t-250.5 102.5t-103.5 249.5t103.5 249.5t250.5 102.5zM426 22q133 0 225.5 93t92.5 225q0 133 -92.5 225.5t-225.5 92.5
q-132 0 -224.5 -92.5t-92.5 -225.5q0 -132 92.5 -225t224.5 -93z" />
    <glyph glyph-name="Otilde" unicode="&#xd5;" horiz-adv-x="853" 
d="M560 870q0 -39 -21 -60.5t-50 -20t-58 19.5l-39 27q-28 22 -57.5 12.5t-29.5 -45.5h-30q0 38 22.5 58t52 19.5t54.5 -17.5l38 -27q34 -24 61 -13.5t27 47.5h30zM426 692q147 0 250.5 -102.5t103.5 -249.5t-103.5 -249.5t-250.5 -102.5t-250.5 102.5t-103.5 249.5
t103.5 249.5t250.5 102.5zM426 22q133 0 225.5 93t92.5 225q0 133 -92.5 225.5t-225.5 92.5q-132 0 -224.5 -92.5t-92.5 -225.5q0 -132 92.5 -225t224.5 -93z" />
    <glyph glyph-name="Odieresis" unicode="&#xd6;" horiz-adv-x="853" 
d="M340 842q13 0 22.5 -9t9.5 -22t-9 -22.5t-23 -9.5t-23 9.5t-9 22.5t9.5 22t22.5 9zM512 842q13 0 22.5 -9t9.5 -22t-9 -22.5t-23 -9.5t-23 9.5t-9 22.5t9.5 22t22.5 9zM426 692q147 0 250.5 -102.5t103.5 -249.5t-103.5 -249.5t-250.5 -102.5t-250.5 102.5t-103.5 249.5
t103.5 249.5t250.5 102.5zM426 22q133 0 225.5 93t92.5 225q0 133 -92.5 225.5t-225.5 92.5q-132 0 -224.5 -92.5t-92.5 -225.5q0 -132 92.5 -225t224.5 -93z" />
    <glyph glyph-name="multiply" unicode="&#xd7;" horiz-adv-x="654" 
d="M351 316l166 -166l-24 -24l-166 166l-166 -166l-24 24l166 166l-166 166l24 24l166 -166l166 166l24 -24z" />
    <glyph glyph-name="Oslash" unicode="&#xd8;" horiz-adv-x="853" 
d="M666 600q114 -106 114 -260q0 -147 -103.5 -249.5t-250.5 -102.5q-121 0 -214 71l-61 -73l-25 20l61 73q-115 104 -115 261q0 147 103.5 249.5t250.5 102.5q119 0 215 -72l60 72l25 -21zM109 340q0 -139 101 -233l409 487q-86 64 -193 64q-132 0 -224.5 -92.5
t-92.5 -225.5zM426 22q133 0 225.5 93t92.5 225q0 139 -100 233l-409 -487q85 -64 191 -64z" />
    <glyph glyph-name="Ugrave" unicode="&#xd9;" horiz-adv-x="761" 
d="M322 897l85 -138h-36l-89 138h40zM662 680v-400q0 -127 -78 -209.5t-203 -82.5q-126 0 -204 82.5t-78 209.5v400h37v-400q0 -112 68 -185.5t177 -73.5t177 73.5t68 185.5v400h36z" />
    <glyph glyph-name="Uacute" unicode="&#xda;" horiz-adv-x="761" 
d="M442 897h40l-89 -138h-36zM662 680v-400q0 -127 -78 -209.5t-203 -82.5q-126 0 -204 82.5t-78 209.5v400h37v-400q0 -112 68 -185.5t177 -73.5t177 73.5t68 185.5v400h36z" />
    <glyph glyph-name="Ucircumflex" unicode="&#xdb;" horiz-adv-x="761" 
d="M490 762l-109 116l-109 -116h-38l125 139h43l126 -139h-38zM662 680v-400q0 -127 -78 -209.5t-203 -82.5q-126 0 -204 82.5t-78 209.5v400h37v-400q0 -112 68 -185.5t177 -73.5t177 73.5t68 185.5v400h36z" />
    <glyph glyph-name="Udieresis" unicode="&#xdc;" horiz-adv-x="761" 
d="M295 842q13 0 22.5 -9t9.5 -22t-9.5 -22.5t-22.5 -9.5t-22.5 9.5t-9.5 22.5t9.5 22t22.5 9zM467 842q13 0 22.5 -9t9.5 -22t-9.5 -22.5t-22.5 -9.5t-22.5 9.5t-9.5 22.5t9.5 22t22.5 9zM662 680v-400q0 -127 -78 -209.5t-203 -82.5q-126 0 -204 82.5t-78 209.5v400h37
v-400q0 -112 68 -185.5t177 -73.5t177 73.5t68 185.5v400h36z" />
    <glyph glyph-name="Yacute" unicode="&#xdd;" horiz-adv-x="647" 
d="M425 897l-89 -138h-36l85 138h40zM588 680h41l-287 -427v-253h-37v253l-286 427h40l265 -393z" />
    <glyph glyph-name="Thorn" unicode="&#xde;" horiz-adv-x="635" 
d="M333 563q115 0 185 -60t70 -158t-71 -158.5t-187 -60.5h-184v-126h-37v680h37v-117h187zM332 159q99 0 159.5 51.5t60.5 134.5t-60.5 134t-159.5 51h-186v-371h186z" />
    <glyph glyph-name="germandbls" unicode="&#xdf;" horiz-adv-x="597" 
d="M384 356q82 -11 129 -55t47 -118q0 -85 -61 -136.5t-174 -51.5q-38 0 -77 7v32q42 -8 79 -8q98 0 148 44t50 114q0 73 -53 111t-136 38h-34v28q78 5 125 51t47 107q0 57 -40.5 98.5t-115.5 42.5q-84 2 -140.5 -50t-56.5 -147v-463h-34v463q0 107 63.5 168t161.5 61
q90 0 143.5 -49t53.5 -122q0 -54 -32.5 -97.5t-92.5 -67.5z" />
    <glyph glyph-name="agrave" unicode="&#xe0;" 
d="M348 550h-36l-89 138h40zM494 453h35v-453h-35v68q-71 -80 -184 -80q-99 0 -169 69.5t-70 169.5q0 99 70 168.5t169 69.5q113 0 184 -81v69zM313 20q117 0 181 96v220q-65 97 -181 97q-86 0 -146.5 -60t-60.5 -146t60.5 -146.5t146.5 -60.5z" />
    <glyph glyph-name="aacute" unicode="&#xe1;" 
d="M423 687l-89 -138h-36l85 138h40zM494 453h35v-453h-35v68q-71 -80 -184 -80q-99 0 -169 69.5t-70 169.5q0 99 70 168.5t169 69.5q113 0 184 -81v69zM313 20q117 0 181 96v220q-65 97 -181 97q-86 0 -146.5 -60t-60.5 -146t60.5 -146.5t146.5 -60.5z" />
    <glyph glyph-name="acircumflex" unicode="&#xe2;" 
d="M322 659l-109 -116h-38l125 139h43l126 -139h-38zM494 453h35v-453h-35v68q-71 -80 -184 -80q-99 0 -169 69.5t-70 169.5q0 99 70 168.5t169 69.5q113 0 184 -81v69zM313 20q117 0 181 96v220q-65 97 -181 97q-86 0 -146.5 -60t-60.5 -146t60.5 -146.5t146.5 -60.5z" />
    <glyph glyph-name="atilde" unicode="&#xe3;" 
d="M309 627q-29 22 -58 12.5t-29 -45.5h-30q0 38 22.5 58t52 19.5t54.5 -17.5l38 -27q34 -24 61 -13.5t27 47.5h30q0 -39 -21 -60.5t-50 -20t-58 19.5zM494 453h35v-453h-35v68q-71 -80 -184 -80q-99 0 -169 69.5t-70 169.5q0 99 70 168.5t169 69.5q113 0 184 -81v69z
M313 20q117 0 181 96v220q-65 97 -181 97q-86 0 -146.5 -60t-60.5 -146t60.5 -146.5t146.5 -60.5z" />
    <glyph glyph-name="adieresis" unicode="&#xe4;" 
d="M236 588q-14 0 -23 9t-9 23q0 13 9.5 22t22.5 9t22.5 -9t9.5 -22q0 -14 -9 -23t-23 -9zM408 588q-14 0 -23 9t-9 23q0 13 9.5 22t22.5 9t22.5 -9t9.5 -22q0 -14 -9 -23t-23 -9zM494 453h35v-453h-35v68q-71 -80 -184 -80q-99 0 -169 69.5t-70 169.5q0 99 70 168.5
t169 69.5q113 0 184 -81v69zM313 20q117 0 181 96v220q-65 97 -181 97q-86 0 -146.5 -60t-60.5 -146t60.5 -146.5t146.5 -60.5z" />
    <glyph glyph-name="aring" unicode="&#xe5;" 
d="M322 546q-39 0 -65 25.5t-26 63.5t26 63t65 25q38 0 64 -25t26 -63t-26 -63.5t-64 -25.5zM322 699q-28 0 -46.5 -18.5t-18.5 -45.5q0 -28 18.5 -46.5t46.5 -18.5q27 0 46 18.5t19 46.5q0 26 -19 45t-46 19zM494 453h35v-453h-35v68q-71 -80 -184 -80q-99 0 -169 69.5
t-70 169.5q0 99 70 168.5t169 69.5q113 0 184 -81v69zM313 20q117 0 181 96v220q-65 97 -181 97q-86 0 -146.5 -60t-60.5 -146t60.5 -146.5t146.5 -60.5z" />
    <glyph glyph-name="ae" unicode="&#xe6;" horiz-adv-x="963" 
d="M673 465q102 0 163.5 -71t55.5 -179h-416q5 -83 59.5 -139t138.5 -56q57 0 100 23t60 63h39q-20 -55 -73.5 -86.5t-125.5 -31.5q-63 0 -113.5 28t-81.5 77q-87 -105 -230 -105q-83 0 -133.5 37.5t-50.5 101.5q0 54 41.5 85t121.5 31h213q0 87 -41.5 139t-123.5 52
q-58 0 -96.5 -27t-48.5 -70h-37q11 58 60.5 93t121.5 35q146 0 187 -133q28 61 83.5 97t126.5 36zM673 434q-82 0 -136.5 -54.5t-59.5 -135.5h381q-1 84 -53 137t-132 53zM252 21q130 0 212 99q-20 43 -23 93h-214q-63 0 -95 -23t-32 -63q0 -49 41.5 -77.5t110.5 -28.5z" />
    <glyph glyph-name="ccedilla" unicode="&#xe7;" horiz-adv-x="581" 
d="M305 20q64 0 109 32t59 87h37q-15 -69 -70.5 -110t-134.5 -41q-102 0 -168 68.5t-66 170.5q0 101 66 169.5t168 68.5q79 0 134.5 -41t70.5 -109h-37q-14 54 -59 86t-109 32q-88 0 -143.5 -59.5t-55.5 -146.5t55.5 -147t143.5 -60zM232 -218l48 136h35l-51 -136h-32z" />
    <glyph glyph-name="egrave" unicode="&#xe8;" horiz-adv-x="593" 
d="M325 550h-36l-89 138h40zM303 465q102 0 163.5 -71t55.5 -179h-416q5 -83 59.5 -139t138.5 -56q57 0 100 23t60 63h39q-20 -55 -73.5 -86.5t-125.5 -31.5q-101 0 -167 69t-66 170t66 169.5t166 68.5zM303 434q-82 0 -136.5 -54.5t-59.5 -135.5h381q-1 84 -53 137t-132 53
z" />
    <glyph glyph-name="eacute" unicode="&#xe9;" horiz-adv-x="593" 
d="M400 687l-89 -138h-36l85 138h40zM303 465q102 0 163.5 -71t55.5 -179h-416q5 -83 59.5 -139t138.5 -56q57 0 100 23t60 63h39q-20 -55 -73.5 -86.5t-125.5 -31.5q-101 0 -167 69t-66 170t66 169.5t166 68.5zM303 434q-82 0 -136.5 -54.5t-59.5 -135.5h381q-1 84 -53 137
t-132 53z" />
    <glyph glyph-name="ecircumflex" unicode="&#xea;" horiz-adv-x="593" 
d="M299 659l-109 -116h-38l125 139h43l126 -139h-38zM303 465q102 0 163.5 -71t55.5 -179h-416q5 -83 59.5 -139t138.5 -56q57 0 100 23t60 63h39q-20 -55 -73.5 -86.5t-125.5 -31.5q-101 0 -167 69t-66 170t66 169.5t166 68.5zM303 434q-82 0 -136.5 -54.5t-59.5 -135.5
h381q-1 84 -53 137t-132 53z" />
    <glyph glyph-name="edieresis" unicode="&#xeb;" horiz-adv-x="593" 
d="M213 588q-13 0 -22.5 9t-9.5 23q0 13 9.5 22t22.5 9t22.5 -9t9.5 -22q0 -14 -9.5 -23t-22.5 -9zM385 588q-13 0 -22.5 9t-9.5 23q0 13 9.5 22t22.5 9t22.5 -9t9.5 -22q0 -14 -9.5 -23t-22.5 -9zM303 465q102 0 163.5 -71t55.5 -179h-416q5 -83 59.5 -139t138.5 -56
q57 0 100 23t60 63h39q-20 -55 -73.5 -86.5t-125.5 -31.5q-101 0 -167 69t-66 170t66 169.5t166 68.5zM303 434q-82 0 -136.5 -54.5t-59.5 -135.5h381q-1 84 -53 137t-132 53z" />
    <glyph glyph-name="igrave" unicode="&#xec;" horiz-adv-x="267" 
d="M75 688l85 -138h-36l-89 138h40zM116 453h35v-453h-35v453z" />
    <glyph glyph-name="iacute" unicode="&#xed;" horiz-adv-x="267" 
d="M195 687h40l-89 -138h-36zM116 453h35v-453h-35v453z" />
    <glyph glyph-name="icircumflex" unicode="&#xee;" horiz-adv-x="267" 
d="M243 543l-109 116l-109 -116h-38l125 139h43l126 -139h-38zM116 453h35v-453h-35v453z" />
    <glyph glyph-name="idieresis" unicode="&#xef;" horiz-adv-x="267" 
d="M48 651q13 0 22.5 -9t9.5 -22q0 -14 -9 -23t-23 -9t-23 9t-9 23q0 13 9.5 22t22.5 9zM220 651q13 0 22.5 -9t9.5 -22q0 -14 -9 -23t-23 -9t-23 9t-9 23q0 13 9.5 22t22.5 9zM116 453h35v-453h-35v453z" />
    <glyph glyph-name="eth" unicode="&#xf0;" 
d="M372 614q83 -68 132 -167.5t49 -219.5q0 -101 -70 -170t-171 -69t-171 69t-70 170q0 100 70 169t171 69q57 0 106 -25.5t81 -69.5q-42 141 -162 231l-173 -65l-9 28l153 57q-63 42 -132 61l41 16q68 -21 128 -63l76 28l9 -27zM312 20q86 0 146 60t60 147q0 86 -60 146
t-146 60t-146 -60t-60 -146q0 -87 60 -147t146 -60z" />
    <glyph glyph-name="ntilde" unicode="&#xf1;" horiz-adv-x="575" 
d="M288 627q-28 22 -57.5 12.5t-29.5 -45.5h-30q0 38 22.5 58t52 19.5t54.5 -17.5l38 -27q34 -24 61 -13.5t27 47.5h30q0 -39 -21 -60.5t-50 -20t-58 19.5zM318 465q85 0 137 -51.5t52 -143.5v-270h-35v269q0 78 -43.5 121t-113.5 43q-56 0 -105.5 -25t-79.5 -69v-339h-35
v453h35v-66q67 78 188 78z" />
    <glyph glyph-name="ograve" unicode="&#xf2;" 
d="M253 688l85 -138h-36l-89 138h40zM312 465q102 0 171.5 -68.5t69.5 -169.5t-69.5 -170t-171.5 -69t-171.5 69t-69.5 170t69.5 169.5t171.5 68.5zM312 20q87 0 146.5 59.5t59.5 147.5q0 87 -59.5 146.5t-146.5 59.5q-86 0 -146 -59.5t-60 -146.5t60 -147t146 -60z" />
    <glyph glyph-name="oacute" unicode="&#xf3;" 
d="M373 687h40l-89 -138h-36zM312 465q102 0 171.5 -68.5t69.5 -169.5t-69.5 -170t-171.5 -69t-171.5 69t-69.5 170t69.5 169.5t171.5 68.5zM312 20q87 0 146.5 59.5t59.5 147.5q0 87 -59.5 146.5t-146.5 59.5q-86 0 -146 -59.5t-60 -146.5t60 -147t146 -60z" />
    <glyph glyph-name="ocircumflex" unicode="&#xf4;" 
d="M421 543l-109 116l-109 -116h-38l125 139h43l126 -139h-38zM312 465q102 0 171.5 -68.5t69.5 -169.5t-69.5 -170t-171.5 -69t-171.5 69t-69.5 170t69.5 169.5t171.5 68.5zM312 20q87 0 146.5 59.5t59.5 147.5q0 87 -59.5 146.5t-146.5 59.5q-86 0 -146 -59.5t-60 -146.5
t60 -147t146 -60z" />
    <glyph glyph-name="otilde" unicode="&#xf5;" 
d="M467 661q0 -39 -21 -60.5t-50 -20t-58 19.5l-39 27q-29 22 -58 12.5t-29 -45.5h-30q0 38 22.5 58t52 19.5t54.5 -17.5l38 -27q34 -24 61 -13.5t27 47.5h30zM312 465q102 0 171.5 -68.5t69.5 -169.5t-69.5 -170t-171.5 -69t-171.5 69t-69.5 170t69.5 169.5t171.5 68.5z
M312 20q87 0 146.5 59.5t59.5 147.5q0 87 -59.5 146.5t-146.5 59.5q-86 0 -146 -59.5t-60 -146.5t60 -147t146 -60z" />
    <glyph glyph-name="odieresis" unicode="&#xf6;" 
d="M226 651q13 0 22.5 -9t9.5 -22q0 -14 -9 -23t-23 -9t-23 9t-9 23q0 13 9.5 22t22.5 9zM398 651q13 0 22.5 -9t9.5 -22q0 -14 -9 -23t-23 -9t-23 9t-9 23q0 13 9.5 22t22.5 9zM312 465q102 0 171.5 -68.5t69.5 -169.5t-69.5 -170t-171.5 -69t-171.5 69t-69.5 170
t69.5 169.5t171.5 68.5zM312 20q87 0 146.5 59.5t59.5 147.5q0 87 -59.5 146.5t-146.5 59.5q-86 0 -146 -59.5t-60 -146.5t60 -147t146 -60z" />
    <glyph glyph-name="divide" unicode="&#xf7;" horiz-adv-x="700" 
d="M350 471q-13 0 -21.5 8t-8.5 21q0 12 8.5 20.5t21.5 8.5q12 0 21 -8.5t9 -20.5t-9 -20.5t-21 -8.5zM126 301v33h447v-33h-447zM350 106q-13 0 -21.5 8.5t-8.5 20.5q0 13 8.5 21.5t21.5 8.5q12 0 21 -8.5t9 -21.5q0 -12 -9 -20.5t-21 -8.5z" />
    <glyph glyph-name="oslash" unicode="&#xf8;" 
d="M472 408q81 -71 81 -181q0 -101 -69.5 -170t-171.5 -69q-84 0 -149 49l-37 -45l-22 19l37 45q-70 70 -70 171t69.5 169.5t171.5 68.5q75 0 137 -40l37 44l21 -19zM106 227q0 -85 57 -145l264 317q-49 34 -115 34q-86 0 -146 -59.5t-60 -146.5zM312 20q87 0 146.5 59.5
t59.5 147.5q0 93 -68 155l-265 -319q56 -43 127 -43z" />
    <glyph glyph-name="ugrave" unicode="&#xf9;" horiz-adv-x="575" 
d="M305 550h-36l-89 138h40zM445 453h35v-453h-35v66q-67 -78 -188 -78q-84 0 -136.5 52t-52.5 143v270h35v-269q0 -78 43.5 -121t114.5 -43q56 0 105 25t79 70v338z" />
    <glyph glyph-name="uacute" unicode="&#xfa;" horiz-adv-x="575" 
d="M380 687l-89 -138h-36l85 138h40zM445 453h35v-453h-35v66q-67 -78 -188 -78q-84 0 -136.5 52t-52.5 143v270h35v-269q0 -78 43.5 -121t114.5 -43q56 0 105 25t79 70v338z" />
    <glyph glyph-name="ucircumflex" unicode="&#xfb;" horiz-adv-x="575" 
d="M279 659l-109 -116h-38l125 139h43l126 -139h-38zM445 453h35v-453h-35v66q-67 -78 -188 -78q-84 0 -136.5 52t-52.5 143v270h35v-269q0 -78 43.5 -121t114.5 -43q56 0 105 25t79 70v338z" />
    <glyph glyph-name="udieresis" unicode="&#xfc;" horiz-adv-x="575" 
d="M193 588q-13 0 -22.5 9t-9.5 23q0 13 9.5 22t22.5 9t22.5 -9t9.5 -22q0 -14 -9.5 -23t-22.5 -9zM365 588q-13 0 -22.5 9t-9.5 23q0 13 9.5 22t22.5 9t22.5 -9t9.5 -22q0 -14 -9.5 -23t-22.5 -9zM445 453h35v-453h-35v66q-67 -78 -188 -78q-84 0 -136.5 52t-52.5 143v270
h35v-269q0 -78 43.5 -121t114.5 -43q56 0 105 25t79 70v338z" />
    <glyph glyph-name="yacute" unicode="&#xfd;" horiz-adv-x="594" 
d="M406 687l-89 -138h-36l85 138h40zM510 454h38l-321 -684h-38l95 202l-238 482h38l218 -443z" />
    <glyph glyph-name="thorn" unicode="&#xfe;" 
d="M314 465q99 0 169 -69.5t70 -168.5q0 -100 -70 -169.5t-169 -69.5q-113 0 -184 80v-298h-35v940h35v-326q71 81 184 81zM311 20q86 0 146.5 60.5t60.5 146.5t-60.5 146.5t-146.5 60.5q-116 0 -181 -98v-220q64 -96 181 -96z" />
    <glyph glyph-name="ydieresis" unicode="&#xff;" horiz-adv-x="594" 
d="M219 588q-13 0 -22.5 9t-9.5 23q0 13 9.5 22t22.5 9t22.5 -9t9.5 -22q0 -14 -9.5 -23t-22.5 -9zM391 588q-13 0 -22.5 9t-9.5 23q0 13 9.5 22t22.5 9t22.5 -9t9.5 -22q0 -14 -9.5 -23t-22.5 -9zM510 454h38l-321 -684h-38l95 202l-238 482h38l218 -443z" />
    <glyph glyph-name="Amacron" unicode="&#x100;" horiz-adv-x="742" 
d="M509 806v-29h-276v29h276zM666 0l-107 231h-375l-107 -231h-40l316 680h36l316 -680h-39zM198 263h347l-173 375z" />
    <glyph glyph-name="amacron" unicode="&#x101;" 
d="M459 599v-29h-276v29h276zM494 453h35v-453h-35v68q-71 -80 -184 -80q-99 0 -169 69.5t-70 169.5q0 99 70 168.5t169 69.5q113 0 184 -81v69zM313 20q117 0 181 96v220q-65 97 -181 97q-86 0 -146.5 -60t-60.5 -146t60.5 -146.5t146.5 -60.5z" />
    <glyph glyph-name="Abreve" unicode="&#x102;" horiz-adv-x="742" 
d="M372 769q-55 0 -94.5 33.5t-39.5 94.5h30q0 -48 31.5 -74.5t72.5 -26.5t72.5 26.5t31.5 74.5h30q0 -61 -39.5 -94.5t-94.5 -33.5zM666 0l-107 231h-375l-107 -231h-40l316 680h36l316 -680h-39zM198 263h347l-173 375z" />
    <glyph glyph-name="abreve" unicode="&#x103;" 
d="M322 541q-55 0 -94.5 33.5t-39.5 94.5h30q0 -48 31.5 -74.5t72.5 -26.5t72.5 26.5t31.5 74.5h30q0 -61 -39.5 -94.5t-94.5 -33.5zM494 453h35v-453h-35v68q-71 -80 -184 -80q-99 0 -169 69.5t-70 169.5q0 99 70 168.5t169 69.5q113 0 184 -81v69zM313 20q117 0 181 96
v220q-65 97 -181 97q-86 0 -146.5 -60t-60.5 -146t60.5 -146.5t146.5 -60.5z" />
    <glyph glyph-name="Aogonek" unicode="&#x104;" horiz-adv-x="742" 
d="M726 -166l3 -30q-12 -4 -38 -4q-53 0 -85.5 27t-32.5 71q0 69 88 113l-102 220h-375l-107 -231h-40l316 680h36l316 -680h-4q-43 -19 -69 -41.5t-26 -56.5q0 -33 24 -51.5t66 -18.5q12 0 30 2zM198 263h347l-173 375z" />
    <glyph glyph-name="aogonek" unicode="&#x105;" 
d="M553 -166l3 -30q-12 -4 -38 -4q-53 0 -85.5 27t-32.5 71q0 71 94 116v54q-71 -80 -184 -80q-99 0 -169 69.5t-70 169.5q0 99 70 168.5t169 69.5q113 0 184 -81v69h35v-453h-1q-43 -19 -69 -41.5t-26 -56.5q0 -33 24 -51.5t66 -18.5q12 0 30 2zM313 20q117 0 181 96v220
q-65 97 -181 97q-86 0 -146.5 -60t-60.5 -146t60.5 -146.5t146.5 -60.5z" />
    <glyph glyph-name="Cacute" unicode="&#x106;" horiz-adv-x="816" 
d="M528 897l-89 -138h-36l85 138h40zM425 21q106 0 181 55t99 145h39q-26 -105 -112 -170t-207 -65q-147 0 -250 103t-103 251q0 147 103 249.5t250 102.5q121 0 207 -64t112 -169h-39q-24 90 -99 144.5t-181 54.5q-132 0 -224 -92.5t-92 -225.5t92 -226t224 -93z" />
    <glyph glyph-name="cacute" unicode="&#x107;" horiz-adv-x="581" 
d="M405 687l-89 -138h-36l85 138h40zM305 20q64 0 109 32t59 87h37q-15 -69 -70.5 -110t-134.5 -41q-102 0 -168 68.5t-66 170.5q0 101 66 169.5t168 68.5q79 0 134.5 -41t70.5 -109h-37q-14 54 -59 86t-109 32q-88 0 -143.5 -59.5t-55.5 -146.5t55.5 -147t143.5 -60z" />
    <glyph glyph-name="Cdotaccent" unicode="&#x10a;" horiz-adv-x="816" 
d="M427 779q-13 0 -22.5 9.5t-9.5 22.5t9.5 22t22.5 9t22.5 -9t9.5 -22t-9.5 -22.5t-22.5 -9.5zM425 21q106 0 181 55t99 145h39q-26 -105 -112 -170t-207 -65q-147 0 -250 103t-103 251q0 147 103 249.5t250 102.5q121 0 207 -64t112 -169h-39q-24 90 -99 144.5t-181 54.5
q-132 0 -224 -92.5t-92 -225.5t92 -226t224 -93z" />
    <glyph glyph-name="cdotaccent" unicode="&#x10b;" horiz-adv-x="581" 
d="M304 588q-14 0 -23 9t-9 23q0 13 9.5 22t22.5 9t22.5 -9t9.5 -22q0 -14 -9 -23t-23 -9zM305 20q64 0 109 32t59 87h37q-15 -69 -70.5 -110t-134.5 -41q-102 0 -168 68.5t-66 170.5q0 101 66 169.5t168 68.5q79 0 134.5 -41t70.5 -109h-37q-14 54 -59 86t-109 32
q-88 0 -143.5 -59.5t-55.5 -146.5t55.5 -147t143.5 -60z" />
    <glyph glyph-name="Ccaron" unicode="&#x10c;" horiz-adv-x="816" 
d="M448 761h-43l-125 139h38l109 -116l109 116h38zM425 21q106 0 181 55t99 145h39q-26 -105 -112 -170t-207 -65q-147 0 -250 103t-103 251q0 147 103 249.5t250 102.5q121 0 207 -64t112 -169h-39q-24 90 -99 144.5t-181 54.5q-132 0 -224 -92.5t-92 -225.5t92 -226
t224 -93z" />
    <glyph glyph-name="ccaron" unicode="&#x10d;" horiz-adv-x="581" 
d="M325 543h-43l-125 139h38l109 -116l109 116h38zM305 20q64 0 109 32t59 87h37q-15 -69 -70.5 -110t-134.5 -41q-102 0 -168 68.5t-66 170.5q0 101 66 169.5t168 68.5q79 0 134.5 -41t70.5 -109h-37q-14 54 -59 86t-109 32q-88 0 -143.5 -59.5t-55.5 -146.5t55.5 -147
t143.5 -60z" />
    <glyph glyph-name="Dcaron" unicode="&#x10e;" horiz-adv-x="759" 
d="M371 761h-43l-125 139h38l109 -116l109 116h38zM333 680q158 0 256 -92.5t98 -241.5q0 -155 -98 -250.5t-256 -95.5h-224v680h224zM333 33q142 0 229.5 86.5t87.5 226.5q0 134 -87.5 217.5t-229.5 83.5h-187v-614h187z" />
    <glyph glyph-name="dcaron" unicode="&#x10f;" 
d="M494 385v325h35v-710h-35v69q-71 -81 -184 -81q-99 0 -169 69.5t-70 169.5q0 99 70 168.5t169 69.5q113 0 184 -80zM656 710h36l-20 -174h-29zM313 20q116 0 181 97v220q-64 96 -181 96q-86 0 -146.5 -60t-60.5 -146t60.5 -146.5t146.5 -60.5z" />
    <glyph glyph-name="Dcroat" unicode="&#x110;" horiz-adv-x="758" 
d="M333 680q158 0 256 -92.5t98 -241.5q0 -155 -98 -250.5t-256 -95.5h-224v324h-73v32h73v324h224zM333 33q142 0 229.5 86.5t87.5 226.5q0 134 -87.5 217.5t-229.5 83.5h-187v-291h207v-32h-207v-291h187z" />
    <glyph glyph-name="dcroat" unicode="&#x111;" 
d="M569 621v-31h-40v-590h-35v69q-71 -81 -184 -81q-99 0 -169 69.5t-70 169.5q0 99 70 168.5t169 69.5q113 0 184 -80v205h-217v31h217v89h35v-89h40zM313 20q116 0 181 97v220q-64 96 -181 96q-86 0 -146.5 -60t-60.5 -146t60.5 -146.5t146.5 -60.5z" />
    <glyph glyph-name="Emacron" unicode="&#x112;" horiz-adv-x="643" 
d="M475 806v-29h-276v29h276zM567 647h-421v-291h381v-33h-381v-290h421v-33h-458v680h458v-33z" />
    <glyph glyph-name="emacron" unicode="&#x113;" horiz-adv-x="593" 
d="M436 599v-29h-276v29h276zM303 465q102 0 163.5 -71t55.5 -179h-416q5 -83 59.5 -139t138.5 -56q57 0 100 23t60 63h39q-20 -55 -73.5 -86.5t-125.5 -31.5q-101 0 -167 69t-66 170t66 169.5t166 68.5zM303 434q-82 0 -136.5 -54.5t-59.5 -135.5h381q-1 84 -53 137
t-132 53z" />
    <glyph glyph-name="Edotaccent" unicode="&#x116;" horiz-adv-x="643" 
d="M338 779q-14 0 -23 9.5t-9 22.5t9.5 22t22.5 9t22.5 -9t9.5 -22t-9 -22.5t-23 -9.5zM567 647h-421v-291h381v-33h-381v-290h421v-33h-458v680h458v-33z" />
    <glyph glyph-name="edotaccent" unicode="&#x117;" horiz-adv-x="593" 
d="M299 588q-13 0 -22.5 9t-9.5 23q0 13 9.5 22t22.5 9t22.5 -9t9.5 -22q0 -14 -9.5 -23t-22.5 -9zM303 465q102 0 163.5 -71t55.5 -179h-416q5 -83 59.5 -139t138.5 -56q57 0 100 23t60 63h39q-20 -55 -73.5 -86.5t-125.5 -31.5q-101 0 -167 69t-66 170t66 169.5t166 68.5z
M303 434q-82 0 -136.5 -54.5t-59.5 -135.5h381q-1 84 -53 137t-132 53z" />
    <glyph glyph-name="Eogonek" unicode="&#x118;" horiz-adv-x="643" 
d="M592 -166l3 -30q-12 -4 -38 -4q-53 0 -85.5 27t-32.5 71q0 60 68 102h-398v680h458v-33h-421v-291h381v-33h-381v-290h421v-33q-43 -19 -69 -41.5t-26 -56.5q0 -33 24 -51.5t66 -18.5q12 0 30 2z" />
    <glyph glyph-name="eogonek" unicode="&#x119;" horiz-adv-x="595" 
d="M303 465q102 0 163.5 -71t55.5 -179h-416q5 -83 59.5 -139t138.5 -56q57 0 100 23t60 63h39q-16 -43 -54 -73q-2 -2 -14.5 -13.5t-14.5 -14t-10.5 -12t-10.5 -14.5t-6.5 -14t-5.5 -17.5t-1 -18.5q0 -34 24.5 -53t65.5 -19q2 0 29 3l4 -30q-17 -5 -38 -5q-53 0 -85.5 27
t-32.5 72q0 41 25 74q-31 -10 -74 -10q-101 0 -167 69t-66 170t66 169.5t166 68.5zM303 434q-82 0 -136.5 -54.5t-59.5 -135.5h381q-1 84 -53 137t-132 53z" />
    <glyph glyph-name="Ecaron" unicode="&#x11a;" horiz-adv-x="643" 
d="M359 761h-43l-125 139h38l109 -116l109 116h38zM567 647h-421v-291h381v-33h-381v-290h421v-33h-458v680h458v-33z" />
    <glyph glyph-name="ecaron" unicode="&#x11b;" horiz-adv-x="593" 
d="M320 543h-43l-125 139h38l109 -116l109 116h38zM303 465q102 0 163.5 -71t55.5 -179h-416q5 -83 59.5 -139t138.5 -56q57 0 100 23t60 63h39q-20 -55 -73.5 -86.5t-125.5 -31.5q-101 0 -167 69t-66 170t66 169.5t166 68.5zM303 434q-82 0 -136.5 -54.5t-59.5 -135.5h381
q-1 84 -53 137t-132 53z" />
    <glyph glyph-name="Gbreve" unicode="&#x11e;" horiz-adv-x="841" 
d="M427 769q-55 0 -94.5 33.5t-39.5 94.5h30q0 -48 31.5 -74.5t72.5 -26.5t72.5 26.5t31.5 74.5h30q0 -61 -39.5 -94.5t-94.5 -33.5zM418 312v33h324v-345h-32l-2 184q-36 -90 -110 -143t-176 -53q-147 0 -248.5 102t-101.5 249q0 148 103.5 250.5t251.5 102.5
q114 0 202.5 -63t114.5 -166h-39q-24 88 -102 141.5t-176 53.5q-133 0 -225.5 -92.5t-92.5 -226.5q0 -132 90 -224.5t223 -92.5q123 0 198.5 82t84.5 208h-287z" />
    <glyph glyph-name="gbreve" unicode="&#x11f;" 
d="M317 541q-55 0 -94.5 33.5t-39.5 94.5h30q0 -48 31.5 -74.5t72.5 -26.5t72.5 26.5t31.5 74.5h30q0 -61 -39.5 -94.5t-94.5 -33.5zM494 453h35v-491q0 -94 -60.5 -149t-162.5 -55q-89 0 -149.5 42t-75.5 111h37q13 -55 63 -88t125 -33q86 0 137 46.5t51 125.5v110
q-74 -80 -192 -80q-99 0 -165 68t-66 168q0 101 66 169t165 68q119 0 192 -81v69zM304 24q57 0 107.5 25t82.5 71v216q-33 47 -83 72.5t-107 25.5q-85 0 -141.5 -59.5t-56.5 -146.5q0 -86 56.5 -145t141.5 -59z" />
    <glyph glyph-name="Gdotaccent" unicode="&#x120;" horiz-adv-x="841" 
d="M427 779q-13 0 -22.5 9.5t-9.5 22.5t9.5 22t22.5 9t22.5 -9t9.5 -22t-9.5 -22.5t-22.5 -9.5zM418 312v33h324v-345h-32l-2 184q-36 -90 -110 -143t-176 -53q-147 0 -248.5 102t-101.5 249q0 148 103.5 250.5t251.5 102.5q114 0 202.5 -63t114.5 -166h-39
q-24 88 -102 141.5t-176 53.5q-133 0 -225.5 -92.5t-92.5 -226.5q0 -132 90 -224.5t223 -92.5q123 0 198.5 82t84.5 208h-287z" />
    <glyph glyph-name="gdotaccent" unicode="&#x121;" 
d="M317 588q-13 0 -22.5 9t-9.5 23q0 13 9.5 22t22.5 9t22.5 -9t9.5 -22q0 -14 -9.5 -23t-22.5 -9zM494 453h35v-491q0 -94 -60.5 -149t-162.5 -55q-89 0 -149.5 42t-75.5 111h37q13 -55 63 -88t125 -33q86 0 137 46.5t51 125.5v110q-74 -80 -192 -80q-99 0 -165 68t-66 168
q0 101 66 169t165 68q119 0 192 -81v69zM304 24q57 0 107.5 25t82.5 71v216q-33 47 -83 72.5t-107 25.5q-85 0 -141.5 -59.5t-56.5 -146.5q0 -86 56.5 -145t141.5 -59z" />
    <glyph glyph-name="Gcommaaccent" unicode="&#x122;" horiz-adv-x="841" 
d="M418 312v33h324v-345h-32l-2 184q-36 -90 -110 -143t-176 -53q-147 0 -248.5 102t-101.5 249q0 148 103.5 250.5t251.5 102.5q114 0 202.5 -63t114.5 -166h-39q-24 88 -102 141.5t-176 53.5q-133 0 -225.5 -92.5t-92.5 -226.5q0 -132 90 -224.5t223 -92.5q123 0 198.5 82
t84.5 208h-287zM412 -77q12 0 21.5 -8.5t9.5 -23.5q0 -13 -46 -121h-25l37 95q-28 3 -28 28q0 13 9 21.5t22 8.5z" />
    <glyph glyph-name="gcommaaccent" unicode="&#x123;" horiz-adv-x="625" 
d="M311 578q-12 0 -21.5 8.5t-9.5 23.5q0 13 46 121h25l-37 -95q28 -3 28 -28q0 -13 -9 -21.5t-22 -8.5zM494 453h35v-491q0 -94 -60.5 -149t-162.5 -55q-89 0 -149.5 42t-75.5 111h37q13 -55 63 -88t125 -33q86 0 137 46.5t51 125.5v110q-74 -80 -192 -80q-99 0 -165 68
t-66 168q0 101 66 169t165 68q119 0 192 -81v69zM304 24q57 0 107.5 25t82.5 71v216q-33 47 -83 72.5t-107 25.5q-85 0 -141.5 -59.5t-56.5 -146.5q0 -86 56.5 -145t141.5 -59z" />
    <glyph glyph-name="Hbar" unicode="&#x126;" horiz-adv-x="755" 
d="M694 545v-30h-48v-515h-37v322h-463v-322h-37v515h-49v30h49v135h37v-135h463v135h37v-135h48zM609 356v159h-463v-159h463z" />
    <glyph glyph-name="hbar" unicode="&#x127;" horiz-adv-x="567" 
d="M318 465q85 0 137 -51.5t52 -143.5v-270h-35v269q0 78 -43.5 121t-113.5 43q-56 0 -105.5 -25t-79.5 -69v-339h-35v587h-66v29h66v94h35v-94h197v-29h-197v-200q67 78 188 78z" />
    <glyph glyph-name="Imacron" unicode="&#x12a;" horiz-adv-x="255" 
d="M-11 806h276v-29h-276v29zM109 680h37v-680h-37v680z" />
    <glyph glyph-name="imacron" unicode="&#x12b;" horiz-adv-x="267" 
d="M-5 599h276v-29h-276v29zM116 453h35v-453h-35v453z" />
    <glyph glyph-name="Iogonek" unicode="&#x12e;" horiz-adv-x="255" 
d="M171 -166l3 -30q-12 -4 -38 -4q-53 0 -85.5 27t-32.5 71q0 70 91 114v668h37v-680q-43 -19 -69 -41.5t-26 -56.5q0 -33 24 -51.5t66 -18.5q12 0 30 2z" />
    <glyph glyph-name="iogonek" unicode="&#x12f;" horiz-adv-x="266" 
d="M126 602q-13 0 -22 8t-9 21t9 21.5t22 8.5q12 0 21 -8.5t9 -21.5q0 -12 -9 -20.5t-21 -8.5zM167 -166l3 -30q-12 -4 -38 -4q-53 0 -85.5 27t-32.5 71q0 72 95 116v439h34v-453h-1q-43 -19 -69 -41.5t-26 -56.5q0 -33 24 -51.5t66 -18.5q12 0 30 2z" />
    <glyph glyph-name="Idotaccent" unicode="&#x130;" horiz-adv-x="255" 
d="M128 780q-14 0 -23 9t-9 23q0 13 9.5 22t22.5 9t22.5 -9t9.5 -22q0 -14 -9 -23t-23 -9zM109 680h37v-680h-37v680z" />
    <glyph glyph-name="dotlessi" unicode="&#x131;" horiz-adv-x="267" 
d="M116 453h35v-453h-35v453z" />
    <glyph glyph-name="IJ" unicode="&#x132;" horiz-adv-x="848" 
d="M109 680h37v-680h-37v680zM749 680v-441q0 -117 -63.5 -184t-169.5 -67q-94 0 -155.5 51t-77.5 140h36q14 -74 66 -116t133 -42q88 0 141.5 58.5t53.5 159.5v441h36z" />
    <glyph glyph-name="ij" unicode="&#x133;" horiz-adv-x="498" 
d="M126 602q-13 0 -22 8t-9 21t9 21.5t22 8.5q12 0 21 -8.5t9 -21.5q0 -12 -9 -20.5t-21 -8.5zM373 602q-13 0 -21.5 8t-8.5 21t8.5 21.5t21.5 8.5t21.5 -8.5t8.5 -21.5t-8.5 -21t-21.5 -8zM109 453h34v-453h-34v453zM391 453v-522q0 -93 -33.5 -133t-113.5 -40l-2 32
q62 0 88 32t26 107v524h35z" />
    <glyph glyph-name="Kcommaaccent" unicode="&#x136;" horiz-adv-x="700" 
d="M318 365l350 -365h-48l-327 339l-147 -149v-190h-37v680h37v-439l435 439h47zM340 -77q12 0 21.5 -8.5t9.5 -23.5q0 -13 -46 -121h-25l37 95q-28 3 -28 28q0 13 9 21.5t22 8.5z" />
    <glyph glyph-name="kcommaaccent" unicode="&#x137;" horiz-adv-x="547" 
d="M263 262l257 -262h-48l-234 239l-108 -97v-142h-35v710h35v-522l297 265h47zM277 -77q12 0 21.5 -8.5t9.5 -23.5q0 -13 -46 -121h-25l37 95q-28 3 -28 28q0 13 9 21.5t22 8.5z" />
    <glyph glyph-name="Lacute" unicode="&#x139;" horiz-adv-x="577" 
d="M231 897l-89 -138h-36l85 138h40zM146 33h394v-33h-431v680h37v-647z" />
    <glyph glyph-name="lacute" unicode="&#x13a;" horiz-adv-x="226" 
d="M190 944h40l-89 -138h-36zM95 710h35v-710h-35v710z" />
    <glyph glyph-name="Lcommaaccent" unicode="&#x13b;" horiz-adv-x="577" 
d="M146 33h394v-33h-431v680h37v-647zM319 -77q12 0 21.5 -8.5t9.5 -23.5q0 -13 -46 -121h-25l37 95q-28 3 -28 28q0 13 9 21.5t22 8.5z" />
    <glyph glyph-name="lcommaaccent" unicode="&#x13c;" horiz-adv-x="226" 
d="M95 710h35v-710h-35v710zM69 -230l37 95q-28 3 -28 28q0 13 9 21.5t22 8.5q12 0 21.5 -8.5t9.5 -23.5q0 -13 -46 -121h-25z" />
    <glyph glyph-name="Lcaron" unicode="&#x13d;" horiz-adv-x="577" 
d="M146 33h394v-33h-431v680h37v-647zM375 680l-20 -174h-29l13 174h36z" />
    <glyph glyph-name="lcaron" unicode="&#x13e;" horiz-adv-x="226" 
d="M95 710h35v-710h-35v710zM231 710h36l-20 -174h-29z" />
    <glyph glyph-name="Ldot" unicode="&#x13f;" horiz-adv-x="577" 
d="M146 33h394v-33h-431v680h37v-647zM360 275q-14 0 -23 9.5t-9 22.5t9.5 22t22.5 9t22.5 -9t9.5 -22t-9 -22.5t-23 -9.5z" />
    <glyph glyph-name="ldot" unicode="&#x140;" horiz-adv-x="246" 
d="M95 710h35v-710h-35v710zM222 277q-14 0 -23 9.5t-9 22.5t9.5 22t22.5 9t22.5 -9t9.5 -22t-9 -22.5t-23 -9.5z" />
    <glyph glyph-name="Lslash" unicode="&#x141;" horiz-adv-x="577" 
d="M146 33h394v-33h-431v254l-81 -46v36l81 46v390h37v-369l160 91v-36l-160 -91v-242z" />
    <glyph glyph-name="lslash" unicode="&#x142;" horiz-adv-x="226" 
d="M208 427v-38l-78 -45v-344h-35v324l-77 -44v39l77 44v347h35v-327z" />
    <glyph glyph-name="Nacute" unicode="&#x143;" horiz-adv-x="778" 
d="M490 897l-89 -138h-36l85 138h40zM632 680h37v-680h-38l-485 621v-621h-37v680h37l486 -624v624z" />
    <glyph glyph-name="nacute" unicode="&#x144;" horiz-adv-x="575" 
d="M402 687l-89 -138h-36l85 138h40zM318 465q85 0 137 -51.5t52 -143.5v-270h-35v269q0 78 -43.5 121t-113.5 43q-56 0 -105.5 -25t-79.5 -69v-339h-35v453h35v-66q67 78 188 78z" />
    <glyph glyph-name="Ncommaaccent" unicode="&#x145;" horiz-adv-x="778" 
d="M632 680h37v-680h-38l-485 621v-621h-37v680h37l486 -624v624zM362 -77q12 0 21.5 -8.5t9.5 -23.5q0 -13 -46 -121h-25l37 95q-28 3 -28 28q0 13 9 21.5t22 8.5z" />
    <glyph glyph-name="ncommaaccent" unicode="&#x146;" horiz-adv-x="575" 
d="M318 465q85 0 137 -51.5t52 -143.5v-270h-35v269q0 78 -43.5 121t-113.5 43q-56 0 -105.5 -25t-79.5 -69v-339h-35v453h35v-66q67 78 188 78zM303 -77q12 0 21.5 -8.5t9.5 -23.5q0 -13 -46 -121h-25l37 95q-28 3 -28 28q0 13 9 21.5t22 8.5z" />
    <glyph glyph-name="Ncaron" unicode="&#x147;" horiz-adv-x="778" 
d="M410 761h-43l-125 139h38l109 -116l109 116h38zM632 680h37v-680h-38l-485 621v-621h-37v680h37l486 -624v624z" />
    <glyph glyph-name="ncaron" unicode="&#x148;" horiz-adv-x="575" 
d="M322 543h-43l-125 139h38l109 -116l109 116h38zM318 465q85 0 137 -51.5t52 -143.5v-270h-35v269q0 78 -43.5 121t-113.5 43q-56 0 -105.5 -25t-79.5 -69v-339h-35v453h35v-66q67 78 188 78z" />
    <glyph glyph-name="Omacron" unicode="&#x14c;" horiz-adv-x="853" 
d="M287 806h276v-29h-276v29zM426 692q147 0 250.5 -102.5t103.5 -249.5t-103.5 -249.5t-250.5 -102.5t-250.5 102.5t-103.5 249.5t103.5 249.5t250.5 102.5zM426 22q133 0 225.5 93t92.5 225q0 133 -92.5 225.5t-225.5 92.5q-132 0 -224.5 -92.5t-92.5 -225.5
q0 -132 92.5 -225t224.5 -93z" />
    <glyph glyph-name="omacron" unicode="&#x14d;" 
d="M173 599h276v-29h-276v29zM312 465q102 0 171.5 -68.5t69.5 -169.5t-69.5 -170t-171.5 -69t-171.5 69t-69.5 170t69.5 169.5t171.5 68.5zM312 20q87 0 146.5 59.5t59.5 147.5q0 87 -59.5 146.5t-146.5 59.5q-86 0 -146 -59.5t-60 -146.5t60 -147t146 -60z" />
    <glyph glyph-name="Ohungarumlaut" unicode="&#x150;" horiz-adv-x="853" 
d="M415 897h38l-86 -138h-34zM542 897h38l-86 -138h-34zM426 692q147 0 250.5 -102.5t103.5 -249.5t-103.5 -249.5t-250.5 -102.5t-250.5 102.5t-103.5 249.5t103.5 249.5t250.5 102.5zM426 22q133 0 225.5 93t92.5 225q0 133 -92.5 225.5t-225.5 92.5q-132 0 -224.5 -92.5
t-92.5 -225.5q0 -132 92.5 -225t224.5 -93z" />
    <glyph glyph-name="ohungarumlaut" unicode="&#x151;" 
d="M301 688h38l-86 -138h-34zM428 688h38l-86 -138h-34zM312 465q102 0 171.5 -68.5t69.5 -169.5t-69.5 -170t-171.5 -69t-171.5 69t-69.5 170t69.5 169.5t171.5 68.5zM312 20q87 0 146.5 59.5t59.5 147.5q0 87 -59.5 146.5t-146.5 59.5q-86 0 -146 -59.5t-60 -146.5
t60 -147t146 -60z" />
    <glyph glyph-name="OE" unicode="&#x152;" horiz-adv-x="1054" 
d="M978 647h-421v-291h381v-33h-381v-290h421v-33h-523q-168 0 -275.5 96t-107.5 244t107.5 244t275.5 96h523v-33zM455 34l65 1v610l-65 1q-153 0 -249.5 -86t-96.5 -220q0 -133 96.5 -219.5t249.5 -86.5z" />
    <glyph glyph-name="oe" unicode="&#x153;" horiz-adv-x="1041" 
d="M751 465q102 0 163.5 -71t55.5 -179h-416q5 -83 59.5 -139t138.5 -56q57 0 100 23t60 63h39q-20 -55 -73.5 -86.5t-125.5 -31.5q-76 0 -133.5 40t-83.5 107q-27 -66 -87 -106.5t-136 -40.5q-102 0 -171.5 69t-69.5 170t69.5 169.5t171.5 68.5q76 0 136.5 -40t87.5 -107
q25 67 82.5 107t132.5 40zM751 434q-82 0 -136.5 -54.5t-59.5 -135.5h381q-1 84 -53 137t-132 53zM312 20q87 0 146.5 59.5t59.5 147.5q0 87 -59.5 146.5t-146.5 59.5q-86 0 -146 -59.5t-60 -146.5t60 -147t146 -60z" />
    <glyph glyph-name="Racute" unicode="&#x154;" horiz-adv-x="668" 
d="M422 897l-89 -138h-36l85 138h40zM573 0l-230 263h-197v-263h-37v680h236q115 0 184.5 -55.5t69.5 -152.5q0 -87 -56.5 -141.5t-153.5 -65.5l233 -265h-49zM146 647v-350h198q99 0 159 46.5t60 128.5q0 81 -60 128t-159 47h-198z" />
    <glyph glyph-name="racute" unicode="&#x155;" horiz-adv-x="341" 
d="M291 687l-89 -138h-36l85 138h40zM130 358q31 51 81 80.5t107 29.5v-33q-58 -1 -108.5 -36t-79.5 -95v-304h-35v453h35v-95z" />
    <glyph glyph-name="Rcommaaccent" unicode="&#x156;" horiz-adv-x="668" 
d="M389 265l233 -265h-49l-230 263h-197v-263h-37v680h236q115 0 184.5 -55.5t69.5 -152.5q0 -87 -56.5 -141.5t-153.5 -65.5zM146 647v-350h198q99 0 159 46.5t60 128.5q0 81 -60 128t-159 47h-198zM316 -77q12 0 21.5 -8.5t9.5 -23.5q0 -13 -46 -121h-25l37 95
q-28 3 -28 28q0 13 9 21.5t22 8.5z" />
    <glyph glyph-name="rcommaaccent" unicode="&#x157;" horiz-adv-x="341" 
d="M130 358q31 51 81 80.5t107 29.5v-33q-58 -1 -108.5 -36t-79.5 -95v-304h-35v453h35v-95zM112 -77q12 0 21.5 -8.5t9.5 -23.5q0 -13 -46 -121h-25l37 95q-28 3 -28 28q0 13 9 21.5t22 8.5z" />
    <glyph glyph-name="Rcaron" unicode="&#x158;" horiz-adv-x="668" 
d="M342 761h-43l-125 139h38l109 -116l109 116h38zM573 0l-230 263h-197v-263h-37v680h236q115 0 184.5 -55.5t69.5 -152.5q0 -87 -56.5 -141.5t-153.5 -65.5l233 -265h-49zM146 647v-350h198q99 0 159 46.5t60 128.5q0 81 -60 128t-159 47h-198z" />
    <glyph glyph-name="rcaron" unicode="&#x159;" horiz-adv-x="341" 
d="M211 543h-43l-125 139h38l109 -116l109 116h38zM130 358q31 51 81 80.5t107 29.5v-33q-58 -1 -108.5 -36t-79.5 -95v-304h-35v453h35v-95z" />
    <glyph glyph-name="Sacute" unicode="&#x15a;" horiz-adv-x="655" 
d="M389 897h40l-89 -138h-36zM327 692q111 0 177.5 -48.5t79.5 -135.5h-36q-30 152 -220 152q-88 0 -141.5 -40t-53.5 -109q0 -104 142 -130l133 -26q86 -16 132.5 -59.5t46.5 -110.5q0 -90 -68 -143.5t-179 -53.5q-120 0 -191 57.5t-86 168.5h36q31 -193 242 -193
q95 0 152 44t57 117q0 54 -38.5 90t-110.5 49l-140 27q-82 16 -124 57.5t-42 105.5q0 82 63.5 131.5t168.5 49.5z" />
    <glyph glyph-name="sacute" unicode="&#x15b;" horiz-adv-x="540" 
d="M331 687h40l-89 -138h-36zM99 131q28 -112 179 -112q68 0 108.5 26.5t40.5 72.5q0 38 -27 61.5t-71 29.5l-106 17q-135 22 -135 116q0 57 48 90.5t127 33.5q81 0 135.5 -36t59.5 -101h-33q-17 106 -161 106q-65 0 -103 -24.5t-38 -67.5q0 -69 107 -86l95 -16
q136 -22 136 -123q0 -60 -51 -95t-134 -35q-92 0 -145 38t-66 105h34z" />
    <glyph glyph-name="Scedilla" unicode="&#x15e;" horiz-adv-x="655" 
d="M327 692q111 0 177.5 -48.5t79.5 -135.5h-36q-30 152 -220 152q-88 0 -141.5 -40t-53.5 -109q0 -104 142 -130l133 -26q86 -16 132.5 -59.5t46.5 -110.5q0 -90 -68 -143.5t-179 -53.5q-120 0 -191 57.5t-86 168.5h36q31 -193 242 -193q95 0 152 44t57 117q0 54 -38.5 90
t-110.5 49l-140 27q-82 16 -124 57.5t-42 105.5q0 82 63.5 131.5t168.5 49.5zM363 -82l-51 -136h-32l48 136h35z" />
    <glyph glyph-name="scedilla" unicode="&#x15f;" horiz-adv-x="540" 
d="M99 131q28 -112 179 -112q68 0 108.5 26.5t40.5 72.5q0 38 -27 61.5t-71 29.5l-106 17q-135 22 -135 116q0 57 48 90.5t127 33.5q81 0 135.5 -36t59.5 -101h-33q-17 106 -161 106q-65 0 -103 -24.5t-38 -67.5q0 -69 107 -86l95 -16q136 -22 136 -123q0 -60 -51 -95
t-134 -35q-92 0 -145 38t-66 105h34zM294 -82l-51 -136h-32l48 136h35z" />
    <glyph glyph-name="Scaron" unicode="&#x160;" horiz-adv-x="655" 
d="M437 900h38l-126 -139h-43l-125 139h38l109 -116zM327 692q111 0 177.5 -48.5t79.5 -135.5h-36q-30 152 -220 152q-88 0 -141.5 -40t-53.5 -109q0 -104 142 -130l133 -26q86 -16 132.5 -59.5t46.5 -110.5q0 -90 -68 -143.5t-179 -53.5q-120 0 -191 57.5t-86 168.5h36
q31 -193 242 -193q95 0 152 44t57 117q0 54 -38.5 90t-110.5 49l-140 27q-82 16 -124 57.5t-42 105.5q0 82 63.5 131.5t168.5 49.5z" />
    <glyph glyph-name="scaron" unicode="&#x161;" horiz-adv-x="540" 
d="M379 682h38l-126 -139h-43l-125 139h38l109 -116zM99 131q28 -112 179 -112q68 0 108.5 26.5t40.5 72.5q0 38 -27 61.5t-71 29.5l-106 17q-135 22 -135 116q0 57 48 90.5t127 33.5q81 0 135.5 -36t59.5 -101h-33q-17 106 -161 106q-65 0 -103 -24.5t-38 -67.5
q0 -69 107 -86l95 -16q136 -22 136 -123q0 -60 -51 -95t-134 -35q-92 0 -145 38t-66 105h34z" />
    <glyph glyph-name="uni0162" unicode="&#x162;" horiz-adv-x="626" 
d="M596 680v-33h-265v-647h-36v647h-265v33h566zM246 -218l48 136h35l-51 -136h-32z" />
    <glyph glyph-name="uni0163" unicode="&#x163;" horiz-adv-x="418" 
d="M360 35l6 -34q-46 -13 -85 -13q-77 0 -111 40t-34 131v263h-135v31h135v171h35v-171h174v-31h-174v-263q0 -74 26 -106t86 -32q33 0 77 14zM191 -218l48 136h35l-51 -136h-32z" />
    <glyph glyph-name="Tcaron" unicode="&#x164;" horiz-adv-x="626" 
d="M334 761h-43l-125 139h38l109 -116l109 116h38zM596 680v-33h-265v-647h-36v647h-265v33h566z" />
    <glyph glyph-name="tcaron" unicode="&#x165;" horiz-adv-x="418" 
d="M296 712l-20 -174h-29l13 174h36zM360 35l6 -34q-46 -13 -85 -13q-77 0 -111 40t-34 131v263h-135v31h135v171h35v-171h174v-31h-174v-263q0 -74 26 -106t86 -32q33 0 77 14z" />
    <glyph glyph-name="Umacron" unicode="&#x16a;" horiz-adv-x="761" 
d="M242 806h276v-29h-276v29zM662 680v-400q0 -127 -78 -209.5t-203 -82.5q-126 0 -204 82.5t-78 209.5v400h37v-400q0 -112 68 -185.5t177 -73.5t177 73.5t68 185.5v400h36z" />
    <glyph glyph-name="umacron" unicode="&#x16b;" horiz-adv-x="575" 
d="M416 599v-29h-276v29h276zM445 453h35v-453h-35v66q-67 -78 -188 -78q-84 0 -136.5 52t-52.5 143v270h35v-269q0 -78 43.5 -121t114.5 -43q56 0 105 25t79 70v338z" />
    <glyph glyph-name="Uring" unicode="&#x16e;" horiz-adv-x="761" 
d="M381 952q38 0 64 -25t26 -63t-26 -63.5t-64 -25.5q-39 0 -65 25.5t-26 63.5t26 63t65 25zM381 799q27 0 46 18.5t19 46.5q0 26 -19 45t-46 19t-46 -19t-19 -45q0 -28 18.5 -46.5t46.5 -18.5zM662 680v-400q0 -127 -78 -209.5t-203 -82.5q-126 0 -204 82.5t-78 209.5v400
h37v-400q0 -112 68 -185.5t177 -73.5t177 73.5t68 185.5v400h36z" />
    <glyph glyph-name="uring" unicode="&#x16f;" horiz-adv-x="575" 
d="M279 546q-39 0 -65 25.5t-26 63.5t26 63t65 25q38 0 64 -25t26 -63t-26 -63.5t-64 -25.5zM279 699q-27 0 -46 -18.5t-19 -45.5q0 -28 18.5 -46.5t46.5 -18.5q27 0 46 18.5t19 46.5q0 26 -19 45t-46 19zM445 453h35v-453h-35v66q-67 -78 -188 -78q-84 0 -136.5 52
t-52.5 143v270h35v-269q0 -78 43.5 -121t114.5 -43q56 0 105 25t79 70v338z" />
    <glyph glyph-name="Uhungarumlaut" unicode="&#x170;" horiz-adv-x="761" 
d="M370 897h38l-86 -138h-34zM497 897h38l-86 -138h-34zM662 680v-400q0 -127 -78 -209.5t-203 -82.5q-126 0 -204 82.5t-78 209.5v400h37v-400q0 -112 68 -185.5t177 -73.5t177 73.5t68 185.5v400h36z" />
    <glyph glyph-name="uhungarumlaut" unicode="&#x171;" horiz-adv-x="575" 
d="M306 688l-86 -138h-34l82 138h38zM433 688l-86 -138h-34l82 138h38zM445 453h35v-453h-35v66q-67 -78 -188 -78q-84 0 -136.5 52t-52.5 143v270h35v-269q0 -78 43.5 -121t114.5 -43q56 0 105 25t79 70v338z" />
    <glyph glyph-name="Uogonek" unicode="&#x172;" horiz-adv-x="761" 
d="M626 680h36v-400q0 -95 -45 -167.5t-124 -103.5v-1q-48 -25 -74.5 -49t-26.5 -59q0 -33 24 -52t65 -19q12 0 30 2l3 -32q-18 -4 -38 -4q-53 0 -85 27t-32 72q0 52 55 96q-22 -2 -33 -2q-126 0 -204 82.5t-78 209.5v400h37v-400q0 -112 68 -185.5t177 -73.5t177 73.5
t68 185.5v400z" />
    <glyph glyph-name="uogonek" unicode="&#x173;" horiz-adv-x="575" 
d="M505 -166l3 -30q-12 -4 -38 -4q-53 0 -85.5 27t-32.5 71q0 71 93 115v53q-67 -78 -188 -78q-84 0 -136.5 52t-52.5 143v270h35v-269q0 -78 43.5 -121t114.5 -43q56 0 105 25t79 70v338h35v-453q-43 -19 -69 -41.5t-26 -56.5q0 -33 24 -51.5t66 -18.5q12 0 30 2z" />
    <glyph glyph-name="Wcircumflex" unicode="&#x174;" horiz-adv-x="1020" 
d="M510 878l-109 -116h-38l125 139h43l126 -139h-38zM954 680h37l-237 -685h-35l-209 627l-209 -627h-35l-237 685h37l217 -631l210 631h34l210 -631z" />
    <glyph glyph-name="wcircumflex" unicode="&#x175;" horiz-adv-x="771" 
d="M386 659l-109 -116h-38l125 139h43l126 -139h-38zM687 453h38l-171 -453h-34l-135 401l-134 -401h-35l-170 453h38l149 -400l135 400h34l136 -400z" />
    <glyph glyph-name="Ycircumflex" unicode="&#x176;" horiz-adv-x="647" 
d="M324 878l-109 -116h-38l125 139h43l126 -139h-38zM588 680h41l-287 -427v-253h-37v253l-286 427h40l265 -393z" />
    <glyph glyph-name="ycircumflex" unicode="&#x177;" horiz-adv-x="594" 
d="M305 659l-109 -116h-38l125 139h43l126 -139h-38zM510 454h38l-321 -684h-38l95 202l-238 482h38l218 -443z" />
    <glyph glyph-name="Ydieresis" unicode="&#x178;" horiz-adv-x="647" 
d="M238 779q-14 0 -23 9.5t-9 22.5t9.5 22t22.5 9t22.5 -9t9.5 -22t-9 -22.5t-23 -9.5zM410 779q-14 0 -23 9.5t-9 22.5t9.5 22t22.5 9t22.5 -9t9.5 -22t-9 -22.5t-23 -9.5zM588 680h41l-287 -427v-253h-37v253l-286 427h40l265 -393z" />
    <glyph glyph-name="Zacute" unicode="&#x179;" horiz-adv-x="655" 
d="M429 897l-89 -138h-36l85 138h40zM579 680v-23l-455 -624h455v-33h-508v23l458 624h-448v33h498z" />
    <glyph glyph-name="zacute" unicode="&#x17a;" horiz-adv-x="490" 
d="M347 687l-89 -138h-36l85 138h40zM434 453v-23l-327 -399h327v-31h-377v22l326 400h-313v31h364z" />
    <glyph glyph-name="Zdotaccent" unicode="&#x17b;" horiz-adv-x="655" 
d="M328 779q-14 0 -23 9.5t-9 22.5t9.5 22t22.5 9t22.5 -9t9.5 -22t-9 -22.5t-23 -9.5zM579 680v-23l-455 -624h455v-33h-508v23l458 624h-448v33h498z" />
    <glyph glyph-name="zdotaccent" unicode="&#x17c;" horiz-adv-x="490" 
d="M246 588q-14 0 -23 9t-9 23q0 13 9.5 22t22.5 9t22.5 -9t9.5 -22q0 -14 -9 -23t-23 -9zM434 453v-23l-327 -399h327v-31h-377v22l326 400h-313v31h364z" />
    <glyph glyph-name="Zcaron" unicode="&#x17d;" horiz-adv-x="655" 
d="M349 761h-43l-125 139h38l109 -116l109 116h38zM579 680v-23l-455 -624h455v-33h-508v23l458 624h-448v33h498z" />
    <glyph glyph-name="zcaron" unicode="&#x17e;" horiz-adv-x="490" 
d="M267 543h-43l-125 139h38l109 -116l109 116h38zM434 453v-23l-327 -399h327v-31h-377v22l326 400h-313v31h364z" />
    <glyph glyph-name="florin" unicode="&#x192;" horiz-adv-x="445" 
d="M349 652q-98 0 -113 -121l-23 -169h171v-31h-175l-32 -248q-9 -72 -46 -113t-100 -41q-37 0 -85 12l7 30q43 -10 75 -10q97 0 114 122l31 248h-130v31h134l23 169q10 72 46.5 113t99.5 41q37 0 85 -12l-6 -30q-47 9 -76 9z" />
    <glyph glyph-name="uni01CD" unicode="&#x1cd;" horiz-adv-x="742" 
d="M393 761h-43l-125 139h38l109 -116l109 116h38zM666 0l-107 231h-375l-107 -231h-40l316 680h36l316 -680h-39zM198 263h347l-173 375z" />
    <glyph glyph-name="uni01CE" unicode="&#x1ce;" 
d="M343 543h-43l-125 139h38l109 -116l109 116h38zM494 453h35v-453h-35v68q-71 -80 -184 -80q-99 0 -169 69.5t-70 169.5q0 99 70 168.5t169 69.5q113 0 184 -81v69zM313 20q117 0 181 96v220q-65 97 -181 97q-86 0 -146.5 -60t-60.5 -146t60.5 -146.5t146.5 -60.5z" />
    <glyph glyph-name="Scommaaccent" unicode="&#x218;" horiz-adv-x="655" 
d="M327 692q111 0 177.5 -48.5t79.5 -135.5h-36q-30 152 -220 152q-88 0 -141.5 -40t-53.5 -109q0 -104 142 -130l133 -26q86 -16 132.5 -59.5t46.5 -110.5q0 -90 -68 -143.5t-179 -53.5q-120 0 -191 57.5t-86 168.5h36q31 -193 242 -193q95 0 152 44t57 117q0 54 -38.5 90
t-110.5 49l-140 27q-82 16 -124 57.5t-42 105.5q0 82 63.5 131.5t168.5 49.5zM289 -230l37 95q-28 3 -28 28q0 13 9 21.5t22 8.5q12 0 21.5 -8.5t9.5 -23.5q0 -13 -46 -121h-25z" />
    <glyph glyph-name="scommaaccent" unicode="&#x219;" horiz-adv-x="540" 
d="M99 131q28 -112 179 -112q68 0 108.5 26.5t40.5 72.5q0 38 -27 61.5t-71 29.5l-106 17q-135 22 -135 116q0 57 48 90.5t127 33.5q81 0 135.5 -36t59.5 -101h-33q-17 106 -161 106q-65 0 -103 -24.5t-38 -67.5q0 -69 107 -86l95 -16q136 -22 136 -123q0 -60 -51 -95
t-134 -35q-92 0 -145 38t-66 105h34zM217 -230l37 95q-28 3 -28 28q0 13 9 21.5t22 8.5q12 0 21.5 -8.5t9.5 -23.5q0 -13 -46 -121h-25z" />
    <glyph glyph-name="uni021A" unicode="&#x21a;" horiz-adv-x="626" 
d="M596 680v-33h-265v-647h-36v647h-265v33h566zM310 -77q12 0 21.5 -8.5t9.5 -23.5q0 -13 -46 -121h-25l37 95q-28 3 -28 28q0 13 9 21.5t22 8.5z" />
    <glyph glyph-name="uni021B" unicode="&#x21b;" horiz-adv-x="418" 
d="M360 35l6 -34q-46 -13 -85 -13q-77 0 -111 40t-34 131v263h-135v31h135v171h35v-171h174v-31h-174v-263q0 -74 26 -106t86 -32q33 0 77 14zM237 -77q12 0 21.5 -8.5t9.5 -23.5q0 -13 -46 -121h-25l37 95q-28 3 -28 28q0 13 9 21.5t22 8.5z" />
    <glyph glyph-name="circumflex" unicode="&#x2c6;" horiz-adv-x="600" 
d="M409 570l-109 116l-109 -116h-38l125 139h43l126 -139h-38z" />
    <glyph glyph-name="caron" unicode="&#x2c7;" horiz-adv-x="600" 
d="M409 709h38l-126 -139h-43l-125 139h38l109 -116z" />
    <glyph glyph-name="breve" unicode="&#x2d8;" horiz-adv-x="600" 
d="M434 686q0 -61 -39.5 -94.5t-94.5 -33.5t-94.5 33.5t-39.5 94.5h30q0 -48 31.5 -74.5t72.5 -26.5t72.5 26.5t31.5 74.5h30z" />
    <glyph glyph-name="dotaccent" unicode="&#x2d9;" horiz-adv-x="600" 
d="M300 571q-14 0 -23 9.5t-9 22.5t9.5 22t22.5 9t22.5 -9t9.5 -22t-9 -22.5t-23 -9.5z" />
    <glyph glyph-name="ring" unicode="&#x2da;" horiz-adv-x="600" 
d="M300 741q38 0 64 -25t26 -63t-26 -63.5t-64 -25.5q-39 0 -65 25.5t-26 63.5t26 63t65 25zM300 588q27 0 46 18.5t19 46.5q0 26 -19 45t-46 19q-28 0 -46.5 -18.5t-18.5 -45.5q0 -28 18.5 -46.5t46.5 -18.5z" />
    <glyph glyph-name="ogonek" unicode="&#x2db;" horiz-adv-x="600" 
d="M361 -6q-43 -19 -69 -41.5t-26 -56.5q0 -33 24 -51.5t66 -18.5q12 0 30 2l3 -30q-12 -4 -38 -4q-53 0 -85.5 27t-32.5 71q0 81 118 126z" />
    <glyph glyph-name="tilde" unicode="&#x2dc;" horiz-adv-x="600" 
d="M434 679q0 -39 -21 -60.5t-50 -20t-58 19.5l-39 27q-28 22 -57.5 12.5t-29.5 -45.5h-30q0 38 22.5 58t52 19.5t54.5 -17.5l38 -27q34 -24 61 -13.5t27 47.5h30z" />
    <glyph glyph-name="hungarumlaut" unicode="&#x2dd;" horiz-adv-x="600" 
d="M298 706h38l-86 -138h-34zM425 706h38l-86 -138h-34z" />
    <glyph glyph-name="uni0326" unicode="&#x326;" horiz-adv-x="0" 
d="M-355 -230l37 95q-28 3 -28 28q0 13 9 21.5t22 8.5q12 0 21.5 -8.5t9.5 -23.5q0 -13 -46 -121h-25z" />
    <glyph glyph-name="Wgrave" unicode="&#x1e80;" horiz-adv-x="1020" 
d="M536 759h-36l-89 138h40zM954 680h37l-237 -685h-35l-209 627l-209 -627h-35l-237 685h37l217 -631l210 631h34l210 -631z" />
    <glyph glyph-name="wgrave" unicode="&#x1e81;" horiz-adv-x="771" 
d="M412 550h-36l-89 138h40zM687 453h38l-171 -453h-34l-135 401l-134 -401h-35l-170 453h38l149 -400l135 400h34l136 -400z" />
    <glyph glyph-name="Wacute" unicode="&#x1e82;" horiz-adv-x="1020" 
d="M611 897l-89 -138h-36l85 138h40zM954 680h37l-237 -685h-35l-209 627l-209 -627h-35l-237 685h37l217 -631l210 631h34l210 -631z" />
    <glyph glyph-name="wacute" unicode="&#x1e83;" horiz-adv-x="771" 
d="M487 687l-89 -138h-36l85 138h40zM687 453h38l-171 -453h-34l-135 401l-134 -401h-35l-170 453h38l149 -400l135 400h34l136 -400z" />
    <glyph glyph-name="Wdieresis" unicode="&#x1e84;" horiz-adv-x="1020" 
d="M424 779q-14 0 -23 9.5t-9 22.5t9.5 22t22.5 9t22.5 -9t9.5 -22t-9 -22.5t-23 -9.5zM596 779q-14 0 -23 9.5t-9 22.5t9.5 22t22.5 9t22.5 -9t9.5 -22t-9 -22.5t-23 -9.5zM954 680h37l-237 -685h-35l-209 627l-209 -627h-35l-237 685h37l217 -631l210 631h34l210 -631z
" />
    <glyph glyph-name="wdieresis" unicode="&#x1e85;" horiz-adv-x="771" 
d="M300 588q-14 0 -23 9t-9 23q0 13 9.5 22t22.5 9t22.5 -9t9.5 -22q0 -14 -9 -23t-23 -9zM472 588q-14 0 -23 9t-9 23q0 13 9.5 22t22.5 9t22.5 -9t9.5 -22q0 -14 -9 -23t-23 -9zM687 453h38l-171 -453h-34l-135 401l-134 -401h-35l-170 453h38l149 -400l135 400h34
l136 -400z" />
    <glyph glyph-name="uni1E9E" unicode="&#x1e9e;" horiz-adv-x="717" 
d="M429 375q100 0 161.5 -51.5t61.5 -135.5q0 -90 -68.5 -145t-180.5 -55q-64 0 -125 16v35q58 -19 125 -19q96 0 154 46t58 121q0 70 -53 113t-140 43h-84v18l244 286h-262q-85 0 -136 -51t-51 -136v-460h-35v460q0 99 61 159.5t161 60.5h311v-24l-240 -281h38z" />
    <glyph glyph-name="Ygrave" unicode="&#x1ef2;" horiz-adv-x="647" 
d="M350 759h-36l-89 138h40zM588 680h41l-287 -427v-253h-37v253l-286 427h40l265 -393z" />
    <glyph glyph-name="ygrave" unicode="&#x1ef3;" horiz-adv-x="594" 
d="M331 550h-36l-89 138h40zM510 454h38l-321 -684h-38l95 202l-238 482h38l218 -443z" />
    <glyph glyph-name="endash" unicode="&#x2013;" horiz-adv-x="750" 
d="M126 262h497v32h-497v-32z" />
    <glyph glyph-name="emdash" unicode="&#x2014;" horiz-adv-x="980" 
d="M126 262h728v32h-728v-32z" />
    <glyph glyph-name="quoteleft" unicode="&#x2018;" horiz-adv-x="183" 
d="M135 685l-49 -148q21 -6 21 -26q0 -13 -8.5 -21.5t-21.5 -8.5q-12 0 -21 8.5t-9 21.5q0 8 9 33l54 141h25z" />
    <glyph glyph-name="quoteright" unicode="&#x2019;" horiz-adv-x="183" 
d="M48 484l49 148q-21 6 -21 26q0 13 8.5 21.5t21.5 8.5q12 0 21 -8.5t9 -21.5q0 -8 -9 -33l-54 -141h-25z" />
    <glyph glyph-name="quotesinglbase" unicode="&#x201a;" horiz-adv-x="183" 
d="M48 -152l49 148q-21 6 -21 26q0 13 8.5 21.5t21.5 8.5q12 0 21 -8.5t9 -21.5q0 -8 -9 -33l-54 -141h-25z" />
    <glyph glyph-name="quotedblleft" unicode="&#x201c;" horiz-adv-x="329" 
d="M135 685l-49 -148q21 -6 21 -26q0 -13 -8.5 -21.5t-21.5 -8.5q-12 0 -21 8.5t-9 21.5q0 8 9 33l54 141h25zM281 685l-49 -148q21 -6 21 -26q0 -13 -8.5 -21.5t-21.5 -8.5q-12 0 -21 8.5t-9 21.5q0 8 9 33l54 141h25z" />
    <glyph glyph-name="quotedblright" unicode="&#x201d;" horiz-adv-x="330" 
d="M48 484l49 148q-21 6 -21 26q0 13 8.5 21.5t21.5 8.5q12 0 21 -8.5t9 -21.5q0 -8 -9 -33l-54 -141h-25zM195 484l49 148q-21 6 -21 26q0 13 8.5 21.5t21.5 8.5q12 0 21 -8.5t9 -21.5q0 -8 -9 -33l-54 -141h-25z" />
    <glyph glyph-name="quotedblbase" unicode="&#x201e;" horiz-adv-x="331" 
d="M48 -152l49 148q-21 6 -21 26q0 13 8.5 21.5t21.5 8.5q12 0 21 -8.5t9 -21.5q0 -8 -9 -33l-54 -141h-25zM196 -152l49 148q-21 6 -21 26q0 13 8.5 21.5t21.5 8.5q12 0 21 -8.5t9 -21.5q0 -8 -9 -33l-54 -141h-25z" />
    <glyph glyph-name="dagger" unicode="&#x2020;" horiz-adv-x="405" 
d="M346 569h-130v-222h-29v222h-129v29h129v129h29v-129h130v-29z" />
    <glyph glyph-name="daggerdbl" unicode="&#x2021;" horiz-adv-x="405" 
d="M216 589v-93h130v-30h-130v-119h-29v119h-129v30h129v93h-129v29h129v109h29v-109h130v-29h-130z" />
    <glyph glyph-name="bullet" unicode="&#x2022;" horiz-adv-x="309" 
d="M154 195q-41 0 -71.5 30.5t-30.5 71.5t30.5 71.5t71.5 30.5q42 0 72.5 -30.5t30.5 -71.5t-30.5 -71.5t-72.5 -30.5z" />
    <glyph glyph-name="ellipsis" unicode="&#x2026;" horiz-adv-x="514" 
d="M78 -8q-13 0 -21.5 8.5t-8.5 21.5t8.5 21.5t21.5 8.5q12 0 21 -8.5t9 -21.5t-9 -21.5t-21 -8.5zM256 -8q-13 0 -21.5 8.5t-8.5 21.5t8.5 21.5t21.5 8.5q12 0 21 -8.5t9 -21.5t-9 -21.5t-21 -8.5zM437 -8q-13 0 -21.5 8.5t-8.5 21.5t8.5 21.5t21.5 8.5q12 0 21 -8.5
t9 -21.5t-9 -21.5t-21 -8.5z" />
    <glyph glyph-name="perthousand" unicode="&#x2030;" horiz-adv-x="1526" 
d="M279 692q77 0 129 -53t52 -132q0 -80 -52 -133t-129 -53q-78 0 -130 53t-52 133q0 79 52.5 132t129.5 53zM778 680l-447 -680h-32l447 680h32zM279 352q63 0 107 44.5t44 110.5t-44 110.5t-107 44.5t-107 -44.5t-44 -110.5t44 -110.5t107 -44.5zM805 359q77 0 129 -53
t52 -132q0 -80 -52 -133t-129 -53q-78 0 -130 53t-52 133q0 79 52.5 132t129.5 53zM1247 359q77 0 129.5 -53t52.5 -132q0 -80 -52 -133t-130 -53q-77 0 -129 53t-52 133q0 79 52 132t129 53zM805 19q63 0 107 44.5t44 110.5t-44 110.5t-107 44.5t-107 -44.5t-44 -110.5
t44 -110.5t107 -44.5zM1247 19q63 0 107 44.5t44 110.5t-44 110.5t-107 44.5t-107 -44.5t-44 -110.5t44 -110.5t107 -44.5z" />
    <glyph glyph-name="guilsinglleft" unicode="&#x2039;" horiz-adv-x="267" 
d="M174 397h38l-119 -145l119 -145h-38l-118 145z" />
    <glyph glyph-name="guilsinglright" unicode="&#x203a;" horiz-adv-x="267" 
d="M93 397l118 -145l-118 -145h-38l119 145l-119 145h38z" />
    <glyph glyph-name="fraction" unicode="&#x2044;" horiz-adv-x="419" 
d="M449 680l-447 -680h-32l447 680h32z" />
    <glyph glyph-name="uni2070" unicode="&#x2070;" horiz-adv-x="426" 
d="M213 692q77 0 121 -53.5t44 -137.5t-44 -137.5t-121 -53.5q-76 0 -120.5 53.5t-44.5 137.5t44.5 137.5t120.5 53.5zM213 339q62 0 98 46t36 116q0 71 -36 117t-98 46t-98 -46t-36 -117q0 -70 36 -116t98 -46z" />
    <glyph glyph-name="uni2074" unicode="&#x2074;" horiz-adv-x="392" 
d="M344 429v-28h-65v-82h-29v82h-212v20l121 264h32l-115 -256h174v121h29v-121h65z" />
    <glyph glyph-name="uni2075" unicode="&#x2075;" horiz-adv-x="369" 
d="M183 542q60 0 94 -30.5t34 -80.5q0 -52 -35 -86t-95 -34q-116 0 -137 105h31q18 -78 106 -78q46 0 73 26.5t27 66.5q0 38 -26 61t-73 23l-85 -1h-29v171h229v-28h-200v-115h86z" />
    <glyph glyph-name="uni2076" unicode="&#x2076;" horiz-adv-x="362" 
d="M180 563q61 0 100 -35t39 -90q0 -56 -39.5 -91.5t-100.5 -35.5t-100.5 36t-39.5 91q0 41 30 82l126 165h37l-96 -128q19 6 44 6zM179 337q47 0 78 28t31 71q0 44 -31 71.5t-78 27.5q-54 0 -82 -30l-3 -4q-24 -25 -24 -64q0 -44 31 -72t78 -28z" />
    <glyph glyph-name="uni2077" unicode="&#x2077;" horiz-adv-x="297" 
d="M20 685h262v-19l-184 -347h-36l179 337h-221v29z" />
    <glyph glyph-name="uni2078" unicode="&#x2078;" horiz-adv-x="382" 
d="M253 512q38 -11 59 -35.5t21 -58.5q0 -48 -39 -78t-104 -30q-63 0 -102 30t-39 78q0 34 21 58.5t59 35.5q-63 23 -63 82q0 42 35 70t89 28q55 0 91 -28t36 -70q0 -59 -64 -82zM96 593q0 -33 26.5 -52.5t67.5 -19.5q43 0 69.5 19.5t26.5 52.5q0 32 -27 53t-69 21
q-40 0 -67 -21t-27 -53zM190 337q49 0 79 23t30 60q0 35 -30 57t-79 22q-48 0 -77.5 -22t-29.5 -57q0 -37 29.5 -60t77.5 -23z" />
    <glyph glyph-name="uni2079" unicode="&#x2079;" horiz-adv-x="362" 
d="M183 699q61 0 100.5 -36t39.5 -91q0 -41 -30 -82l-126 -165h-37l96 128q-19 -6 -44 -6q-61 0 -100 35t-39 90q0 56 39.5 91.5t100.5 35.5zM265 505l3 4q24 25 24 64q0 44 -31 72t-78 28t-78 -28t-31 -71q0 -44 31 -71.5t78 -27.5q54 0 82 30z" />
    <glyph glyph-name="uni2080" unicode="&#x2080;" horiz-adv-x="426" 
d="M213 194q77 0 121 -53.5t44 -137.5t-44 -137.5t-121 -53.5q-76 0 -120.5 53.5t-44.5 137.5t44.5 137.5t120.5 53.5zM213 -159q62 0 98 46t36 116q0 71 -36 117t-98 46t-98 -46t-36 -117q0 -70 36 -116t98 -46z" />
    <glyph glyph-name="uni2081" unicode="&#x2081;" horiz-adv-x="295" 
d="M173 -153h103v-27h-246v27h113v297l-105 -29v28l119 34h16v-330z" />
    <glyph glyph-name="uni2082" unicode="&#x2082;" horiz-adv-x="355" 
d="M108 -153h199v-27h-252v17l129 123q46 43 65 69t19 56q0 36 -24.5 59t-67.5 23q-41 0 -65 -21t-28 -57h-30q3 48 35 76.5t87 28.5q57 0 90.5 -30.5t33.5 -77.5q0 -34 -20.5 -64.5t-69.5 -76.5z" />
    <glyph glyph-name="uni2083" unicode="&#x2083;" horiz-adv-x="366" 
d="M247 6q67 -24 67 -90q0 -45 -36 -74t-95 -29q-57 0 -93.5 26t-41.5 68h31q5 -30 33 -48t72 -18t72 20.5t28 54.5t-26 55t-70 21h-33v25h33q37 0 60.5 21t23.5 53q0 34 -25 55t-67 21q-38 0 -62 -18t-29 -48h-30q5 42 37 67.5t83 25.5q56 0 89 -28.5t33 -74.5
q0 -60 -54 -85z" />
    <glyph glyph-name="uni2084" unicode="&#x2084;" horiz-adv-x="392" 
d="M344 -70v-28h-65v-82h-29v82h-212v20l121 264h32l-115 -256h174v121h29v-121h65z" />
    <glyph glyph-name="uni2085" unicode="&#x2085;" horiz-adv-x="369" 
d="M183 43q60 0 94 -30.5t34 -80.5q0 -52 -35 -86t-95 -34q-116 0 -137 105h31q18 -78 106 -78q46 0 73 26.5t27 66.5q0 38 -26 61t-73 23l-85 -1h-29v171h229v-28h-200v-115h86z" />
    <glyph glyph-name="uni2086" unicode="&#x2086;" horiz-adv-x="362" 
d="M180 64q61 0 100 -35t39 -90q0 -56 -39.5 -91.5t-100.5 -35.5t-100.5 36t-39.5 91q0 41 30 82l126 165h37l-96 -128q20 6 44 6zM179 -162q47 0 78 28t31 71q0 44 -31 71.5t-78 27.5q-54 0 -82 -30l-3 -4q-24 -26 -24 -64q0 -44 31 -72t78 -28z" />
    <glyph glyph-name="uni2087" unicode="&#x2087;" horiz-adv-x="297" 
d="M20 186h262v-19l-184 -347h-36l179 337h-221v29z" />
    <glyph glyph-name="uni2088" unicode="&#x2088;" horiz-adv-x="382" 
d="M253 14q38 -11 59 -35.5t21 -58.5q0 -48 -39 -78t-104 -30q-63 0 -102 30t-39 78q0 34 21 58.5t59 35.5q-63 23 -63 82q0 42 35 70t89 28q55 0 91 -28t36 -70q0 -59 -64 -82zM96 95q0 -33 26.5 -52.5t67.5 -19.5q43 0 69.5 19.5t26.5 52.5q0 32 -27 53t-69 21
q-40 0 -67 -21t-27 -53zM190 -161q49 0 79 23t30 60q0 35 -30 57t-79 22q-48 0 -77.5 -22t-29.5 -57q0 -37 29.5 -60t77.5 -23z" />
    <glyph glyph-name="uni2089" unicode="&#x2089;" horiz-adv-x="362" 
d="M183 195q61 0 100.5 -36t39.5 -91q0 -41 -30 -82l-126 -165h-37l96 128q-19 -6 -44 -6q-61 0 -100 35t-39 90q0 56 39.5 91.5t100.5 35.5zM265 1l3 4q24 25 24 64q0 44 -31 72t-78 28t-78 -28t-31 -71q0 -44 31 -71.5t78 -27.5q54 0 82 30z" />
    <glyph glyph-name="Euro" unicode="&#x20ac;" horiz-adv-x="898" 
d="M508 21q106 0 181 55t99 145h39q-26 -105 -112 -170t-207 -65q-120 0 -213.5 71.5t-125.5 183.5h-125v29h118q-7 32 -7 70q0 28 4 51h-115v29h120q27 119 122.5 195.5t221.5 76.5q121 0 207 -64t112 -169h-39q-24 90 -99 144.5t-181 54.5q-111 0 -195.5 -67t-110.5 -171
h367l-7 -29h-366q-4 -23 -4 -51q0 -32 7 -70h332l-7 -29h-317q31 -98 113.5 -159t187.5 -61z" />
    <glyph glyph-name="uni20B9" unicode="&#x20b9;" horiz-adv-x="618" 
d="M544 680v-31h-230q100 -50 108 -163h122v-31h-123q-6 -90 -76 -141t-182 -51h-35l319 -263h-52l-321 263v34h95q94 0 152 41.5t64 116.5h-300v31h301q-6 75 -64.5 118t-152.5 43h-95v33h470z" />
    <glyph glyph-name="uni2116" unicode="&#x2116;" horiz-adv-x="1407" 
d="M632 56v624h37v-680h-38l-485 621v-621h-37v680h37zM1056 135q-102 0 -171.5 69t-69.5 170t69.5 169.5t171.5 68.5t171.5 -68.5t69.5 -169.5t-69.5 -170t-171.5 -69zM1056 580q-86 0 -146 -59.5t-60 -146.5q0 -88 60 -147.5t146 -59.5q87 0 146.5 59.5t59.5 147.5
q0 87 -59.5 146.5t-146.5 59.5zM828 0v32h457v-32h-457z" />
    <glyph glyph-name="uni2117" unicode="&#x2117;" horiz-adv-x="873" 
d="M436 695q150 0 257 -102t107 -253t-107 -253t-257 -102t-257 102t-107 253t107 253t257 102zM436 668q-136 0 -235 -95.5t-99 -232.5t99 -232.5t235 -95.5q137 0 236 95.5t99 232.5t-99 232.5t-236 95.5zM456 533q67 0 108 -33t41 -88q0 -54 -41 -86.5t-109 -32.5h-104
v-143h-28v383h133zM456 508h-105v-191h105q55 0 88 26.5t33 69.5t-33 69t-88 26z" />
    <glyph glyph-name="trademark" unicode="&#x2122;" horiz-adv-x="674" 
d="M273 679v-23h-113v-269h-25v269h-114v23h252zM621 679v-292h-25v243l-117 -200h-14l-117 199l1 -242h-25v292h23l125 -212l125 212h24z" />
    <glyph glyph-name="oneeighth" unicode="&#x215b;" horiz-adv-x="761" 
d="M580 680h32l-447 -680h-32zM30 316v27h113v297l-105 -29v28l119 34h16v-330h103v-27h-246zM632 194q38 -11 59 -35.5t21 -58.5q0 -48 -39 -78t-104 -30q-63 0 -102 30t-39 78q0 34 21 58.5t59 35.5q-63 23 -63 82q0 42 35 70t89 28q55 0 91 -28t36 -70q0 -59 -64 -82z
M475 275q0 -33 26.5 -52.5t67.5 -19.5q43 0 69.5 19.5t26.5 52.5q0 32 -27 53t-69 21q-40 0 -67 -21t-27 -53zM569 19q49 0 79 23t30 60q0 35 -30 57t-79 22q-48 0 -77.5 -22t-29.5 -57q0 -37 29.5 -60t77.5 -23z" />
    <glyph glyph-name="threeeighths" unicode="&#x215c;" horiz-adv-x="807" 
d="M314 416q0 -45 -36 -74t-95 -29q-57 0 -93.5 26t-41.5 68h31q5 -30 33 -48t72 -18t72 20.5t28 54.5t-26 55t-70 21h-33v25h33q37 0 60.5 21t23.5 53q0 34 -25 55t-67 21q-38 0 -62 -18t-29 -48h-30q5 42 37 67.5t83 25.5q56 0 89 -28.5t33 -74.5q0 -60 -54 -85
q67 -24 67 -90zM621 680h32l-447 -680h-32zM678 194q38 -11 59 -35.5t21 -58.5q0 -48 -39 -78t-104 -30q-63 0 -102 30t-39 78q0 34 21 58.5t59 35.5q-63 23 -63 82q0 42 35 70t89 28q55 0 91 -28t36 -70q0 -59 -64 -82zM521 275q0 -33 26.5 -52.5t67.5 -19.5
q43 0 69.5 19.5t26.5 52.5q0 32 -27 53t-69 21q-40 0 -67 -21t-27 -53zM615 19q49 0 79 23t30 60q0 35 -30 57t-79 22q-48 0 -77.5 -22t-29.5 -57q0 -37 29.5 -60t77.5 -23z" />
    <glyph glyph-name="fiveeighths" unicode="&#x215d;" horiz-adv-x="812" 
d="M311 428q0 -52 -35 -86t-95 -34q-116 0 -137 105h31q18 -78 106 -78q46 0 73 26.5t27 66.5q0 38 -26 61t-73 23l-85 -1h-29v171h229v-28h-200v-115h86q60 0 94 -30.5t34 -80.5zM613 680h32l-447 -680h-32zM684 194q38 -11 59 -35.5t21 -58.5q0 -48 -39 -78t-104 -30
q-63 0 -102 30t-39 78q0 34 21 58.5t59 35.5q-63 23 -63 82q0 42 35 70t89 28q55 0 91 -28t36 -70q0 -59 -64 -82zM527 275q0 -33 26.5 -52.5t67.5 -19.5q43 0 69.5 19.5t26.5 52.5q0 32 -27 53t-69 21q-40 0 -67 -21t-27 -53zM621 19q49 0 79 23t30 60q0 35 -30 57t-79 22
q-48 0 -77.5 -22t-29.5 -57q0 -37 29.5 -60t77.5 -23z" />
    <glyph glyph-name="seveneighths" unicode="&#x215e;" horiz-adv-x="712" 
d="M98 316h-36l179 337h-221v29h262v-19zM512 680h32l-447 -680h-32zM583 194q38 -11 59 -35.5t21 -58.5q0 -48 -39 -78t-104 -30q-63 0 -102 30t-39 78q0 34 21 58.5t59 35.5q-63 23 -63 82q0 42 35 70t89 28q55 0 91 -28t36 -70q0 -59 -64 -82zM426 275q0 -33 26.5 -52.5
t67.5 -19.5q43 0 69.5 19.5t26.5 52.5q0 32 -27 53t-69 21q-40 0 -67 -21t-27 -53zM520 19q49 0 79 23t30 60q0 35 -30 57t-79 22q-48 0 -77.5 -22t-29.5 -57q0 -37 29.5 -60t77.5 -23z" />
    <glyph glyph-name="arrowleft" unicode="&#x2190;" horiz-adv-x="766" 
d="M726 325h-629l309 -307l-24 -24l-348 348l348 347l24 -23l-309 -307h629v-34z" />
    <glyph glyph-name="arrowup" unicode="&#x2191;" horiz-adv-x="785" 
d="M376 0v629l-307 -309l-24 24l348 348l347 -348l-23 -24l-307 309v-629h-34z" />
    <glyph glyph-name="arrowright" unicode="&#x2192;" horiz-adv-x="766" 
d="M40 325v34h629l-309 307l24 23l348 -347l-348 -348l-24 24l309 307h-629z" />
    <glyph glyph-name="arrowdown" unicode="&#x2193;" horiz-adv-x="785" 
d="M376 680h34v-629l307 309l23 -24l-347 -348l-348 348l24 24l307 -309v629z" />
    <glyph glyph-name="uni2196" unicode="&#x2196;" horiz-adv-x="819" 
d="M773 21l-24 -24l-625 626v-435l-34 1v491h491l1 -34h-435z" />
    <glyph glyph-name="uni2197" unicode="&#x2197;" horiz-adv-x="854" 
d="M81 21l626 625h-435l1 34h491v-491l-34 -1v435l-625 -626z" />
    <glyph glyph-name="uni2198" unicode="&#x2198;" horiz-adv-x="819" 
d="M46 659l24 24l625 -626v435l34 -1v-491h-491l-1 34h435z" />
    <glyph glyph-name="uni2199" unicode="&#x2199;" horiz-adv-x="798" 
d="M773 659l-626 -625h435l-1 -34h-491v491l34 1v-435l625 626z" />
    <glyph glyph-name="minus" unicode="&#x2212;" horiz-adv-x="700" 
d="M126 301v33h447v-33h-447z" />
    <glyph glyph-name="R.ss02" horiz-adv-x="673" 
d="M570 0l-378 263h-46v-263h-37v680h235q116 0 185.5 -55.5t69.5 -152.5t-69 -153t-186 -56h-95l378 -263h-57zM146 647v-350h198q100 0 159.5 46.5t59.5 128.5t-60 128.5t-159 46.5h-198z" />
    <glyph glyph-name="Racute.ss02" horiz-adv-x="673" 
d="M427 897l-89 -138h-36l85 138h40zM570 0l-378 263h-46v-263h-37v680h235q116 0 185.5 -55.5t69.5 -152.5t-69 -153t-186 -56h-95l378 -263h-57zM146 647v-350h198q100 0 159.5 46.5t59.5 128.5t-60 128.5t-159 46.5h-198z" />
    <glyph glyph-name="Rcaron.ss02" horiz-adv-x="673" 
d="M347 761h-43l-125 139h38l109 -116l109 116h38zM570 0l-378 263h-46v-263h-37v680h235q116 0 185.5 -55.5t69.5 -152.5t-69 -153t-186 -56h-95l378 -263h-57zM146 647v-350h198q100 0 159.5 46.5t59.5 128.5t-60 128.5t-159 46.5h-198z" />
    <glyph glyph-name="Rcommaaccent.ss02" horiz-adv-x="673" 
d="M249 263l378 -263h-57l-378 263h-46v-263h-37v680h235q116 0 185.5 -55.5t69.5 -152.5t-69 -153t-186 -56h-95zM146 647v-350h198q100 0 159.5 46.5t59.5 128.5t-60 128.5t-159 46.5h-198zM326 -77q12 0 21.5 -8.5t9.5 -23.5q0 -13 -46 -121h-25l37 95q-28 3 -28 28
q0 13 9 21.5t22 8.5z" />
    <glyph glyph-name="Q.ss03" horiz-adv-x="853" 
d="M426 692q147 0 250.5 -102.5t103.5 -249.5t-103.5 -249.5t-250.5 -102.5t-250.5 102.5t-103.5 249.5t103.5 249.5t250.5 102.5zM426 22q133 0 225.5 93t92.5 225q0 133 -92.5 225.5t-225.5 92.5q-132 0 -224.5 -92.5t-92.5 -225.5q0 -132 92.5 -225t224.5 -93zM384 -93
l325 -82l-9 -36q-123 31 -324 90z" />
    <glyph glyph-name="i.loclTRK" horiz-adv-x="251" 
d="M126 602q-13 0 -22 8t-9 21t9 21.5t22 8.5q12 0 21 -8.5t9 -21.5q0 -12 -9 -20.5t-21 -8.5zM109 453h34v-453h-34v453z" />
    <glyph glyph-name="germandbls.case" horiz-adv-x="717" 
d="M429 375q100 0 161.5 -51.5t61.5 -135.5q0 -90 -68.5 -145t-180.5 -55q-64 0 -125 16v35q58 -19 125 -19q96 0 154 46t58 121q0 70 -53 113t-140 43h-84v18l244 286h-262q-85 0 -136 -51t-51 -136v-460h-35v460q0 99 61 159.5t161 60.5h311v-24l-240 -281h38z" />
    <glyph glyph-name="l.ss01" horiz-adv-x="343" 
d="M130 710v-589q0 -101 83 -101q35 0 77 14l6 -33q-48 -13 -86 -13q-115 0 -115 131v591h35z" />
    <glyph glyph-name="lacute.ss01" horiz-adv-x="343" 
d="M181 944h40l-89 -138h-36zM130 710v-589q0 -101 83 -101q35 0 77 14l6 -33q-48 -13 -86 -13q-115 0 -115 131v591h35z" />
    <glyph glyph-name="lcaron.ss01" horiz-adv-x="343" 
d="M130 710v-589q0 -101 83 -101q35 0 77 14l6 -33q-48 -13 -86 -13q-115 0 -115 131v591h35zM227 710h36l-20 -174h-29z" />
    <glyph glyph-name="lcommaaccent.ss01" horiz-adv-x="343" 
d="M130 710v-589q0 -101 83 -101q35 0 77 14l6 -33q-48 -13 -86 -13q-115 0 -115 131v591h35zM145 -230l37 95q-28 3 -28 28q0 13 9 21.5t22 8.5q12 0 21.5 -8.5t9.5 -23.5q0 -13 -46 -121h-25z" />
    <glyph glyph-name="ldot.ss01" horiz-adv-x="357" 
d="M130 710v-589q0 -101 83 -101q35 0 77 14l6 -33q-48 -13 -86 -13q-115 0 -115 131v591h35zM277 277q-13 0 -22.5 9.5t-9.5 22.5t9.5 22t22.5 9t22.5 -9t9.5 -22t-9.5 -22.5t-22.5 -9.5z" />
    <glyph glyph-name="lslash.ss01" horiz-adv-x="352" 
d="M290 34l6 -33q-48 -13 -86 -13q-115 0 -115 131v198l-64 -37v39l64 37v354h35v-335l92 53v-38l-92 -53v-216q0 -101 83 -101q35 0 77 14z" />
    <glyph glyph-name="y.ss04" horiz-adv-x="589" 
d="M458 453h35v-491q0 -93 -56.5 -148.5t-151.5 -55.5q-83 0 -140.5 42.5t-72.5 110.5h37q13 -54 60 -87.5t116 -33.5q80 0 126.5 46.5t46.5 125.5v107q-66 -78 -180 -78q-91 0 -144 52t-53 144v266h35v-265q0 -78 44 -121t121 -43q53 0 100.5 24.5t76.5 68.5v336z" />
    <glyph glyph-name="yacute.ss04" horiz-adv-x="589" 
d="M391 687l-89 -138h-36l85 138h40zM458 453h35v-491q0 -93 -56.5 -148.5t-151.5 -55.5q-83 0 -140.5 42.5t-72.5 110.5h37q13 -54 60 -87.5t116 -33.5q80 0 126.5 46.5t46.5 125.5v107q-66 -78 -180 -78q-91 0 -144 52t-53 144v266h35v-265q0 -78 44 -121t121 -43
q53 0 100.5 24.5t76.5 68.5v336z" />
    <glyph glyph-name="ycircumflex.ss04" horiz-adv-x="589" 
d="M290 659l-109 -116h-38l125 139h43l126 -139h-38zM458 453h35v-491q0 -93 -56.5 -148.5t-151.5 -55.5q-83 0 -140.5 42.5t-72.5 110.5h37q13 -54 60 -87.5t116 -33.5q80 0 126.5 46.5t46.5 125.5v107q-66 -78 -180 -78q-91 0 -144 52t-53 144v266h35v-265q0 -78 44 -121
t121 -43q53 0 100.5 24.5t76.5 68.5v336z" />
    <glyph glyph-name="ydieresis.ss04" horiz-adv-x="589" 
d="M204 588q-14 0 -23 9t-9 23q0 13 9.5 22t22.5 9t22.5 -9t9.5 -22q0 -14 -9 -23t-23 -9zM376 588q-14 0 -23 9t-9 23q0 13 9.5 22t22.5 9t22.5 -9t9.5 -22q0 -14 -9 -23t-23 -9zM458 453h35v-491q0 -93 -56.5 -148.5t-151.5 -55.5q-83 0 -140.5 42.5t-72.5 110.5h37
q13 -54 60 -87.5t116 -33.5q80 0 126.5 46.5t46.5 125.5v107q-66 -78 -180 -78q-91 0 -144 52t-53 144v266h35v-265q0 -78 44 -121t121 -43q53 0 100.5 24.5t76.5 68.5v336z" />
    <glyph glyph-name="ygrave.ss04" horiz-adv-x="589" 
d="M316 550h-36l-89 138h40zM458 453h35v-491q0 -93 -56.5 -148.5t-151.5 -55.5q-83 0 -140.5 42.5t-72.5 110.5h37q13 -54 60 -87.5t116 -33.5q80 0 126.5 46.5t46.5 125.5v107q-66 -78 -180 -78q-91 0 -144 52t-53 144v266h35v-265q0 -78 44 -121t121 -43q53 0 100.5 24.5
t76.5 68.5v336z" />
    <glyph glyph-name="a.ss06" horiz-adv-x="545" 
d="M285 465q88 0 139.5 -45t51.5 -124v-296h-35v59q-84 -71 -193 -71q-83 0 -133 37t-50 102q0 56 42.5 94.5t119.5 38.5h214v36q0 64 -41.5 101t-114.5 37q-63 0 -108.5 -29.5t-54.5 -88.5h-37q11 73 66.5 111t133.5 38zM252 21q109 0 189 77v133h-214q-61 0 -94 -30.5
t-33 -73.5q0 -49 41.5 -77.5t110.5 -28.5z" />
    <glyph glyph-name="aacute.ss06" horiz-adv-x="545" 
d="M390 687l-89 -138h-36l85 138h40zM285 465q88 0 139.5 -45t51.5 -124v-296h-35v59q-84 -71 -193 -71q-83 0 -133 37t-50 102q0 56 42.5 94.5t119.5 38.5h214v36q0 64 -41.5 101t-114.5 37q-63 0 -108.5 -29.5t-54.5 -88.5h-37q11 73 66.5 111t133.5 38zM252 21
q109 0 189 77v133h-214q-61 0 -94 -30.5t-33 -73.5q0 -49 41.5 -77.5t110.5 -28.5z" />
    <glyph glyph-name="abreve.ss06" horiz-adv-x="545" 
d="M289 541q-55 0 -94.5 33.5t-39.5 94.5h30q0 -48 31.5 -74.5t72.5 -26.5t72.5 26.5t31.5 74.5h30q0 -61 -39.5 -94.5t-94.5 -33.5zM285 465q88 0 139.5 -45t51.5 -124v-296h-35v59q-84 -71 -193 -71q-83 0 -133 37t-50 102q0 56 42.5 94.5t119.5 38.5h214v36
q0 64 -41.5 101t-114.5 37q-63 0 -108.5 -29.5t-54.5 -88.5h-37q11 73 66.5 111t133.5 38zM252 21q109 0 189 77v133h-214q-61 0 -94 -30.5t-33 -73.5q0 -49 41.5 -77.5t110.5 -28.5z" />
    <glyph glyph-name="uni01CE.ss06" horiz-adv-x="545" 
d="M310 543h-43l-125 139h38l109 -116l109 116h38zM285 465q88 0 139.5 -45t51.5 -124v-296h-35v59q-84 -71 -193 -71q-83 0 -133 37t-50 102q0 56 42.5 94.5t119.5 38.5h214v36q0 64 -41.5 101t-114.5 37q-63 0 -108.5 -29.5t-54.5 -88.5h-37q11 73 66.5 111t133.5 38z
M252 21q109 0 189 77v133h-214q-61 0 -94 -30.5t-33 -73.5q0 -49 41.5 -77.5t110.5 -28.5z" />
    <glyph glyph-name="acircumflex.ss06" horiz-adv-x="545" 
d="M289 659l-109 -116h-38l125 139h43l126 -139h-38zM285 465q88 0 139.5 -45t51.5 -124v-296h-35v59q-84 -71 -193 -71q-83 0 -133 37t-50 102q0 56 42.5 94.5t119.5 38.5h214v36q0 64 -41.5 101t-114.5 37q-63 0 -108.5 -29.5t-54.5 -88.5h-37q11 73 66.5 111t133.5 38z
M252 21q109 0 189 77v133h-214q-61 0 -94 -30.5t-33 -73.5q0 -49 41.5 -77.5t110.5 -28.5z" />
    <glyph glyph-name="adieresis.ss06" horiz-adv-x="545" 
d="M203 588q-13 0 -22.5 9t-9.5 23q0 13 9.5 22t22.5 9t22.5 -9t9.5 -22q0 -14 -9.5 -23t-22.5 -9zM375 588q-13 0 -22.5 9t-9.5 23q0 13 9.5 22t22.5 9t22.5 -9t9.5 -22q0 -14 -9.5 -23t-22.5 -9zM285 465q88 0 139.5 -45t51.5 -124v-296h-35v59q-84 -71 -193 -71
q-83 0 -133 37t-50 102q0 56 42.5 94.5t119.5 38.5h214v36q0 64 -41.5 101t-114.5 37q-63 0 -108.5 -29.5t-54.5 -88.5h-37q11 73 66.5 111t133.5 38zM252 21q109 0 189 77v133h-214q-61 0 -94 -30.5t-33 -73.5q0 -49 41.5 -77.5t110.5 -28.5z" />
    <glyph glyph-name="agrave.ss06" horiz-adv-x="545" 
d="M315 550h-36l-89 138h40zM285 465q88 0 139.5 -45t51.5 -124v-296h-35v59q-84 -71 -193 -71q-83 0 -133 37t-50 102q0 56 42.5 94.5t119.5 38.5h214v36q0 64 -41.5 101t-114.5 37q-63 0 -108.5 -29.5t-54.5 -88.5h-37q11 73 66.5 111t133.5 38zM252 21q109 0 189 77v133
h-214q-61 0 -94 -30.5t-33 -73.5q0 -49 41.5 -77.5t110.5 -28.5z" />
    <glyph glyph-name="amacron.ss06" horiz-adv-x="545" 
d="M426 599v-29h-276v29h276zM285 465q88 0 139.5 -45t51.5 -124v-296h-35v59q-84 -71 -193 -71q-83 0 -133 37t-50 102q0 56 42.5 94.5t119.5 38.5h214v36q0 64 -41.5 101t-114.5 37q-63 0 -108.5 -29.5t-54.5 -88.5h-37q11 73 66.5 111t133.5 38zM252 21q109 0 189 77v133
h-214q-61 0 -94 -30.5t-33 -73.5q0 -49 41.5 -77.5t110.5 -28.5z" />
    <glyph glyph-name="aogonek.ss06" horiz-adv-x="545" 
d="M501 -166l3 -30q-12 -4 -38 -4q-53 0 -85.5 27t-32.5 71q0 71 93 115v46q-84 -71 -193 -71q-83 0 -133 37t-50 102q0 56 42.5 94.5t119.5 38.5h214v36q0 64 -41.5 101t-114.5 37q-63 0 -108.5 -29.5t-54.5 -88.5h-37q11 73 66.5 111t133.5 38q88 0 139.5 -45t51.5 -124
v-296q-43 -19 -69 -41.5t-26 -56.5q0 -33 24 -51.5t66 -18.5q12 0 30 2zM252 21q109 0 189 77v133h-214q-61 0 -94 -30.5t-33 -73.5q0 -49 41.5 -77.5t110.5 -28.5z" />
    <glyph glyph-name="aring.ss06" horiz-adv-x="545" 
d="M289 546q-39 0 -65 25.5t-26 63.5t26 63t65 25q38 0 64 -25t26 -63t-26 -63.5t-64 -25.5zM289 699q-27 0 -46 -18.5t-19 -45.5q0 -28 18.5 -46.5t46.5 -18.5q27 0 46 18.5t19 46.5q0 26 -19 45t-46 19zM285 465q88 0 139.5 -45t51.5 -124v-296h-35v59q-84 -71 -193 -71
q-83 0 -133 37t-50 102q0 56 42.5 94.5t119.5 38.5h214v36q0 64 -41.5 101t-114.5 37q-63 0 -108.5 -29.5t-54.5 -88.5h-37q11 73 66.5 111t133.5 38zM252 21q109 0 189 77v133h-214q-61 0 -94 -30.5t-33 -73.5q0 -49 41.5 -77.5t110.5 -28.5z" />
    <glyph glyph-name="atilde.ss06" horiz-adv-x="545" 
d="M276 627q-28 22 -57.5 12.5t-29.5 -45.5h-30q0 38 22.5 58t52 19.5t54.5 -17.5l38 -27q34 -24 61 -13.5t27 47.5h30q0 -39 -21 -60.5t-50 -20t-58 19.5zM285 465q88 0 139.5 -45t51.5 -124v-296h-35v59q-84 -71 -193 -71q-83 0 -133 37t-50 102q0 56 42.5 94.5
t119.5 38.5h214v36q0 64 -41.5 101t-114.5 37q-63 0 -108.5 -29.5t-54.5 -88.5h-37q11 73 66.5 111t133.5 38zM252 21q109 0 189 77v133h-214q-61 0 -94 -30.5t-33 -73.5q0 -49 41.5 -77.5t110.5 -28.5z" />
    <glyph glyph-name="zero.osf" horiz-adv-x="681" 
d="M341 547q119 0 194 -76t75 -203t-75.5 -203.5t-193.5 -76.5q-119 0 -194.5 76.5t-75.5 203.5t75.5 203t194.5 76zM341 21q102 0 167.5 67.5t65.5 179.5t-65.5 179.5t-167.5 67.5t-168 -67.5t-66 -179.5t66 -179.5t168 -67.5z" />
    <glyph glyph-name="one.osf" horiz-adv-x="499" 
d="M294 31h187v-31h-428v31h206v477l-192 -74v36l209 80h18v-519z" />
    <glyph glyph-name="two.osf" horiz-adv-x="540" 
d="M127 31h363v-31h-432v20l166 116q119 83 154 118q60 58 60 116q0 72 -46.5 112t-124.5 40q-77 0 -128 -42.5t-59 -112.5h-35q7 85 66.5 136t153.5 51q96 0 152.5 -49t56.5 -136q0 -35 -14.5 -66t-50 -64.5t-67 -57.5t-92.5 -66z" />
    <glyph glyph-name="three.osf" horiz-adv-x="579" 
d="M383 206q60 -19 94.5 -64t34.5 -107q0 -83 -63 -134.5t-165 -51.5q-99 0 -163.5 45.5t-71.5 120.5h36q7 -61 62 -97.5t138 -36.5q86 0 139 42.5t53 111.5t-49.5 111.5t-130.5 42.5h-58v31h58q72 0 116 41t44 108q0 69 -48.5 110t-130.5 41q-73 0 -119.5 -35t-54.5 -94
h-37q8 74 64.5 117.5t145.5 43.5q98 0 156.5 -50t58.5 -133q0 -58 -29 -100.5t-80 -62.5z" />
    <glyph glyph-name="four.osf" horiz-adv-x="645" 
d="M596 57v-32h-120v-159h-35v159h-376v21l216 500h38l-210 -489h332v232h35v-232h120z" />
    <glyph glyph-name="five.osf" horiz-adv-x="582" 
d="M297 270q105 0 167.5 -55.5t62.5 -145.5q0 -95 -63 -156.5t-167 -61.5q-93 0 -159.5 51t-83.5 139h37q16 -73 72 -115.5t134 -42.5q88 0 141.5 52.5t53.5 132.5q0 77 -53.5 123.5t-144.5 46.5h-197l1 305h399v-33h-365l-1 -240h166z" />
    <glyph glyph-name="six.osf" horiz-adv-x="629" 
d="M315 448q106 0 174.5 -64t68.5 -165q0 -103 -68 -167t-175 -64t-175.5 63.5t-68.5 166.5q0 79 50 148l234 314h44l-188 -252q48 20 104 20zM315 19q90 0 148.5 55t58.5 144q0 87 -58.5 142t-148.5 55q-101 0 -159 -61l-6 -8q-43 -55 -43 -129q0 -88 58.5 -143t149.5 -55z
" />
    <glyph glyph-name="seven.osf" horiz-adv-x="501" 
d="M19 540h458v-22l-337 -658h-42l333 647h-412v33z" />
    <glyph glyph-name="eight.osf" horiz-adv-x="635" 
d="M409 359q73 -18 114.5 -64t41.5 -110q0 -89 -68 -143t-179 -54q-112 0 -179.5 54t-67.5 143q0 64 41.5 110t114.5 64q-59 18 -92.5 58t-33.5 98q0 77 61.5 127t155.5 50t155.5 -50t61.5 -127q0 -58 -33.5 -98t-92.5 -58zM136 514q0 -67 50.5 -105t131.5 -38
q80 0 130.5 38t50.5 105q0 64 -51.5 106t-129.5 42q-79 0 -130.5 -42t-51.5 -106zM318 20q94 0 151.5 45.5t57.5 120.5q0 71 -57.5 115t-151.5 44t-151.5 -44t-57.5 -115q0 -75 57.5 -120.5t151.5 -45.5z" />
    <glyph glyph-name="nine.osf" horiz-adv-x="629" 
d="M314 538q107 0 175.5 -63.5t68.5 -166.5q0 -79 -50 -148l-234 -314h-44l188 252q-48 -20 -104 -20q-106 0 -174.5 64t-68.5 165q0 103 68 167t175 64zM479 180q43 55 43 129q0 88 -58.5 143t-149.5 55q-90 0 -148.5 -55t-58.5 -144q0 -87 58.5 -142t148.5 -55
q101 0 159 61z" />
    <glyph glyph-name="zero.osf.zero" horiz-adv-x="681" 
d="M341 547q119 0 194 -76t75 -203t-75.5 -203.5t-193.5 -76.5q-119 0 -194.5 76.5t-75.5 203.5t75.5 203t194.5 76zM341 515q-102 0 -168 -67.5t-66 -179.5q0 -98 52 -164l338 354q-63 57 -156 57zM341 21q102 0 167.5 67.5t65.5 179.5q0 103 -58 171l-338 -355
q63 -63 163 -63z" />
    <glyph glyph-name="zero.tf" horiz-adv-x="670" 
d="M335 692q122 0 194.5 -96t72.5 -256t-72.5 -256t-194.5 -96q-121 0 -194 96.5t-73 255.5t73 255.5t194 96.5zM335 21q105 0 167.5 87.5t62.5 231.5t-62.5 231.5t-167.5 87.5t-167.5 -87.5t-62.5 -231.5t62.5 -231.5t167.5 -87.5z" />
    <glyph glyph-name="one.tf" horiz-adv-x="670" 
d="M570 31v-31h-468v31h227v607l-192 -74v36l209 80h18v-649h206z" />
    <glyph glyph-name="two.tf" horiz-adv-x="670" 
d="M176 31h383v-31h-441v20l227 222q87 83 124.5 136.5t37.5 113.5q0 74 -51 121t-134 47q-78 0 -130 -41.5t-60 -110.5h-36q7 84 68.5 134t156.5 50q101 0 161.5 -55.5t60.5 -144.5q0 -65 -39 -123t-132 -146z" />
    <glyph glyph-name="three.tf" horiz-adv-x="670" 
d="M438 346q60 -19 94.5 -64t34.5 -107q0 -83 -63 -134.5t-165 -51.5q-99 0 -163.5 45.5t-71.5 120.5h36q7 -61 62 -97.5t138 -36.5q86 0 139 42.5t53 111.5t-49.5 111.5t-130.5 42.5h-58v31h58q72 0 116 41t44 108q0 69 -48.5 110t-130.5 41q-73 0 -119.5 -35t-54.5 -94
h-37q8 74 64.5 117.5t145.5 43.5q98 0 156.5 -50t58.5 -133q0 -58 -29 -100.5t-80 -62.5z" />
    <glyph glyph-name="four.tf" horiz-adv-x="670" 
d="M601 191v-32h-120v-159h-35v159h-376v21l216 500h38l-210 -489h332v232h35v-232h120z" />
    <glyph glyph-name="five.tf" horiz-adv-x="670" 
d="M337 407q105 0 167.5 -55.5t62.5 -145.5q0 -95 -63 -156.5t-167 -61.5q-93 0 -159.5 51t-83.5 139h37q16 -73 72 -115.5t134 -42.5q88 0 141.5 52.5t53.5 132.5q0 77 -53.5 123.5t-144.5 46.5h-197l1 305h399v-33h-365l-1 -240h166z" />
    <glyph glyph-name="six.tf" horiz-adv-x="670" 
d="M334 448q106 0 174.5 -64t68.5 -165q0 -103 -68 -167t-175 -64t-175.5 63.5t-68.5 166.5q0 79 50 148l234 314h44l-188 -252q48 20 104 20zM334 19q90 0 148.5 55t58.5 144q0 87 -58.5 142t-148.5 55q-101 0 -159 -61l-6 -8q-43 -55 -43 -129q0 -88 58.5 -143t149.5 -55z
" />
    <glyph glyph-name="seven.tf" horiz-adv-x="670" 
d="M109 680h458v-22l-337 -658h-42l333 647h-412v33z" />
    <glyph glyph-name="eight.tf" horiz-adv-x="670" 
d="M426 359q73 -18 114.5 -64t41.5 -110q0 -89 -68 -143t-179 -54q-112 0 -179.5 54t-67.5 143q0 64 41.5 110t114.5 64q-59 18 -92.5 58t-33.5 98q0 77 61.5 127t155.5 50t155.5 -50t61.5 -127q0 -58 -33.5 -98t-92.5 -58zM153 514q0 -67 50.5 -105t131.5 -38
q80 0 130.5 38t50.5 105q0 64 -51.5 106t-129.5 42q-79 0 -130.5 -42t-51.5 -106zM335 20q94 0 151.5 45.5t57.5 120.5q0 71 -57.5 115t-151.5 44t-151.5 -44t-57.5 -115q0 -75 57.5 -120.5t151.5 -45.5z" />
    <glyph glyph-name="nine.tf" horiz-adv-x="670" 
d="M342 692q107 0 175.5 -63.5t68.5 -166.5q0 -79 -50 -148l-234 -314h-44l188 252q-48 -20 -104 -20q-106 0 -174.5 64t-68.5 165q0 103 68 167t175 64zM507 334q43 55 43 129q0 88 -58.5 143t-149.5 55q-90 0 -148.5 -55t-58.5 -144q0 -87 58.5 -142t148.5 -55
q101 0 159 61z" />
    <glyph glyph-name="zero.zero" horiz-adv-x="716" 
d="M358 692q134 0 210 -95.5t76 -256.5t-76 -256.5t-210 -95.5t-210 95.5t-76 256.5t76 256.5t210 95.5zM358 659q-117 0 -182.5 -86.5t-65.5 -232.5q0 -153 70 -238l331 502q-61 55 -153 55zM358 21q117 0 183 86.5t66 232.5q0 158 -75 244l-331 -505q64 -58 157 -58z" />
    <glyph glyph-name="zero.dnom" horiz-adv-x="426" 
d="M213 374q77 0 121 -53.5t44 -137.5t-44 -137.5t-121 -53.5q-76 0 -120.5 53.5t-44.5 137.5t44.5 137.5t120.5 53.5zM213 21q62 0 98 46t36 116q0 71 -36 117t-98 46t-98 -46t-36 -117q0 -70 36 -116t98 -46z" />
    <glyph glyph-name="one.dnom" horiz-adv-x="295" 
d="M173 27h103v-27h-246v27h113v297l-105 -29v28l119 34h16v-330z" />
    <glyph glyph-name="two.dnom" horiz-adv-x="355" 
d="M108 27h199v-27h-252v17l129 123q46 43 65 69t19 56q0 36 -24.5 59t-67.5 23q-41 0 -65 -21t-28 -57h-30q3 48 35 76.5t87 28.5q57 0 90.5 -30.5t33.5 -77.5q0 -34 -20.5 -64.5t-69.5 -76.5z" />
    <glyph glyph-name="three.dnom" horiz-adv-x="366" 
d="M247 186q67 -24 67 -90q0 -45 -36 -74t-95 -29q-57 0 -93.5 26t-41.5 68h31q5 -30 33 -48t72 -18t72 20.5t28 54.5t-26 55t-70 21h-33v25h33q37 0 60.5 21t23.5 53q0 34 -25 55t-67 21q-38 0 -62 -18t-29 -48h-30q5 42 37 67.5t83 25.5q56 0 89 -28.5t33 -74.5
q0 -60 -54 -85z" />
    <glyph glyph-name="four.dnom" horiz-adv-x="392" 
d="M344 110v-28h-65v-82h-29v82h-212v20l121 264h32l-115 -256h174v121h29v-121h65z" />
    <glyph glyph-name="five.dnom" horiz-adv-x="369" 
d="M183 223q60 0 94 -30.5t34 -80.5q0 -52 -35 -86t-95 -34q-116 0 -137 105h31q18 -78 106 -78q46 0 73 26.5t27 66.5q0 38 -26 61t-73 23l-85 -1h-29v171h229v-28h-200v-115h86z" />
    <glyph glyph-name="six.dnom" horiz-adv-x="362" 
d="M180 244q61 0 100 -35t39 -90q0 -56 -39.5 -91.5t-100.5 -35.5t-100.5 36t-39.5 91q0 41 30 82l126 165h37l-96 -128q19 6 44 6zM179 18q47 0 78 28t31 71q0 44 -31 71.5t-78 27.5q-54 0 -82 -30l-3 -4q-24 -26 -24 -64q0 -44 31 -72t78 -28z" />
    <glyph glyph-name="seven.dnom" horiz-adv-x="297" 
d="M20 366h262v-19l-184 -347h-36l179 337h-221v29z" />
    <glyph glyph-name="eight.dnom" horiz-adv-x="382" 
d="M253 194q38 -11 59 -35.5t21 -58.5q0 -48 -39 -78t-104 -30q-63 0 -102 30t-39 78q0 34 21 58.5t59 35.5q-63 23 -63 82q0 42 35 70t89 28q55 0 91 -28t36 -70q0 -59 -64 -82zM96 275q0 -33 26.5 -52.5t67.5 -19.5q43 0 69.5 19.5t26.5 52.5q0 32 -27 53t-69 21
q-40 0 -67 -21t-27 -53zM190 19q49 0 79 23t30 60q0 35 -30 57t-79 22q-48 0 -77.5 -22t-29.5 -57q0 -37 29.5 -60t77.5 -23z" />
    <glyph glyph-name="nine.dnom" horiz-adv-x="362" 
d="M183 375q61 0 100.5 -36t39.5 -91q0 -41 -30 -82l-126 -165h-37l96 128q-19 -6 -44 -6q-61 0 -100 35t-39 90q0 56 39.5 91.5t100.5 35.5zM265 181l3 4q24 25 24 64q0 44 -31 72t-78 28t-78 -28t-31 -71q0 -44 31 -71.5t78 -27.5q54 0 82 30z" />
    <glyph glyph-name="zero.numr" horiz-adv-x="426" 
d="M213 690q77 0 121 -53.5t44 -137.5t-44 -137.5t-121 -53.5q-76 0 -120.5 53.5t-44.5 137.5t44.5 137.5t120.5 53.5zM213 337q62 0 98 46t36 116q0 71 -36 117t-98 46t-98 -46t-36 -117q0 -70 36 -116t98 -46z" />
    <glyph glyph-name="one.numr" horiz-adv-x="295" 
d="M173 343h103v-27h-246v27h113v297l-105 -29v28l119 34h16v-330z" />
    <glyph glyph-name="two.numr" horiz-adv-x="355" 
d="M108 343h199v-27h-252v17l129 123q46 43 65 69t19 56q0 36 -24.5 59t-67.5 23q-41 0 -65 -21t-28 -57h-30q3 48 35 76.5t87 28.5q57 0 90.5 -30.5t33.5 -77.5q0 -34 -20.5 -64.5t-69.5 -76.5z" />
    <glyph glyph-name="three.numr" horiz-adv-x="366" 
d="M247 506q67 -24 67 -90q0 -45 -36 -74t-95 -29q-57 0 -93.5 26t-41.5 68h31q5 -30 33 -48t72 -18t72 20.5t28 54.5t-26 55t-70 21h-33v25h33q37 0 60.5 21t23.5 53q0 34 -25 55t-67 21q-38 0 -62 -18t-29 -48h-30q5 42 37 67.5t83 25.5q56 0 89 -28.5t33 -74.5
q0 -60 -54 -85z" />
    <glyph glyph-name="four.numr" horiz-adv-x="392" 
d="M344 426v-28h-65v-82h-29v82h-212v20l121 264h32l-115 -256h174v121h29v-121h65z" />
    <glyph glyph-name="five.numr" horiz-adv-x="369" 
d="M183 539q60 0 94 -30.5t34 -80.5q0 -52 -35 -86t-95 -34q-116 0 -137 105h31q18 -78 106 -78q46 0 73 26.5t27 66.5q0 38 -26 61t-73 23l-85 -1h-29v171h229v-28h-200v-115h86z" />
    <glyph glyph-name="six.numr" horiz-adv-x="362" 
d="M180 560q61 0 100 -35t39 -90q0 -56 -39.5 -91.5t-100.5 -35.5t-100.5 36t-39.5 91q0 41 30 82l126 165h37l-96 -128q19 6 44 6zM179 334q47 0 78 28t31 71q0 44 -31 71.5t-78 27.5q-54 0 -82 -30l-3 -4q-24 -26 -24 -64q0 -44 31 -72t78 -28z" />
    <glyph glyph-name="seven.numr" horiz-adv-x="297" 
d="M20 682h262v-19l-184 -347h-36l179 337h-221v29z" />
    <glyph glyph-name="eight.numr" horiz-adv-x="382" 
d="M253 514q38 -11 59 -35.5t21 -58.5q0 -48 -39 -78t-104 -30q-63 0 -102 30t-39 78q0 34 21 58.5t59 35.5q-63 23 -63 82q0 42 35 70t89 28q55 0 91 -28t36 -70q0 -59 -64 -82zM96 595q0 -33 26.5 -52.5t67.5 -19.5q43 0 69.5 19.5t26.5 52.5q0 32 -27 53t-69 21
q-40 0 -67 -21t-27 -53zM190 339q49 0 79 23t30 60q0 35 -30 57t-79 22q-48 0 -77.5 -22t-29.5 -57q0 -37 29.5 -60t77.5 -23z" />
    <glyph glyph-name="nine.numr" horiz-adv-x="362" 
d="M183 695q61 0 100.5 -36t39.5 -91q0 -41 -30 -82l-126 -165h-37l96 128q-19 -6 -44 -6q-61 0 -100 35t-39 90q0 56 39.5 91.5t100.5 35.5zM265 501l3 4q24 25 24 64q0 44 -31 72t-78 28t-78 -28t-31 -71q0 -44 31 -71.5t78 -27.5q54 0 82 30z" />
    <glyph glyph-name="backslash.case" horiz-adv-x="369" 
d="M287 -47l-241 777h36l242 -777h-37z" />
    <glyph glyph-name="periodcentered.case" horiz-adv-x="155" 
d="M78 305q-13 0 -21.5 8.5t-8.5 21.5t8.5 21.5t21.5 8.5q12 0 21 -8.5t9 -21.5t-9 -21.5t-21 -8.5z" />
    <glyph glyph-name="bullet.case" horiz-adv-x="309" 
d="M154 230q-41 0 -71.5 30.5t-30.5 71.5t30.5 71.5t71.5 30.5q42 0 72.5 -30.5t30.5 -71.5t-30.5 -71.5t-72.5 -30.5z" />
    <glyph glyph-name="exclamdown.case" horiz-adv-x="251" 
d="M125 688q13 0 22 -8.5t9 -21.5t-9 -21.5t-22 -8.5q-12 0 -21 8.5t-9 21.5t9 21.5t21 8.5zM144 0h-37l2 513h33z" />
    <glyph glyph-name="questiondown.case" horiz-adv-x="590" 
d="M333 688q13 0 21.5 -8.5t8.5 -21.5t-8.5 -21.5t-21.5 -8.5t-21.5 8.5t-8.5 21.5t8.5 21.5t21.5 8.5zM317 504h31l3 -137h-29q-81 0 -133.5 -51t-52.5 -124t51.5 -122.5t130.5 -49.5q60 0 108 34.5t60 90.5h36q-14 -72 -70.5 -114.5t-132.5 -42.5q-95 0 -156.5 58.5
t-61.5 145.5q0 86 60 144t156 59v109z" />
    <glyph glyph-name="slash.case" horiz-adv-x="369" 
d="M82 -47h-37l242 777h36z" />
    <glyph glyph-name="braceleft.case" horiz-adv-x="357" 
d="M190 494q0 -65 -16.5 -100.5t-55.5 -49.5q39 -14 55.5 -49.5t16.5 -100.5v-82q0 -62 30.5 -99t80.5 -37v-33q-65 0 -105.5 46.5t-40.5 122.5v81q0 74 -25.5 104.5t-86.5 30.5v32q61 0 86.5 30.5t25.5 104.5v81q0 76 40.5 122.5t105.5 46.5v-33q-50 0 -80.5 -37t-30.5 -99
v-82z" />
    <glyph glyph-name="braceright.case" horiz-adv-x="359" 
d="M169 494v82q0 62 -30.5 99t-80.5 37v33q65 0 105.5 -46.5t40.5 -122.5v-81q0 -74 25.5 -104.5t86.5 -30.5v-32q-61 0 -86.5 -30.5t-25.5 -104.5v-81q0 -76 -40.5 -122.5t-105.5 -46.5v33q50 0 80.5 37t30.5 99v82q0 65 16.5 100.5t55.5 49.5q-39 14 -55.5 49.5
t-16.5 100.5z" />
    <glyph glyph-name="bracketleft.case" horiz-adv-x="333" 
d="M144 697v-713h133v-33h-168v779h168v-33h-133z" />
    <glyph glyph-name="bracketright.case" horiz-adv-x="333" 
d="M189 697h-133v33h168v-779h-168v33h133v713z" />
    <glyph glyph-name="parenleft.case" horiz-adv-x="331" 
d="M108 329q0 -126 41.5 -206t135.5 -157l-21 -24q-99 76 -145.5 166.5t-46.5 220.5q0 131 47 225.5t145 170.5l21 -24q-92 -76 -134.5 -160.5t-42.5 -211.5z" />
    <glyph glyph-name="parenright.case" horiz-adv-x="331" 
d="M67 725q98 -76 145 -170.5t47 -225.5q0 -130 -46.5 -220.5t-145.5 -166.5l-21 24q94 77 135.5 157t41.5 206q0 127 -42.5 211.5t-134.5 160.5z" />
    <glyph glyph-name="emdash.case" horiz-adv-x="980" 
d="M126 324h728v32h-728v-32z" />
    <glyph glyph-name="endash.case" horiz-adv-x="750" 
d="M126 323h497v32h-497v-32z" />
    <glyph glyph-name="hyphen.case" horiz-adv-x="571" 
d="M126 323h319v32h-319v-32z" />
    <glyph glyph-name="guillemotleft.case" horiz-adv-x="413" 
d="M174 486h38l-119 -145l119 -145h-38l-118 145zM320 486h38l-119 -145l119 -145h-38l-118 145z" />
    <glyph glyph-name="guillemotright.case" horiz-adv-x="413" 
d="M93 486l118 -145l-118 -145h-38l119 145l-119 145h38zM239 486l118 -145l-118 -145h-38l119 145l-119 145h38z" />
    <glyph glyph-name="guilsinglleft.case" horiz-adv-x="267" 
d="M174 486h38l-119 -145l119 -145h-38l-118 145z" />
    <glyph glyph-name="guilsinglright.case" horiz-adv-x="267" 
d="M93 486l118 -145l-118 -145h-38l119 145l-119 145h38z" />
    <glyph glyph-name="cent.tf" horiz-adv-x="670" 
d="M346 20q64 0 109 32t59 87h37q-14 -66 -65 -106t-125 -45v-125h-33v126q-95 6 -155.5 73.5t-60.5 164.5q0 96 60.5 163.5t155.5 73.5v135h33v-134q74 -5 125 -45t65 -105h-37q-14 54 -59 86t-109 32q-88 0 -143.5 -59.5t-55.5 -146.5t55.5 -147t143.5 -60z" />
    <glyph glyph-name="dollar.tf" horiz-adv-x="670" 
d="M594 185q0 -86 -62 -139t-166 -58v-126h-33v126q-114 4 -181.5 61t-81.5 165h36q31 -193 242 -193q95 0 152 44t57 117q0 54 -38.5 90t-110.5 49l-140 27q-82 16 -124 57.5t-42 105.5q0 82 63.5 131.5t167.5 49.5v133h33v-134q97 -7 155 -55t70 -128h-36
q-30 152 -220 152q-88 0 -141.5 -40t-53.5 -109q0 -104 142 -130l133 -26q86 -16 132.5 -59.5t46.5 -110.5z" />
    <glyph glyph-name="Euro.tf" horiz-adv-x="670" 
d="M387 21q112 0 160 70h46q-61 -103 -206 -103q-111 0 -183.5 67.5t-93.5 185.5h-59v29h54q-4 29 -4 70q0 19 2 51h-52v29h55q18 127 91.5 199.5t189.5 72.5q76 0 132.5 -31t84.5 -89h-42q-50 87 -175 87q-100 0 -163 -64t-80 -175h338l-7 -29h-335q-2 -32 -2 -51
q0 -41 4 -70h302l-7 -29h-290q21 -103 83 -161.5t157 -58.5z" />
    <glyph glyph-name="florin.tf" horiz-adv-x="670" 
d="M490 652q-98 0 -113 -121l-23 -169h171v-31h-175l-32 -248q-9 -72 -46 -113t-100 -41q-37 0 -85 12l7 30q43 -10 75 -10q97 0 114 122l31 248h-130v31h134l23 169q10 72 46.5 113t99.5 41q37 0 85 -12l-6 -30q-47 9 -76 9z" />
    <glyph glyph-name="uni20B9.tf" horiz-adv-x="670" 
d="M590 680v-31h-230q100 -50 108 -163h122v-31h-123q-6 -90 -76 -141t-182 -51h-35l319 -263h-52l-321 263v34h95q94 0 152 41.5t64 116.5h-300v31h301q-6 75 -64.5 118t-152.5 43h-95v33h470z" />
    <glyph glyph-name="sterling.tf" horiz-adv-x="670" 
d="M179 288v-256h411v-32h-530v32h83v256h-83v32h83v150q0 100 62.5 161t164.5 61q94 0 154.5 -52t69.5 -140h-36q-9 73 -59.5 116.5t-128.5 43.5q-86 0 -138.5 -52t-52.5 -138v-150h262v-32h-262z" />
    <glyph glyph-name="yen.tf" horiz-adv-x="670" 
d="M353 253v-11h191v-30h-191v-79h191v-30h-191v-103h-36v103h-191v30h191v79h-191v30h191v11l-238 427h41l215 -391l216 391h40z" />
    <glyph glyph-name="arrowup.ss05" horiz-adv-x="553" 
d="M178 588l240 -239l-239 -239l-23 22l217 217l-218 217z" />
    <glyph glyph-name="arrowright.ss05" horiz-adv-x="571" 
d="M398 566l-218 -217l217 -217l-23 -22l-239 239l240 239z" />
    <glyph glyph-name="arrowdown.ss05" horiz-adv-x="676" 
d="M555 433l22 -23l-239 -239l-239 240l22 23l217 -218z" />
    <glyph glyph-name="arrowleft.ss05" horiz-adv-x="676" 
d="M577 203l-22 -23l-217 217l-217 -218l-22 23l239 240z" />
    <glyph glyph-name="at.case" horiz-adv-x="984" 
d="M630 470h33v-208q0 -60 19 -90.5t63 -30.5q57 0 89.5 48t32.5 124q0 147 -111 252.5t-264 105.5t-263.5 -106.5t-110.5 -259.5t110.5 -259.5t263.5 -106.5q138 0 242 87l19 -26q-113 -91 -261 -91q-168 0 -287 114t-119 282t119.5 282t286.5 114q168 0 287 -113.5
t119 -273.5q0 -88 -39 -145.5t-114 -57.5q-79 0 -104 71q-59 -77 -154 -77q-80 0 -135 54t-55 138q0 83 55 137t135 54q86 0 143 -63v45zM491 136q90 0 143 78q-4 21 -4 52v118q-54 73 -139 73q-68 0 -114 -44.5t-46 -115.5t46 -116t114 -45z" />
    <glyph glyph-name="bar.case" horiz-adv-x="305" 
d="M135 730h35v-777h-35v777z" />
    <glyph glyph-name="brokenbar.case" horiz-adv-x="305" 
d="M170 730v-338h-35v338h35zM170 290v-337h-35v337h35z" />
    <glyph glyph-name="registered.ss07" horiz-adv-x="873" 
d="M436 695q150 0 257 -102t107 -253t-107 -253t-257 -102t-257 102t-107 253t107 253t257 102zM436 12q137 0 236 95.5t99 232.5t-99 232.5t-236 95.5q-136 0 -235 -95.5t-99 -232.5t99 -232.5t235 -95.5zM593 412q0 -49 -34.5 -80.5t-92.5 -37.5l136 -144h-35l-133 143
h-96v-143h-27v383h133q67 0 108 -33t41 -88zM338 508v-191h105q55 0 88.5 26.5t33.5 69.5t-33.5 69t-88.5 26h-105z" />
    <glyph glyph-name="caron.alt" horiz-adv-x="600" 
d="M276 680h36l-20 -174h-29z" />
    <glyph glyph-name="acute.case" horiz-adv-x="600" 
d="M360 892h40l-89 -138h-36z" />
    <glyph glyph-name="breve.case" horiz-adv-x="600" 
d="M434 892q0 -61 -39.5 -94.5t-94.5 -33.5t-94.5 33.5t-39.5 94.5h30q0 -48 31.5 -74.5t72.5 -26.5t72.5 26.5t31.5 74.5h30z" />
    <glyph glyph-name="caron.case" horiz-adv-x="600" 
d="M409 895h38l-126 -139h-43l-125 139h38l109 -116z" />
    <glyph glyph-name="circumflex.case" horiz-adv-x="600" 
d="M409 756l-109 116l-109 -116h-38l125 139h43l126 -139h-38z" />
    <glyph glyph-name="dieresis.case" horiz-adv-x="600" 
d="M214 840q13 0 22.5 -9t9.5 -22t-9 -22.5t-23 -9.5t-23 9.5t-9 22.5t9.5 22t22.5 9zM386 840q13 0 22.5 -9t9.5 -22t-9 -22.5t-23 -9.5t-23 9.5t-9 22.5t9.5 22t22.5 9z" />
    <glyph glyph-name="dotaccent.case" horiz-adv-x="600" 
d="M300 777q-14 0 -23 9.5t-9 22.5t9.5 22t22.5 9t22.5 -9t9.5 -22t-9 -22.5t-23 -9.5z" />
    <glyph glyph-name="grave.case" horiz-adv-x="600" 
d="M258 892l85 -138h-36l-89 138h40z" />
    <glyph glyph-name="hungarumlaut.case" horiz-adv-x="600" 
d="M298 892h38l-86 -138h-34zM425 892h38l-86 -138h-34z" />
    <glyph glyph-name="macron.case" horiz-adv-x="600" 
d="M161 803h276v-29h-276v29z" />
    <glyph glyph-name="ring.case" horiz-adv-x="600" 
d="M300 947q38 0 64 -25t26 -63t-26 -63.5t-64 -25.5q-39 0 -65 25.5t-26 63.5t26 63t65 25zM300 794q27 0 46 18.5t19 46.5q0 26 -19 45t-46 19q-28 0 -46.5 -18.5t-18.5 -45.5q0 -28 18.5 -46.5t46.5 -18.5z" />
    <glyph glyph-name="tilde.case" horiz-adv-x="600" 
d="M434 865q0 -39 -21 -60.5t-50 -20t-58 19.5l-39 27q-28 22 -57.5 12.5t-29.5 -45.5h-30q0 38 22.5 58t52 19.5t54.5 -17.5l38 -27q34 -24 61 -13.5t27 47.5h30z" />
    </font>
</defs>
</svg>
