<?xml version="1.0" standalone="no"?>
<!DOCTYPE svg PUBLIC "-//W3C//DTD SVG 1.1//EN" "http://www.w3.org/Graphics/SVG/1.1/DTD/svg11.dtd" >
<svg xmlns="http://www.w3.org/2000/svg" xmlns:xlink="http://www.w3.org/1999/xlink" version="1.1">
<metadata>
Created by FontForge 20170731 at Fri Dec 22 00:57:43 2017
 By Aleksey,,,
Copyright (c) 2017 by Rene' Bieder. All rights reserved.
</metadata>
<defs>
<font id="Campton-Medium" horiz-adv-x="600" >
  <font-face 
    font-family="Campton Medium"
    font-weight="500"
    font-stretch="normal"
    units-per-em="1000"
    panose-1="2 11 0 4 2 1 2 2 2 3"
    ascent="770"
    descent="-230"
    x-height="470"
    cap-height="680"
    bbox="-367 -245 1457 971"
    underline-thickness="50"
    underline-position="-200"
    unicode-range="U+0020-FB02"
  />
<missing-glyph horiz-adv-x="870" 
d="M100 680h670v-680h-670v680zM700 129v481h-481zM170 547v-477h477z" />
    <glyph glyph-name="fi" unicode="fi" horiz-adv-x="677" 
d="M604 470v-470h-103v383h-260v-383h-103v383h-133v87h133v63q0 86 53.5 137.5t138.5 51.5q44 0 99 -15l-15 -84q-45 9 -72 9q-46 0 -73.5 -26.5t-27.5 -72.5v-63h363z" />
    <glyph glyph-name="fl" unicode="fl" horiz-adv-x="677" 
d="M501 710h104v-710h-104v383h-260v-383h-103v383h-133v87h133v63q0 86 53.5 137.5t138.5 51.5q44 0 99 -15l-15 -88q-41 13 -72 13q-46 0 -73.5 -26.5t-27.5 -72.5v-63h260v240z" />
    <glyph glyph-name=".notdef" horiz-adv-x="870" 
d="M100 680h670v-680h-670v680zM700 129v481h-481zM170 547v-477h477z" />
    <glyph glyph-name=".null" horiz-adv-x="0" 
 />
    <glyph glyph-name="nonmarkingreturn" horiz-adv-x="333" 
 />
    <glyph glyph-name="space" unicode=" " horiz-adv-x="265" 
 />
    <glyph glyph-name="exclam" unicode="!" horiz-adv-x="275" 
d="M192 680l-8 -476h-93l-8 476h109zM137 -7q-27 0 -46 18.5t-19 45.5t19 45t46 18q28 0 47 -18t19 -45t-19 -45.5t-47 -18.5z" />
    <glyph glyph-name="quotedbl" unicode="&#x22;" horiz-adv-x="358" 
d="M44 710h88v-274h-88v274zM225 710h89v-274h-89v274z" />
    <glyph glyph-name="numbersign" unicode="#" horiz-adv-x="755" 
d="M586 395l-39 -123h118v-93h-147l-56 -179h-107l56 179h-168l-56 -179h-107l56 179h-101v93h130l38 123h-113v93h143l60 193h107l-60 -193h168l60 193h107l-60 -193h105v-93h-134zM478 395h-167l-39 -123h168z" />
    <glyph glyph-name="dollar" unicode="$" horiz-adv-x="666" 
d="M404 381q99 -19 149.5 -63.5t50.5 -120.5q0 -84 -57.5 -139.5t-154.5 -66.5v-114h-94v113q-106 11 -170.5 72t-73.5 159h107q10 -65 59 -101t130 -36q67 0 105.5 26.5t38.5 73.5q0 73 -107 92l-119 23q-186 35 -186 189q0 85 58.5 139.5t157.5 63.5v116h94v-119
q87 -12 146 -62t68 -143h-106q-19 116 -160 116q-66 0 -105 -27t-39 -76q0 -74 113 -96z" />
    <glyph glyph-name="percent" unicode="%" horiz-adv-x="1085" 
d="M278 692q83 0 138.5 -53.5t55.5 -138.5q0 -86 -55 -140t-139 -54t-139 54t-55 140q0 85 55.5 138.5t138.5 53.5zM804 680l-460 -680h-74l460 680h74zM278 381q49 0 82.5 33.5t33.5 85.5q0 51 -33.5 84t-82.5 33t-82.5 -33t-33.5 -84q0 -52 33.5 -85.5t82.5 -33.5z
M807 374q84 0 139.5 -53.5t55.5 -138.5q0 -86 -55.5 -140t-139.5 -54q-83 0 -138.5 54t-55.5 140q0 84 55.5 138t138.5 54zM807 63q49 0 82.5 33.5t33.5 85.5q0 51 -33.5 84t-82.5 33q-48 0 -81.5 -33t-33.5 -84q0 -52 33.5 -85.5t81.5 -33.5z" />
    <glyph glyph-name="ampersand" unicode="&#x26;" horiz-adv-x="725" 
d="M704 0h-137l-72 66q-88 -80 -207 -80q-111 0 -179.5 57.5t-68.5 149.5q0 62 34 110t92 75q-53 66 -53 130q0 82 59 134.5t148 52.5q86 0 140.5 -51.5t64.5 -140.5h-104q-6 47 -33.5 73t-68.5 26q-43 0 -71 -27t-28 -69q0 -30 20 -61.5t44 -55.5t87 -81l117 -108l95 144
h109l-129 -197l-7 -10zM289 78q75 0 138 51l-146 134q-29 25 -51 48q-89 -39 -89 -116q0 -49 42 -83t106 -34z" />
    <glyph glyph-name="quotesingle" unicode="'" horiz-adv-x="176" 
d="M44 710h88v-274h-88v274z" />
    <glyph glyph-name="parenleft" unicode="(" horiz-adv-x="359" 
d="M164 302q0 -113 41.5 -197t125.5 -167l-66 -68q-206 174 -206 432t206 432l66 -67q-85 -84 -126 -167.5t-41 -197.5z" />
    <glyph glyph-name="parenright" unicode=")" horiz-adv-x="359" 
d="M94 734q206 -174 206 -432t-206 -432l-66 68q84 83 125.5 167t41.5 197q0 114 -41 197.5t-126 167.5z" />
    <glyph glyph-name="asterisk" unicode="*" horiz-adv-x="406" 
d="M260 528l101 -61l-30 -51l-98 59v-104h-61v104l-98 -59l-29 51l101 61l-101 61l29 52l98 -59v103h61v-103l98 59l30 -52z" />
    <glyph glyph-name="plus" unicode="+" horiz-adv-x="688" 
d="M581 280h-187v-181h-100v181h-186v96h186v181h100v-181h187v-96z" />
    <glyph glyph-name="comma" unicode="," horiz-adv-x="208" 
d="M35 -111l49 115q-40 15 -40 53q0 26 19 44t45 18q27 0 46 -18t19 -44q0 -20 -21 -60l-54 -108h-63z" />
    <glyph glyph-name="hyphen" unicode="-" horiz-adv-x="555" 
d="M108 217h340v96h-340v-96z" />
    <glyph glyph-name="period" unicode="." horiz-adv-x="201" 
d="M100 -7q-27 0 -46 18t-19 45t19 45t46 18t46.5 -18t19.5 -45t-19.5 -45t-46.5 -18z" />
    <glyph glyph-name="slash" unicode="/" horiz-adv-x="405" 
d="M403 730l-257 -890h-100l257 890h100z" />
    <glyph glyph-name="zero" unicode="0" horiz-adv-x="718" 
d="M360 692q140 0 220 -97t80 -255q0 -157 -80 -254.5t-220 -97.5t-220.5 97.5t-80.5 254.5t80.5 254.5t220.5 97.5zM360 85q92 0 141.5 70.5t49.5 184.5t-49.5 184.5t-141.5 70.5q-93 0 -143 -70.5t-50 -184.5t50 -184.5t143 -70.5z" />
    <glyph glyph-name="one" unicode="1" horiz-adv-x="513" 
d="M334 88h171v-88h-461v88h183v474l-173 -61v99l219 80h61v-592z" />
    <glyph glyph-name="two" unicode="2" horiz-adv-x="560" 
d="M212 88h298v-88h-454v56l216 245q48 52 67 75t36.5 55.5t17.5 61.5q0 45 -31 75.5t-89 30.5q-55 0 -89.5 -30.5t-40.5 -85.5h-106q3 95 68 152t171 57t165.5 -57t59.5 -143q0 -53 -30.5 -101t-109.5 -135z" />
    <glyph glyph-name="three" unicode="3" horiz-adv-x="573" 
d="M422 344q100 -47 100 -157q0 -86 -66 -142.5t-166 -56.5q-101 0 -167.5 51t-79.5 139h104q9 -45 47.5 -71.5t95.5 -26.5t94 30t37 77q0 50 -38.5 79.5t-101.5 29.5h-54v87h54q53 0 85.5 30t32.5 78q0 50 -32.5 79.5t-86.5 29.5q-51 0 -84.5 -27t-38.5 -72h-105
q7 87 69 139t159 52q98 0 159 -56t61 -144q0 -100 -78 -148z" />
    <glyph glyph-name="four" unicode="4" horiz-adv-x="640" 
d="M598 233v-92h-98v-141h-104v141h-356v66l198 473h110l-183 -447h231v207h104v-207h98z" />
    <glyph glyph-name="five" unicode="5" horiz-adv-x="589" 
d="M301 429q105 0 170 -60t65 -154q0 -99 -66 -163t-171 -64q-101 0 -167 53t-81 144h105q29 -105 143 -105q60 0 98 37.5t38 94.5q0 56 -40 90.5t-107 34.5h-203v343h422v-96h-323v-155h117z" />
    <glyph glyph-name="six" unicode="6" horiz-adv-x="614" 
d="M308 461q112 0 184.5 -66.5t72.5 -168.5q0 -103 -72.5 -170.5t-185.5 -67.5t-185.5 67t-72.5 168q0 73 59 165l195 292h125l-144 -220q7 1 24 1zM307 75q67 0 110.5 41.5t43.5 103.5t-43.5 104.5t-110.5 42.5q-64 0 -107 -34l-3 -5q-44 -58 -44 -109q0 -61 43.5 -102.5
t110.5 -41.5z" />
    <glyph glyph-name="seven" unicode="7" horiz-adv-x="503" 
d="M13 680h470v-65l-292 -615h-119l276 580h-335v100z" />
    <glyph glyph-name="eight" unicode="8" horiz-adv-x="622" 
d="M456 359q57 -24 87.5 -68t30.5 -101q0 -91 -71.5 -146.5t-191.5 -55.5t-191 55.5t-71 146.5q0 118 117 169q-89 48 -89 146q0 83 65.5 135t168.5 52t168.5 -52t65.5 -135q0 -98 -89 -146zM311 608q-57 0 -93 -31t-36 -78q0 -48 36 -79.5t93 -31.5t93.5 31.5t36.5 79.5
q0 47 -36.5 78t-93.5 31zM311 77q64 0 104.5 34t40.5 86q0 51 -40.5 84t-104.5 33t-104.5 -33t-40.5 -84q0 -53 40.5 -86.5t104.5 -33.5z" />
    <glyph glyph-name="nine" unicode="9" horiz-adv-x="614" 
d="M307 692q113 0 185.5 -67t72.5 -168q0 -73 -59 -165l-195 -292h-125l144 220q-7 -1 -24 -1q-112 0 -184.5 66.5t-72.5 168.5q0 103 72.5 170.5t185.5 67.5zM414 347l3 5q44 58 44 109q0 61 -43.5 102.5t-110.5 41.5t-110.5 -41.5t-43.5 -103.5t43.5 -104.5t110.5 -42.5
q64 0 107 34z" />
    <glyph glyph-name="colon" unicode=":" horiz-adv-x="201" 
d="M100 352q-27 0 -46 18t-19 45t19 45t46 18t46.5 -18t19.5 -45t-19.5 -45t-46.5 -18zM100 -7q-27 0 -46 18t-19 45t19 45t46 18t46.5 -18t19.5 -45t-19.5 -45t-46.5 -18z" />
    <glyph glyph-name="semicolon" unicode=";" horiz-adv-x="209" 
d="M108 352q-27 0 -46 18t-19 45t19 45t46 18t46.5 -18t19.5 -45t-19.5 -45t-46.5 -18zM36 -111l49 115q-40 15 -40 53q0 26 19 44t45 18q27 0 46 -18t19 -44q0 -20 -21 -60l-54 -108h-63z" />
    <glyph glyph-name="less" unicode="&#x3c;" horiz-adv-x="547" 
d="M52 356l422 195v-104l-307 -143l307 -143v-104l-422 195v104z" />
    <glyph glyph-name="equal" unicode="=" horiz-adv-x="697" 
d="M590 471v-96h-482v96h482zM590 273v-96h-482v96h482z" />
    <glyph glyph-name="greater" unicode="&#x3e;" horiz-adv-x="547" 
d="M495 356v-104l-422 -195v104l307 143l-307 143v104z" />
    <glyph glyph-name="question" unicode="?" horiz-adv-x="542" 
d="M281 203h-82l-8 152h60q58 0 95.5 34.5t37.5 88.5q0 53 -34.5 87t-89.5 34q-47 0 -81 -26.5t-41 -70.5h-104q9 87 67.5 138t153.5 51q99 0 164.5 -59t65.5 -153q0 -83 -54 -135.5t-146 -60.5zM238 -7q-27 0 -46 18.5t-19 45.5t19 45t46 18t46.5 -18t19.5 -45t-19.5 -45.5
t-46.5 -18.5z" />
    <glyph glyph-name="at" unicode="@" horiz-adv-x="996" 
d="M604 429h92v-225q0 -95 66 -95q45 0 67.5 36.5t22.5 100.5q0 146 -100.5 242.5t-248.5 96.5q-149 0 -253.5 -100t-104.5 -246q0 -145 104 -245t249 -100q127 0 223 76l43 -64q-116 -86 -265 -86q-179 0 -305 120t-126 299t126 299.5t309 120.5q182 0 303.5 -117
t121.5 -294q0 -98 -41 -157.5t-125 -59.5q-99 0 -134 67q-58 -68 -151 -68q-85 0 -142.5 59t-57.5 146q0 88 57.5 146.5t142.5 58.5q73 0 127 -44v33zM492 113q73 0 114 66q-2 30 -2 46v70q-42 64 -112 64q-49 0 -85 -34t-36 -89t36 -89t85 -34z" />
    <glyph glyph-name="A" unicode="A" horiz-adv-x="749" 
d="M611 0l-70 163h-332l-70 -163h-115l301 680h101l300 -680h-115zM249 259h251l-125 293z" />
    <glyph glyph-name="B" unicode="B" horiz-adv-x="685" 
d="M497 352q67 -13 102 -58t35 -108q0 -84 -67 -135t-180 -51h-306v680h295q105 0 165 -47t60 -128q0 -54 -28 -95.5t-76 -57.5zM364 585h-175v-200h170q67 0 104 29t37 77q0 44 -35.5 69t-100.5 25zM383 95q68 0 106.5 29.5t38.5 74.5q0 46 -37.5 71.5t-103.5 25.5h-198
v-201h194z" />
    <glyph glyph-name="C" unicode="C" horiz-adv-x="800" 
d="M412 88q84 0 141 45t77 125h111q-24 -123 -113 -197t-216 -74q-148 0 -250.5 101t-102.5 252q0 152 102 252t251 100q127 0 216 -73t113 -196h-111q-20 80 -77 124.5t-141 44.5q-105 0 -174.5 -71t-69.5 -181q0 -109 69.5 -180.5t174.5 -71.5z" />
    <glyph glyph-name="D" unicode="D" horiz-adv-x="751" 
d="M332 680q157 0 259 -95t102 -241q0 -149 -102 -246.5t-259 -97.5h-251v680h251zM332 100q108 0 180 69.5t72 174.5q0 101 -72.5 169t-179.5 68h-143v-481h143z" />
    <glyph glyph-name="E" unicode="E" horiz-adv-x="621" 
d="M569 581h-380v-195h340v-99h-340v-187h380v-100h-488v680h488v-99z" />
    <glyph glyph-name="F" unicode="F" horiz-adv-x="590" 
d="M562 581h-373v-213h329v-99h-329v-269h-108v680h481v-99z" />
    <glyph glyph-name="G" unicode="G" horiz-adv-x="823" 
d="M403 369h346v-369h-85l-8 117q-78 -129 -245 -129q-151 0 -251.5 101t-100.5 244q0 156 103 257.5t254 101.5q116 0 207 -63t120 -180h-115q-24 73 -83 108t-127 35q-108 0 -179 -72.5t-71 -186.5q0 -101 68.5 -172.5t174.5 -71.5q87 0 144.5 49.5t76.5 130.5h-229v100z
" />
    <glyph glyph-name="H" unicode="H" horiz-adv-x="734" 
d="M546 680h107v-680h-107v284h-357v-284h-108v680h108v-296h357v296z" />
    <glyph glyph-name="I" unicode="I" horiz-adv-x="270" 
d="M81 680h108v-680h-108v680z" />
    <glyph glyph-name="J" unicode="J" horiz-adv-x="595" 
d="M524 680v-429q0 -126 -69.5 -194.5t-189.5 -68.5q-105 0 -173.5 59.5t-76.5 163.5h109q6 -59 46 -91t102 -32q64 0 103.5 44t39.5 122v426h109z" />
    <glyph glyph-name="K" unicode="K" horiz-adv-x="709" 
d="M554 0l-243 297l-122 -132v-165h-108v680h108v-368l342 368h130l-278 -304l309 -376h-138z" />
    <glyph glyph-name="L" unicode="L" horiz-adv-x="579" 
d="M189 100h363v-100h-471v680h108v-580z" />
    <glyph glyph-name="M" unicode="M" horiz-adv-x="849" 
d="M767 680v-680h-107v443l-202 -328h-67l-204 331l2 -446h-108v680h78l265 -432l265 432h78z" />
    <glyph glyph-name="N" unicode="N" horiz-adv-x="757" 
d="M569 680h107v-680h-86l-401 480v-480h-108v680h83l405 -490v490z" />
    <glyph glyph-name="O" unicode="O" horiz-adv-x="825" 
d="M413 692q147 0 250.5 -102.5t103.5 -249.5t-103.5 -249.5t-250.5 -102.5t-250.5 102.5t-103.5 249.5t103.5 249.5t250.5 102.5zM413 89q104 0 174.5 73t70.5 178t-70.5 178.5t-174.5 73.5t-174.5 -73.5t-70.5 -178.5t70.5 -178t174.5 -73z" />
    <glyph glyph-name="P" unicode="P" horiz-adv-x="629" 
d="M332 680q121 0 194 -64t73 -168q0 -110 -77.5 -176.5t-204.5 -66.5h-128v-205h-108v680h251zM329 304q73 0 118.5 39.5t45.5 104.5q0 59 -45.5 96t-118.5 37h-140v-277h140z" />
    <glyph glyph-name="Q" unicode="Q" horiz-adv-x="825" 
d="M767 340q0 -85 -37 -158t-101 -122l118 -142l-80 -74l-136 164q-57 -20 -118 -20q-147 0 -250.5 102.5t-103.5 249.5t103.5 249.5t250.5 102.5t250.5 -102.5t103.5 -249.5zM168 340q0 -105 70.5 -178t174.5 -73t174.5 73t70.5 178t-70.5 178.5t-174.5 73.5t-174.5 -73.5
t-70.5 -178.5z" />
    <glyph glyph-name="R" unicode="R" horiz-adv-x="682" 
d="M522 0l-176 230h-157v-230h-108v680h273q115 0 188.5 -61.5t73.5 -163.5q0 -74 -41 -129t-111 -79l190 -247h-132zM189 581v-252h161q70 0 115 34.5t45 91.5t-45 91.5t-115 34.5h-161z" />
    <glyph glyph-name="S" unicode="S" horiz-adv-x="666" 
d="M333 692q50 0 94 -11t83 -34.5t64.5 -65t31.5 -98.5h-106q-19 116 -160 116q-66 0 -105 -27t-39 -76q0 -74 113 -96l95 -19q99 -19 149.5 -63.5t50.5 -120.5q0 -95 -71.5 -152t-188.5 -57q-125 0 -202.5 62t-87.5 171h107q10 -65 59 -101t130 -36q67 0 105.5 26.5
t38.5 73.5q0 73 -107 92l-119 23q-186 35 -186 189q0 93 68.5 148.5t182.5 55.5z" />
    <glyph glyph-name="T" unicode="T" horiz-adv-x="645" 
d="M617 680v-99h-241v-581h-107v581h-241v99h589z" />
    <glyph glyph-name="U" unicode="U" horiz-adv-x="738" 
d="M667 680v-381q0 -143 -81.5 -227t-216.5 -84q-134 0 -216 84.5t-82 226.5v381h108v-381q0 -94 52.5 -152.5t137.5 -58.5t138 58.5t53 152.5v381h107z" />
    <glyph glyph-name="V" unicode="V" horiz-adv-x="764" 
d="M624 680h117l-309 -684h-99l-310 684h118l241 -538z" />
    <glyph glyph-name="W" unicode="W" horiz-adv-x="1049" 
d="M913 680h114l-228 -684h-106l-168 490l-169 -490h-106l-227 684h113l168 -516l175 516h92l175 -516z" />
    <glyph glyph-name="X" unicode="X" horiz-adv-x="669" 
d="M651 0h-125l-191 256l-192 -256h-125l244 337l-238 343h131l179 -257l179 257h131l-238 -343z" />
    <glyph glyph-name="Y" unicode="Y" horiz-adv-x="683" 
d="M552 680h119l-275 -448v-232h-109v232l-275 448h119l210 -344z" />
    <glyph glyph-name="Z" unicode="Z" horiz-adv-x="654" 
d="M219 98h382v-98h-551v52l391 530h-378v98h535v-52z" />
    <glyph glyph-name="bracketleft" unicode="[" horiz-adv-x="365" 
d="M185 631v-664h143v-100h-247v863h247v-99h-143z" />
    <glyph glyph-name="backslash" unicode="\" horiz-adv-x="405" 
d="M24 730h100l257 -890h-100z" />
    <glyph glyph-name="bracketright" unicode="]" horiz-adv-x="365" 
d="M180 631h-143v99h247v-863h-247v100h143v664z" />
    <glyph glyph-name="asciicircum" unicode="^" horiz-adv-x="408" 
d="M250 680l133 -237h-96l-83 159l-83 -159h-96l133 237h92z" />
    <glyph glyph-name="underscore" unicode="_" horiz-adv-x="638" 
d="M35 -198v91h568v-91h-568z" />
    <glyph glyph-name="grave" unicode="`" 
d="M310 706l77 -147h-95l-97 147h115z" />
    <glyph glyph-name="a" unicode="a" horiz-adv-x="613" 
d="M438 470h103v-470h-103v37q-63 -49 -151 -49q-99 0 -168.5 72t-69.5 175t69.5 175t168.5 72q88 0 151 -49v37zM302 82q88 0 136 68v170q-48 68 -136 68q-64 0 -106.5 -44.5t-42.5 -108.5t42.5 -108.5t106.5 -44.5z" />
    <glyph glyph-name="b" unicode="b" horiz-adv-x="613" 
d="M326 482q99 0 169 -72t70 -174q0 -103 -70 -175.5t-169 -72.5q-88 0 -150 49v-37h-104v710h104v-276q62 48 150 48zM311 82q64 0 107 45t43 109q0 63 -43 107.5t-107 44.5q-88 0 -135 -66v-173q48 -67 135 -67z" />
    <glyph glyph-name="c" unicode="c" horiz-adv-x="575" 
d="M297 82q47 0 80 24.5t43 64.5h106q-13 -81 -76.5 -132t-152.5 -51q-106 0 -177 71t-71 176t71.5 176t176.5 71q89 0 152.5 -51t76.5 -132h-106q-10 40 -43 64.5t-80 24.5q-64 0 -104 -44t-40 -109t40 -109t104 -44z" />
    <glyph glyph-name="d" unicode="d" horiz-adv-x="613" 
d="M438 710h103v-710h-103v38q-62 -50 -151 -50q-99 0 -168.5 72.5t-69.5 175.5q0 102 69.5 174t168.5 72q88 0 151 -49v277zM302 82q89 0 136 69v169q-48 68 -136 68q-64 0 -106.5 -44.5t-42.5 -107.5q0 -64 42.5 -109t106.5 -45z" />
    <glyph glyph-name="e" unicode="e" horiz-adv-x="575" 
d="M291 482q117 0 182.5 -79t50.5 -199h-369q8 -56 44 -90.5t99 -34.5q72 0 100 44h114q-22 -63 -80 -99t-135 -36q-110 0 -179 70.5t-69 176.5q0 105 68 176t174 71zM292 394q-56 0 -90.5 -33t-44.5 -85h264q-4 57 -38.5 87.5t-90.5 30.5z" />
    <glyph glyph-name="f" unicode="f" horiz-adv-x="429" 
d="M241 533v-63h186v-87h-186v-383h-103v383h-133v87h133v63q0 86 53.5 137.5t138.5 51.5q44 0 99 -15l-15 -88q-41 13 -72 13q-46 0 -73.5 -26.5t-27.5 -72.5z" />
    <glyph glyph-name="g" unicode="g" horiz-adv-x="613" 
d="M438 470h103v-483q0 -106 -65.5 -167.5t-172.5 -61.5q-99 0 -165.5 53t-76.5 137h106q7 -44 43 -70t93 -26q61 0 98 36t37 99v74q-63 -49 -153 -49q-98 0 -167 68.5t-69 163.5q0 104 68 171t168 67q90 0 153 -49v37zM300 102q90 0 138 72v146q-49 73 -138 73
q-65 0 -106 -42t-41 -107q0 -56 42 -99t105 -43z" />
    <glyph glyph-name="h" unicode="h" horiz-adv-x="592" 
d="M328 482q92 0 148.5 -59.5t56.5 -160.5v-262h-104v256q0 64 -32 98t-90 34q-74 0 -131 -71v-317h-104v710h104v-282q63 54 152 54z" />
    <glyph glyph-name="i" unicode="i" horiz-adv-x="276" 
d="M138 579q-28 0 -47 18t-19 46t19 46t47 18q27 0 46.5 -18.5t19.5 -45.5t-19.5 -45.5t-46.5 -18.5zM87 470h103v-470h-103v470z" />
    <glyph glyph-name="j" unicode="j" horiz-adv-x="264" 
d="M126 579q-27 0 -46 18.5t-19 45.5t19 45.5t46 18.5q28 0 47 -18t19 -46t-19 -46t-47 -18zM179 470v-503q0 -108 -43 -158t-154 -51l-8 90q58 4 79.5 26.5t21.5 80.5v515h104z" />
    <glyph glyph-name="k" unicode="k" horiz-adv-x="570" 
d="M424 0l-159 201l-89 -90v-111h-104v710h104v-462l221 222h132l-193 -196l223 -274h-135z" />
    <glyph glyph-name="l" unicode="l" horiz-adv-x="248" 
d="M72 710h104v-710h-104v710z" />
    <glyph glyph-name="m" unicode="m" horiz-adv-x="906" 
d="M639 482q94 0 150.5 -55.5t56.5 -157.5v-269h-103v269q0 60 -29.5 89.5t-81.5 29.5q-77 0 -125 -64q4 -20 4 -49v-275h-103v275q0 113 -105 113q-79 0 -127 -67v-321h-104v470h104v-40q57 52 139 52q103 0 156 -68q70 68 168 68z" />
    <glyph glyph-name="n" unicode="n" horiz-adv-x="592" 
d="M328 482q92 0 148.5 -59.5t56.5 -160.5v-262h-104v256q0 64 -32 98t-90 34q-74 0 -131 -71v-317h-104v470h104v-42q63 54 152 54z" />
    <glyph glyph-name="o" unicode="o" horiz-adv-x="598" 
d="M299 482q109 0 179.5 -69.5t70.5 -177.5t-70.5 -177.5t-179.5 -69.5t-179.5 69.5t-70.5 177.5t70.5 177.5t179.5 69.5zM299 82q64 0 105 43.5t41 109.5q0 67 -41 110t-105 43t-105 -43t-41 -110q0 -66 41 -109.5t105 -43.5z" />
    <glyph glyph-name="p" unicode="p" horiz-adv-x="613" 
d="M326 481q99 0 169 -71.5t70 -174.5t-70 -174.5t-169 -71.5q-88 0 -150 48v-269h-104v702h104v-37q62 48 150 48zM311 79q64 0 107 46t43 110t-43 110t-107 46q-86 0 -135 -70v-172q49 -70 135 -70z" />
    <glyph glyph-name="q" unicode="q" horiz-adv-x="613" 
d="M438 470h103v-702h-103v270q-63 -49 -151 -49q-99 0 -168.5 71.5t-69.5 174.5t69.5 174.5t168.5 71.5q88 0 151 -49v38zM302 79q87 0 136 71v170q-49 71 -136 71q-64 0 -106.5 -46t-42.5 -110t42.5 -110t106.5 -46z" />
    <glyph glyph-name="r" unicode="r" horiz-adv-x="378" 
d="M176 406q68 74 174 74v-98q-112 -4 -174 -86v-296h-104v470h104v-64z" />
    <glyph glyph-name="s" unicode="s" horiz-adv-x="514" 
d="M136 155q16 -82 125 -82q47 0 75 15t28 42q0 44 -63 55l-104 18q-139 23 -139 133q0 68 53.5 107.5t142.5 39.5q81 0 140 -35t66 -119h-96q-7 71 -110 71q-44 0 -68.5 -15t-24.5 -40q0 -46 73 -58l88 -14q141 -26 141 -135q0 -72 -56.5 -111t-148.5 -39q-59 0 -104 15.5
t-76.5 54.5t-37.5 98z" />
    <glyph glyph-name="t" unicode="t" horiz-adv-x="442" 
d="M392 102l15 -95q-52 -19 -107 -19q-89 0 -136.5 50.5t-47.5 142.5v202h-111v87h111v173h104v-173h174v-87h-174v-202q0 -97 92 -97q37 0 80 18z" />
    <glyph glyph-name="u" unicode="u" horiz-adv-x="592" 
d="M417 470h103v-470h-103v46q-64 -58 -153 -58q-92 0 -148 60.5t-56 161.5v260h103v-254q0 -64 32.5 -99t89.5 -35q73 0 132 74v314z" />
    <glyph glyph-name="v" unicode="v" horiz-adv-x="577" 
d="M443 470h110l-219 -470h-91l-219 470h110l155 -337z" />
    <glyph glyph-name="w" unicode="w" horiz-adv-x="789" 
d="M653 470h112l-169 -470h-91l-110 326l-111 -326h-91l-169 470h112l102 -314l112 314h89l112 -313z" />
    <glyph glyph-name="x" unicode="x" horiz-adv-x="548" 
d="M526 0h-124l-127 165l-129 -165h-123l182 237l-181 234h127l123 -159l123 159h127l-180 -234l-1 -1z" />
    <glyph glyph-name="y" unicode="y" horiz-adv-x="608" 
d="M474 471h110l-310 -703h-109l99 225l-240 478h111l177 -368z" />
    <glyph glyph-name="z" unicode="z" horiz-adv-x="496" 
d="M457 470v-56l-263 -327h263v-87h-418v49l268 335h-260v86h410z" />
    <glyph glyph-name="braceleft" unicode="{" horiz-adv-x="354" 
d="M227 424q0 -53 -15 -80t-59 -41q44 -14 59 -41t15 -81v-139q0 -36 25 -58.5t65 -22.5v-101q-87 0 -140 50t-53 132v136q0 49 -19.5 64t-70.5 15v92q51 0 70.5 15t19.5 63v136q0 82 53 132t140 50v-101q-41 0 -65.5 -22t-24.5 -59v-139z" />
    <glyph glyph-name="bar" unicode="|" horiz-adv-x="317" 
d="M110 730h97v-890h-97v890z" />
    <glyph glyph-name="braceright" unicode="}" horiz-adv-x="366" 
d="M139 424v139q0 37 -24.5 59t-65.5 22v101q87 0 140 -50t53 -132v-136q0 -48 19.5 -63t70.5 -15v-92q-51 0 -70.5 -15t-19.5 -64v-136q0 -82 -53 -132t-140 -50v101q40 0 65 22.5t25 58.5v139q0 54 15 81t59 41q-44 14 -59 41t-15 80z" />
    <glyph glyph-name="asciitilde" unicode="~" horiz-adv-x="448" 
d="M417 402q0 -46 -18.5 -77.5t-45.5 -43.5t-57 -11t-55 16l-58 36q-28 15 -44.5 4.5t-16.5 -36.5h-91q0 46 18.5 77.5t45.5 43.5t57.5 11t55.5 -16l57 -36q28 -15 44.5 -4.5t16.5 36.5h91z" />
    <glyph glyph-name="exclamdown" unicode="&#xa1;" horiz-adv-x="275" 
d="M137 480q28 0 47 -18.5t19 -45.5t-19 -45t-47 -18q-27 0 -46 18t-19 45t19 45.5t46 18.5zM192 -207h-109l8 476h93z" />
    <glyph glyph-name="cent" unicode="&#xa2;" horiz-adv-x="575" 
d="M297 82q47 0 80 24.5t43 64.5h106q-11 -69 -60 -117t-121 -62v-108h-94v108q-89 15 -145.5 82.5t-56.5 160.5q0 92 56.5 159.5t145.5 83.5v121h94v-121q72 -14 121 -62t60 -117h-106q-10 40 -43 64.5t-80 24.5q-64 0 -104 -44t-40 -109t40 -109t104 -44z" />
    <glyph glyph-name="sterling" unicode="&#xa3;" horiz-adv-x="619" 
d="M206 278v-187h369v-91h-539v91h66v187h-66v91h66v89q0 106 67 170t176 64q100 0 164.5 -54t75.5 -146h-105q-9 50 -44.5 79t-90.5 29q-63 0 -101 -38.5t-38 -103.5v-89h214v-91h-214z" />
    <glyph glyph-name="yen" unicode="&#xa5;" horiz-adv-x="683" 
d="M671 680l-243 -396h147v-76h-179v-55h179v-76h-179v-77h-109v77h-179v76h179v55h-179v76h147l-243 396h119l210 -344l211 344h119z" />
    <glyph glyph-name="brokenbar" unicode="&#xa6;" horiz-adv-x="317" 
d="M207 730v-394h-97v394h97zM207 234v-394h-97v394h97z" />
    <glyph glyph-name="section" unicode="&#xa7;" horiz-adv-x="544" 
d="M509 227q0 -85 -79 -124q34 -41 34 -100q0 -75 -54.5 -119t-138.5 -44q-89 0 -146 49.5t-68 131.5h113q5 -40 30 -63.5t70 -23.5q39 0 63 19t24 53q0 50 -71 83l-112 52q-76 35 -107.5 73.5t-31.5 89.5q0 85 79 125q-35 43 -35 100q0 75 54.5 118t139.5 43q89 0 146 -49
t68 -131h-113q-5 40 -30.5 63.5t-69.5 23.5q-38 0 -62.5 -19.5t-24.5 -52.5q0 -27 16.5 -45.5t54.5 -36.5l112 -53q76 -36 107.5 -74t31.5 -89zM220 223l119 -55q8 -4 12 -5q24 5 38.5 21.5t14.5 40.5q0 25 -19 44t-61 39l-119 55q-9 5 -11 5q-24 -5 -39 -22t-15 -41
q0 -44 80 -82z" />
    <glyph glyph-name="dieresis" unicode="&#xa8;" 
d="M199 685q28 0 47.5 -18.5t19.5 -46.5q0 -27 -19.5 -46t-47.5 -19t-47.5 19t-19.5 46q0 28 19.5 46.5t47.5 18.5zM402 685q28 0 47.5 -18.5t19.5 -46.5q0 -27 -19.5 -46t-47.5 -19t-47.5 19t-19.5 46q0 28 19.5 46.5t47.5 18.5z" />
    <glyph glyph-name="copyright" unicode="&#xa9;" horiz-adv-x="845" 
d="M423 695q150 0 257 -102t107 -253t-107 -253t-257 -102t-257 102t-107 253t107 253t257 102zM422 54q118 0 204.5 83.5t86.5 202.5q0 120 -86 203t-205 83t-205 -83t-86 -203t86 -203t205 -83zM423 439q-42 0 -70.5 -29t-28.5 -71t28.5 -71.5t70.5 -29.5q31 0 55 16
t33 43h81q-11 -59 -58 -95.5t-110 -36.5q-75 0 -126 49.5t-51 124.5q0 74 51 123.5t126 49.5q64 0 110.5 -36t57.5 -96h-81q-9 27 -33 43t-55 16z" />
    <glyph glyph-name="ordfeminine" unicode="&#xaa;" horiz-adv-x="353" 
d="M180 685q62 0 100 -35t38 -96v-192h-71v23q-42 -30 -90 -30q-60 0 -95.5 27t-35.5 75q0 42 31.5 65.5t86.5 23.5h103v8q0 69 -67 69q-65 0 -69 -52h-73q3 57 44 85.5t98 28.5zM160 415q47 0 87 29v48h-107q-20 0 -32 -9t-12 -23q0 -19 16 -32t48 -13z" />
    <glyph glyph-name="guillemotleft" unicode="&#xab;" horiz-adv-x="445" 
d="M133 404h101l-99 -152l99 -151h-101l-99 151zM311 404h101l-99 -152l99 -151h-101l-99 151z" />
    <glyph glyph-name="registered" unicode="&#xae;" horiz-adv-x="563" 
d="M282 693q102 0 174 -69.5t72 -171.5t-72 -170.5t-174 -68.5t-174.5 68.5t-72.5 170.5t72.5 171.5t174.5 69.5zM281 266q76 0 132 54.5t56 131.5q0 78 -56 132.5t-132 54.5t-131.5 -54.5t-55.5 -132.5q0 -77 55.5 -131.5t131.5 -54.5zM378 491q0 -49 -48 -67l55 -73h-55
l-48 67h-37v-67h-44v216h92q37 0 61 -21t24 -55zM245 526v-69h48q18 0 29 9.5t11 25.5q0 15 -11 24.5t-29 9.5h-48z" />
    <glyph glyph-name="macron" unicode="&#xaf;" 
d="M160 663h279v-85h-279v85z" />
    <glyph glyph-name="degree" unicode="&#xb0;" horiz-adv-x="475" 
d="M238 695q74 0 122.5 -47.5t48.5 -119.5t-48.5 -119.5t-122.5 -47.5t-123 47.5t-49 119.5t49 119.5t123 47.5zM238 439q38 0 64.5 26t26.5 63t-26.5 63t-64.5 26t-64.5 -26t-26.5 -63t26.5 -63t64.5 -26z" />
    <glyph glyph-name="plusminus" unicode="&#xb1;" horiz-adv-x="687" 
d="M580 419v-96h-186v-143h-100v143h-186v96h186v143h100v-143h186zM108 134h472v-96h-472v96z" />
    <glyph glyph-name="uni00B2" unicode="&#xb2;" horiz-adv-x="364" 
d="M169 359h160v-66h-287v41l142 148q35 36 48 54.5t13 39.5q0 23 -16.5 38t-43.5 15q-64 0 -67 -61h-78q2 59 39 94.5t103 35.5t103.5 -34t37.5 -83q0 -57 -72 -134z" />
    <glyph glyph-name="uni00B3" unicode="&#xb3;" horiz-adv-x="377" 
d="M282 496q55 -28 55 -88q0 -52 -40.5 -86.5t-106.5 -34.5q-64 0 -104 32t-49 86h79q14 -49 75 -49q32 0 51.5 14.5t19.5 37.5q0 53 -78 53h-32v64h32q28 0 46 15t18 38q0 24 -16 38t-45 14q-27 0 -43 -14t-18 -35h-78q5 54 42 86t96 32q63 0 100 -33.5t37 -86.5t-41 -83z
" />
    <glyph glyph-name="acute" unicode="&#xb4;" 
d="M317 706h115l-97 -147h-95z" />
    <glyph glyph-name="paragraph" unicode="&#xb6;" horiz-adv-x="759" 
d="M279 680h408v-840h-108v747h-107v-747h-108v377h-85q-107 0 -179 66t-72 171q0 100 71.5 163t179.5 63zM364 587h-85q-64 0 -105 -37t-41 -97q0 -62 41 -100.5t105 -38.5h85v273z" />
    <glyph glyph-name="periodcentered" unicode="&#xb7;" horiz-adv-x="201" 
d="M100 214q-27 0 -46 18t-19 45t19 45t46 18t46.5 -18t19.5 -45t-19.5 -45t-46.5 -18z" />
    <glyph glyph-name="cedilla" unicode="&#xb8;" 
d="M360 -59l-57 -153h-90l44 153h103z" />
    <glyph glyph-name="uni00B9" unicode="&#xb9;" horiz-adv-x="327" 
d="M214 362h104v-66h-288v66h109v246l-104 -30v68l137 44h42v-328z" />
    <glyph glyph-name="ordmasculine" unicode="&#xba;" horiz-adv-x="388" 
d="M194 355q-69 0 -119 47.5t-50 120.5q0 71 50 117.5t119 46.5t119 -46.5t50 -117.5q0 -73 -50 -120.5t-119 -47.5zM194 421q40 0 68 29t28 73q0 41 -28 69t-68 28t-68.5 -28t-28.5 -69q0 -44 28.5 -73t68.5 -29z" />
    <glyph glyph-name="guillemotright" unicode="&#xbb;" horiz-adv-x="445" 
d="M135 404l99 -152l-99 -151h-101l99 151l-99 152h101zM312 404l99 -152l-99 -151h-101l99 151l-99 152h101z" />
    <glyph glyph-name="onequarter" unicode="&#xbc;" horiz-adv-x="906" 
d="M650 680h74l-460 -680h-74zM318 285h-288v66h109v246l-104 -30v68l137 44h42v-328h104v-66zM872 147v-69h-56v-78h-77v78h-214v50l118 268h81l-105 -249h120v113h77v-113h56z" />
    <glyph glyph-name="onehalf" unicode="&#xbd;" horiz-adv-x="897" 
d="M655 680h74l-460 -680h-74zM318 285h-288v66h109v246l-104 -30v68l137 44h42v-328h104v-66zM702 66h160v-66h-287v41l142 148q35 36 48 54.5t13 39.5q0 23 -16.5 38t-43.5 15q-64 0 -67 -61h-78q2 59 39 94.5t103 35.5t103.5 -34t37.5 -83q0 -57 -72 -134z" />
    <glyph glyph-name="threequarters" unicode="&#xbe;" horiz-adv-x="884" 
d="M337 401q0 -52 -40.5 -86.5t-106.5 -34.5q-64 0 -104 32t-49 86h79q14 -49 75 -49q32 0 51.5 14.5t19.5 37.5q0 53 -78 53h-32v64h32q28 0 46 15t18 38q0 24 -16 38t-45 14q-27 0 -43 -14t-18 -35h-78q5 54 42 86t96 32q63 0 100 -33.5t37 -86.5t-41 -83q55 -28 55 -88z
M636 680h74l-460 -680h-74zM849 147v-69h-56v-78h-77v78h-214v50l118 268h81l-105 -249h120v113h77v-113h56z" />
    <glyph glyph-name="questiondown" unicode="&#xbf;" horiz-adv-x="542" 
d="M304 548q27 0 46 -18.5t19 -45.5t-19 -45t-46 -18t-46.5 18t-19.5 45t19.5 45.5t46.5 18.5zM261 338h82l8 -152h-60q-58 0 -95.5 -34.5t-37.5 -88.5q0 -53 34.5 -87t89.5 -34q47 0 81 26.5t41 70.5h104q-9 -87 -67.5 -138t-153.5 -51q-99 0 -164.5 59t-65.5 153
q0 83 54 135.5t146 60.5z" />
    <glyph glyph-name="Agrave" unicode="&#xc0;" horiz-adv-x="749" 
d="M434 757h-95l-97 147h115zM611 0l-70 163h-332l-70 -163h-115l301 680h101l300 -680h-115zM249 259h251l-125 293z" />
    <glyph glyph-name="Aacute" unicode="&#xc1;" horiz-adv-x="749" 
d="M516 904l-97 -147h-95l77 147h115zM611 0l-70 163h-332l-70 -163h-115l301 680h101l300 -680h-115zM249 259h251l-125 293z" />
    <glyph glyph-name="Acircumflex" unicode="&#xc2;" horiz-adv-x="749" 
d="M375 842l-73 -85h-98l120 151h100l121 -151h-98zM611 0l-70 163h-332l-70 -163h-115l301 680h101l300 -680h-115zM249 259h251l-125 293z" />
    <glyph glyph-name="Atilde" unicode="&#xc3;" horiz-adv-x="749" 
d="M339 810q-26 15 -40.5 6t-14.5 -32h-84q0 41 16.5 69.5t41.5 39t52.5 9.5t50.5 -15l46 -28q28 -15 41.5 -5.5t13.5 32.5h84q0 -41 -16.5 -70t-40.5 -40t-52 -9.5t-52 15.5zM611 0l-70 163h-332l-70 -163h-115l301 680h101l300 -680h-115zM249 259h251l-125 293z" />
    <glyph glyph-name="Adieresis" unicode="&#xc4;" horiz-adv-x="749" 
d="M273 758q-28 0 -47.5 19t-19.5 46q0 28 19.5 46.5t47.5 18.5t47.5 -18.5t19.5 -46.5q0 -27 -19.5 -46t-47.5 -19zM476 758q-28 0 -47.5 19t-19.5 46q0 28 19.5 46.5t47.5 18.5t47.5 -18.5t19.5 -46.5q0 -27 -19.5 -46t-47.5 -19zM611 0l-70 163h-332l-70 -163h-115
l301 680h101l300 -680h-115zM249 259h251l-125 293z" />
    <glyph glyph-name="Aring" unicode="&#xc5;" horiz-adv-x="749" 
d="M375 766q-49 0 -79 28.5t-30 74.5t30 74t79 28t79 -28t30 -74t-30 -74.5t-79 -28.5zM375 917q-22 0 -35.5 -13.5t-13.5 -34.5q0 -22 13.5 -35.5t35.5 -13.5t35.5 13.5t13.5 35.5q0 21 -13.5 34.5t-35.5 13.5zM611 0l-70 163h-332l-70 -163h-115l301 680h101l300 -680
h-115zM249 259h251l-125 293z" />
    <glyph glyph-name="AE" unicode="&#xc6;" horiz-adv-x="1074" 
d="M1023 581h-380v-195h340v-99h-340v-187h380v-100h-488v163h-262l-117 -163h-132l500 680h499v-99zM345 263h190v264z" />
    <glyph glyph-name="Ccedilla" unicode="&#xc7;" horiz-adv-x="800" 
d="M412 88q84 0 141 45t77 125h111q-24 -123 -113 -197t-216 -74q-148 0 -250.5 101t-102.5 252q0 152 102 252t251 100q127 0 216 -73t113 -196h-111q-20 80 -77 124.5t-141 44.5q-105 0 -174.5 -71t-69.5 -181q0 -109 69.5 -180.5t174.5 -71.5zM312 -212l44 153h103
l-57 -153h-90z" />
    <glyph glyph-name="Egrave" unicode="&#xc8;" horiz-adv-x="621" 
d="M381 757h-95l-97 147h115zM569 581h-380v-195h340v-99h-340v-187h380v-100h-488v680h488v-99z" />
    <glyph glyph-name="Eacute" unicode="&#xc9;" horiz-adv-x="621" 
d="M463 904l-97 -147h-95l77 147h115zM569 581h-380v-195h340v-99h-340v-187h380v-100h-488v680h488v-99z" />
    <glyph glyph-name="Ecircumflex" unicode="&#xca;" horiz-adv-x="621" 
d="M322 842l-73 -85h-98l120 151h100l121 -151h-98zM569 581h-380v-195h340v-99h-340v-187h380v-100h-488v680h488v-99z" />
    <glyph glyph-name="Edieresis" unicode="&#xcb;" horiz-adv-x="621" 
d="M220 758q-28 0 -47.5 19t-19.5 46q0 28 19.5 46.5t47.5 18.5t47.5 -18.5t19.5 -46.5q0 -27 -19.5 -46t-47.5 -19zM423 758q-28 0 -47.5 19t-19.5 46q0 28 19.5 46.5t47.5 18.5t47.5 -18.5t19.5 -46.5q0 -27 -19.5 -46t-47.5 -19zM569 581h-380v-195h340v-99h-340v-187
h380v-100h-488v680h488v-99z" />
    <glyph glyph-name="Igrave" unicode="&#xcc;" horiz-adv-x="270" 
d="M117 904l77 -147h-95l-97 147h115zM81 680h108v-680h-108v680z" />
    <glyph glyph-name="Iacute" unicode="&#xcd;" horiz-adv-x="270" 
d="M161 904h115l-97 -147h-95zM81 680h108v-680h-108v680z" />
    <glyph glyph-name="Icircumflex" unicode="&#xce;" horiz-adv-x="270" 
d="M207 757l-72 85l-73 -85h-98l120 151h100l121 -151h-98zM81 680h108v-680h-108v680z" />
    <glyph glyph-name="Idieresis" unicode="&#xcf;" horiz-adv-x="270" 
d="M33 888q28 0 47.5 -18.5t19.5 -46.5q0 -27 -19.5 -46t-47.5 -19t-47.5 19t-19.5 46q0 28 19.5 46.5t47.5 18.5zM236 888q28 0 47.5 -18.5t19.5 -46.5q0 -27 -19.5 -46t-47.5 -19t-47.5 19t-19.5 46q0 28 19.5 46.5t47.5 18.5zM81 680h108v-680h-108v680z" />
    <glyph glyph-name="Eth" unicode="&#xd0;" horiz-adv-x="744" 
d="M332 680q157 0 259 -95t102 -241q0 -149 -102 -246.5t-259 -97.5h-251v292h-66v92h66v296h251zM332 100q108 0 180 69.5t72 174.5q0 101 -72.5 169t-179.5 68h-143v-197h146v-92h-146v-192h143z" />
    <glyph glyph-name="Ntilde" unicode="&#xd1;" horiz-adv-x="757" 
d="M343 810q-26 15 -40.5 6t-14.5 -32h-84q0 41 16.5 69.5t41.5 39t52.5 9.5t50.5 -15l46 -28q28 -15 41.5 -5.5t13.5 32.5h84q0 -41 -16.5 -70t-40.5 -40t-52 -9.5t-52 15.5zM569 680h107v-680h-86l-401 480v-480h-108v680h83l405 -490v490z" />
    <glyph glyph-name="Ograve" unicode="&#xd2;" horiz-adv-x="825" 
d="M395 904l77 -147h-95l-97 147h115zM413 692q147 0 250.5 -102.5t103.5 -249.5t-103.5 -249.5t-250.5 -102.5t-250.5 102.5t-103.5 249.5t103.5 249.5t250.5 102.5zM413 89q104 0 174.5 73t70.5 178t-70.5 178.5t-174.5 73.5t-174.5 -73.5t-70.5 -178.5t70.5 -178
t174.5 -73z" />
    <glyph glyph-name="Oacute" unicode="&#xd3;" horiz-adv-x="825" 
d="M439 904h115l-97 -147h-95zM413 692q147 0 250.5 -102.5t103.5 -249.5t-103.5 -249.5t-250.5 -102.5t-250.5 102.5t-103.5 249.5t103.5 249.5t250.5 102.5zM413 89q104 0 174.5 73t70.5 178t-70.5 178.5t-174.5 73.5t-174.5 -73.5t-70.5 -178.5t70.5 -178t174.5 -73z" />
    <glyph glyph-name="Ocircumflex" unicode="&#xd4;" horiz-adv-x="825" 
d="M485 757l-72 85l-73 -85h-98l120 151h100l121 -151h-98zM413 692q147 0 250.5 -102.5t103.5 -249.5t-103.5 -249.5t-250.5 -102.5t-250.5 102.5t-103.5 249.5t103.5 249.5t250.5 102.5zM413 89q104 0 174.5 73t70.5 178t-70.5 178.5t-174.5 73.5t-174.5 -73.5
t-70.5 -178.5t70.5 -178t174.5 -73z" />
    <glyph glyph-name="Otilde" unicode="&#xd5;" horiz-adv-x="825" 
d="M584 886q0 -41 -16.5 -70t-40.5 -40t-52 -9.5t-52 15.5l-46 28q-26 15 -40.5 6t-14.5 -32h-84q0 41 16.5 69.5t41.5 39t52.5 9.5t50.5 -15l46 -28q28 -15 41.5 -5.5t13.5 32.5h84zM413 692q147 0 250.5 -102.5t103.5 -249.5t-103.5 -249.5t-250.5 -102.5t-250.5 102.5
t-103.5 249.5t103.5 249.5t250.5 102.5zM413 89q104 0 174.5 73t70.5 178t-70.5 178.5t-174.5 73.5t-174.5 -73.5t-70.5 -178.5t70.5 -178t174.5 -73z" />
    <glyph glyph-name="Odieresis" unicode="&#xd6;" horiz-adv-x="825" 
d="M311 888q28 0 47.5 -18.5t19.5 -46.5q0 -27 -19.5 -46t-47.5 -19t-47.5 19t-19.5 46q0 28 19.5 46.5t47.5 18.5zM514 888q28 0 47.5 -18.5t19.5 -46.5q0 -27 -19.5 -46t-47.5 -19t-47.5 19t-19.5 46q0 28 19.5 46.5t47.5 18.5zM413 692q147 0 250.5 -102.5t103.5 -249.5
t-103.5 -249.5t-250.5 -102.5t-250.5 102.5t-103.5 249.5t103.5 249.5t250.5 102.5zM413 89q104 0 174.5 73t70.5 178t-70.5 178.5t-174.5 73.5t-174.5 -73.5t-70.5 -178.5t70.5 -178t174.5 -73z" />
    <glyph glyph-name="multiply" unicode="&#xd7;" horiz-adv-x="673" 
d="M405 321l149 -149l-69 -68l-148 149l-149 -149l-68 68l149 149l-149 148l68 69l149 -149l148 149l69 -69z" />
    <glyph glyph-name="Oslash" unicode="&#xd8;" horiz-adv-x="825" 
d="M670 583q97 -102 97 -243q0 -147 -103.5 -249.5t-250.5 -102.5q-107 0 -194 57l-56 -66l-65 54l56 66q-95 101 -95 241q0 147 103.5 249.5t250.5 102.5q105 0 191 -55l49 58l65 -55zM168 340q0 -91 54 -159l316 377q-56 34 -125 34q-104 0 -174.5 -73.5t-70.5 -178.5z
M413 89q104 0 174.5 73t70.5 178q0 92 -56 162l-317 -377q58 -36 128 -36z" />
    <glyph glyph-name="Ugrave" unicode="&#xd9;" horiz-adv-x="738" 
d="M352 904l77 -147h-95l-97 147h115zM667 680v-381q0 -143 -81.5 -227t-216.5 -84q-134 0 -216 84.5t-82 226.5v381h108v-381q0 -94 52.5 -152.5t137.5 -58.5t138 58.5t53 152.5v381h107z" />
    <glyph glyph-name="Uacute" unicode="&#xda;" horiz-adv-x="738" 
d="M396 904h115l-97 -147h-95zM667 680v-381q0 -143 -81.5 -227t-216.5 -84q-134 0 -216 84.5t-82 226.5v381h108v-381q0 -94 52.5 -152.5t137.5 -58.5t138 58.5t53 152.5v381h107z" />
    <glyph glyph-name="Ucircumflex" unicode="&#xdb;" horiz-adv-x="738" 
d="M442 757l-72 85l-73 -85h-98l120 151h100l121 -151h-98zM667 680v-381q0 -143 -81.5 -227t-216.5 -84q-134 0 -216 84.5t-82 226.5v381h108v-381q0 -94 52.5 -152.5t137.5 -58.5t138 58.5t53 152.5v381h107z" />
    <glyph glyph-name="Udieresis" unicode="&#xdc;" horiz-adv-x="738" 
d="M268 888q28 0 47.5 -18.5t19.5 -46.5q0 -27 -19.5 -46t-47.5 -19t-47.5 19t-19.5 46q0 28 19.5 46.5t47.5 18.5zM471 888q28 0 47.5 -18.5t19.5 -46.5q0 -27 -19.5 -46t-47.5 -19t-47.5 19t-19.5 46q0 28 19.5 46.5t47.5 18.5zM667 680v-381q0 -143 -81.5 -227
t-216.5 -84q-134 0 -216 84.5t-82 226.5v381h108v-381q0 -94 52.5 -152.5t137.5 -58.5t138 58.5t53 152.5v381h107z" />
    <glyph glyph-name="Yacute" unicode="&#xdd;" horiz-adv-x="683" 
d="M483 904l-97 -147h-95l77 147h115zM552 680h119l-275 -448v-232h-109v232l-275 448h119l210 -344z" />
    <glyph glyph-name="Thorn" unicode="&#xde;" horiz-adv-x="629" 
d="M332 580q121 0 194 -64t73 -169q0 -109 -77 -175.5t-205 -66.5h-128v-105h-108v680h108v-100h143zM329 203q74 0 119.5 40t45.5 104q0 60 -45.5 97t-119.5 37h-140v-278h140z" />
    <glyph glyph-name="germandbls" unicode="&#xdf;" horiz-adv-x="636" 
d="M449 362q141 -34 141 -169q0 -91 -65.5 -144.5t-182.5 -53.5q-30 0 -65 3v88q34 -3 59 -3q75 0 114 30.5t39 81.5q0 50 -35.5 76.5t-93.5 26.5h-59v77q68 10 99.5 45.5t31.5 78.5q0 45 -30 73.5t-87 29.5q-67 0 -104.5 -43.5t-37.5 -127.5v-431h-103v431q0 125 64.5 193
t178.5 68q102 0 161 -52t59 -138q0 -98 -84 -140z" />
    <glyph glyph-name="agrave" unicode="&#xe0;" horiz-adv-x="613" 
d="M374 554h-95l-97 147h115zM438 470h103v-470h-103v37q-63 -49 -151 -49q-99 0 -168.5 72t-69.5 175t69.5 175t168.5 72q88 0 151 -49v37zM302 82q88 0 136 68v170q-48 68 -136 68q-64 0 -106.5 -44.5t-42.5 -108.5t42.5 -108.5t106.5 -44.5z" />
    <glyph glyph-name="aacute" unicode="&#xe1;" horiz-adv-x="613" 
d="M456 700l-97 -147h-95l77 147h115zM438 470h103v-470h-103v37q-63 -49 -151 -49q-99 0 -168.5 72t-69.5 175t69.5 175t168.5 72q88 0 151 -49v37zM302 82q88 0 136 68v170q-48 68 -136 68q-64 0 -106.5 -44.5t-42.5 -108.5t42.5 -108.5t106.5 -44.5z" />
    <glyph glyph-name="acircumflex" unicode="&#xe2;" horiz-adv-x="613" 
d="M315 629l-73 -85h-98l120 151h100l121 -151h-98zM438 470h103v-470h-103v37q-63 -49 -151 -49q-99 0 -168.5 72t-69.5 175t69.5 175t168.5 72q88 0 151 -49v37zM302 82q88 0 136 68v170q-48 68 -136 68q-64 0 -106.5 -44.5t-42.5 -108.5t42.5 -108.5t106.5 -44.5z" />
    <glyph glyph-name="atilde" unicode="&#xe3;" horiz-adv-x="613" 
d="M285 607q-26 15 -40.5 6t-14.5 -32h-84q0 41 16.5 69.5t41.5 39t52.5 9.5t50.5 -15l46 -28q28 -15 41.5 -5.5t13.5 32.5h84q0 -41 -16.5 -70t-40.5 -40t-52 -9.5t-52 15.5zM438 470h103v-470h-103v37q-63 -49 -151 -49q-99 0 -168.5 72t-69.5 175t69.5 175t168.5 72
q88 0 151 -49v37zM302 82q88 0 136 68v170q-48 68 -136 68q-64 0 -106.5 -44.5t-42.5 -108.5t42.5 -108.5t106.5 -44.5z" />
    <glyph glyph-name="adieresis" unicode="&#xe4;" horiz-adv-x="613" 
d="M214 560q-28 0 -47.5 19t-19.5 46q0 28 19.5 46.5t47.5 18.5t47.5 -18.5t19.5 -46.5q0 -27 -19.5 -46t-47.5 -19zM417 560q-28 0 -47.5 19t-19.5 46q0 28 19.5 46.5t47.5 18.5t47.5 -18.5t19.5 -46.5q0 -27 -19.5 -46t-47.5 -19zM438 470h103v-470h-103v37
q-63 -49 -151 -49q-99 0 -168.5 72t-69.5 175t69.5 175t168.5 72q88 0 151 -49v37zM302 82q88 0 136 68v170q-48 68 -136 68q-64 0 -106.5 -44.5t-42.5 -108.5t42.5 -108.5t106.5 -44.5z" />
    <glyph glyph-name="aring" unicode="&#xe5;" horiz-adv-x="613" 
d="M315 543q-49 0 -79 28.5t-30 74.5t30 74t79 28t79 -28t30 -74t-30 -74.5t-79 -28.5zM315 694q-22 0 -35.5 -13.5t-13.5 -34.5q0 -22 13.5 -35.5t35.5 -13.5t35.5 13.5t13.5 35.5q0 21 -13.5 34.5t-35.5 13.5zM438 470h103v-470h-103v37q-63 -49 -151 -49q-99 0 -168.5 72
t-69.5 175t69.5 175t168.5 72q88 0 151 -49v37zM302 82q88 0 136 68v170q-48 68 -136 68q-64 0 -106.5 -44.5t-42.5 -108.5t42.5 -108.5t106.5 -44.5z" />
    <glyph glyph-name="ae" unicode="&#xe6;" horiz-adv-x="905" 
d="M621 482q117 0 182.5 -79t50.5 -199h-369q8 -56 44 -90.5t99 -34.5q72 0 100 44h114q-22 -63 -80 -99t-135 -36q-118 0 -189 81q-86 -79 -202 -79q-89 0 -142.5 40.5t-53.5 110.5q0 64 48.5 97.5t136.5 33.5h155q0 124 -110 124q-42 0 -70.5 -19.5t-33.5 -53.5h-104
q6 78 66 118.5t142 40.5q115 0 173 -75q68 75 178 75zM622 394q-56 0 -90.5 -33t-44.5 -85h264q-4 57 -38.5 87.5t-90.5 30.5zM241 76q83 0 157 59q-11 27 -16 60h-163q-39 0 -59.5 -14.5t-20.5 -37.5q0 -29 26 -48t76 -19z" />
    <glyph glyph-name="ccedilla" unicode="&#xe7;" horiz-adv-x="575" 
d="M297 82q47 0 80 24.5t43 64.5h106q-13 -81 -76.5 -132t-152.5 -51q-106 0 -177 71t-71 176t71.5 176t176.5 71q89 0 152.5 -51t76.5 -132h-106q-10 40 -43 64.5t-80 24.5q-64 0 -104 -44t-40 -109t40 -109t104 -44zM199 -212l44 153h103l-57 -153h-90z" />
    <glyph glyph-name="egrave" unicode="&#xe8;" horiz-adv-x="575" 
d="M353 554h-95l-97 147h115zM291 482q117 0 182.5 -79t50.5 -199h-369q8 -56 44 -90.5t99 -34.5q72 0 100 44h114q-22 -63 -80 -99t-135 -36q-110 0 -179 70.5t-69 176.5q0 105 68 176t174 71zM292 394q-56 0 -90.5 -33t-44.5 -85h264q-4 57 -38.5 87.5t-90.5 30.5z" />
    <glyph glyph-name="eacute" unicode="&#xe9;" horiz-adv-x="575" 
d="M435 700l-97 -147h-95l77 147h115zM291 482q117 0 182.5 -79t50.5 -199h-369q8 -56 44 -90.5t99 -34.5q72 0 100 44h114q-22 -63 -80 -99t-135 -36q-110 0 -179 70.5t-69 176.5q0 105 68 176t174 71zM292 394q-56 0 -90.5 -33t-44.5 -85h264q-4 57 -38.5 87.5t-90.5 30.5
z" />
    <glyph glyph-name="ecircumflex" unicode="&#xea;" horiz-adv-x="575" 
d="M294 629l-73 -85h-98l120 151h100l121 -151h-98zM291 482q117 0 182.5 -79t50.5 -199h-369q8 -56 44 -90.5t99 -34.5q72 0 100 44h114q-22 -63 -80 -99t-135 -36q-110 0 -179 70.5t-69 176.5q0 105 68 176t174 71zM292 394q-56 0 -90.5 -33t-44.5 -85h264
q-4 57 -38.5 87.5t-90.5 30.5z" />
    <glyph glyph-name="edieresis" unicode="&#xeb;" horiz-adv-x="575" 
d="M193 560q-28 0 -47.5 19t-19.5 46q0 28 19.5 46.5t47.5 18.5t47.5 -18.5t19.5 -46.5q0 -27 -19.5 -46t-47.5 -19zM396 560q-28 0 -47.5 19t-19.5 46q0 28 19.5 46.5t47.5 18.5t47.5 -18.5t19.5 -46.5q0 -27 -19.5 -46t-47.5 -19zM291 482q117 0 182.5 -79t50.5 -199h-369
q8 -56 44 -90.5t99 -34.5q72 0 100 44h114q-22 -63 -80 -99t-135 -36q-110 0 -179 70.5t-69 176.5q0 105 68 176t174 71zM292 394q-56 0 -90.5 -33t-44.5 -85h264q-4 57 -38.5 87.5t-90.5 30.5z" />
    <glyph glyph-name="igrave" unicode="&#xec;" horiz-adv-x="266" 
d="M115 701l77 -147h-95l-97 147h115zM82 470h103v-470h-103v470z" />
    <glyph glyph-name="iacute" unicode="&#xed;" horiz-adv-x="266" 
d="M159 700h115l-97 -147h-95zM82 470h103v-470h-103v470z" />
    <glyph glyph-name="icircumflex" unicode="&#xee;" horiz-adv-x="266" 
d="M205 544l-72 85l-73 -85h-98l120 151h100l121 -151h-98zM82 470h103v-470h-103v470z" />
    <glyph glyph-name="idieresis" unicode="&#xef;" horiz-adv-x="266" 
d="M32 690q28 0 47.5 -18.5t19.5 -46.5q0 -27 -19.5 -46t-47.5 -19t-47.5 19t-19.5 46q0 28 19.5 46.5t47.5 18.5zM235 690q28 0 47.5 -18.5t19.5 -46.5q0 -27 -19.5 -46t-47.5 -19t-47.5 19t-19.5 46q0 28 19.5 46.5t47.5 18.5zM82 470h103v-470h-103v470z" />
    <glyph glyph-name="eth" unicode="&#xf0;" horiz-adv-x="598" 
d="M395 599q154 -149 154 -364q0 -107 -71.5 -178t-178.5 -71t-178.5 71t-71.5 178q0 106 71.5 176t178.5 70q47 0 91 -22q-38 61 -92 104l-152 -55l-27 69l104 38q-47 28 -108 53l106 44q62 -25 108 -59l95 35l26 -69zM299 80q64 0 105 44.5t41 110.5q0 65 -41 108.5
t-105 43.5t-105 -43.5t-41 -108.5q0 -66 41 -110.5t105 -44.5z" />
    <glyph glyph-name="ntilde" unicode="&#xf1;" horiz-adv-x="592" 
d="M270 607q-26 15 -40.5 6t-14.5 -32h-84q0 41 16.5 69.5t41.5 39t52.5 9.5t50.5 -15l46 -28q28 -15 41.5 -5.5t13.5 32.5h84q0 -41 -16.5 -70t-40.5 -40t-52 -9.5t-52 15.5zM328 482q92 0 148.5 -59.5t56.5 -160.5v-262h-104v256q0 64 -32 98t-90 34q-74 0 -131 -71v-317
h-104v470h104v-42q63 54 152 54z" />
    <glyph glyph-name="ograve" unicode="&#xf2;" horiz-adv-x="598" 
d="M281 701l77 -147h-95l-97 147h115zM299 482q109 0 179.5 -69.5t70.5 -177.5t-70.5 -177.5t-179.5 -69.5t-179.5 69.5t-70.5 177.5t70.5 177.5t179.5 69.5zM299 82q64 0 105 43.5t41 109.5q0 67 -41 110t-105 43t-105 -43t-41 -110q0 -66 41 -109.5t105 -43.5z" />
    <glyph glyph-name="oacute" unicode="&#xf3;" horiz-adv-x="598" 
d="M325 700h115l-97 -147h-95zM299 482q109 0 179.5 -69.5t70.5 -177.5t-70.5 -177.5t-179.5 -69.5t-179.5 69.5t-70.5 177.5t70.5 177.5t179.5 69.5zM299 82q64 0 105 43.5t41 109.5q0 67 -41 110t-105 43t-105 -43t-41 -110q0 -66 41 -109.5t105 -43.5z" />
    <glyph glyph-name="ocircumflex" unicode="&#xf4;" horiz-adv-x="598" 
d="M371 544l-72 85l-73 -85h-98l120 151h100l121 -151h-98zM299 482q109 0 179.5 -69.5t70.5 -177.5t-70.5 -177.5t-179.5 -69.5t-179.5 69.5t-70.5 177.5t70.5 177.5t179.5 69.5zM299 82q64 0 105 43.5t41 109.5q0 67 -41 110t-105 43t-105 -43t-41 -110q0 -66 41 -109.5
t105 -43.5z" />
    <glyph glyph-name="otilde" unicode="&#xf5;" horiz-adv-x="598" 
d="M476 683q0 -41 -16.5 -70t-40.5 -40t-52 -9.5t-52 15.5l-46 28q-26 15 -40.5 6t-14.5 -32h-84q0 41 16.5 69.5t41.5 39t52.5 9.5t50.5 -15l46 -28q28 -15 41.5 -5.5t13.5 32.5h84zM299 482q109 0 179.5 -69.5t70.5 -177.5t-70.5 -177.5t-179.5 -69.5t-179.5 69.5
t-70.5 177.5t70.5 177.5t179.5 69.5zM299 82q64 0 105 43.5t41 109.5q0 67 -41 110t-105 43t-105 -43t-41 -110q0 -66 41 -109.5t105 -43.5z" />
    <glyph glyph-name="odieresis" unicode="&#xf6;" horiz-adv-x="598" 
d="M198 690q28 0 47.5 -18.5t19.5 -46.5q0 -27 -19.5 -46t-47.5 -19t-47.5 19t-19.5 46q0 28 19.5 46.5t47.5 18.5zM401 690q28 0 47.5 -18.5t19.5 -46.5q0 -27 -19.5 -46t-47.5 -19t-47.5 19t-19.5 46q0 28 19.5 46.5t47.5 18.5zM299 482q109 0 179.5 -69.5t70.5 -177.5
t-70.5 -177.5t-179.5 -69.5t-179.5 69.5t-70.5 177.5t70.5 177.5t179.5 69.5zM299 82q64 0 105 43.5t41 109.5q0 67 -41 110t-105 43t-105 -43t-41 -110q0 -66 41 -109.5t105 -43.5z" />
    <glyph glyph-name="divide" unicode="&#xf7;" horiz-adv-x="687" 
d="M344 458q-26 0 -44.5 18t-18.5 43t18.5 43t44.5 18t44.5 -18t18.5 -43t-18.5 -43t-44.5 -18zM108 280v96h472v-96h-472zM344 81q-26 0 -44.5 18t-18.5 43t18.5 43t44.5 18t44.5 -18t18.5 -43t-18.5 -43t-44.5 -18z" />
    <glyph glyph-name="oslash" unicode="&#xf8;" horiz-adv-x="598" 
d="M485 406q64 -69 64 -171q0 -108 -70.5 -177.5t-179.5 -69.5q-75 0 -135 35l-29 -35l-55 45l29 35q-60 68 -60 167q0 108 70.5 177.5t179.5 69.5q73 0 129 -32l36 43l55 -46zM153 235q0 -49 23 -86l188 225q-30 14 -65 14q-64 0 -105 -43t-41 -110zM299 82q64 0 105 43.5
t41 109.5q0 52 -27 92l-190 -228q32 -17 71 -17z" />
    <glyph glyph-name="ugrave" unicode="&#xf9;" horiz-adv-x="592" 
d="M353 554h-95l-97 147h115zM417 470h103v-470h-103v46q-64 -58 -153 -58q-92 0 -148 60.5t-56 161.5v260h103v-254q0 -64 32.5 -99t89.5 -35q73 0 132 74v314z" />
    <glyph glyph-name="uacute" unicode="&#xfa;" horiz-adv-x="592" 
d="M435 700l-97 -147h-95l77 147h115zM417 470h103v-470h-103v46q-64 -58 -153 -58q-92 0 -148 60.5t-56 161.5v260h103v-254q0 -64 32.5 -99t89.5 -35q73 0 132 74v314z" />
    <glyph glyph-name="ucircumflex" unicode="&#xfb;" horiz-adv-x="592" 
d="M294 629l-73 -85h-98l120 151h100l121 -151h-98zM417 470h103v-470h-103v46q-64 -58 -153 -58q-92 0 -148 60.5t-56 161.5v260h103v-254q0 -64 32.5 -99t89.5 -35q73 0 132 74v314z" />
    <glyph glyph-name="udieresis" unicode="&#xfc;" horiz-adv-x="592" 
d="M193 560q-28 0 -47.5 19t-19.5 46q0 28 19.5 46.5t47.5 18.5t47.5 -18.5t19.5 -46.5q0 -27 -19.5 -46t-47.5 -19zM396 560q-28 0 -47.5 19t-19.5 46q0 28 19.5 46.5t47.5 18.5t47.5 -18.5t19.5 -46.5q0 -27 -19.5 -46t-47.5 -19zM417 470h103v-470h-103v46
q-64 -58 -153 -58q-92 0 -148 60.5t-56 161.5v260h103v-254q0 -64 32.5 -99t89.5 -35q73 0 132 74v314z" />
    <glyph glyph-name="yacute" unicode="&#xfd;" horiz-adv-x="608" 
d="M448 700l-97 -147h-95l77 147h115zM474 471h110l-310 -703h-109l99 225l-240 478h111l177 -368z" />
    <glyph glyph-name="thorn" unicode="&#xfe;" horiz-adv-x="613" 
d="M326 481q99 0 169 -71.5t70 -174.5t-70 -174.5t-169 -71.5q-88 0 -150 48v-269h-104v942h104v-277q62 48 150 48zM311 79q64 0 107 46t43 110t-43 110t-107 46q-86 0 -135 -70v-172q49 -70 135 -70z" />
    <glyph glyph-name="ydieresis" unicode="&#xff;" horiz-adv-x="608" 
d="M206 560q-28 0 -47.5 19t-19.5 46q0 28 19.5 46.5t47.5 18.5t47.5 -18.5t19.5 -46.5q0 -27 -19.5 -46t-47.5 -19zM409 560q-28 0 -47.5 19t-19.5 46q0 28 19.5 46.5t47.5 18.5t47.5 -18.5t19.5 -46.5q0 -27 -19.5 -46t-47.5 -19zM474 471h110l-310 -703h-109l99 225
l-240 478h111l177 -368z" />
    <glyph glyph-name="Amacron" unicode="&#x100;" horiz-adv-x="749" 
d="M514 847v-85h-279v85h279zM611 0l-70 163h-332l-70 -163h-115l301 680h101l300 -680h-115zM249 259h251l-125 293z" />
    <glyph glyph-name="amacron" unicode="&#x101;" horiz-adv-x="613" 
d="M454 658v-85h-279v85h279zM438 470h103v-470h-103v37q-63 -49 -151 -49q-99 0 -168.5 72t-69.5 175t69.5 175t168.5 72q88 0 151 -49v37zM302 82q88 0 136 68v170q-48 68 -136 68q-64 0 -106.5 -44.5t-42.5 -108.5t42.5 -108.5t106.5 -44.5z" />
    <glyph glyph-name="Abreve" unicode="&#x102;" horiz-adv-x="749" 
d="M375 760q-67 0 -109.5 39t-42.5 111h77q0 -41 21.5 -60.5t53.5 -19.5t54 19.5t22 60.5h76q0 -72 -42.5 -111t-109.5 -39zM611 0l-70 163h-332l-70 -163h-115l301 680h101l300 -680h-115zM249 259h251l-125 293z" />
    <glyph glyph-name="abreve" unicode="&#x103;" horiz-adv-x="613" 
d="M315 540q-67 0 -109.5 39t-42.5 111h77q0 -41 21.5 -60.5t53.5 -19.5t54 19.5t22 60.5h76q0 -72 -42.5 -111t-109.5 -39zM438 470h103v-470h-103v37q-63 -49 -151 -49q-99 0 -168.5 72t-69.5 175t69.5 175t168.5 72q88 0 151 -49v37zM302 82q88 0 136 68v170
q-48 68 -136 68q-64 0 -106.5 -44.5t-42.5 -108.5t42.5 -108.5t106.5 -44.5z" />
    <glyph glyph-name="Aogonek" unicode="&#x104;" horiz-adv-x="749" 
d="M730 -88l10 -77q-24 -10 -63 -10q-62 0 -100.5 30.5t-38.5 80.5q0 55 62 90l-59 137h-332l-70 -163h-115l301 680h101l300 -680h-45q-56 -15 -56 -53q0 -40 65 -40q15 0 40 5zM249 259h251l-125 293z" />
    <glyph glyph-name="aogonek" unicode="&#x105;" horiz-adv-x="613" 
d="M572 -92l10 -77q-24 -10 -63 -10q-62 0 -100.5 30.5t-38.5 80.5q0 54 58 87v18q-63 -49 -151 -49q-99 0 -168.5 72t-69.5 175t69.5 175t168.5 72q88 0 151 -49v37h103v-470h-1q-73 -15 -73 -57q0 -40 65 -40q15 0 40 5zM302 82q88 0 136 68v170q-48 68 -136 68
q-64 0 -106.5 -44.5t-42.5 -108.5t42.5 -108.5t106.5 -44.5z" />
    <glyph glyph-name="Cacute" unicode="&#x106;" horiz-adv-x="800" 
d="M554 904l-97 -147h-95l77 147h115zM412 88q84 0 141 45t77 125h111q-24 -123 -113 -197t-216 -74q-148 0 -250.5 101t-102.5 252q0 152 102 252t251 100q127 0 216 -73t113 -196h-111q-20 80 -77 124.5t-141 44.5q-105 0 -174.5 -71t-69.5 -181q0 -109 69.5 -180.5
t174.5 -71.5z" />
    <glyph glyph-name="cacute" unicode="&#x107;" horiz-adv-x="575" 
d="M432 700l-97 -147h-95l77 147h115zM297 82q47 0 80 24.5t43 64.5h106q-13 -81 -76.5 -132t-152.5 -51q-106 0 -177 71t-71 176t71.5 176t176.5 71q89 0 152.5 -51t76.5 -132h-106q-10 40 -43 64.5t-80 24.5q-64 0 -104 -44t-40 -109t40 -109t104 -44z" />
    <glyph glyph-name="Cdotaccent" unicode="&#x10a;" horiz-adv-x="800" 
d="M413 758q-28 0 -47.5 19t-19.5 46q0 28 19.5 46.5t47.5 18.5t47.5 -18.5t19.5 -46.5q0 -27 -19.5 -46t-47.5 -19zM412 88q84 0 141 45t77 125h111q-24 -123 -113 -197t-216 -74q-148 0 -250.5 101t-102.5 252q0 152 102 252t251 100q127 0 216 -73t113 -196h-111
q-20 80 -77 124.5t-141 44.5q-105 0 -174.5 -71t-69.5 -181q0 -109 69.5 -180.5t174.5 -71.5z" />
    <glyph glyph-name="cdotaccent" unicode="&#x10b;" horiz-adv-x="575" 
d="M291 560q-28 0 -47.5 19t-19.5 46q0 28 19.5 46.5t47.5 18.5t47.5 -18.5t19.5 -46.5q0 -27 -19.5 -46t-47.5 -19zM297 82q47 0 80 24.5t43 64.5h106q-13 -81 -76.5 -132t-152.5 -51q-106 0 -177 71t-71 176t71.5 176t176.5 71q89 0 152.5 -51t76.5 -132h-106
q-10 40 -43 64.5t-80 24.5q-64 0 -104 -44t-40 -109t40 -109t104 -44z" />
    <glyph glyph-name="Ccaron" unicode="&#x10c;" horiz-adv-x="800" 
d="M462 750h-100l-120 151h98l73 -85l72 85h98zM412 88q84 0 141 45t77 125h111q-24 -123 -113 -197t-216 -74q-148 0 -250.5 101t-102.5 252q0 152 102 252t251 100q127 0 216 -73t113 -196h-111q-20 80 -77 124.5t-141 44.5q-105 0 -174.5 -71t-69.5 -181
q0 -109 69.5 -180.5t174.5 -71.5z" />
    <glyph glyph-name="ccaron" unicode="&#x10d;" horiz-adv-x="575" 
d="M340 544h-100l-120 151h98l73 -85l72 85h98zM297 82q47 0 80 24.5t43 64.5h106q-13 -81 -76.5 -132t-152.5 -51q-106 0 -177 71t-71 176t71.5 176t176.5 71q89 0 152.5 -51t76.5 -132h-106q-10 40 -43 64.5t-80 24.5q-64 0 -104 -44t-40 -109t40 -109t104 -44z" />
    <glyph glyph-name="Dcaron" unicode="&#x10e;" horiz-adv-x="751" 
d="M391 750h-100l-120 151h98l73 -85l72 85h98zM332 680q157 0 259 -95t102 -241q0 -149 -102 -246.5t-259 -97.5h-251v680h251zM332 100q108 0 180 69.5t72 174.5q0 101 -72.5 169t-179.5 68h-143v-481h143z" />
    <glyph glyph-name="dcaron" unicode="&#x10f;" horiz-adv-x="613" 
d="M438 433v277h103v-710h-103v38q-62 -50 -151 -50q-99 0 -168.5 72.5t-69.5 175.5q0 102 69.5 174t168.5 72q88 0 151 -49zM620 710h105l-33 -195h-79zM302 82q89 0 136 69v169q-48 68 -136 68q-64 0 -106.5 -44.5t-42.5 -107.5q0 -64 42.5 -109t106.5 -45z" />
    <glyph glyph-name="Dcroat" unicode="&#x110;" horiz-adv-x="744" 
d="M332 680q157 0 259 -95t102 -241q0 -149 -102 -246.5t-259 -97.5h-251v292h-66v92h66v296h251zM332 100q108 0 180 69.5t72 174.5q0 101 -72.5 169t-179.5 68h-143v-197h146v-92h-146v-192h143z" />
    <glyph glyph-name="dcroat" unicode="&#x111;" horiz-adv-x="613" 
d="M576 643v-86h-35v-557h-103v38q-62 -50 -151 -50q-99 0 -168.5 72.5t-69.5 175.5q0 102 69.5 174t168.5 72q88 0 151 -49v124h-174v86h174v67h103v-67h35zM302 82q89 0 136 69v169q-48 68 -136 68q-64 0 -106.5 -44.5t-42.5 -107.5q0 -64 42.5 -109t106.5 -45z" />
    <glyph glyph-name="Emacron" unicode="&#x112;" horiz-adv-x="621" 
d="M461 847v-85h-279v85h279zM569 581h-380v-195h340v-99h-340v-187h380v-100h-488v680h488v-99z" />
    <glyph glyph-name="emacron" unicode="&#x113;" horiz-adv-x="575" 
d="M433 658v-85h-279v85h279zM291 482q117 0 182.5 -79t50.5 -199h-369q8 -56 44 -90.5t99 -34.5q72 0 100 44h114q-22 -63 -80 -99t-135 -36q-110 0 -179 70.5t-69 176.5q0 105 68 176t174 71zM292 394q-56 0 -90.5 -33t-44.5 -85h264q-4 57 -38.5 87.5t-90.5 30.5z" />
    <glyph glyph-name="Edotaccent" unicode="&#x116;" horiz-adv-x="621" 
d="M322 758q-28 0 -47.5 19t-19.5 46q0 28 19.5 46.5t47.5 18.5t47.5 -18.5t19.5 -46.5q0 -27 -19.5 -46t-47.5 -19zM569 581h-380v-195h340v-99h-340v-187h380v-100h-488v680h488v-99z" />
    <glyph glyph-name="edotaccent" unicode="&#x117;" horiz-adv-x="575" 
d="M294 560q-28 0 -47.5 19t-19.5 46q0 28 19.5 46.5t47.5 18.5t47.5 -18.5t19.5 -46.5q0 -27 -19.5 -46t-47.5 -19zM291 482q117 0 182.5 -79t50.5 -199h-369q8 -56 44 -90.5t99 -34.5q72 0 100 44h114q-22 -63 -80 -99t-135 -36q-110 0 -179 70.5t-69 176.5q0 105 68 176
t174 71zM292 394q-56 0 -90.5 -33t-44.5 -85h264q-4 57 -38.5 87.5t-90.5 30.5z" />
    <glyph glyph-name="Eogonek" unicode="&#x118;" horiz-adv-x="621" 
d="M601 -92l10 -77q-24 -10 -63 -10q-62 0 -100.5 30.5t-38.5 80.5q0 39 32 68h-360v680h488v-99h-380v-195h340v-99h-340v-187h380v-100q-73 -15 -73 -57q0 -40 65 -40q15 0 40 5z" />
    <glyph glyph-name="eogonek" unicode="&#x119;" horiz-adv-x="575" 
d="M291 482q117 0 182.5 -79t50.5 -199h-369q8 -56 44 -90.5t99 -34.5q72 0 100 44h114q-21 -57 -70 -92q-44 -39 -44 -79q0 -47 65 -47q16 0 39 5l11 -77q-24 -10 -63 -10q-62 0 -100.5 30.5t-38.5 80.5q0 30 15 55q-10 -1 -29 -1q-110 0 -179 70.5t-69 176.5q0 105 68 176
t174 71zM292 394q-56 0 -90.5 -33t-44.5 -85h264q-4 57 -38.5 87.5t-90.5 30.5z" />
    <glyph glyph-name="Ecaron" unicode="&#x11a;" horiz-adv-x="621" 
d="M371 750h-100l-120 151h98l73 -85l72 85h98zM569 581h-380v-195h340v-99h-340v-187h380v-100h-488v680h488v-99z" />
    <glyph glyph-name="ecaron" unicode="&#x11b;" horiz-adv-x="575" 
d="M343 544h-100l-120 151h98l73 -85l72 85h98zM291 482q117 0 182.5 -79t50.5 -199h-369q8 -56 44 -90.5t99 -34.5q72 0 100 44h114q-22 -63 -80 -99t-135 -36q-110 0 -179 70.5t-69 176.5q0 105 68 176t174 71zM292 394q-56 0 -90.5 -33t-44.5 -85h264q-4 57 -38.5 87.5
t-90.5 30.5z" />
    <glyph glyph-name="Gbreve" unicode="&#x11e;" horiz-adv-x="823" 
d="M414 760q-67 0 -109.5 39t-42.5 111h77q0 -41 21.5 -60.5t53.5 -19.5t54 19.5t22 60.5h76q0 -72 -42.5 -111t-109.5 -39zM403 369h346v-369h-85l-8 117q-78 -129 -245 -129q-151 0 -251.5 101t-100.5 244q0 156 103 257.5t254 101.5q116 0 207 -63t120 -180h-115
q-24 73 -83 108t-127 35q-108 0 -179 -72.5t-71 -186.5q0 -101 68.5 -172.5t174.5 -71.5q87 0 144.5 49.5t76.5 130.5h-229v100z" />
    <glyph glyph-name="gbreve" unicode="&#x11f;" horiz-adv-x="613" 
d="M314 540q-67 0 -109.5 39t-42.5 111h77q0 -41 21.5 -60.5t53.5 -19.5t54 19.5t22 60.5h76q0 -72 -42.5 -111t-109.5 -39zM438 470h103v-483q0 -106 -65.5 -167.5t-172.5 -61.5q-99 0 -165.5 53t-76.5 137h106q7 -44 43 -70t93 -26q61 0 98 36t37 99v74q-63 -49 -153 -49
q-98 0 -167 68.5t-69 163.5q0 104 68 171t168 67q90 0 153 -49v37zM300 102q90 0 138 72v146q-49 73 -138 73q-65 0 -106 -42t-41 -107q0 -56 42 -99t105 -43z" />
    <glyph glyph-name="Gdotaccent" unicode="&#x120;" horiz-adv-x="823" 
d="M414 758q-28 0 -47.5 19t-19.5 46q0 28 19.5 46.5t47.5 18.5t47.5 -18.5t19.5 -46.5q0 -27 -19.5 -46t-47.5 -19zM403 369h346v-369h-85l-8 117q-78 -129 -245 -129q-151 0 -251.5 101t-100.5 244q0 156 103 257.5t254 101.5q116 0 207 -63t120 -180h-115q-24 73 -83 108
t-127 35q-108 0 -179 -72.5t-71 -186.5q0 -101 68.5 -172.5t174.5 -71.5q87 0 144.5 49.5t76.5 130.5h-229v100z" />
    <glyph glyph-name="gdotaccent" unicode="&#x121;" horiz-adv-x="613" 
d="M314 560q-28 0 -47.5 19t-19.5 46q0 28 19.5 46.5t47.5 18.5t47.5 -18.5t19.5 -46.5q0 -27 -19.5 -46t-47.5 -19zM438 470h103v-483q0 -106 -65.5 -167.5t-172.5 -61.5q-99 0 -165.5 53t-76.5 137h106q7 -44 43 -70t93 -26q61 0 98 36t37 99v74q-63 -49 -153 -49
q-98 0 -167 68.5t-69 163.5q0 104 68 171t168 67q90 0 153 -49v37zM300 102q90 0 138 72v146q-49 73 -138 73q-65 0 -106 -42t-41 -107q0 -56 42 -99t105 -43z" />
    <glyph glyph-name="Gcommaaccent" unicode="&#x122;" horiz-adv-x="823" 
d="M403 369h346v-369h-85l-8 117q-78 -129 -245 -129q-151 0 -251.5 101t-100.5 244q0 156 103 257.5t254 101.5q116 0 207 -63t120 -180h-115q-24 73 -83 108t-127 35q-108 0 -179 -72.5t-71 -186.5q0 -101 68.5 -172.5t174.5 -71.5q87 0 144.5 49.5t76.5 130.5h-229v100z
M409 -54q26 0 44 -17t18 -42q0 -17 -8 -34t-54 -98h-59l37 81q-39 14 -39 52q0 24 18 41t43 17z" />
    <glyph glyph-name="gcommaaccent" unicode="&#x123;" horiz-adv-x="617" 
d="M309 559q-26 0 -44 17t-18 42q0 17 8 34t54 98h59l-37 -81q39 -13 39 -52q0 -24 -18 -41t-43 -17zM438 470h103v-483q0 -106 -65.5 -167.5t-172.5 -61.5q-99 0 -165.5 53t-76.5 137h106q7 -44 43 -70t93 -26q61 0 98 36t37 99v74q-63 -49 -153 -49q-98 0 -167 68.5
t-69 163.5q0 104 68 171t168 67q90 0 153 -49v37zM300 102q90 0 138 72v146q-49 73 -138 73q-65 0 -106 -42t-41 -107q0 -56 42 -99t105 -43z" />
    <glyph glyph-name="Hbar" unicode="&#x126;" horiz-adv-x="734" 
d="M698 570v-81h-45v-489h-107v284h-357v-284h-108v489h-52v81h52v110h108v-110h357v110h107v-110h45zM546 384v105h-357v-105h357z" />
    <glyph glyph-name="hbar" unicode="&#x127;" horiz-adv-x="590" 
d="M328 482q92 0 148.5 -59.5t56.5 -160.5v-262h-104v256q0 64 -32 98t-90 34q-74 0 -131 -71v-317h-104v581h-43v74h43v55h104v-55h151v-74h-151v-153q63 54 152 54z" />
    <glyph glyph-name="Imacron" unicode="&#x12a;" horiz-adv-x="270" 
d="M-5 847h279v-85h-279v85zM81 680h108v-680h-108v680z" />
    <glyph glyph-name="imacron" unicode="&#x12b;" horiz-adv-x="266" 
d="M-7 658h279v-85h-279v85zM82 470h103v-470h-103v470z" />
    <glyph glyph-name="Iogonek" unicode="&#x12e;" horiz-adv-x="270" 
d="M220 -92l10 -77q-24 -10 -63 -10q-62 0 -100.5 30.5t-38.5 80.5t53 84v664h108v-680h-1q-73 -15 -73 -57q0 -40 65 -40q15 0 40 5z" />
    <glyph glyph-name="iogonek" unicode="&#x12f;" horiz-adv-x="266" 
d="M138 579q-28 0 -47 18t-19 46t19 46t47 18q27 0 46.5 -18.5t19.5 -45.5t-19.5 -45.5t-46.5 -18.5zM214 -92l10 -77q-24 -10 -63 -10q-62 0 -100.5 30.5t-38.5 80.5q0 58 65 91v447h103v-470h-8q-73 -15 -73 -57q0 -40 65 -40q15 0 40 5z" />
    <glyph glyph-name="Idotaccent" unicode="&#x130;" horiz-adv-x="270" 
d="M135 761q-29 0 -49 19.5t-20 47.5q0 29 20 48.5t49 19.5t49.5 -19.5t20.5 -48.5q0 -28 -20.5 -47.5t-49.5 -19.5zM81 680h108v-680h-108v680z" />
    <glyph glyph-name="dotlessi" unicode="&#x131;" horiz-adv-x="266" 
d="M82 470h103v-470h-103v470z" />
    <glyph glyph-name="IJ" unicode="&#x132;" horiz-adv-x="865" 
d="M81 680h108v-680h-108v680zM794 680v-429q0 -126 -69.5 -194.5t-189.5 -68.5q-105 0 -173.5 59.5t-76.5 163.5h109q6 -59 46 -91t102 -32q64 0 103.5 44t39.5 122v426h109z" />
    <glyph glyph-name="ij" unicode="&#x133;" horiz-adv-x="540" 
d="M138 579q-28 0 -47 18t-19 46t19 46t47 18q27 0 46.5 -18.5t19.5 -45.5t-19.5 -45.5t-46.5 -18.5zM402 579q-27 0 -46 18.5t-19 45.5t19 45.5t46 18.5q28 0 47 -18t19 -46t-19 -46t-47 -18zM87 470h103v-470h-103v470zM455 470v-503q0 -108 -43 -158t-154 -51l-8 90
q58 4 79.5 26.5t21.5 80.5v515h104z" />
    <glyph glyph-name="Kcommaaccent" unicode="&#x136;" horiz-adv-x="709" 
d="M383 376l309 -376h-138l-243 297l-122 -132v-165h-108v680h108v-368l342 368h130zM351 -54q26 0 44 -17t18 -42q0 -17 -8 -34t-54 -98h-59l37 81q-39 14 -39 52q0 24 18 41t43 17z" />
    <glyph glyph-name="kcommaaccent" unicode="&#x137;" horiz-adv-x="570" 
d="M336 274l223 -274h-135l-159 201l-89 -90v-111h-104v710h104v-462l221 222h132zM286 -54q26 0 44 -17t18 -42q0 -17 -8 -34t-54 -98h-59l37 81q-39 14 -39 52q0 24 18 41t43 17z" />
    <glyph glyph-name="Lacute" unicode="&#x139;" horiz-adv-x="579" 
d="M275 904l-97 -147h-95l77 147h115zM189 100h363v-100h-471v680h108v-580z" />
    <glyph glyph-name="lacute" unicode="&#x13a;" horiz-adv-x="248" 
d="M155 940h115l-97 -147h-95zM72 710h104v-710h-104v710z" />
    <glyph glyph-name="Lcommaaccent" unicode="&#x13b;" horiz-adv-x="579" 
d="M189 100h363v-100h-471v680h108v-580zM327 -54q26 0 44 -17t18 -42q0 -17 -8 -34t-54 -98h-59l37 81q-39 14 -39 52q0 24 18 41t43 17z" />
    <glyph glyph-name="lcommaaccent" unicode="&#x13c;" horiz-adv-x="248" 
d="M72 710h104v-710h-104v710zM62 -245l37 81q-39 14 -39 52q0 24 18 41t43 17q26 0 44 -17t18 -42q0 -17 -8 -34t-54 -98h-59z" />
    <glyph glyph-name="Lcaron" unicode="&#x13d;" horiz-adv-x="579" 
d="M189 100h363v-100h-471v680h108v-580zM434 680l-33 -195h-79l7 195h105z" />
    <glyph glyph-name="lcaron" unicode="&#x13e;" horiz-adv-x="248" 
d="M72 710h104v-710h-104v710zM232 710h105l-33 -195h-79z" />
    <glyph glyph-name="Ldot" unicode="&#x13f;" horiz-adv-x="579" 
d="M189 100h363v-100h-471v680h108v-580zM385 272q-28 0 -47.5 19t-19.5 46q0 28 19.5 46.5t47.5 18.5t47.5 -18.5t19.5 -46.5q0 -27 -19.5 -46t-47.5 -19z" />
    <glyph glyph-name="ldot" unicode="&#x140;" horiz-adv-x="368" 
d="M72 710h104v-710h-104v710zM275 261q-28 0 -47.5 19t-19.5 46q0 28 19.5 46.5t47.5 18.5t47.5 -18.5t19.5 -46.5q0 -27 -19.5 -46t-47.5 -19z" />
    <glyph glyph-name="Lslash" unicode="&#x141;" horiz-adv-x="579" 
d="M189 100h363v-100h-471v244l-66 -29v91l66 29v345h108v-299l161 70v-91l-161 -70v-190z" />
    <glyph glyph-name="lslash" unicode="&#x142;" horiz-adv-x="248" 
d="M243 474v-106l-67 -30v-338h-104v292l-67 -30v106l67 30v312h104v-266z" />
    <glyph glyph-name="Nacute" unicode="&#x143;" horiz-adv-x="757" 
d="M520 904l-97 -147h-95l77 147h115zM569 680h107v-680h-86l-401 480v-480h-108v680h83l405 -490v490z" />
    <glyph glyph-name="nacute" unicode="&#x144;" horiz-adv-x="592" 
d="M441 700l-97 -147h-95l77 147h115zM328 482q92 0 148.5 -59.5t56.5 -160.5v-262h-104v256q0 64 -32 98t-90 34q-74 0 -131 -71v-317h-104v470h104v-42q63 54 152 54z" />
    <glyph glyph-name="Ncommaaccent" unicode="&#x145;" horiz-adv-x="757" 
d="M569 680h107v-680h-86l-401 480v-480h-108v680h83l405 -490v490zM371 -54q26 0 44 -17t18 -42q0 -17 -8 -34t-54 -98h-59l37 81q-39 14 -39 52q0 24 18 41t43 17z" />
    <glyph glyph-name="ncommaaccent" unicode="&#x146;" horiz-adv-x="592" 
d="M328 482q92 0 148.5 -59.5t56.5 -160.5v-262h-104v256q0 64 -32 98t-90 34q-74 0 -131 -71v-317h-104v470h104v-42q63 54 152 54zM301 -54q26 0 44 -17t18 -42q0 -17 -8 -34t-54 -98h-59l37 81q-39 14 -39 52q0 24 18 41t43 17z" />
    <glyph glyph-name="Ncaron" unicode="&#x147;" horiz-adv-x="757" 
d="M428 750h-100l-120 151h98l73 -85l72 85h98zM569 680h107v-680h-86l-401 480v-480h-108v680h83l405 -490v490z" />
    <glyph glyph-name="ncaron" unicode="&#x148;" horiz-adv-x="592" 
d="M349 544h-100l-120 151h98l73 -85l72 85h98zM328 482q92 0 148.5 -59.5t56.5 -160.5v-262h-104v256q0 64 -32 98t-90 34q-74 0 -131 -71v-317h-104v470h104v-42q63 54 152 54z" />
    <glyph glyph-name="Omacron" unicode="&#x14c;" horiz-adv-x="825" 
d="M273 847h279v-85h-279v85zM413 692q147 0 250.5 -102.5t103.5 -249.5t-103.5 -249.5t-250.5 -102.5t-250.5 102.5t-103.5 249.5t103.5 249.5t250.5 102.5zM413 89q104 0 174.5 73t70.5 178t-70.5 178.5t-174.5 73.5t-174.5 -73.5t-70.5 -178.5t70.5 -178t174.5 -73z" />
    <glyph glyph-name="omacron" unicode="&#x14d;" horiz-adv-x="598" 
d="M159 658h279v-85h-279v85zM299 482q109 0 179.5 -69.5t70.5 -177.5t-70.5 -177.5t-179.5 -69.5t-179.5 69.5t-70.5 177.5t70.5 177.5t179.5 69.5zM299 82q64 0 105 43.5t41 109.5q0 67 -41 110t-105 43t-105 -43t-41 -110q0 -66 41 -109.5t105 -43.5z" />
    <glyph glyph-name="Ohungarumlaut" unicode="&#x150;" horiz-adv-x="825" 
d="M354 904h107l-82 -147h-87zM497 904h107l-81 -147h-87zM413 692q147 0 250.5 -102.5t103.5 -249.5t-103.5 -249.5t-250.5 -102.5t-250.5 102.5t-103.5 249.5t103.5 249.5t250.5 102.5zM413 89q104 0 174.5 73t70.5 178t-70.5 178.5t-174.5 73.5t-174.5 -73.5
t-70.5 -178.5t70.5 -178t174.5 -73z" />
    <glyph glyph-name="ohungarumlaut" unicode="&#x151;" horiz-adv-x="598" 
d="M240 701h107l-82 -147h-87zM383 701h107l-81 -147h-87zM299 482q109 0 179.5 -69.5t70.5 -177.5t-70.5 -177.5t-179.5 -69.5t-179.5 69.5t-70.5 177.5t70.5 177.5t179.5 69.5zM299 82q64 0 105 43.5t41 109.5q0 67 -41 110t-105 43t-105 -43t-41 -110q0 -66 41 -109.5
t105 -43.5z" />
    <glyph glyph-name="OE" unicode="&#x152;" horiz-adv-x="1021" 
d="M969 581h-380v-195h340v-99h-340v-187h380v-100h-534q-163 0 -269.5 96.5t-106.5 243.5t106.5 243.5t269.5 96.5h534v-99zM435 101h46v478l-46 1q-120 0 -193.5 -67.5t-73.5 -172.5t73.5 -172t193.5 -67z" />
    <glyph glyph-name="oe" unicode="&#x153;" horiz-adv-x="975" 
d="M691 482q117 0 182.5 -79t50.5 -199h-369q8 -56 44 -90.5t99 -34.5q72 0 100 44h114q-22 -63 -80 -99t-135 -36q-127 0 -198 92q-71 -92 -200 -92q-109 0 -179.5 69.5t-70.5 177.5t70.5 177.5t179.5 69.5q127 0 200 -92q69 92 192 92zM692 394q-56 0 -90.5 -33t-44.5 -85
h264q-4 57 -38.5 87.5t-90.5 30.5zM299 82q64 0 105 43.5t41 109.5q0 67 -41 110t-105 43t-105 -43t-41 -110q0 -66 41 -109.5t105 -43.5z" />
    <glyph glyph-name="Racute" unicode="&#x154;" horiz-adv-x="682" 
d="M450 904l-97 -147h-95l77 147h115zM522 0l-176 230h-157v-230h-108v680h273q115 0 188.5 -61.5t73.5 -163.5q0 -74 -41 -129t-111 -79l190 -247h-132zM189 581v-252h161q70 0 115 34.5t45 91.5t-45 91.5t-115 34.5h-161z" />
    <glyph glyph-name="racute" unicode="&#x155;" horiz-adv-x="378" 
d="M348 700l-97 -147h-95l77 147h115zM176 406q68 74 174 74v-98q-112 -4 -174 -86v-296h-104v470h104v-64z" />
    <glyph glyph-name="Rcommaaccent" unicode="&#x156;" horiz-adv-x="682" 
d="M464 247l190 -247h-132l-176 230h-157v-230h-108v680h273q115 0 188.5 -61.5t73.5 -163.5q0 -74 -41 -129t-111 -79zM189 581v-252h161q70 0 115 34.5t45 91.5t-45 91.5t-115 34.5h-161zM336 -54q26 0 44 -17t18 -42q0 -17 -8 -34t-54 -98h-59l37 81q-39 14 -39 52
q0 24 18 41t43 17z" />
    <glyph glyph-name="rcommaaccent" unicode="&#x157;" horiz-adv-x="378" 
d="M176 406q68 74 174 74v-98q-112 -4 -174 -86v-296h-104v470h104v-64zM121 -54q26 0 44 -17t18 -42q0 -17 -8 -34t-54 -98h-59l37 81q-39 14 -39 52q0 24 18 41t43 17z" />
    <glyph glyph-name="Rcaron" unicode="&#x158;" horiz-adv-x="682" 
d="M358 750h-100l-120 151h98l73 -85l72 85h98zM522 0l-176 230h-157v-230h-108v680h273q115 0 188.5 -61.5t73.5 -163.5q0 -74 -41 -129t-111 -79l190 -247h-132zM189 581v-252h161q70 0 115 34.5t45 91.5t-45 91.5t-115 34.5h-161z" />
    <glyph glyph-name="rcaron" unicode="&#x159;" horiz-adv-x="378" 
d="M256 544h-100l-120 151h98l73 -85l72 85h98zM176 406q68 74 174 74v-98q-112 -4 -174 -86v-296h-104v470h104v-64z" />
    <glyph glyph-name="Sacute" unicode="&#x15a;" horiz-adv-x="666" 
d="M359 904h115l-97 -147h-95zM333 692q50 0 94 -11t83 -34.5t64.5 -65t31.5 -98.5h-106q-19 116 -160 116q-66 0 -105 -27t-39 -76q0 -74 113 -96l95 -19q99 -19 149.5 -63.5t50.5 -120.5q0 -95 -71.5 -152t-188.5 -57q-125 0 -202.5 62t-87.5 171h107q10 -65 59 -101
t130 -36q67 0 105.5 26.5t38.5 73.5q0 73 -107 92l-119 23q-186 35 -186 189q0 93 68.5 148.5t182.5 55.5z" />
    <glyph glyph-name="sacute" unicode="&#x15b;" horiz-adv-x="514" 
d="M283 700h115l-97 -147h-95zM136 155q16 -82 125 -82q47 0 75 15t28 42q0 44 -63 55l-104 18q-139 23 -139 133q0 68 53.5 107.5t142.5 39.5q81 0 140 -35t66 -119h-96q-7 71 -110 71q-44 0 -68.5 -15t-24.5 -40q0 -46 73 -58l88 -14q141 -26 141 -135q0 -72 -56.5 -111
t-148.5 -39q-59 0 -104 15.5t-76.5 54.5t-37.5 98z" />
    <glyph glyph-name="Scedilla" unicode="&#x15e;" horiz-adv-x="666" 
d="M333 692q50 0 94 -11t83 -34.5t64.5 -65t31.5 -98.5h-106q-19 116 -160 116q-66 0 -105 -27t-39 -76q0 -74 113 -96l95 -19q99 -19 149.5 -63.5t50.5 -120.5q0 -95 -71.5 -152t-188.5 -57q-125 0 -202.5 62t-87.5 171h107q10 -65 59 -101t130 -36q67 0 105.5 26.5
t38.5 73.5q0 73 -107 92l-119 23q-186 35 -186 189q0 93 68.5 148.5t182.5 55.5zM402 -59l-57 -153h-90l44 153h103z" />
    <glyph glyph-name="scedilla" unicode="&#x15f;" horiz-adv-x="514" 
d="M136 155q16 -82 125 -82q47 0 75 15t28 42q0 44 -63 55l-104 18q-139 23 -139 133q0 68 53.5 107.5t142.5 39.5q81 0 140 -35t66 -119h-96q-7 71 -110 71q-44 0 -68.5 -15t-24.5 -40q0 -46 73 -58l88 -14q141 -26 141 -135q0 -72 -56.5 -111t-148.5 -39q-59 0 -104 15.5
t-76.5 54.5t-37.5 98zM313 -59l-57 -153h-90l44 153h103z" />
    <glyph glyph-name="Scaron" unicode="&#x160;" horiz-adv-x="666" 
d="M405 901h98l-121 -151h-100l-120 151h98l73 -85zM333 692q50 0 94 -11t83 -34.5t64.5 -65t31.5 -98.5h-106q-19 116 -160 116q-66 0 -105 -27t-39 -76q0 -74 113 -96l95 -19q99 -19 149.5 -63.5t50.5 -120.5q0 -95 -71.5 -152t-188.5 -57q-125 0 -202.5 62t-87.5 171h107
q10 -65 59 -101t130 -36q67 0 105.5 26.5t38.5 73.5q0 73 -107 92l-119 23q-186 35 -186 189q0 93 68.5 148.5t182.5 55.5z" />
    <glyph glyph-name="scaron" unicode="&#x161;" horiz-adv-x="514" 
d="M329 695h98l-121 -151h-100l-120 151h98l73 -85zM136 155q16 -82 125 -82q47 0 75 15t28 42q0 44 -63 55l-104 18q-139 23 -139 133q0 68 53.5 107.5t142.5 39.5q81 0 140 -35t66 -119h-96q-7 71 -110 71q-44 0 -68.5 -15t-24.5 -40q0 -46 73 -58l88 -14
q141 -26 141 -135q0 -72 -56.5 -111t-148.5 -39q-59 0 -104 15.5t-76.5 54.5t-37.5 98z" />
    <glyph glyph-name="uni0162" unicode="&#x162;" horiz-adv-x="645" 
d="M617 680v-99h-241v-581h-107v581h-241v99h589zM229 -212l44 153h103l-57 -153h-90z" />
    <glyph glyph-name="uni0163" unicode="&#x163;" horiz-adv-x="442" 
d="M407 7q-52 -19 -107 -19q-89 0 -136.5 50.5t-47.5 142.5v202h-111v87h111v173h104v-173h174v-87h-174v-202q0 -97 92 -97q37 0 80 18zM173 -212l44 153h103l-57 -153h-90z" />
    <glyph glyph-name="Tcaron" unicode="&#x164;" horiz-adv-x="645" 
d="M371 750h-100l-120 151h98l73 -85l72 85h98zM617 680v-99h-241v-581h-107v581h-241v99h589z" />
    <glyph glyph-name="tcaron" unicode="&#x165;" horiz-adv-x="442" 
d="M385 712l-33 -195h-79l7 195h105zM392 102l15 -95q-52 -19 -107 -19q-89 0 -136.5 50.5t-47.5 142.5v202h-111v87h111v173h104v-173h174v-87h-174v-202q0 -97 92 -97q37 0 80 18z" />
    <glyph glyph-name="Umacron" unicode="&#x16a;" horiz-adv-x="738" 
d="M230 847h279v-85h-279v85zM667 680v-381q0 -143 -81.5 -227t-216.5 -84q-134 0 -216 84.5t-82 226.5v381h108v-381q0 -94 52.5 -152.5t137.5 -58.5t138 58.5t53 152.5v381h107z" />
    <glyph glyph-name="umacron" unicode="&#x16b;" horiz-adv-x="592" 
d="M433 658v-85h-279v85h279zM417 470h103v-470h-103v46q-64 -58 -153 -58q-92 0 -148 60.5t-56 161.5v260h103v-254q0 -64 32.5 -99t89.5 -35q73 0 132 74v314z" />
    <glyph glyph-name="Uring" unicode="&#x16e;" horiz-adv-x="738" 
d="M370 971q49 0 79 -28t30 -74t-30 -74.5t-79 -28.5t-79 28.5t-30 74.5t30 74t79 28zM370 820q22 0 35.5 13.5t13.5 35.5q0 21 -13.5 34.5t-35.5 13.5t-35.5 -13.5t-13.5 -34.5q0 -22 13.5 -35.5t35.5 -13.5zM667 680v-381q0 -143 -81.5 -227t-216.5 -84q-134 0 -216 84.5
t-82 226.5v381h108v-381q0 -94 52.5 -152.5t137.5 -58.5t138 58.5t53 152.5v381h107z" />
    <glyph glyph-name="uring" unicode="&#x16f;" horiz-adv-x="592" 
d="M294 543q-49 0 -79 28.5t-30 74.5t30 74t79 28t79 -28t30 -74t-30 -74.5t-79 -28.5zM294 694q-22 0 -35.5 -13.5t-13.5 -34.5q0 -22 13.5 -35.5t35.5 -13.5t35.5 13.5t13.5 35.5q0 21 -13.5 34.5t-35.5 13.5zM417 470h103v-470h-103v46q-64 -58 -153 -58q-92 0 -148 60.5
t-56 161.5v260h103v-254q0 -64 32.5 -99t89.5 -35q73 0 132 74v314z" />
    <glyph glyph-name="Uhungarumlaut" unicode="&#x170;" horiz-adv-x="738" 
d="M311 904h107l-82 -147h-87zM454 904h107l-81 -147h-87zM667 680v-381q0 -143 -81.5 -227t-216.5 -84q-134 0 -216 84.5t-82 226.5v381h108v-381q0 -94 52.5 -152.5t137.5 -58.5t138 58.5t53 152.5v381h107z" />
    <glyph glyph-name="uhungarumlaut" unicode="&#x171;" horiz-adv-x="592" 
d="M342 701l-82 -147h-87l62 147h107zM404 554h-87l61 147h107zM417 470h103v-470h-103v46q-64 -58 -153 -58q-92 0 -148 60.5t-56 161.5v260h103v-254q0 -64 32.5 -99t89.5 -35q73 0 132 74v314z" />
    <glyph glyph-name="Uogonek" unicode="&#x172;" horiz-adv-x="738" 
d="M560 680h107v-381q0 -99 -41 -172t-115 -109q-82 -55 -82 -100q0 -20 15.5 -33t46.5 -13q16 0 39 5l11 -87q-28 -7 -63 -7q-62 0 -99 30.5t-37 80.5q0 47 48 95q-7 -1 -21 -1q-134 0 -216 84.5t-82 226.5v381h108v-381q0 -94 52.5 -152.5t137.5 -58.5t138 58.5t53 152.5
v381z" />
    <glyph glyph-name="uogonek" unicode="&#x173;" horiz-adv-x="592" 
d="M551 -92l10 -77q-24 -10 -63 -10q-62 0 -100.5 30.5t-38.5 80.5q0 54 58 87v27q-64 -58 -153 -58q-92 0 -148 60.5t-56 161.5v260h103v-254q0 -64 32.5 -99t89.5 -35q73 0 132 74v314h103v-470h-1q-73 -15 -73 -57q0 -40 65 -40q15 0 40 5z" />
    <glyph glyph-name="Wcircumflex" unicode="&#x174;" horiz-adv-x="1049" 
d="M525 842l-73 -85h-98l120 151h100l121 -151h-98zM913 680h114l-228 -684h-106l-168 490l-169 -490h-106l-227 684h113l168 -516l175 516h92l175 -516z" />
    <glyph glyph-name="wcircumflex" unicode="&#x175;" horiz-adv-x="789" 
d="M395 629l-73 -85h-98l120 151h100l121 -151h-98zM653 470h112l-169 -470h-91l-110 326l-111 -326h-91l-169 470h112l102 -314l112 314h89l112 -313z" />
    <glyph glyph-name="Ycircumflex" unicode="&#x176;" horiz-adv-x="683" 
d="M342 842l-73 -85h-98l120 151h100l121 -151h-98zM552 680h119l-275 -448v-232h-109v232l-275 448h119l210 -344z" />
    <glyph glyph-name="ycircumflex" unicode="&#x177;" horiz-adv-x="608" 
d="M307 629l-73 -85h-98l120 151h100l121 -151h-98zM474 471h110l-310 -703h-109l99 225l-240 478h111l177 -368z" />
    <glyph glyph-name="Ydieresis" unicode="&#x178;" horiz-adv-x="683" 
d="M240 758q-28 0 -47.5 19t-19.5 46q0 28 19.5 46.5t47.5 18.5t47.5 -18.5t19.5 -46.5q0 -27 -19.5 -46t-47.5 -19zM443 758q-28 0 -47.5 19t-19.5 46q0 28 19.5 46.5t47.5 18.5t47.5 -18.5t19.5 -46.5q0 -27 -19.5 -46t-47.5 -19zM552 680h119l-275 -448v-232h-109v232
l-275 448h119l210 -344z" />
    <glyph glyph-name="Zacute" unicode="&#x179;" horiz-adv-x="654" 
d="M468 904l-97 -147h-95l77 147h115zM219 98h382v-98h-551v52l391 530h-378v98h535v-52z" />
    <glyph glyph-name="zacute" unicode="&#x17a;" horiz-adv-x="496" 
d="M389 700l-97 -147h-95l77 147h115zM457 470v-56l-263 -327h263v-87h-418v49l268 335h-260v86h410z" />
    <glyph glyph-name="Zdotaccent" unicode="&#x17b;" horiz-adv-x="654" 
d="M327 758q-28 0 -47.5 19t-19.5 46q0 28 19.5 46.5t47.5 18.5t47.5 -18.5t19.5 -46.5q0 -27 -19.5 -46t-47.5 -19zM219 98h382v-98h-551v52l391 530h-378v98h535v-52z" />
    <glyph glyph-name="zdotaccent" unicode="&#x17c;" horiz-adv-x="496" 
d="M248 560q-28 0 -47.5 19t-19.5 46q0 28 19.5 46.5t47.5 18.5t47.5 -18.5t19.5 -46.5q0 -27 -19.5 -46t-47.5 -19zM457 470v-56l-263 -327h263v-87h-418v49l268 335h-260v86h410z" />
    <glyph glyph-name="Zcaron" unicode="&#x17d;" horiz-adv-x="654" 
d="M376 750h-100l-120 151h98l73 -85l72 85h98zM219 98h382v-98h-551v52l391 530h-378v98h535v-52z" />
    <glyph glyph-name="zcaron" unicode="&#x17e;" horiz-adv-x="496" 
d="M297 544h-100l-120 151h98l73 -85l72 85h98zM457 470v-56l-263 -327h263v-87h-418v49l268 335h-260v86h410z" />
    <glyph glyph-name="florin" unicode="&#x192;" horiz-adv-x="544" 
d="M426 589q-89 0 -101 -99l-16 -117h169v-88h-181l-25 -191q-12 -91 -60 -143.5t-129 -52.5q-51 0 -106 15l15 90q45 -9 72 -9q44 0 69.5 26.5t31.5 73.5l25 191h-130v88h142l15 117q12 90 60 142.5t129 52.5q52 0 106 -15l-15 -90q-43 9 -71 9z" />
    <glyph glyph-name="uni01CD" unicode="&#x1cd;" horiz-adv-x="749" 
d="M424 750h-100l-120 151h98l73 -85l72 85h98zM611 0l-70 163h-332l-70 -163h-115l301 680h101l300 -680h-115zM249 259h251l-125 293z" />
    <glyph glyph-name="uni01CE" unicode="&#x1ce;" horiz-adv-x="613" 
d="M364 544h-100l-120 151h98l73 -85l72 85h98zM438 470h103v-470h-103v37q-63 -49 -151 -49q-99 0 -168.5 72t-69.5 175t69.5 175t168.5 72q88 0 151 -49v37zM302 82q88 0 136 68v170q-48 68 -136 68q-64 0 -106.5 -44.5t-42.5 -108.5t42.5 -108.5t106.5 -44.5z" />
    <glyph glyph-name="Scommaaccent" unicode="&#x218;" horiz-adv-x="666" 
d="M333 692q50 0 94 -11t83 -34.5t64.5 -65t31.5 -98.5h-106q-19 116 -160 116q-66 0 -105 -27t-39 -76q0 -74 113 -96l95 -19q99 -19 149.5 -63.5t50.5 -120.5q0 -95 -71.5 -152t-188.5 -57q-125 0 -202.5 62t-87.5 171h107q10 -65 59 -101t130 -36q67 0 105.5 26.5
t38.5 73.5q0 73 -107 92l-119 23q-186 35 -186 189q0 93 68.5 148.5t182.5 55.5zM288 -245l37 81q-39 14 -39 52q0 24 18 41t43 17q26 0 44 -17t18 -42q0 -17 -8 -34t-54 -98h-59z" />
    <glyph glyph-name="scommaaccent" unicode="&#x219;" horiz-adv-x="514" 
d="M136 155q16 -82 125 -82q47 0 75 15t28 42q0 44 -63 55l-104 18q-139 23 -139 133q0 68 53.5 107.5t142.5 39.5q81 0 140 -35t66 -119h-96q-7 71 -110 71q-44 0 -68.5 -15t-24.5 -40q0 -46 73 -58l88 -14q141 -26 141 -135q0 -72 -56.5 -111t-148.5 -39q-59 0 -104 15.5
t-76.5 54.5t-37.5 98zM177 -245l37 81q-39 14 -39 52q0 24 18 41t43 17q26 0 44 -17t18 -42q0 -17 -8 -34t-54 -98h-59z" />
    <glyph glyph-name="uni021A" unicode="&#x21a;" horiz-adv-x="645" 
d="M617 680v-99h-241v-581h-107v581h-241v99h589zM304 -54q26 0 44 -17t18 -42q0 -17 -8 -34t-54 -98h-59l37 81q-39 14 -39 52q0 24 18 41t43 17z" />
    <glyph glyph-name="uni021B" unicode="&#x21b;" horiz-adv-x="442" 
d="M407 7q-52 -19 -107 -19q-89 0 -136.5 50.5t-47.5 142.5v202h-111v87h111v173h104v-173h174v-87h-174v-202q0 -97 92 -97q37 0 80 18zM243 -54q26 0 44 -17t18 -42q0 -17 -8 -34t-54 -98h-59l37 81q-39 14 -39 52q0 24 18 41t43 17z" />
    <glyph glyph-name="circumflex" unicode="&#x2c6;" 
d="M373 552l-72 85l-73 -85h-98l120 151h100l121 -151h-98z" />
    <glyph glyph-name="caron" unicode="&#x2c7;" 
d="M373 703h98l-121 -151h-100l-120 151h98l73 -85z" />
    <glyph glyph-name="breve" unicode="&#x2d8;" 
d="M452 692q0 -72 -42.5 -111t-109.5 -39t-109.5 39t-42.5 111h77q0 -41 21.5 -60.5t53.5 -19.5t54 19.5t22 60.5h76z" />
    <glyph glyph-name="dotaccent" unicode="&#x2d9;" 
d="M300 555q-28 0 -47.5 19t-19.5 46q0 28 19.5 46.5t47.5 18.5t47.5 -18.5t19.5 -46.5q0 -27 -19.5 -46t-47.5 -19z" />
    <glyph glyph-name="ring" unicode="&#x2da;" 
d="M298 753q49 0 79 -28t30 -74t-30 -74.5t-79 -28.5t-79 28.5t-30 74.5t30 74t79 28zM298 602q22 0 35.5 13.5t13.5 35.5q0 21 -13.5 34.5t-35.5 13.5t-35.5 -13.5t-13.5 -34.5q0 -22 13.5 -35.5t35.5 -13.5z" />
    <glyph glyph-name="ogonek" unicode="&#x2db;" 
d="M368 2q-73 -15 -73 -57q0 -40 65 -40q15 0 40 5l10 -77q-24 -10 -63 -10q-62 0 -100.5 30.5t-38.5 80.5q0 44 41 76t109 40z" />
    <glyph glyph-name="tilde" unicode="&#x2dc;" 
d="M472 688q0 -41 -16.5 -70t-40.5 -40t-52 -9.5t-52 15.5l-46 28q-26 15 -40.5 6t-14.5 -32h-84q0 41 16.5 69.5t41.5 39t52.5 9.5t50.5 -15l46 -28q28 -15 41.5 -5.5t13.5 32.5h84z" />
    <glyph glyph-name="hungarumlaut" unicode="&#x2dd;" 
d="M242 706h107l-82 -147h-87zM385 706h107l-81 -147h-87z" />
    <glyph glyph-name="uni0326" unicode="&#x326;" horiz-adv-x="0" 
d="M-365 -245l37 81q-39 13 -39 52q0 24 18 41t43 17q26 0 44 -17t18 -42q0 -17 -8 -34t-54 -98h-59z" />
    <glyph glyph-name="Wgrave" unicode="&#x1e80;" horiz-adv-x="1049" 
d="M584 757h-95l-97 147h115zM913 680h114l-228 -684h-106l-168 490l-169 -490h-106l-227 684h113l168 -516l175 516h92l175 -516z" />
    <glyph glyph-name="wgrave" unicode="&#x1e81;" horiz-adv-x="789" 
d="M454 554h-95l-97 147h115zM653 470h112l-169 -470h-91l-110 326l-111 -326h-91l-169 470h112l102 -314l112 314h89l112 -313z" />
    <glyph glyph-name="Wacute" unicode="&#x1e82;" horiz-adv-x="1049" 
d="M666 904l-97 -147h-95l77 147h115zM913 680h114l-228 -684h-106l-168 490l-169 -490h-106l-227 684h113l168 -516l175 516h92l175 -516z" />
    <glyph glyph-name="wacute" unicode="&#x1e83;" horiz-adv-x="789" 
d="M536 700l-97 -147h-95l77 147h115zM653 470h112l-169 -470h-91l-110 326l-111 -326h-91l-169 470h112l102 -314l112 314h89l112 -313z" />
    <glyph glyph-name="Wdieresis" unicode="&#x1e84;" horiz-adv-x="1049" 
d="M423 758q-28 0 -47.5 19t-19.5 46q0 28 19.5 46.5t47.5 18.5t47.5 -18.5t19.5 -46.5q0 -27 -19.5 -46t-47.5 -19zM626 758q-28 0 -47.5 19t-19.5 46q0 28 19.5 46.5t47.5 18.5t47.5 -18.5t19.5 -46.5q0 -27 -19.5 -46t-47.5 -19zM913 680h114l-228 -684h-106l-168 490
l-169 -490h-106l-227 684h113l168 -516l175 516h92l175 -516z" />
    <glyph glyph-name="wdieresis" unicode="&#x1e85;" horiz-adv-x="789" 
d="M294 560q-28 0 -47.5 19t-19.5 46q0 28 19.5 46.5t47.5 18.5t47.5 -18.5t19.5 -46.5q0 -27 -19.5 -46t-47.5 -19zM497 560q-28 0 -47.5 19t-19.5 46q0 28 19.5 46.5t47.5 18.5t47.5 -18.5t19.5 -46.5q0 -27 -19.5 -46t-47.5 -19zM653 470h112l-169 -470h-91l-110 326
l-111 -326h-91l-169 470h112l102 -314l112 314h89l112 -313z" />
    <glyph glyph-name="uni1E9E" unicode="&#x1e9e;" horiz-adv-x="729" 
d="M492 403q87 -9 140.5 -63t53.5 -138q0 -95 -70.5 -155.5t-185.5 -60.5q-70 0 -131 15v96q60 -19 119 -19q72 0 115.5 33t43.5 88q0 51 -42 83t-111 32h-72v51l165 216h-181q-65 0 -104.5 -38.5t-39.5 -100.5v-442h-107v439q0 109 69 175t182 66h324v-65z" />
    <glyph glyph-name="Ygrave" unicode="&#x1ef2;" horiz-adv-x="683" 
d="M401 757h-95l-97 147h115zM552 680h119l-275 -448v-232h-109v232l-275 448h119l210 -344z" />
    <glyph glyph-name="ygrave" unicode="&#x1ef3;" horiz-adv-x="608" 
d="M366 554h-95l-97 147h115zM474 471h110l-310 -703h-109l99 225l-240 478h111l177 -368z" />
    <glyph glyph-name="endash" unicode="&#x2013;" horiz-adv-x="712" 
d="M108 221h497v89h-497v-89z" />
    <glyph glyph-name="emdash" unicode="&#x2014;" horiz-adv-x="1032" 
d="M108 221h816v89h-816v-89z" />
    <glyph glyph-name="quoteleft" unicode="&#x2018;" horiz-adv-x="208" 
d="M173 711l-49 -115q40 -15 40 -53q0 -26 -19 -44t-45 -18q-27 0 -46 18t-19 44q0 20 21 60l54 108h63z" />
    <glyph glyph-name="quoteright" unicode="&#x2019;" horiz-adv-x="208" 
d="M35 482l49 115q-40 15 -40 53q0 26 19 44t45 18q27 0 46 -18t19 -44q0 -20 -21 -60l-54 -108h-63z" />
    <glyph glyph-name="quotesinglbase" unicode="&#x201a;" horiz-adv-x="208" 
d="M35 -111l49 115q-40 15 -40 53q0 26 19 44t45 18q27 0 46 -18t19 -44q0 -20 -21 -60l-54 -108h-63z" />
    <glyph glyph-name="quotedblleft" unicode="&#x201c;" horiz-adv-x="386" 
d="M173 711l-49 -115q40 -15 40 -53q0 -26 -19 -44t-45 -18q-27 0 -46 18t-19 44q0 20 21 60l54 108h63zM351 711l-49 -115q40 -15 40 -53q0 -26 -19 -44t-45 -18q-27 0 -46 18t-19 44q0 20 21 60l54 108h63z" />
    <glyph glyph-name="quotedblright" unicode="&#x201d;" horiz-adv-x="386" 
d="M35 482l49 115q-40 15 -40 53q0 26 19 44t45 18q27 0 46 -18t19 -44q0 -20 -21 -60l-54 -108h-63zM213 482l49 115q-40 15 -40 53q0 26 19 44t45 18q27 0 46 -18t19 -44q0 -20 -21 -60l-54 -108h-63z" />
    <glyph glyph-name="quotedblbase" unicode="&#x201e;" horiz-adv-x="388" 
d="M35 -111l49 115q-40 15 -40 53q0 26 19 44t45 18q27 0 46 -18t19 -44q0 -20 -21 -60l-54 -108h-63zM215 -111l49 115q-40 15 -40 53q0 26 19 44t45 18q27 0 46 -18t19 -44q0 -20 -21 -60l-54 -108h-63z" />
    <glyph glyph-name="dagger" unicode="&#x2020;" horiz-adv-x="407" 
d="M358 532h-120v-218h-69v218h-120v70h120v119h69v-119h120v-70z" />
    <glyph glyph-name="daggerdbl" unicode="&#x2021;" horiz-adv-x="407" 
d="M238 553v-65h120v-70h-120v-104h-69v104h-120v70h120v65h-120v70h120v98h69v-98h120v-70h-120z" />
    <glyph glyph-name="bullet" unicode="&#x2022;" horiz-adv-x="328" 
d="M163 171q-51 0 -89 37.5t-38 88.5t38 88.5t89 37.5q52 0 90 -37.5t38 -88.5t-38 -88.5t-90 -37.5z" />
    <glyph glyph-name="ellipsis" unicode="&#x2026;" horiz-adv-x="637" 
d="M100 -7q-27 0 -46 18t-19 45t19 45t46 18t46.5 -18t19.5 -45t-19.5 -45t-46.5 -18zM315 -7q-27 0 -46 18t-19 45t19 45t46 18t46.5 -18t19.5 -45t-19.5 -45t-46.5 -18zM536 -7q-27 0 -46 18t-19 45t19 45t46 18t46.5 -18t19.5 -45t-19.5 -45t-46.5 -18z" />
    <glyph glyph-name="perthousand" unicode="&#x2030;" horiz-adv-x="1540" 
d="M278 692q83 0 138.5 -53.5t55.5 -138.5q0 -86 -55 -140t-139 -54t-139 54t-55 140q0 85 55.5 138.5t138.5 53.5zM804 680l-460 -680h-74l460 680h74zM278 381q49 0 82.5 33.5t33.5 85.5q0 51 -33.5 84t-82.5 33t-82.5 -33t-33.5 -84q0 -52 33.5 -85.5t82.5 -33.5z
M807 374q84 0 139.5 -53.5t55.5 -138.5q0 -86 -55.5 -140t-139.5 -54q-83 0 -138.5 54t-55.5 140q0 84 55.5 138t138.5 54zM1262 374q84 0 139.5 -53.5t55.5 -138.5q0 -86 -55.5 -140t-139.5 -54q-83 0 -138.5 54t-55.5 140q0 84 55.5 138t138.5 54zM807 63q49 0 82.5 33.5
t33.5 85.5q0 51 -33.5 84t-82.5 33q-48 0 -81.5 -33t-33.5 -84q0 -52 33.5 -85.5t81.5 -33.5zM1262 63q49 0 82.5 33.5t33.5 85.5q0 51 -33.5 84t-82.5 33q-48 0 -81.5 -33t-33.5 -84q0 -52 33.5 -85.5t81.5 -33.5z" />
    <glyph glyph-name="guilsinglleft" unicode="&#x2039;" horiz-adv-x="268" 
d="M133 404h101l-99 -152l99 -151h-101l-99 151z" />
    <glyph glyph-name="guilsinglright" unicode="&#x203a;" horiz-adv-x="268" 
d="M135 404l99 -152l-99 -151h-101l99 151l-99 152h101z" />
    <glyph glyph-name="fraction" unicode="&#x2044;" horiz-adv-x="474" 
d="M504 680l-460 -680h-74l460 680h74z" />
    <glyph glyph-name="uni2070" unicode="&#x2070;" horiz-adv-x="445" 
d="M222 698q88 0 138 -58t50 -149t-50 -149t-138 -58q-86 0 -136.5 58.5t-50.5 148.5t50.5 148.5t136.5 58.5zM222 357q52 0 79.5 38t27.5 96t-27.5 96.5t-79.5 38.5q-51 0 -78.5 -38.5t-27.5 -96.5t27.5 -96t78.5 -38z" />
    <glyph glyph-name="uni2074" unicode="&#x2074;" horiz-adv-x="411" 
d="M376 443v-69h-56v-78h-77v78h-214v50l118 268h81l-105 -249h120v113h77v-113h56z" />
    <glyph glyph-name="uni2075" unicode="&#x2075;" horiz-adv-x="388" 
d="M195 551q69 0 106.5 -35t37.5 -94q0 -58 -41 -96.5t-107 -38.5q-65 0 -105 31.5t-48 86.5h78q15 -49 75 -49q33 0 53.5 18.5t20.5 46.5q0 29 -18.5 46t-52.5 17l-62 -1h-73v209h265v-71h-192v-70h63z" />
    <glyph glyph-name="uni2076" unicode="&#x2076;" horiz-adv-x="382" 
d="M192 568q69 0 112.5 -39.5t43.5 -99.5t-44 -101t-113 -41t-113.5 41t-44.5 99q0 41 38 101l109 164h93l-82 -124h1zM191 351q35 0 57.5 21t22.5 53q0 33 -22.5 53.5t-57.5 20.5q-36 0 -58 -19l-2 -3q-21 -27 -21 -51q0 -32 22.5 -53.5t58.5 -21.5z" />
    <glyph glyph-name="uni2077" unicode="&#x2077;" horiz-adv-x="329" 
d="M20 692h291v-48l-170 -348h-89l157 321h-189v75z" />
    <glyph glyph-name="uni2078" unicode="&#x2078;" horiz-adv-x="405" 
d="M299 502q63 -31 63 -97q0 -54 -43 -87.5t-117 -33.5q-72 0 -115.5 34t-43.5 87q0 65 63 97q-47 28 -47 83q0 50 40 81.5t103 31.5q64 0 104 -31.5t40 -81.5q0 -55 -47 -83zM202 636q-28 0 -46.5 -15.5t-18.5 -40.5q0 -26 18.5 -41.5t46.5 -15.5q29 0 47.5 15.5t18.5 41.5
q0 25 -18.5 40.5t-47.5 15.5zM202 351q33 0 53 16.5t20 42.5t-20 42t-53 16q-32 0 -52 -16t-20 -42t20 -42.5t52 -16.5z" />
    <glyph glyph-name="uni2079" unicode="&#x2079;" horiz-adv-x="382" 
d="M191 701q69 0 113.5 -41t44.5 -99q0 -41 -38 -101l-109 -164h-93l82 124h-1q-69 0 -112.5 39.5t-43.5 99.5t44 101t113 41zM249 508l2 3q21 27 21 51q0 32 -22.5 53.5t-58.5 21.5q-35 0 -57.5 -21t-22.5 -53q0 -33 22.5 -53.5t57.5 -20.5q36 0 58 19z" />
    <glyph glyph-name="uni2080" unicode="&#x2080;" horiz-adv-x="445" 
d="M222 225q88 0 138 -58t50 -149t-50 -149t-138 -58q-86 0 -136.5 58.5t-50.5 148.5t50.5 148.5t136.5 58.5zM222 -116q52 0 79.5 38t27.5 96t-27.5 96.5t-79.5 38.5q-51 0 -78.5 -38.5t-27.5 -96.5t27.5 -96t78.5 -38z" />
    <glyph glyph-name="uni2081" unicode="&#x2081;" horiz-adv-x="327" 
d="M214 -114h104v-66h-288v66h109v246l-104 -30v68l137 44h42v-328z" />
    <glyph glyph-name="uni2082" unicode="&#x2082;" horiz-adv-x="364" 
d="M169 -114h160v-66h-287v41l142 148q35 36 48 54.5t13 39.5q0 23 -16.5 38t-43.5 15q-64 0 -67 -61h-78q2 59 39 94.5t103 35.5t103.5 -34t37.5 -83q0 -57 -72 -134z" />
    <glyph glyph-name="uni2083" unicode="&#x2083;" horiz-adv-x="377" 
d="M282 20q55 -28 55 -88q0 -52 -40.5 -86.5t-106.5 -34.5q-64 0 -104 32t-49 86h79q14 -49 75 -49q32 0 51.5 14.5t19.5 37.5q0 53 -78 53h-32v64h32q28 0 46 15t18 38q0 24 -16 38t-45 14q-27 0 -43 -14t-18 -35h-78q5 54 42 86t96 32q63 0 100 -33.5t37 -86.5t-41 -83z
" />
    <glyph glyph-name="uni2084" unicode="&#x2084;" horiz-adv-x="411" 
d="M376 -33v-69h-56v-78h-77v78h-214v50l118 268h81l-105 -249h120v113h77v-113h56z" />
    <glyph glyph-name="uni2085" unicode="&#x2085;" horiz-adv-x="388" 
d="M195 75q69 0 106.5 -35t37.5 -94q0 -58 -41 -96.5t-107 -38.5q-65 0 -105 31.5t-48 86.5h78q15 -49 75 -49q33 0 53.5 18.5t20.5 46.5q0 29 -18.5 46t-52.5 17l-62 -1h-73v209h265v-71h-192v-70h63z" />
    <glyph glyph-name="uni2086" unicode="&#x2086;" horiz-adv-x="382" 
d="M192 92q69 0 112.5 -39.5t43.5 -99.5t-44 -101t-113 -41t-113.5 41t-44.5 99q0 41 38 101l109 164h93l-82 -124h1zM191 -125q35 0 57.5 21t22.5 53q0 33 -22.5 53.5t-57.5 20.5q-36 0 -58 -19l-2 -3q-21 -27 -21 -51q0 -32 22.5 -53.5t58.5 -21.5z" />
    <glyph glyph-name="uni2087" unicode="&#x2087;" horiz-adv-x="329" 
d="M20 216h291v-48l-170 -348h-89l157 321h-189v75z" />
    <glyph glyph-name="uni2088" unicode="&#x2088;" horiz-adv-x="405" 
d="M299 29q63 -31 63 -97q0 -54 -43 -87.5t-117 -33.5q-72 0 -115.5 34t-43.5 87q0 66 63 97q-47 28 -47 83q0 50 40 81.5t103 31.5q64 0 104 -31.5t40 -81.5q0 -55 -47 -83zM202 163q-28 0 -46.5 -15.5t-18.5 -40.5q0 -26 18.5 -41.5t46.5 -15.5q29 0 47.5 15.5t18.5 41.5
q0 25 -18.5 40.5t-47.5 15.5zM202 -122q33 0 53 16.5t20 42.5t-20 42t-53 16q-32 0 -52 -16t-20 -42t20 -42.5t52 -16.5z" />
    <glyph glyph-name="uni2089" unicode="&#x2089;" horiz-adv-x="382" 
d="M191 226q69 0 113.5 -41t44.5 -99q0 -41 -38 -101l-109 -164h-93l82 124h-1q-69 0 -112.5 39.5t-43.5 99.5t44 101t113 41zM249 33l2 3q21 27 21 51q0 32 -22.5 53.5t-58.5 21.5q-35 0 -57.5 -21t-22.5 -53q0 -33 22.5 -53.5t57.5 -20.5q36 0 58 19z" />
    <glyph glyph-name="Euro" unicode="&#x20ac;" horiz-adv-x="870" 
d="M482 88q84 0 141 45t77 125h111q-24 -123 -113 -197t-216 -74q-115 0 -205.5 63.5t-127.5 167.5h-108v74h91q-3 24 -3 48q0 19 1 28h-89v74h102q32 113 125 181.5t214 68.5q127 0 216 -73t113 -196h-111q-20 80 -77 124.5t-141 44.5q-77 0 -137.5 -40.5t-87.5 -109.5h292
l-19 -74h-291q-1 -9 -1 -28q0 -28 4 -48h270l-19 -74h-227q30 -60 87.5 -95t128.5 -35z" />
    <glyph glyph-name="uni20B9" unicode="&#x20b9;" horiz-adv-x="615" 
d="M544 596h-166q38 -44 48 -100h118v-84h-119q-13 -71 -69.5 -116.5t-141.5 -59.5l267 -236h-154l-256 230v99h103q55 0 92 22t50 61h-242v84h243q-13 40 -50.5 62.5t-92.5 22.5h-103v99h473v-84z" />
    <glyph glyph-name="uni2116" unicode="&#x2116;" horiz-adv-x="1386" 
d="M569 190v490h107v-680h-86l-401 480v-480h-108v680h83zM1055 171q-109 0 -179.5 69.5t-70.5 177.5t70.5 177.5t179.5 69.5t179.5 -69.5t70.5 -177.5t-70.5 -177.5t-179.5 -69.5zM1055 571q-64 0 -105 -43t-41 -110q0 -66 41 -109.5t105 -43.5t105 43.5t41 109.5
q0 67 -41 110t-105 43zM817 0v92h475v-92h-475z" />
    <glyph glyph-name="uni2117" unicode="&#x2117;" horiz-adv-x="845" 
d="M423 695q150 0 257 -102t107 -253t-107 -253t-257 -102t-257 102t-107 253t107 253t257 102zM422 626q-119 0 -205 -83t-86 -203q0 -119 86.5 -202.5t204.5 -83.5t204.5 83.5t86.5 202.5q0 120 -86 203t-205 83zM445 515q60 0 97 -32t37 -84t-37.5 -82t-99.5 -30h-69
v-105h-63v333h135zM444 455h-71v-111h71q32 0 50.5 15t18.5 41q0 25 -18.5 40t-50.5 15z" />
    <glyph glyph-name="trademark" unicode="&#x2122;" horiz-adv-x="691" 
d="M289 679v-57h-101v-235h-59v235h-101v57h261zM644 679v-292h-60v170l-85 -134h-32l-86 134l1 -170h-59v292h44l116 -177l116 177h45z" />
    <glyph glyph-name="oneeighth" unicode="&#x215b;" horiz-adv-x="891" 
d="M642 680h74l-460 -680h-74zM318 285h-288v66h109v246l-104 -30v68l137 44h42v-328h104v-66zM785 209q63 -31 63 -97q0 -54 -43 -87.5t-117 -33.5q-72 0 -115.5 34t-43.5 87q0 66 63 97q-47 28 -47 83q0 50 40 81.5t103 31.5q64 0 104 -31.5t40 -81.5q0 -55 -47 -83z
M688 343q-28 0 -46.5 -15.5t-18.5 -40.5q0 -26 18.5 -41.5t46.5 -15.5q29 0 47.5 15.5t18.5 41.5q0 25 -18.5 40.5t-47.5 15.5zM688 58q33 0 53 16.5t20 42.5t-20 42t-53 16q-32 0 -52 -16t-20 -42t20 -42.5t52 -16.5z" />
    <glyph glyph-name="threeeighths" unicode="&#x215c;" horiz-adv-x="891" 
d="M337 401q0 -52 -40.5 -86.5t-106.5 -34.5q-64 0 -104 32t-49 86h79q14 -49 75 -49q32 0 51.5 14.5t19.5 37.5q0 53 -78 53h-32v64h32q28 0 46 15t18 38q0 24 -16 38t-45 14q-27 0 -43 -14t-18 -35h-78q5 54 42 86t96 32q63 0 100 -33.5t37 -86.5t-41 -83q55 -28 55 -88z
M636 680h74l-460 -680h-74zM785 209q63 -31 63 -97q0 -54 -43 -87.5t-117 -33.5q-72 0 -115.5 34t-43.5 87q0 66 63 97q-47 28 -47 83q0 50 40 81.5t103 31.5q64 0 104 -31.5t40 -81.5q0 -55 -47 -83zM688 343q-28 0 -46.5 -15.5t-18.5 -40.5q0 -26 18.5 -41.5t46.5 -15.5
q29 0 47.5 15.5t18.5 41.5q0 25 -18.5 40.5t-47.5 15.5zM688 58q33 0 53 16.5t20 42.5t-20 42t-53 16q-32 0 -52 -16t-20 -42t20 -42.5t52 -16.5z" />
    <glyph glyph-name="fiveeighths" unicode="&#x215d;" horiz-adv-x="893" 
d="M339 411q0 -58 -41 -96.5t-107 -38.5q-65 0 -105 31.5t-48 86.5h78q15 -49 75 -49q33 0 53.5 18.5t20.5 46.5q0 29 -18.5 46t-52.5 17l-62 -1h-73v209h265v-71h-192v-70h63q69 0 106.5 -35t37.5 -94zM637 680h74l-460 -680h-74zM787 209q63 -31 63 -97q0 -54 -43 -87.5
t-117 -33.5q-72 0 -115.5 34t-43.5 87q0 66 63 97q-47 28 -47 83q0 50 40 81.5t103 31.5q64 0 104 -31.5t40 -81.5q0 -55 -47 -83zM690 343q-28 0 -46.5 -15.5t-18.5 -40.5q0 -26 18.5 -41.5t46.5 -15.5q29 0 47.5 15.5t18.5 41.5q0 25 -18.5 40.5t-47.5 15.5zM690 58
q33 0 53 16.5t20 42.5t-20 42t-53 16q-32 0 -52 -16t-20 -42t20 -42.5t52 -16.5z" />
    <glyph glyph-name="seveneighths" unicode="&#x215e;" horiz-adv-x="806" 
d="M141 285h-89l157 321h-189v75h291v-48zM533 680h74l-460 -680h-74zM701 209q63 -31 63 -97q0 -54 -43 -87.5t-117 -33.5q-72 0 -115.5 34t-43.5 87q0 66 63 97q-47 28 -47 83q0 50 40 81.5t103 31.5q64 0 104 -31.5t40 -81.5q0 -55 -47 -83zM604 343q-28 0 -46.5 -15.5
t-18.5 -40.5q0 -26 18.5 -41.5t46.5 -15.5q29 0 47.5 15.5t18.5 41.5q0 25 -18.5 40.5t-47.5 15.5zM604 58q33 0 53 16.5t20 42.5t-20 42t-53 16q-32 0 -52 -16t-20 -42t20 -42.5t52 -16.5z" />
    <glyph glyph-name="arrowleft" unicode="&#x2190;" horiz-adv-x="766" 
d="M726 292h-510l232 -227l-69 -69l-345 345l345 345l69 -68l-231 -227h509v-99z" />
    <glyph glyph-name="arrowup" unicode="&#x2191;" horiz-adv-x="780" 
d="M341 0v510l-227 -232l-69 69l345 345l345 -345l-68 -69l-227 231v-509h-99z" />
    <glyph glyph-name="arrowright" unicode="&#x2192;" horiz-adv-x="766" 
d="M40 292v99h509l-231 227l69 68l345 -345l-345 -345l-69 69l232 227h-510z" />
    <glyph glyph-name="arrowdown" unicode="&#x2193;" horiz-adv-x="780" 
d="M341 680h99v-509l227 231l68 -69l-345 -345l-345 345l69 69l227 -232v510z" />
    <glyph glyph-name="uni2196" unicode="&#x2196;" horiz-adv-x="801" 
d="M770 69l-69 -70l-514 514l1 -322l-98 1v488h488l1 -98l-323 1z" />
    <glyph glyph-name="uni2197" unicode="&#x2197;" horiz-adv-x="811" 
d="M41 69l514 514l-323 -1l1 98h488v-488l-98 -1l1 322l-514 -514z" />
    <glyph glyph-name="uni2198" unicode="&#x2198;" horiz-adv-x="801" 
d="M31 611l69 70l514 -514l-1 322l98 -1v-488h-488l-1 98l323 -1z" />
    <glyph glyph-name="uni2199" unicode="&#x2199;" horiz-adv-x="795" 
d="M770 611l-514 -514l323 1l-1 -98h-488v488l98 1l-1 -322l514 514z" />
    <glyph glyph-name="minus" unicode="&#x2212;" horiz-adv-x="687" 
d="M108 280v96h472v-96h-472z" />
    <glyph glyph-name="R.ss02" horiz-adv-x="683" 
d="M504 0l-280 230h-35v-230h-108v680h269q120 0 193 -61.5t73 -163.5q0 -96 -65 -156.5t-174 -67.5l279 -231h-152zM189 581v-252h157q74 0 119 34t45 92t-45 92t-119 34h-157z" />
    <glyph glyph-name="Racute.ss02" horiz-adv-x="683" 
d="M466 904l-97 -147h-95l77 147h115zM504 0l-280 230h-35v-230h-108v680h269q120 0 193 -61.5t73 -163.5q0 -96 -65 -156.5t-174 -67.5l279 -231h-152zM189 581v-252h157q74 0 119 34t45 92t-45 92t-119 34h-157z" />
    <glyph glyph-name="Rcaron.ss02" horiz-adv-x="683" 
d="M374 750h-100l-120 151h98l73 -85l72 85h98zM504 0l-280 230h-35v-230h-108v680h269q120 0 193 -61.5t73 -163.5q0 -96 -65 -156.5t-174 -67.5l279 -231h-152zM189 581v-252h157q74 0 119 34t45 92t-45 92t-119 34h-157z" />
    <glyph glyph-name="Rcommaaccent.ss02" horiz-adv-x="683" 
d="M377 231l279 -231h-152l-280 230h-35v-230h-108v680h269q120 0 193 -61.5t73 -163.5q0 -96 -65 -156.5t-174 -67.5zM189 581v-252h157q74 0 119 34t45 92t-45 92t-119 34h-157zM332 -54q26 0 44 -17t18 -42q0 -17 -8 -34t-54 -98h-59l37 81q-39 14 -39 52q0 24 18 41
t43 17z" />
    <glyph glyph-name="Q.ss03" horiz-adv-x="825" 
d="M413 692q147 0 250.5 -102.5t103.5 -249.5t-103.5 -249.5t-250.5 -102.5t-250.5 102.5t-103.5 249.5t103.5 249.5t250.5 102.5zM413 89q104 0 174.5 73t70.5 178t-70.5 178.5t-174.5 73.5t-174.5 -73.5t-70.5 -178.5t70.5 -178t174.5 -73zM388 -65l330 -52l-21 -103
q-181 39 -327 76z" />
    <glyph glyph-name="i.loclTRK" horiz-adv-x="276" 
d="M138 579q-28 0 -47 18t-19 46t19 46t47 18q27 0 46.5 -18.5t19.5 -45.5t-19.5 -45.5t-46.5 -18.5zM87 470h103v-470h-103v470z" />
    <glyph glyph-name="germandbls.case" horiz-adv-x="729" 
d="M492 403q87 -9 140.5 -63t53.5 -138q0 -95 -70.5 -155.5t-185.5 -60.5q-70 0 -131 15v96q60 -19 119 -19q72 0 115.5 33t43.5 88q0 51 -42 83t-111 32h-72v51l165 216h-181q-65 0 -104.5 -38.5t-39.5 -100.5v-442h-107v439q0 109 69 175t182 66h324v-65z" />
    <glyph glyph-name="l.ss01" horiz-adv-x="368" 
d="M176 710v-556q0 -72 66 -72q36 0 77 13l14 -90q-61 -19 -106 -19q-75 0 -115 41t-40 119v564h104z" />
    <glyph glyph-name="lacute.ss01" horiz-adv-x="368" 
d="M153 940h115l-97 -147h-95zM176 710v-556q0 -72 66 -72q36 0 77 13l14 -90q-61 -19 -106 -19q-75 0 -115 41t-40 119v564h104z" />
    <glyph glyph-name="lcaron.ss01" horiz-adv-x="368" 
d="M176 710v-556q0 -72 66 -72q36 0 77 13l14 -90q-61 -19 -106 -19q-75 0 -115 41t-40 119v564h104zM252 710h105l-33 -195h-79z" />
    <glyph glyph-name="lcommaaccent.ss01" horiz-adv-x="368" 
d="M176 710v-556q0 -72 66 -72q36 0 77 13l14 -90q-61 -19 -106 -19q-75 0 -115 41t-40 119v564h104zM140 -245l37 81q-39 14 -39 52q0 24 18 41t43 17q26 0 44 -17t18 -42q0 -17 -8 -34t-54 -98h-59z" />
    <glyph glyph-name="ldot.ss01" horiz-adv-x="400" 
d="M176 710v-556q0 -72 66 -72q36 0 77 13l14 -90q-61 -19 -106 -19q-75 0 -115 41t-40 119v564h104zM305 261q-28 0 -47.5 19t-19.5 46q0 28 19.5 46.5t47.5 18.5t47.5 -18.5t19.5 -46.5q0 -27 -19.5 -46t-47.5 -19z" />
    <glyph glyph-name="lslash.ss01" horiz-adv-x="371" 
d="M319 95l14 -90q-61 -19 -106 -19q-75 0 -115 41t-40 119v144l-63 -28v106l63 28v314h104v-268l82 37v-106l-82 -37v-182q0 -72 66 -72q36 0 77 13z" />
    <glyph glyph-name="y.ss04" horiz-adv-x="601" 
d="M425 470h104v-483q0 -105 -64.5 -167t-169.5 -62q-97 0 -163 53t-76 137h106q7 -43 42.5 -69.5t90.5 -26.5q58 0 94 36t36 99v78q-67 -57 -150 -57q-94 0 -150.5 60.5t-56.5 162.5v239h104v-233q0 -64 32.5 -99t91.5 -35q71 0 129 72v295z" />
    <glyph glyph-name="yacute.ss04" horiz-adv-x="601" 
d="M440 700l-97 -147h-95l77 147h115zM425 470h104v-483q0 -105 -64.5 -167t-169.5 -62q-97 0 -163 53t-76 137h106q7 -43 42.5 -69.5t90.5 -26.5q58 0 94 36t36 99v78q-67 -57 -150 -57q-94 0 -150.5 60.5t-56.5 162.5v239h104v-233q0 -64 32.5 -99t91.5 -35q71 0 129 72
v295z" />
    <glyph glyph-name="ycircumflex.ss04" horiz-adv-x="601" 
d="M299 629l-73 -85h-98l120 151h100l121 -151h-98zM425 470h104v-483q0 -105 -64.5 -167t-169.5 -62q-97 0 -163 53t-76 137h106q7 -43 42.5 -69.5t90.5 -26.5q58 0 94 36t36 99v78q-67 -57 -150 -57q-94 0 -150.5 60.5t-56.5 162.5v239h104v-233q0 -64 32.5 -99t91.5 -35
q71 0 129 72v295z" />
    <glyph glyph-name="ydieresis.ss04" horiz-adv-x="601" 
d="M198 560q-28 0 -47.5 19t-19.5 46q0 28 19.5 46.5t47.5 18.5t47.5 -18.5t19.5 -46.5q0 -27 -19.5 -46t-47.5 -19zM401 560q-28 0 -47.5 19t-19.5 46q0 28 19.5 46.5t47.5 18.5t47.5 -18.5t19.5 -46.5q0 -27 -19.5 -46t-47.5 -19zM425 470h104v-483q0 -105 -64.5 -167
t-169.5 -62q-97 0 -163 53t-76 137h106q7 -43 42.5 -69.5t90.5 -26.5q58 0 94 36t36 99v78q-67 -57 -150 -57q-94 0 -150.5 60.5t-56.5 162.5v239h104v-233q0 -64 32.5 -99t91.5 -35q71 0 129 72v295z" />
    <glyph glyph-name="ygrave.ss04" horiz-adv-x="601" 
d="M358 554h-95l-97 147h115zM425 470h104v-483q0 -105 -64.5 -167t-169.5 -62q-97 0 -163 53t-76 137h106q7 -43 42.5 -69.5t90.5 -26.5q58 0 94 36t36 99v78q-67 -57 -150 -57q-94 0 -150.5 60.5t-56.5 162.5v239h104v-233q0 -64 32.5 -99t91.5 -35q71 0 129 72v295z" />
    <glyph glyph-name="a.ss06" horiz-adv-x="542" 
d="M277 482q93 0 149.5 -44t56.5 -129v-309h-103v36q-71 -48 -151 -48q-89 0 -139 41t-50 112q0 64 48 100t130 36h162v32q0 39 -26.5 61.5t-76.5 22.5q-103 0 -113 -76h-105q6 84 68 124.5t150 40.5zM241 74q73 0 139 48v78h-164q-38 0 -57.5 -17t-19.5 -42q0 -29 26 -48
t76 -19z" />
    <glyph glyph-name="aacute.ss06" horiz-adv-x="542" 
d="M417 700l-97 -147h-95l77 147h115zM277 482q93 0 149.5 -44t56.5 -129v-309h-103v36q-71 -48 -151 -48q-89 0 -139 41t-50 112q0 64 48 100t130 36h162v32q0 39 -26.5 61.5t-76.5 22.5q-103 0 -113 -76h-105q6 84 68 124.5t150 40.5zM241 74q73 0 139 48v78h-164
q-38 0 -57.5 -17t-19.5 -42q0 -29 26 -48t76 -19z" />
    <glyph glyph-name="abreve.ss06" horiz-adv-x="542" 
d="M276 540q-67 0 -109.5 39t-42.5 111h77q0 -41 21.5 -60.5t53.5 -19.5t54 19.5t22 60.5h76q0 -72 -42.5 -111t-109.5 -39zM277 482q93 0 149.5 -44t56.5 -129v-309h-103v36q-71 -48 -151 -48q-89 0 -139 41t-50 112q0 64 48 100t130 36h162v32q0 39 -26.5 61.5t-76.5 22.5
q-103 0 -113 -76h-105q6 84 68 124.5t150 40.5zM241 74q73 0 139 48v78h-164q-38 0 -57.5 -17t-19.5 -42q0 -29 26 -48t76 -19z" />
    <glyph glyph-name="uni01CE.ss06" horiz-adv-x="542" 
d="M325 544h-100l-120 151h98l73 -85l72 85h98zM277 482q93 0 149.5 -44t56.5 -129v-309h-103v36q-71 -48 -151 -48q-89 0 -139 41t-50 112q0 64 48 100t130 36h162v32q0 39 -26.5 61.5t-76.5 22.5q-103 0 -113 -76h-105q6 84 68 124.5t150 40.5zM241 74q73 0 139 48v78
h-164q-38 0 -57.5 -17t-19.5 -42q0 -29 26 -48t76 -19z" />
    <glyph glyph-name="acircumflex.ss06" horiz-adv-x="542" 
d="M276 629l-73 -85h-98l120 151h100l121 -151h-98zM277 482q93 0 149.5 -44t56.5 -129v-309h-103v36q-71 -48 -151 -48q-89 0 -139 41t-50 112q0 64 48 100t130 36h162v32q0 39 -26.5 61.5t-76.5 22.5q-103 0 -113 -76h-105q6 84 68 124.5t150 40.5zM241 74q73 0 139 48v78
h-164q-38 0 -57.5 -17t-19.5 -42q0 -29 26 -48t76 -19z" />
    <glyph glyph-name="adieresis.ss06" horiz-adv-x="542" 
d="M175 560q-28 0 -47.5 19t-19.5 46q0 28 19.5 46.5t47.5 18.5t47.5 -18.5t19.5 -46.5q0 -27 -19.5 -46t-47.5 -19zM378 560q-28 0 -47.5 19t-19.5 46q0 28 19.5 46.5t47.5 18.5t47.5 -18.5t19.5 -46.5q0 -27 -19.5 -46t-47.5 -19zM277 482q93 0 149.5 -44t56.5 -129v-309
h-103v36q-71 -48 -151 -48q-89 0 -139 41t-50 112q0 64 48 100t130 36h162v32q0 39 -26.5 61.5t-76.5 22.5q-103 0 -113 -76h-105q6 84 68 124.5t150 40.5zM241 74q73 0 139 48v78h-164q-38 0 -57.5 -17t-19.5 -42q0 -29 26 -48t76 -19z" />
    <glyph glyph-name="agrave.ss06" horiz-adv-x="542" 
d="M335 554h-95l-97 147h115zM277 482q93 0 149.5 -44t56.5 -129v-309h-103v36q-71 -48 -151 -48q-89 0 -139 41t-50 112q0 64 48 100t130 36h162v32q0 39 -26.5 61.5t-76.5 22.5q-103 0 -113 -76h-105q6 84 68 124.5t150 40.5zM241 74q73 0 139 48v78h-164q-38 0 -57.5 -17
t-19.5 -42q0 -29 26 -48t76 -19z" />
    <glyph glyph-name="amacron.ss06" horiz-adv-x="542" 
d="M415 658v-85h-279v85h279zM277 482q93 0 149.5 -44t56.5 -129v-309h-103v36q-71 -48 -151 -48q-89 0 -139 41t-50 112q0 64 48 100t130 36h162v32q0 39 -26.5 61.5t-76.5 22.5q-103 0 -113 -76h-105q6 84 68 124.5t150 40.5zM241 74q73 0 139 48v78h-164q-38 0 -57.5 -17
t-19.5 -42q0 -29 26 -48t76 -19z" />
    <glyph glyph-name="aogonek.ss06" horiz-adv-x="542" 
d="M514 -92l10 -77q-24 -10 -63 -10q-62 0 -100.5 30.5t-38.5 80.5q0 54 58 87v17q-71 -48 -151 -48q-89 0 -139 41t-50 112q0 64 48 100t130 36h162v32q0 39 -26.5 61.5t-76.5 22.5q-103 0 -113 -76h-105q6 84 68 124.5t150 40.5q93 0 149.5 -44t56.5 -129v-309h-1
q-73 -15 -73 -57q0 -40 65 -40q15 0 40 5zM241 74q73 0 139 48v78h-164q-38 0 -57.5 -17t-19.5 -42q0 -29 26 -48t76 -19z" />
    <glyph glyph-name="aring.ss06" horiz-adv-x="542" 
d="M276 543q-49 0 -79 28.5t-30 74.5t30 74t79 28t79 -28t30 -74t-30 -74.5t-79 -28.5zM276 694q-22 0 -35.5 -13.5t-13.5 -34.5q0 -22 13.5 -35.5t35.5 -13.5t35.5 13.5t13.5 35.5q0 21 -13.5 34.5t-35.5 13.5zM277 482q93 0 149.5 -44t56.5 -129v-309h-103v36
q-71 -48 -151 -48q-89 0 -139 41t-50 112q0 64 48 100t130 36h162v32q0 39 -26.5 61.5t-76.5 22.5q-103 0 -113 -76h-105q6 84 68 124.5t150 40.5zM241 74q73 0 139 48v78h-164q-38 0 -57.5 -17t-19.5 -42q0 -29 26 -48t76 -19z" />
    <glyph glyph-name="atilde.ss06" horiz-adv-x="542" 
d="M246 607q-26 15 -40.5 6t-14.5 -32h-84q0 41 16.5 69.5t41.5 39t52.5 9.5t50.5 -15l46 -28q28 -15 41.5 -5.5t13.5 32.5h84q0 -41 -16.5 -70t-40.5 -40t-52 -9.5t-52 15.5zM277 482q93 0 149.5 -44t56.5 -129v-309h-103v36q-71 -48 -151 -48q-89 0 -139 41t-50 112
q0 64 48 100t130 36h162v32q0 39 -26.5 61.5t-76.5 22.5q-103 0 -113 -76h-105q6 84 68 124.5t150 40.5zM241 74q73 0 139 48v78h-164q-38 0 -57.5 -17t-19.5 -42q0 -29 26 -48t76 -19z" />
    <glyph glyph-name="zero.osf" horiz-adv-x="656" 
d="M329 554q122 0 200 -78t78 -205t-78 -205t-200 -78q-123 0 -201.5 78.5t-78.5 204.5t78.5 204.5t201.5 78.5zM329 83q75 0 125 52.5t50 135.5t-50 135.5t-125 52.5q-76 0 -126.5 -52t-50.5 -136t50.5 -136t126.5 -52z" />
    <glyph glyph-name="one.osf" horiz-adv-x="513" 
d="M334 88h171v-88h-461v88h183v344l-173 -61v99l219 80h61v-462z" />
    <glyph glyph-name="two.osf" horiz-adv-x="555" 
d="M247 88h258v-88h-451v56l147 107q11 8 38 27.5t39 28.5t33.5 26t32 28.5t22.5 26.5t17 29t5 28q0 45 -30 73.5t-87 28.5q-56 0 -90.5 -32.5t-39.5 -87.5h-104q3 97 64.5 154.5t165.5 57.5q106 0 167.5 -56.5t61.5 -141.5q0 -48 -31 -91.5t-63.5 -68.5t-104.5 -72
q-10 -7 -15 -10z" />
    <glyph glyph-name="three.osf" horiz-adv-x="573" 
d="M422 204q100 -47 100 -157q0 -86 -66 -142.5t-166 -56.5q-101 0 -167.5 51t-79.5 139h104q9 -45 47.5 -71.5t95.5 -26.5t94 30t37 77q0 50 -38.5 79.5t-101.5 29.5h-54v87h54q53 0 85.5 30t32.5 78q0 50 -32.5 79.5t-86.5 29.5q-51 0 -84.5 -27t-38.5 -72h-105
q7 87 69 139t159 52q98 0 159 -56t61 -144q0 -100 -78 -148z" />
    <glyph glyph-name="four.osf" horiz-adv-x="640" 
d="M598 99v-92h-98v-141h-104v141h-356v66l198 473h110l-183 -447h231v207h104v-207h98z" />
    <glyph glyph-name="five.osf" horiz-adv-x="589" 
d="M301 292q105 0 170 -60t65 -154q0 -99 -66 -163t-171 -64q-101 0 -167 53t-81 144h105q29 -105 143 -105q60 0 98 37.5t38 94.5q0 56 -40 90.5t-107 34.5h-203v343h422v-96h-323v-155h117z" />
    <glyph glyph-name="six.osf" horiz-adv-x="614" 
d="M308 461q112 0 184.5 -66.5t72.5 -168.5q0 -103 -72.5 -170.5t-185.5 -67.5t-185.5 67t-72.5 168q0 73 59 165l195 292h125l-144 -220q7 1 24 1zM307 75q67 0 110.5 41.5t43.5 103.5t-43.5 104.5t-110.5 42.5q-64 0 -107 -34l-3 -5q-44 -58 -44 -109q0 -61 43.5 -102.5
t110.5 -41.5z" />
    <glyph glyph-name="seven.osf" horiz-adv-x="503" 
d="M13 540h470v-65l-292 -615h-119l276 580h-335v100z" />
    <glyph glyph-name="eight.osf" horiz-adv-x="622" 
d="M456 359q57 -24 87.5 -68t30.5 -101q0 -91 -71.5 -146.5t-191.5 -55.5t-191 55.5t-71 146.5q0 118 117 169q-89 48 -89 146q0 83 65.5 135t168.5 52t168.5 -52t65.5 -135q0 -98 -89 -146zM311 608q-57 0 -93 -31t-36 -78q0 -48 36 -79.5t93 -31.5t93.5 31.5t36.5 79.5
q0 47 -36.5 78t-93.5 31zM311 77q64 0 104.5 34t40.5 86q0 51 -40.5 84t-104.5 33t-104.5 -33t-40.5 -84q0 -53 40.5 -86.5t104.5 -33.5z" />
    <glyph glyph-name="nine.osf" horiz-adv-x="614" 
d="M307 551q113 0 185.5 -67t72.5 -168q0 -73 -59 -165l-195 -292h-125l144 220q-7 -1 -24 -1q-112 0 -184.5 66.5t-72.5 168.5q0 103 72.5 170.5t185.5 67.5zM414 206l3 5q44 58 44 109q0 61 -43.5 102.5t-110.5 41.5t-110.5 -41.5t-43.5 -103.5t43.5 -104.5t110.5 -42.5
q64 0 107 34z" />
    <glyph glyph-name="zero.osf.zero" horiz-adv-x="656" 
d="M329 554q122 0 200 -78t78 -205t-78 -205t-200 -78q-123 0 -201.5 78.5t-78.5 204.5t78.5 204.5t201.5 78.5zM329 459q-76 0 -126.5 -52t-50.5 -136q0 -61 28 -106l253 260q-45 34 -104 34zM329 83q75 0 125 52.5t50 135.5q0 62 -28 107l-254 -260q44 -35 107 -35z" />
    <glyph glyph-name="zero.tf" horiz-adv-x="670" 
d="M335 692q136 0 212 -97t76 -255t-76 -255t-212 -97t-212 97t-76 255t76 255t212 97zM335 85q88 0 133.5 70t45.5 185t-45.5 185t-133.5 70t-134 -70t-46 -185t46 -185t134 -70z" />
    <glyph glyph-name="one.tf" horiz-adv-x="670" 
d="M587 88v-88h-501v88h209v474l-173 -61v99l219 80h61v-592h185z" />
    <glyph glyph-name="two.tf" horiz-adv-x="670" 
d="M270 88h298v-88h-454v56l216 245q48 52 67 75t36.5 55.5t17.5 61.5q0 45 -31 75.5t-89 30.5q-55 0 -89.5 -30.5t-40.5 -85.5h-106q3 95 68 152t171 57t165.5 -57t59.5 -143q0 -53 -30.5 -101t-109.5 -135z" />
    <glyph glyph-name="three.tf" horiz-adv-x="670" 
d="M481 344q100 -47 100 -157q0 -86 -66 -142.5t-166 -56.5q-101 0 -167.5 51t-79.5 139h104q9 -45 47.5 -71.5t95.5 -26.5t94 30t37 77q0 50 -38.5 79.5t-101.5 29.5h-54v87h54q53 0 85.5 30t32.5 78q0 50 -32.5 79.5t-86.5 29.5q-51 0 -84.5 -27t-38.5 -72h-105
q7 87 69 139t159 52q98 0 159 -56t61 -144q0 -100 -78 -148z" />
    <glyph glyph-name="four.tf" horiz-adv-x="670" 
d="M615 233v-92h-98v-141h-104v141h-356v66l198 473h110l-183 -447h231v207h104v-207h98z" />
    <glyph glyph-name="five.tf" horiz-adv-x="670" 
d="M345 429q105 0 170 -60t65 -154q0 -99 -66 -163t-171 -64q-101 0 -167 53t-81 144h105q29 -105 143 -105q60 0 98 37.5t38 94.5q0 56 -40 90.5t-107 34.5h-203v343h422v-96h-323v-155h117z" />
    <glyph glyph-name="six.tf" horiz-adv-x="670" 
d="M334 461q112 0 184.5 -66.5t72.5 -168.5q0 -103 -72.5 -170.5t-185.5 -67.5t-185.5 67t-72.5 168q0 73 59 165l195 292h125l-144 -220q7 1 24 1zM333 75q67 0 110.5 41.5t43.5 103.5t-43.5 104.5t-110.5 42.5q-64 0 -107 -34l-3 -5q-44 -58 -44 -109q0 -61 43.5 -102.5
t110.5 -41.5z" />
    <glyph glyph-name="seven.tf" horiz-adv-x="670" 
d="M105 680h470v-65l-292 -615h-119l276 580h-335v100z" />
    <glyph glyph-name="eight.tf" horiz-adv-x="670" 
d="M480 359q57 -24 87.5 -68t30.5 -101q0 -91 -71.5 -146.5t-191.5 -55.5t-191 55.5t-71 146.5q0 118 117 169q-89 48 -89 146q0 83 65.5 135t168.5 52t168.5 -52t65.5 -135q0 -98 -89 -146zM335 608q-57 0 -93 -31t-36 -78q0 -48 36 -79.5t93 -31.5t93.5 31.5t36.5 79.5
q0 47 -36.5 78t-93.5 31zM335 77q64 0 104.5 34t40.5 86q0 51 -40.5 84t-104.5 33t-104.5 -33t-40.5 -84q0 -53 40.5 -86.5t104.5 -33.5z" />
    <glyph glyph-name="nine.tf" horiz-adv-x="670" 
d="M340 692q113 0 185.5 -67t72.5 -168q0 -73 -59 -165l-195 -292h-125l144 220q-7 -1 -24 -1q-112 0 -184.5 66.5t-72.5 168.5q0 103 72.5 170.5t185.5 67.5zM447 347l3 5q44 58 44 109q0 61 -43.5 102.5t-110.5 41.5t-110.5 -41.5t-43.5 -103.5t43.5 -104.5t110.5 -42.5
q64 0 107 34z" />
    <glyph glyph-name="zero.zero" horiz-adv-x="718" 
d="M360 692q140 0 220 -97t80 -255q0 -157 -80 -254.5t-220 -97.5t-220.5 97.5t-80.5 254.5t80.5 254.5t220.5 97.5zM360 595q-93 0 -143 -70.5t-50 -184.5q0 -95 34 -159l261 383q-43 31 -102 31zM360 85q92 0 141.5 70.5t49.5 184.5q0 97 -35 162l-262 -384
q46 -33 106 -33z" />
    <glyph glyph-name="zero.dnom" horiz-adv-x="445" 
d="M222 405q88 0 138 -58t50 -149t-50 -149t-138 -58q-86 0 -136.5 58.5t-50.5 148.5t50.5 148.5t136.5 58.5zM222 64q52 0 79.5 38t27.5 96t-27.5 96.5t-79.5 38.5q-51 0 -78.5 -38.5t-27.5 -96.5t27.5 -96t78.5 -38z" />
    <glyph glyph-name="one.dnom" horiz-adv-x="327" 
d="M214 66h104v-66h-288v66h109v246l-104 -30v68l137 44h42v-328z" />
    <glyph glyph-name="two.dnom" horiz-adv-x="364" 
d="M169 66h160v-66h-287v41l142 148q35 36 48 54.5t13 39.5q0 23 -16.5 38t-43.5 15q-64 0 -67 -61h-78q2 59 39 94.5t103 35.5t103.5 -34t37.5 -83q0 -57 -72 -134z" />
    <glyph glyph-name="three.dnom" horiz-adv-x="377" 
d="M282 200q55 -28 55 -88q0 -52 -40.5 -86.5t-106.5 -34.5q-64 0 -104 32t-49 86h79q14 -49 75 -49q32 0 51.5 14.5t19.5 37.5q0 53 -78 53h-32v64h32q28 0 46 15t18 38q0 24 -16 38t-45 14q-27 0 -43 -14t-18 -35h-78q5 54 42 86t96 32q63 0 100 -33.5t37 -86.5t-41 -83z
" />
    <glyph glyph-name="four.dnom" horiz-adv-x="411" 
d="M376 147v-69h-56v-78h-77v78h-214v50l118 268h81l-105 -249h120v113h77v-113h56z" />
    <glyph glyph-name="five.dnom" horiz-adv-x="388" 
d="M195 255q69 0 106.5 -35t37.5 -94q0 -58 -41 -96.5t-107 -38.5q-65 0 -105 31.5t-48 86.5h78q15 -49 75 -49q33 0 53.5 18.5t20.5 46.5q0 29 -18.5 46t-52.5 17l-62 -1h-73v209h265v-71h-192v-70h63z" />
    <glyph glyph-name="six.dnom" horiz-adv-x="382" 
d="M192 272q69 0 112.5 -39.5t43.5 -99.5t-44 -101t-113 -41t-113.5 41t-44.5 99q0 41 38 101l109 164h93l-82 -124h1zM191 55q35 0 57.5 21t22.5 53q0 33 -22.5 53.5t-57.5 20.5q-36 0 -58 -19l-2 -3q-21 -27 -21 -51q0 -32 22.5 -53.5t58.5 -21.5z" />
    <glyph glyph-name="seven.dnom" horiz-adv-x="329" 
d="M20 396h291v-48l-170 -348h-89l157 321h-189v75z" />
    <glyph glyph-name="eight.dnom" horiz-adv-x="405" 
d="M299 209q63 -31 63 -97q0 -54 -43 -87.5t-117 -33.5q-72 0 -115.5 34t-43.5 87q0 66 63 97q-47 28 -47 83q0 50 40 81.5t103 31.5q64 0 104 -31.5t40 -81.5q0 -55 -47 -83zM202 343q-28 0 -46.5 -15.5t-18.5 -40.5q0 -26 18.5 -41.5t46.5 -15.5q29 0 47.5 15.5t18.5 41.5
q0 25 -18.5 40.5t-47.5 15.5zM202 58q33 0 53 16.5t20 42.5t-20 42t-53 16q-32 0 -52 -16t-20 -42t20 -42.5t52 -16.5z" />
    <glyph glyph-name="nine.dnom" horiz-adv-x="382" 
d="M191 406q69 0 113.5 -41t44.5 -99q0 -41 -38 -101l-109 -164h-93l82 124h-1q-69 0 -112.5 39.5t-43.5 99.5t44 101t113 41zM249 213l2 3q21 27 21 51q0 32 -22.5 53.5t-58.5 21.5q-35 0 -57.5 -21t-22.5 -53q0 -33 22.5 -53.5t57.5 -20.5q36 0 58 19z" />
    <glyph glyph-name="zero.numr" horiz-adv-x="445" 
d="M222 690q88 0 138 -58t50 -149t-50 -149t-138 -58q-86 0 -136.5 58.5t-50.5 148.5t50.5 148.5t136.5 58.5zM222 349q52 0 79.5 38t27.5 96t-27.5 96.5t-79.5 38.5q-51 0 -78.5 -38.5t-27.5 -96.5t27.5 -96t78.5 -38z" />
    <glyph glyph-name="one.numr" horiz-adv-x="327" 
d="M214 351h104v-66h-288v66h109v246l-104 -30v68l137 44h42v-328z" />
    <glyph glyph-name="two.numr" horiz-adv-x="364" 
d="M169 351h160v-66h-287v41l142 148q35 36 48 54.5t13 39.5q0 23 -16.5 38t-43.5 15q-64 0 -67 -61h-78q2 59 39 94.5t103 35.5t103.5 -34t37.5 -83q0 -57 -72 -134z" />
    <glyph glyph-name="three.numr" horiz-adv-x="377" 
d="M282 489q55 -28 55 -88q0 -52 -40.5 -86.5t-106.5 -34.5q-64 0 -104 32t-49 86h79q14 -49 75 -49q32 0 51.5 14.5t19.5 37.5q0 53 -78 53h-32v64h32q28 0 46 15t18 38q0 24 -16 38t-45 14q-27 0 -43 -14t-18 -35h-78q5 54 42 86t96 32q63 0 100 -33.5t37 -86.5t-41 -83z
" />
    <glyph glyph-name="four.numr" horiz-adv-x="411" 
d="M376 432v-69h-56v-78h-77v78h-214v50l118 268h81l-105 -249h120v113h77v-113h56z" />
    <glyph glyph-name="five.numr" horiz-adv-x="388" 
d="M195 540q69 0 106.5 -35t37.5 -94q0 -58 -41 -96.5t-107 -38.5q-65 0 -105 31.5t-48 86.5h78q15 -49 75 -49q33 0 53.5 18.5t20.5 46.5q0 29 -18.5 46t-52.5 17l-62 -1h-73v209h265v-71h-192v-70h63z" />
    <glyph glyph-name="six.numr" horiz-adv-x="382" 
d="M192 557q69 0 112.5 -39.5t43.5 -99.5t-44 -101t-113 -41t-113.5 41t-44.5 99q0 41 38 101l109 164h93l-82 -124h1zM191 340q35 0 57.5 21t22.5 53q0 33 -22.5 53.5t-57.5 20.5q-36 0 -58 -19l-2 -3q-21 -27 -21 -51q0 -32 22.5 -53.5t58.5 -21.5z" />
    <glyph glyph-name="seven.numr" horiz-adv-x="329" 
d="M20 681h291v-48l-170 -348h-89l157 321h-189v75z" />
    <glyph glyph-name="eight.numr" horiz-adv-x="405" 
d="M299 498q63 -31 63 -97q0 -54 -43 -87.5t-117 -33.5q-72 0 -115.5 34t-43.5 87q0 65 63 97q-47 28 -47 83q0 50 40 81.5t103 31.5q64 0 104 -31.5t40 -81.5q0 -55 -47 -83zM202 632q-28 0 -46.5 -15.5t-18.5 -40.5q0 -26 18.5 -41.5t46.5 -15.5q29 0 47.5 15.5t18.5 41.5
q0 25 -18.5 40.5t-47.5 15.5zM202 347q33 0 53 16.5t20 42.5t-20 42t-53 16q-32 0 -52 -16t-20 -42t20 -42.5t52 -16.5z" />
    <glyph glyph-name="nine.numr" horiz-adv-x="382" 
d="M191 695q69 0 113.5 -41t44.5 -99q0 -41 -38 -101l-109 -164h-93l82 124h-1q-69 0 -112.5 39.5t-43.5 99.5t44 101t113 41zM249 502l2 3q21 27 21 51q0 32 -22.5 53.5t-58.5 21.5q-35 0 -57.5 -21t-22.5 -53q0 -33 22.5 -53.5t57.5 -20.5q36 0 58 19z" />
    <glyph glyph-name="backslash.case" horiz-adv-x="380" 
d="M249 -47l-225 777h107l225 -777h-107z" />
    <glyph glyph-name="periodcentered.case" horiz-adv-x="201" 
d="M100 278q-27 0 -46 18t-19 45t19 45t46 18t46.5 -18t19.5 -45t-19.5 -45t-46.5 -18z" />
    <glyph glyph-name="bullet.case" horiz-adv-x="328" 
d="M163 206q-51 0 -89 37.5t-38 88.5t38 88.5t89 37.5q52 0 90 -37.5t38 -88.5t-38 -88.5t-90 -37.5z" />
    <glyph glyph-name="exclamdown.case" horiz-adv-x="275" 
d="M137 687q28 0 47 -18.5t19 -45.5t-19 -45t-47 -18q-27 0 -46 18t-19 45t19 45.5t46 18.5zM192 0h-109l8 476h93z" />
    <glyph glyph-name="questiondown.case" horiz-adv-x="542" 
d="M304 687q27 0 46 -18.5t19 -45.5t-19 -45t-46 -18t-46.5 18t-19.5 45t19.5 45.5t46.5 18.5zM261 477h82l8 -152h-60q-58 0 -95.5 -34.5t-37.5 -88.5q0 -53 34.5 -87t89.5 -34q47 0 81 26.5t41 70.5h104q-9 -87 -67.5 -138t-153.5 -51q-99 0 -164.5 59t-65.5 153
q0 83 54 135.5t146 60.5z" />
    <glyph glyph-name="slash.case" horiz-adv-x="380" 
d="M131 -47h-107l225 777h107z" />
    <glyph glyph-name="braceleft.case" horiz-adv-x="354" 
d="M227 466q0 -54 -15 -81t-59 -41q44 -14 59 -41t15 -80v-98q0 -36 25 -58.5t65 -22.5v-101q-87 0 -140 50t-53 132v95q0 48 -19.5 63t-70.5 15v92q51 0 70.5 15t19.5 64v94q0 82 53 132t140 50v-101q-41 0 -65.5 -22t-24.5 -59v-97z" />
    <glyph glyph-name="braceright.case" horiz-adv-x="366" 
d="M139 466v97q0 37 -24.5 59t-65.5 22v101q87 0 140 -50t53 -132v-94q0 -49 19.5 -64t70.5 -15v-92q-51 0 -70.5 -15t-19.5 -63v-95q0 -82 -53 -132t-140 -50v101q40 0 65 22.5t25 58.5v98q0 53 15 80t59 41q-44 14 -59 41t-15 81z" />
    <glyph glyph-name="bracketleft.case" horiz-adv-x="365" 
d="M185 631v-578h143v-99h-247v776h247v-99h-143z" />
    <glyph glyph-name="bracketright.case" horiz-adv-x="365" 
d="M180 631h-143v99h247v-776h-247v99h143v578z" />
    <glyph glyph-name="parenleft.case" horiz-adv-x="347" 
d="M167 345q0 -103 34 -170t118 -150l-66 -67q-101 88 -147.5 177.5t-46.5 209.5t46.5 210.5t147.5 178.5l66 -67q-84 -83 -118 -151t-34 -171z" />
    <glyph glyph-name="parenright.case" horiz-adv-x="347" 
d="M94 734q101 -88 147.5 -178.5t46.5 -210.5t-46.5 -209.5t-147.5 -177.5l-66 67q84 83 118 150t34 170t-34 171t-118 151z" />
    <glyph glyph-name="emdash.case" horiz-adv-x="1032" 
d="M108 289h816v89h-816v-89z" />
    <glyph glyph-name="endash.case" horiz-adv-x="712" 
d="M108 289h497v89h-497v-89z" />
    <glyph glyph-name="hyphen.case" horiz-adv-x="555" 
d="M108 285h340v96h-340v-96z" />
    <glyph glyph-name="guillemotleft.case" horiz-adv-x="445" 
d="M133 487h101l-99 -152l99 -151h-101l-99 151zM311 487h101l-99 -152l99 -151h-101l-99 151z" />
    <glyph glyph-name="guillemotright.case" horiz-adv-x="445" 
d="M135 487l99 -152l-99 -151h-101l99 151l-99 152h101zM312 487l99 -152l-99 -151h-101l99 151l-99 152h101z" />
    <glyph glyph-name="guilsinglleft.case" horiz-adv-x="268" 
d="M133 487h101l-99 -152l99 -151h-101l-99 151z" />
    <glyph glyph-name="guilsinglright.case" horiz-adv-x="268" 
d="M135 487l99 -152l-99 -151h-101l99 151l-99 152h101z" />
    <glyph glyph-name="cent.tf" horiz-adv-x="670" 
d="M347 82q47 0 80 24.5t43 64.5h106q-11 -69 -60 -117t-121 -62v-108h-94v108q-89 15 -145.5 82.5t-56.5 160.5q0 92 56.5 159.5t145.5 83.5v121h94v-121q72 -14 121 -62t60 -117h-106q-10 40 -43 64.5t-80 24.5q-64 0 -104 -44t-40 -109t40 -109t104 -44z" />
    <glyph glyph-name="dollar.tf" horiz-adv-x="670" 
d="M403 381q99 -19 149.5 -63.5t50.5 -120.5q0 -84 -57.5 -139.5t-154.5 -66.5v-114h-94v113q-106 11 -170.5 72t-73.5 159h107q10 -65 59 -101t130 -36q67 0 105.5 26.5t38.5 73.5q0 73 -107 92l-119 23q-186 35 -186 189q0 85 58.5 139.5t157.5 63.5v116h94v-119
q87 -12 146 -62t68 -143h-106q-19 116 -160 116q-66 0 -105 -27t-39 -76q0 -74 113 -96z" />
    <glyph glyph-name="Euro.tf" horiz-adv-x="670" 
d="M379 85q83 0 114 48h128q-30 -69 -92.5 -107t-149.5 -38q-110 0 -184 61.5t-102 168.5h-60v74h47q-2 32 -2 48q0 19 1 28h-46v74h55q24 116 99.5 183t191.5 67q92 0 157.5 -43t93.5 -120h-121q-34 66 -130 66q-69 0 -115 -41t-65 -112h280l-20 -74h-271q-1 -9 -1 -28
q0 -18 2 -48h252l-18 -74h-218q46 -133 174 -133z" />
    <glyph glyph-name="florin.tf" horiz-adv-x="670" 
d="M522 589q-89 0 -101 -99l-16 -117h169v-88h-181l-25 -191q-12 -91 -60 -143.5t-129 -52.5q-51 0 -106 15l15 90q45 -9 72 -9q44 0 69.5 26.5t31.5 73.5l25 191h-130v88h142l15 117q12 90 60 142.5t129 52.5q52 0 106 -15l-15 -90q-43 9 -71 9z" />
    <glyph glyph-name="uni20B9.tf" horiz-adv-x="670" 
d="M592 596h-166q38 -44 48 -100h118v-84h-119q-13 -71 -69.5 -116.5t-141.5 -59.5l267 -236h-154l-256 230v99h103q55 0 92 22t50 61h-242v84h243q-13 40 -50.5 62.5t-92.5 22.5h-103v99h473v-84z" />
    <glyph glyph-name="sterling.tf" horiz-adv-x="670" 
d="M236 278v-187h369v-91h-539v91h66v187h-66v91h66v89q0 106 67 170t176 64q100 0 164.5 -54t75.5 -146h-105q-9 50 -44.5 79t-90.5 29q-63 0 -101 -38.5t-38 -103.5v-89h214v-91h-214z" />
    <glyph glyph-name="yen.tf" horiz-adv-x="670" 
d="M623 680l-206 -396h152v-76h-179v-55h179v-76h-179v-77h-109v77h-179v76h179v55h-179v76h152l-206 396h120l167 -332l168 332h120z" />
    <glyph glyph-name="arrowup.ss05" horiz-adv-x="565" 
d="M392 402l64 -64l-257 -255l-63 63l192 192l-194 193l64 63z" />
    <glyph glyph-name="arrowright.ss05" horiz-adv-x="570" 
d="M432 531l-194 -193l192 -192l-63 -63l-257 255l64 64l194 192z" />
    <glyph glyph-name="arrowdown.ss05" horiz-adv-x="697" 
d="M541 465l63 -63l-255 -257l-64 64l-192 194l63 64l193 -194z" />
    <glyph glyph-name="arrowleft.ss05" horiz-adv-x="697" 
d="M604 211l-63 -63l-192 192l-193 -194l-63 64l192 194l64 64z" />
    <glyph glyph-name="at.case" horiz-adv-x="996" 
d="M604 499h92v-225q0 -95 66 -95q45 0 67.5 36.5t22.5 100.5q0 146 -100.5 242.5t-248.5 96.5q-149 0 -253.5 -100t-104.5 -246q0 -145 104 -245t249 -100q127 0 223 76l43 -64q-116 -86 -265 -86q-179 0 -305 120t-126 299t126 299.5t309 120.5q182 0 303.5 -117
t121.5 -294q0 -98 -41 -157.5t-125 -59.5q-99 0 -134 67q-58 -68 -151 -68q-85 0 -142.5 59t-57.5 146q0 88 57.5 146.5t142.5 58.5q73 0 127 -44v33zM492 183q73 0 114 66q-2 30 -2 46v70q-42 64 -112 64q-49 0 -85 -34t-36 -89t36 -89t85 -34z" />
    <glyph glyph-name="bar.case" horiz-adv-x="317" 
d="M110 730h97v-777h-97v777z" />
    <glyph glyph-name="brokenbar.case" horiz-adv-x="317" 
d="M207 730v-338h-97v338h97zM207 290v-337h-97v337h97z" />
    <glyph glyph-name="registered.ss07" horiz-adv-x="845" 
d="M423 695q150 0 257 -102t107 -253t-107 -253t-257 -102t-257 102t-107 253t107 253t257 102zM422 54q118 0 204.5 83.5t86.5 202.5q0 120 -86 203t-205 83t-205 -83t-86 -203q0 -119 86.5 -202.5t204.5 -83.5zM570 399q0 -76 -74 -102l85 -115h-80l-76 105h-60v-105h-64
v333h135q60 0 97 -32t37 -84zM365 455v-111h70q32 0 50.5 15t18.5 41q0 25 -18.5 40t-50.5 15h-70z" />
    <glyph glyph-name="caron.alt" 
d="M251 680h105l-33 -195h-79z" />
    <glyph glyph-name="acute.case" 
d="M317 874h115l-97 -147h-95z" />
    <glyph glyph-name="breve.case" 
d="M452 880q0 -72 -42.5 -111t-109.5 -39t-109.5 39t-42.5 111h77q0 -41 21.5 -60.5t53.5 -19.5t54 19.5t22 60.5h76z" />
    <glyph glyph-name="caron.case" 
d="M373 871h98l-121 -151h-100l-120 151h98l73 -85z" />
    <glyph glyph-name="circumflex.case" 
d="M373 720l-72 85l-73 -85h-98l120 151h100l121 -151h-98z" />
    <glyph glyph-name="dieresis.case" 
d="M199 873q28 0 47.5 -18.5t19.5 -46.5q0 -27 -19.5 -46t-47.5 -19t-47.5 19t-19.5 46q0 28 19.5 46.5t47.5 18.5zM402 873q28 0 47.5 -18.5t19.5 -46.5q0 -27 -19.5 -46t-47.5 -19t-47.5 19t-19.5 46q0 28 19.5 46.5t47.5 18.5z" />
    <glyph glyph-name="dotaccent.case" 
d="M300 743q-28 0 -47.5 19t-19.5 46q0 28 19.5 46.5t47.5 18.5t47.5 -18.5t19.5 -46.5q0 -27 -19.5 -46t-47.5 -19z" />
    <glyph glyph-name="grave.case" 
d="M310 874l77 -147h-95l-97 147h115z" />
    <glyph glyph-name="hungarumlaut.case" 
d="M242 874h107l-82 -147h-87zM385 874h107l-81 -147h-87z" />
    <glyph glyph-name="macron.case" 
d="M160 831h279v-85h-279v85z" />
    <glyph glyph-name="ring.case" 
d="M298 941q49 0 79 -28t30 -74t-30 -74.5t-79 -28.5t-79 28.5t-30 74.5t30 74t79 28zM298 790q22 0 35.5 13.5t13.5 35.5q0 21 -13.5 34.5t-35.5 13.5t-35.5 -13.5t-13.5 -34.5q0 -22 13.5 -35.5t35.5 -13.5z" />
    <glyph glyph-name="tilde.case" 
d="M472 856q0 -41 -16.5 -70t-40.5 -40t-52 -9.5t-52 15.5l-46 28q-26 15 -40.5 6t-14.5 -32h-84q0 41 16.5 69.5t41.5 39t52.5 9.5t50.5 -15l46 -28q28 -15 41.5 -5.5t13.5 32.5h84z" />
    </font>
</defs>
</svg>
