<svg width="168.49" height="189.33" xmlns="http://www.w3.org/2000/svg" viewBox="0 0 168.49 189.33">
    <path class="cls-1" fill="#3d403f" d="M121.08,184.75c-2.8-3.11-7-7.77-13.37-7.9v0h-.28v0c-6.36.13-10.57,4.79-13.38,7.9A34,34,0,0,0,92,188.38l-7.52,1.67C85.93,196.68,90.38,201,95.8,201c4.58,0,7.48-3.21,9.81-5.79.5-.56,1.28-1.42,2-2.08.68.66,1.45,1.52,2,2.08,2.33,2.58,5.23,5.79,9.81,5.79,5.41,0,9.87-4.28,11.34-10.91l-7-1.54S121.62,185.34,121.08,184.75Z" transform="translate(-24.74 -11.63)"/>
    <path class="cls-1" fill="#3d403f" d="M173.83,137.23H41.93V102.29C31.07,94.7,24.74,83.18,24.74,70.48A38.79,38.79,0,0,1,63.49,31.74l1.37,0a58.25,58.25,0,0,1,88.1,0q.76,0,1.53,0a38.79,38.79,0,0,1,38.75,38.74c0,13.32-7.14,25.1-19.41,32.54Zm-111.9-20h91.9V90.42l6-2.62c5-2.2,13.42-7.36,13.42-17.32a18.79,18.79,0,0,0-22.65-18.34l-6.51,1.38L140.3,48a38.23,38.23,0,0,0-62.77,0l-3.76,5.43-6.48-1.33a19.13,19.13,0,0,0-3.8-.38A18.77,18.77,0,0,0,44.74,70.48c0,9.78,7.37,15,11.76,17.28l5.43,2.79Z" transform="translate(-24.74 -11.63)"/>
</svg>